<svg id="Ebene_2" data-name="Ebene 2" xmlns="http://www.w3.org/2000/svg" viewBox="0 0 330.6 310.11">
  <defs>
    <style>
      .cls-1 {
        fill: #56bebf;
      }

      .cls-1, .cls-2, .cls-3 {
        stroke-width: 0px;
      }

      .cls-2 {
        fill: #071411;
      }

      .cls-3 {
        fill: #fff;
      }
    </style>
  </defs>
  <g id="Ebene_1-2" data-name="Ebene 1">
    <path class="cls-1" d="M329.52,186.69c-11.76,16.15-26.87,27.25-41.46,30.46-2.19.48-4.3.7-6.34.7-11.54,0-20.51-7.13-26.26-14.43-1.8,3.57-3.01,7.48-3.5,11.57l-3,24.3c-3.2,25.9-32,39.3-53.4,24.9l-20.1-13.5c-.5-.3-.9-.6-1.4-.9v41.1c0,2.4,1.5,4.5,3.7,5.3,6,2,19.2,6.2,19.2,11s-20.4,2.4-30.1.8c-2.8-.4-4.8-3.1-4.5-6l.6-56.5c-3.1-.6-6.2-.8-9.3-.5,0,0-1.9,22.2-.7,28.2,1.2,6,3.4,29.5,3.4,29.5.2,2.9-1.9,5.5-4.7,5.8-9.7,1.1-30.2,2.9-30.1-2.1.2-4.8,13.5-8.5,19.6-10.2,2.2-.6,3.8-2.7,3.9-5.1,0,0-3-15.6-3.2-19-.3-7.7.6-24.2.6-24.2l-21.4,9.1c-23.6,10-49.5-8.7-48-34.8l1.4-24.4c.27-4.55-.33-9.03-1.71-13.24-5.72,6.22-13.83,11.63-23.88,11.63-2.04,0-4.15-.22-6.34-.7-14.59-3.2-29.71-14.3-41.46-30.45-1.82-2.5-1.27-5.99,1.22-7.81,2.5-1.82,6-1.27,7.81,1.23,10.03,13.76,23.04,23.52,34.83,26.11,10.56,2.33,18.08-5.04,22.15-10.71-1.79-2.31-3.87-4.42-6.22-6.26l-19.1-14.9c-20.6-15.9-17.7-48,5.2-59.7l21.4-10.9c10.3-5.3,17.4-15.4,18.8-27l3-24.3c3.2-25.9,32-39.3,53.4-24.9l20.2,13.5c9.6,6.5,21.8,7.7,32.4,3.2l22.1-9.4c23.6-10,49.5,8.7,48,34.8l-1.4,24.4c-.7,11.7,4.4,23,13.6,30.2l19.1,14.9c20.4,15.9,17.5,48-5.4,59.7l-21.4,10.8c-3.08,1.59-5.88,3.6-8.32,5.96,3.73,5.74,11.65,14.82,23.22,12.27,11.78-2.58,24.8-12.35,34.82-26.11,1.82-2.5,5.32-3.05,7.81-1.23,2.5,1.82,3.05,5.32,1.23,7.81Z"/>
    <g>
      <g>
        <ellipse class="cls-2" cx="194.04" cy="128.26" rx="12.4" ry="8.2" transform="translate(44.87 306.73) rotate(-83.58)"/>
        <circle class="cls-3" cx="193.66" cy="124.79" r="3"/>
      </g>
      <g>
        <ellipse class="cls-2" cx="145.92" cy="123.58" rx="12.4" ry="8.2" transform="translate(6.78 254.75) rotate(-83.58)"/>
        <circle class="cls-3" cx="145.46" cy="120.19" r="3"/>
      </g>
      <path class="cls-2" d="M210.26,173.49c-1.2,10.8-23.7,26.9-48.8,24-25.1-2.9-43.4-23.5-42.2-34.3,1.2-10.8,21.5-4.3,46.6-1.5,25.1,2.8,45.6,1,44.4,11.8Z"/>
    </g>
  </g>
</svg>
