<?xml version="1.0" encoding="UTF-8"?>
<svg id="Ebene_2" data-name="Ebene 2" xmlns="http://www.w3.org/2000/svg" version="1.1" viewBox="0 0 302.7 309.1">
  <defs>
    <style>
      .cls-1 {
        fill: #071411;
      }

      .cls-1, .cls-2, .cls-3 {
        stroke-width: 0px;
      }

      .cls-2 {
        fill: #56bebf;
      }

      .cls-3 {
        fill: #fff;
      }
    </style>
  </defs>
  <g id="Ebene_1-2" data-name="Ebene 1-2">
    <g>
      <path class="cls-2" d="M163.9,111.3c4.5-.5,8.8,4.6,9.5,11.4.8,6.8-2.3,12.7-6.8,13.2-4.5.5-8.8-4.6-9.5-11.4-.8-6.8,2.3-12.7,6.8-13.2Z"/>
      <path class="cls-2" d="M115.8,115.9c4.5-.5,8.8,4.6,9.5,11.4.8,6.8-2.3,12.7-6.8,13.2s-8.8-4.6-9.5-11.4c-.8-6.8,2.3-12.7,6.8-13.2Z"/>
      <path class="cls-2" d="M101,173.5c-1.2-10.8,19.3-9,44.4-11.8,25.1-2.8,45.4-9.3,46.6,1.5,1.2,10.8-17.1,31.4-42.2,34.3-25.1,2.9-47.6-13.2-48.8-24h0Z"/>
      <g>
        <g>
          <path class="cls-1" d="M115.8,115.9c4.5-.5,8.8,4.6,9.5,11.4.8,6.8-2.3,12.7-6.8,13.2s-8.8-4.6-9.5-11.4c-.8-6.8,2.3-12.7,6.8-13.2Z"/>
          <circle class="cls-3" cx="117.6" cy="124.8" r="3"/>
        </g>
        <g>
          <path class="cls-1" d="M163.9,111.3c4.5-.5,8.8,4.6,9.5,11.4.8,6.8-2.3,12.7-6.8,13.2-4.5.5-8.8-4.6-9.5-11.4-.8-6.8,2.3-12.7,6.8-13.2Z"/>
          <circle class="cls-3" cx="165.8" cy="120.2" r="3"/>
        </g>
        <path class="cls-1" d="M101,173.5c-1.2-10.8,19.3-9,44.4-11.8,25.1-2.8,45.4-9.3,46.6,1.5,1.2,10.8-17.1,31.4-42.2,34.3-25.1,2.9-47.6-13.2-48.8-24h0Z"/>
      </g>
    </g>
    <path class="cls-2" d="M13.7,117.5c-20.4,15.9-17.5,48,5.4,59.7l.3.2c-5.6,6.6-9.5,15.5-7.1,26.2,3.2,14.6,14.3,29.7,30.5,41.5,1,.7,2.1,1.1,3.3,1.1,1.7,0,3.4-.8,4.5-2.3,1.8-2.5,1.3-6-1.2-7.8-13.8-10-23.5-23-26.1-34.8-1.8-8,2.1-14.3,6.5-18.6l10.7,5.4c10.3,5.3,17.4,15.4,18.8,27l3,24.3c3.2,25.9,32,39.3,53.4,24.9l8.1-5.5c.2,5.6.3,11.2-.2,13.8-1.2,6-3.4,29.5-3.4,29.5-.2,2.9,1.9,5.5,4.7,5.8,9.7,1.1,30.2,2.9,30.1-2.1-.2-4.8-13.5-8.5-19.6-10.2-2.2-.6-3.8-2.7-3.9-5.1,0,0,3-15.6,3.2-19,.2-4.3-.4-12.8-.9-19.4l2-1.4c.5-.3.9-.6,1.4-.9,2.4-1.5,5.3-3,11.1-4.3,1-.2,2-.3,3.1-.4,3.8,6.2,9,15.3,9.5,19.1.8,6.1,2.7,30.2,2.7,30.2.8,2.8,3.6,4.6,6.3,4,9.5-2.1,29.5-7,27.8-11.7-1.7-4.5-15.5-3.7-21.8-3.4-2.3.1-3.4-1-3.5-3.8,0,0-.4-16.7-1.3-20-.9-3.2-3.7-8.3-6.6-13,1.5.4,2.9.9,4.4,1.4l21.4,9.1c23.6,10,49.5-8.7,48-34.8l-1.4-24.4c-.2-3.2,0-6.4.7-9.5,5.6,3.7,12.7,6.7,20.3,6.7s9.5-1.1,14.2-3.9c12.9-7.4,24-22.6,30.3-41.5,1-2.9-.6-6.1-3.5-7.1-2.9-1-6.1.6-7.1,3.5-5.4,16.1-14.9,29.4-25.3,35.4-5.9,3.4-12.4,3.2-19.5-.5-2-1.1-3.8-2.2-5.3-3.4,2.2-3.8,5.1-7.1,8.7-9.9l19.1-14.9c20.6-15.9,17.7-48-5.2-59.7l-21.4-10.9c-10.3-5.3-17.4-15.4-18.8-27l-3-24.3c-3.2-25.9-32-39.3-53.4-24.9l-20.2,13.5c-9.6,6.5-21.8,7.7-32.4,3.2l-22.1-9.4c-23.6-10-49.5,8.7-48,34.8l1.4,24.4c.7,11.7-4.4,23-13.6,30.2l-19.1,14.9h0ZM118.6,140.6c-4.5.5-8.8-4.6-9.5-11.4-.8-6.8,2.3-12.7,6.8-13.2,4.5-.5,8.8,4.6,9.5,11.4.8,6.8-2.3,12.7-6.8,13.2ZM166.7,135.9c-4.5.5-8.8-4.6-9.5-11.4-.8-6.8,2.3-12.7,6.8-13.2s8.8,4.6,9.5,11.4c.8,6.8-2.3,12.7-6.8,13.2ZM101,173.5c-1.2-10.8,19.3-9,44.4-11.8,25.1-2.8,45.4-9.3,46.6,1.5,1.2,10.8-17.1,31.4-42.2,34.3-25.1,2.9-47.6-13.2-48.8-24h0Z"/>
  </g>
</svg>