<?xml version="1.0" encoding="UTF-8"?>
<svg id="Ebene_2" data-name="Ebene 2" xmlns="http://www.w3.org/2000/svg" version="1.1" viewBox="0 0 283.3 308.9">
  <defs>
    <style>
      .cls-1 {
        fill: #071411;
      }

      .cls-1, .cls-2, .cls-3 {
        stroke-width: 0px;
      }

      .cls-2 {
        fill: #56bebf;
      }

      .cls-3 {
        fill: #fff;
      }
    </style>
  </defs>
  <g id="Ebene_1-2" data-name="Ebene 1-2">
    <g>
      <path class="cls-2" d="M13.7,117.5c-20.4,15.9-17.5,48,5.4,59.7l8.5,4.3c-3.3,11-4.2,30,11.4,40.3,6.1,4,13.7,6.8,22.1,8.3l1.1,9.2c3.2,25.9,32,39.3,53.4,24.9l20.1-13.5c.5-.3.9-.6,1.4-.9.3-.2.6-.4.9-.6-.2,4.8-.7,9.1-1.7,10.9-3.1,5.3-20.2,21.9-20.2,21.9-1.1,2.7,0,5.8,2.5,7,8.8,4.2,27.6,12.7,29.1,7.9,1.4-4.6-9.9-12.5-15.1-16.1-1.9-1.3-2.9-2-.4-4.6,0,0,13.7-10.3,15.1-13.5,1.3-3.3,1.5-10.5,1.3-17.3,3-.6,6-.7,9-.4,0,0,0,0,.1,0,.5,1.8,6.4,22.1,5.5,27.9-1,6-6.1,29.7-6.1,29.7,0,2.9,2.1,5.4,4.9,5.6,9.7.7,30.3,1.8,30-3.2-.4-4.8-13.8-8-20-9.5-2.2-.5-2.9-2-2.3-4.6,0,0,4.4-16.1,4.5-19.5,0-5.3-3.1-16.8-5.1-23.4l21,8.9c23.6,10,49.5-8.7,48-34.8l-1.4-24.4c-.7-11.1,3.9-21.8,12.1-29,3.2,1.1,6.3,3.1,8.8,6.4,7.1,9.7,10.4,25.7,8.9,42.6-.3,3.1,2,5.8,5,6.1.2,0,.3,0,.5,0,2.8,0,5.3-2.2,5.6-5.1,1.9-19.9-2.2-38.2-11-50.3-2.4-3.2-5.1-5.7-8-7.5l10.8-8.4c20.6-15.9,17.7-48-5.2-59.7l-21.4-10.9c-10.3-5.3-17.4-15.4-18.8-27l-3-24.3c-3.2-25.9-32-39.3-53.4-24.9l-20.2,13.5c-9.6,6.5-21.8,7.7-32.4,3.2l-22.1-9.4c-23.6-10-49.5,8.7-48,34.8l1.4,24.4c.7,11.7-4.4,23-13.6,30.2l-19.1,14.9h0ZM125.4,127.3c.8,6.8-2.3,12.7-6.8,13.2s-8.8-4.6-9.5-11.4c-.8-6.8,2.3-12.7,6.8-13.2,4.5-.5,8.8,4.6,9.5,11.4h0ZM166.7,135.9c-4.5.5-8.8-4.6-9.5-11.4-.8-6.8,2.3-12.7,6.8-13.2s8.8,4.6,9.5,11.4c.8,6.8-2.3,12.7-6.8,13.2ZM145.4,161.7c25.1-2.8,45.4-9.3,46.6,1.5,1.2,10.8-17.1,31.4-42.2,34.3-25.1,2.9-47.6-13.2-48.8-24-1.2-10.8,19.3-9,44.4-11.8ZM45.1,212.4c-10.1-6.6-8.8-19.2-7.3-25.8l2.6,1.3c10.3,5.3,17.4,15.4,18.8,27l.4,3.3c-5.6-1.3-10.6-3.2-14.6-5.9h0Z"/>
      <path class="cls-2" d="M163.9,111.3c4.5-.5,8.8,4.6,9.5,11.4.8,6.8-2.3,12.7-6.8,13.2-4.5.5-8.8-4.6-9.5-11.4-.8-6.8,2.3-12.7,6.8-13.2Z"/>
      <path class="cls-2" d="M109.1,129.2c-.8-6.8,2.3-12.7,6.8-13.2,4.5-.5,8.8,4.6,9.5,11.4.8,6.8-2.3,12.7-6.8,13.2s-8.8-4.6-9.5-11.4h0Z"/>
      <path class="cls-2" d="M145.4,161.7c25.1-2.8,45.4-9.3,46.6,1.5,1.2,10.8-17.1,31.4-42.2,34.3-25.1,2.9-47.6-13.2-48.8-24-1.2-10.8,19.3-9,44.4-11.8Z"/>
      <g>
        <g>
          <path class="cls-1" d="M109.1,129.2c-.8-6.8,2.3-12.7,6.8-13.2,4.5-.5,8.8,4.6,9.5,11.4.8,6.8-2.3,12.7-6.8,13.2s-8.8-4.6-9.5-11.4h0Z"/>
          <circle class="cls-3" cx="117.6" cy="124.8" r="3"/>
        </g>
        <g>
          <path class="cls-1" d="M163.9,111.3c4.5-.5,8.8,4.6,9.5,11.4.8,6.8-2.3,12.7-6.8,13.2-4.5.5-8.8-4.6-9.5-11.4-.8-6.8,2.3-12.7,6.8-13.2Z"/>
          <circle class="cls-3" cx="165.8" cy="120.2" r="3"/>
        </g>
        <path class="cls-1" d="M145.4,161.7c25.1-2.8,45.4-9.3,46.6,1.5,1.2,10.8-17.1,31.4-42.2,34.3-25.1,2.9-47.6-13.2-48.8-24-1.2-10.8,19.3-9,44.4-11.8Z"/>
      </g>
    </g>
  </g>
</svg>