<?xml version="1.0" encoding="UTF-8"?>
<svg id="Ebene_2" data-name="Ebene 2" xmlns="http://www.w3.org/2000/svg" viewBox="0 0 283.34 308.9">
  <defs>
    <style>
      .cls-1 {
        fill: #56bebf;
      }

      .cls-1, .cls-2, .cls-3 {
        stroke-width: 0px;
      }

      .cls-2 {
        fill: #071411;
      }

      .cls-3 {
        fill: #fff;
      }
    </style>
  </defs>
  <g id="Ebene_1-2" data-name="Ebene 1">
    <g>
      <path class="cls-1" d="M269.65,117.49l-19.1-14.9c-9.2-7.2-14.3-18.5-13.6-30.2l1.4-24.4c1.5-26.1-24.4-44.8-48-34.8l-22.1,9.4c-10.6,4.5-22.8,3.3-32.4-3.2l-20.2-13.5c-21.4-14.4-50.2-1-53.4,24.9l-3,24.3c-1.4,11.6-8.5,21.7-18.8,27l-21.4,10.9c-22.9,11.7-25.8,43.8-5.2,59.7l10.83,8.45c-2.94,1.81-5.67,4.26-8.04,7.49-8.83,12.05-12.84,30.37-10.99,50.26.27,2.9,2.71,5.08,5.56,5.08.18,0,.35-.01.53-.03,3.07-.29,5.33-3.01,5.04-6.08-1.57-16.96,1.74-32.89,8.87-42.62,2.47-3.37,5.55-5.35,8.79-6.42,8.26,7.22,12.77,17.92,12.11,28.97l-1.4,24.4c-1.5,26.1,24.4,44.8,48,34.8l21.01-8.94c-1.95,6.58-5.1,18.04-5.09,23.37.07,3.41,4.47,19.54,4.47,19.54.67,2.65-.05,4.11-2.28,4.63-6.15,1.47-19.58,4.67-19.96,9.46-.29,4.99,20.27,3.96,30,3.22,2.81-.2,5-2.72,4.91-5.62,0,0-5.12-23.68-6.09-29.72-.94-5.78,4.99-26.15,5.5-27.92.04-.01.09-.01.13-.02,3.01-.29,6.03-.11,9.04.45-.19,6.76,0,13.94,1.3,17.27,1.3,3.14,15.05,13.45,15.05,13.45,2.45,2.63,1.43,3.36-.45,4.65-5.2,3.61-16.54,11.48-15.15,16.08,1.56,4.75,20.32-3.69,29.12-7.93,2.54-1.2,3.67-4.35,2.52-7.02,0,0-17.14-16.58-20.25-21.85-1.06-1.8-1.55-6.05-1.73-10.88.33.2.64.39.95.58.5.3.9.6,1.4.9l20.1,13.5c21.4,14.4,50.2,1,53.4-24.9l1.14-9.24c8.46-1.46,16.03-4.24,22.15-8.27,15.61-10.25,14.66-29.31,11.39-40.29l8.52-4.3c22.9-11.7,25.8-43.8,5.4-59.7ZM157.98,127.34c.77-6.8,5.03-11.91,9.53-11.4,4.51.5,7.53,6.43,6.77,13.24-.77,6.8-5.04,11.91-9.54,11.4s-7.53-6.43-6.76-13.24ZM109.86,122.67c.76-6.81,5.03-11.92,9.53-11.41s7.53,6.44,6.76,13.24c-.76,6.81-5.03,11.91-9.53,11.41-4.5-.51-7.53-6.44-6.76-13.24ZM182.35,173.49c-1.2,10.8-23.7,26.9-48.8,24-25.1-2.9-43.4-23.5-42.2-34.3,1.2-10.8,21.5-4.3,46.6-1.5,25.1,2.8,45.6,1,44.4,11.8ZM238.2,212.44c-4.01,2.64-8.97,4.62-14.56,5.88l.41-3.33c1.4-11.6,8.5-21.7,18.8-27l2.64-1.33c1.54,6.55,2.85,19.13-7.29,25.78Z"/>
      <path class="cls-1" d="M126.15,124.5c-.76,6.81-5.03,11.91-9.53,11.41-4.5-.51-7.53-6.44-6.76-13.24.76-6.81,5.03-11.92,9.53-11.41s7.53,6.44,6.76,13.24Z"/>
      <path class="cls-1" d="M174.28,129.18c-.77,6.8-5.04,11.91-9.54,11.4s-7.53-6.43-6.76-13.24c.77-6.8,5.03-11.91,9.53-11.4,4.51.5,7.53,6.43,6.77,13.24Z"/>
      <path class="cls-1" d="M182.35,173.49c-1.2,10.8-23.7,26.9-48.8,24-25.1-2.9-43.4-23.5-42.2-34.3,1.2-10.8,21.5-4.3,46.6-1.5,25.1,2.8,45.6,1,44.4,11.8Z"/>
      <g>
        <g>
          <path class="cls-2" d="M174.28,129.18c-.77,6.8-5.04,11.91-9.54,11.4s-7.53-6.43-6.76-13.24c.77-6.8,5.03-11.91,9.53-11.4,4.51.5,7.53,6.43,6.77,13.24Z"/>
          <circle class="cls-3" cx="165.76" cy="124.8" r="3"/>
        </g>
        <g>
          <path class="cls-2" d="M126.15,124.5c-.76,6.81-5.03,11.91-9.53,11.41-4.5-.51-7.53-6.44-6.76-13.24.76-6.81,5.03-11.92,9.53-11.41s7.53,6.44,6.76,13.24Z"/>
          <circle class="cls-3" cx="117.56" cy="120.2" r="3"/>
        </g>
        <path class="cls-2" d="M182.35,173.49c-1.2,10.8-23.7,26.9-48.8,24-25.1-2.9-43.4-23.5-42.2-34.3,1.2-10.8,21.5-4.3,46.6-1.5,25.1,2.8,45.6,1,44.4,11.8Z"/>
      </g>
    </g>
  </g>
</svg>