<?xml version="1.0" encoding="UTF-8"?>
<svg id="Ebene_2" data-name="Ebene 2" xmlns="http://www.w3.org/2000/svg" version="1.1" viewBox="0 0 307.7 309.4">
  <defs>
    <style>
      .cls-1 {
        fill: #071411;
      }

      .cls-1, .cls-2, .cls-3 {
        stroke-width: 0px;
      }

      .cls-2 {
        fill: #56bebf;
      }

      .cls-3 {
        fill: #fff;
      }
    </style>
  </defs>
  <g id="Ebene_1-2" data-name="Ebene 1-2">
    <g>
      <path class="cls-2" d="M163.9,111.3c4.5-.5,8.8,4.6,9.5,11.4.8,6.8-2.3,12.7-6.8,13.2-4.5.5-8.8-4.6-9.5-11.4-.8-6.8,2.3-12.7,6.8-13.2Z"/>
      <path class="cls-2" d="M115.8,115.9c4.5-.5,8.8,4.6,9.5,11.4.8,6.8-2.3,12.7-6.8,13.2s-8.8-4.6-9.5-11.4c-.8-6.8,2.3-12.7,6.8-13.2Z"/>
      <path class="cls-2" d="M145.4,161.7c25.1-2.8,45.4-9.3,46.6,1.5,1.2,10.8-17.1,31.4-42.2,34.3s-47.6-13.2-48.8-24c-1.2-10.8,19.3-9,44.4-11.8Z"/>
      <g>
        <g>
          <path class="cls-1" d="M115.8,115.9c4.5-.5,8.8,4.6,9.5,11.4.8,6.8-2.3,12.7-6.8,13.2s-8.8-4.6-9.5-11.4c-.8-6.8,2.3-12.7,6.8-13.2Z"/>
          <circle class="cls-3" cx="117.6" cy="124.8" r="3"/>
        </g>
        <g>
          <path class="cls-1" d="M163.9,111.3c4.5-.5,8.8,4.6,9.5,11.4.8,6.8-2.3,12.7-6.8,13.2-4.5.5-8.8-4.6-9.5-11.4-.8-6.8,2.3-12.7,6.8-13.2Z"/>
          <circle class="cls-3" cx="165.8" cy="120.2" r="3"/>
        </g>
        <path class="cls-1" d="M145.4,161.7c25.1-2.8,45.4-9.3,46.6,1.5,1.2,10.8-17.1,31.4-42.2,34.3s-47.6-13.2-48.8-24c-1.2-10.8,19.3-9,44.4-11.8Z"/>
      </g>
    </g>
    <path class="cls-2" d="M19.1,177.2l2.5,1.3c-4.9,5.6-8.3,13-7.5,22.2,1.3,14.9,10.4,31.3,25,45,1.1,1,2.5,1.5,3.8,1.5s3-.6,4.1-1.8c2.1-2.2,2-5.8-.2-7.9-12.4-11.7-20.4-25.8-21.5-37.9-.6-7,2.7-12.2,6.8-15.9l8.5,4.3c10.3,5.3,17.4,15.4,18.8,27l3,24.3c3.2,25.9,32,39.3,53.4,24.9l19.6-13.2c1.2,7.9,2.3,17.9.9,21.1-2.4,5.6-17.3,24.2-17.3,24.2-.8,2.8.7,5.8,3.4,6.6,9.3,3.1,28.9,9.1,29.9,4.2.8-4.7-9.6-10.1-15.2-13.1-2-1-4.6-1.6-2.5-4.5,0,0,12-13,12.9-16.3,1.3-5.3-1.1-19.3-2.6-27,1.1-.3,2.2-.6,3.6-.9,3.1-.6,6.2-.8,9.3-.5,2.1.3,4.2.8,6.2,1.4,2,7.1,4.8,18.5,3,22.2-2.7,5.5-14.4,26.7-14.4,26.7-.9,2.8.4,5.8,3.1,6.8,9.1,3.5,28.5,10.4,29.7,5.6,1-4.7-10.9-11.6-16.4-14.8-2-1.1-2.3-2.7-.8-5.1,0,0,8.9-14.2,9.9-17.4,1.3-4.2-.8-13.1-2.8-19.8l15.2,6.4c23.6,10,49.5-8.7,48-34.8l-1.4-24.4c-.3-4.7.4-9.4,1.9-13.8,3.8,4.4,8.9,7.9,15.8,9.4,3.4.7,6.9,1.1,10.6,1.1,12.4,0,26.3-4,39.7-11.5,2.7-1.5,3.7-4.9,2.1-7.6-1.5-2.7-4.9-3.6-7.6-2.1-14.8,8.3-30.7,11.8-42.5,9.3-5.3-1.1-9.3-4.2-12.2-9.2,1.7-2.1,3.6-4,5.7-5.6l19.1-14.9c20.6-15.9,17.7-48-5.2-59.7l-21.4-10.9c-10.3-5.3-17.4-15.4-18.8-27l-3-24.3c-3.2-25.9-32-39.3-53.4-24.9l-20.2,13.5c-9.6,6.5-21.8,7.7-32.4,3.2l-22.1-9.4c-23.6-10-49.5,8.7-48,34.8l1.4,24.4c.7,11.7-4.4,23-13.6,30.2l-19.1,14.9c-20.4,15.9-17.5,48,5.4,59.7ZM118.6,140.6c-4.5.5-8.8-4.6-9.5-11.4-.8-6.8,2.3-12.7,6.8-13.2,4.5-.5,8.8,4.6,9.5,11.4.8,6.8-2.3,12.7-6.8,13.2ZM166.7,135.9c-4.5.5-8.8-4.6-9.5-11.4-.8-6.8,2.3-12.7,6.8-13.2s8.8,4.6,9.5,11.4c.8,6.8-2.3,12.7-6.8,13.2ZM145.4,161.7c25.1-2.8,45.4-9.3,46.6,1.5,1.2,10.8-17.1,31.4-42.2,34.3s-47.6-13.2-48.8-24c-1.2-10.8,19.3-9,44.4-11.8Z"/>
  </g>
</svg>