<?xml version="1.0" encoding="UTF-8"?>
<svg id="Ebene_2" data-name="Ebene 2" xmlns="http://www.w3.org/2000/svg" viewBox="0 0 307.67 309.37">
  <defs>
    <style>
      .cls-1 {
        fill: #56bebf;
      }

      .cls-1, .cls-2, .cls-3 {
        stroke-width: 0px;
      }

      .cls-2 {
        fill: #071411;
      }

      .cls-3 {
        fill: #fff;
      }
    </style>
  </defs>
  <g id="Ebene_1-2" data-name="Ebene 1">
    <g>
      <path class="cls-1" d="M150.48,124.5c-.76,6.81-5.03,11.91-9.53,11.41-4.5-.51-7.53-6.44-6.76-13.24.76-6.81,5.03-11.92,9.53-11.41s7.53,6.44,6.76,13.24Z"/>
      <path class="cls-1" d="M198.6,129.18c-.76,6.8-5.03,11.91-9.53,11.4s-7.53-6.43-6.76-13.24c.76-6.8,5.03-11.91,9.53-11.4,4.5.5,7.53,6.43,6.76,13.24Z"/>
      <path class="cls-1" d="M206.68,173.49c-1.2,10.8-23.7,26.9-48.8,24s-43.4-23.5-42.2-34.3c1.2-10.8,21.5-4.3,46.6-1.5,25.1,2.8,45.6,1,44.4,11.8Z"/>
      <g>
        <g>
          <path class="cls-2" d="M198.6,129.18c-.76,6.8-5.03,11.91-9.53,11.4s-7.53-6.43-6.76-13.24c.76-6.8,5.03-11.91,9.53-11.4,4.5.5,7.53,6.43,6.76,13.24Z"/>
          <circle class="cls-3" cx="190.08" cy="124.8" r="3"/>
        </g>
        <g>
          <path class="cls-2" d="M150.48,124.5c-.76,6.81-5.03,11.91-9.53,11.41-4.5-.51-7.53-6.44-6.76-13.24.76-6.81,5.03-11.92,9.53-11.41s7.53,6.44,6.76,13.24Z"/>
          <circle class="cls-3" cx="141.88" cy="120.2" r="3"/>
        </g>
        <path class="cls-2" d="M206.68,173.49c-1.2,10.8-23.7,26.9-48.8,24s-43.4-23.5-42.2-34.3c1.2-10.8,21.5-4.3,46.6-1.5,25.1,2.8,45.6,1,44.4,11.8Z"/>
      </g>
    </g>
    <path class="cls-1" d="M293.98,117.49l-19.1-14.9c-9.2-7.2-14.3-18.5-13.6-30.2l1.4-24.4c1.5-26.1-24.4-44.8-48-34.8l-22.1,9.4c-10.6,4.5-22.8,3.3-32.4-3.2l-20.2-13.5c-21.4-14.4-50.2-1-53.4,24.9l-3,24.3c-1.4,11.6-8.5,21.7-18.8,27l-21.4,10.9c-22.9,11.7-25.8,43.8-5.2,59.7l19.1,14.9c2.14,1.68,4.06,3.58,5.74,5.65-2.82,4.99-6.9,8.09-12.16,9.23-11.79,2.54-27.69-.92-42.53-9.26-2.69-1.51-6.1-.56-7.61,2.13-1.52,2.7-.56,6.1,2.13,7.62,13.4,7.53,27.36,11.52,39.74,11.52,3.7,0,7.27-.36,10.63-1.08,6.87-1.49,12-4.98,15.77-9.36,1.51,4.35,2.17,9.02,1.89,13.75l-1.4,24.4c-1.5,26.1,24.4,44.8,48,34.8l15.15-6.44c-2,6.75-4.07,15.58-2.78,19.81,1.06,3.24,9.93,17.42,9.93,17.42,1.41,2.34,1.14,3.94-.84,5.08-5.47,3.19-17.4,10.14-16.38,14.83,1.17,4.86,20.55-2.07,29.65-5.59,2.64-1,4.01-4.04,3.08-6.8,0,0-11.74-21.18-14.42-26.68-1.8-3.7.96-15.15,2.97-22.25,2.07-.58,4.15-1.05,6.24-1.38,3.1-.3,6.2-.1,9.3.5,1.34.3,2.52.61,3.58.92-1.52,7.65-3.95,21.65-2.61,26.96.9,3.28,12.86,16.25,12.86,16.25,2.1,2.91-.48,3.48-2.51,4.52-5.62,2.93-16,8.33-15.2,13.07.94,4.91,20.62-1.1,29.88-4.19,2.68-.88,4.19-3.86,3.4-6.65,0,0-14.92-18.61-17.34-24.23-1.39-3.23-.28-13.23.92-21.13l19.62,13.18c21.4,14.4,50.2,1,53.4-24.9l3-24.3c1.4-11.6,8.5-21.7,18.8-27l8.45-4.26c4.09,3.71,7.42,8.93,6.8,15.94-1.07,12.02-9.1,26.17-21.49,37.85-2.24,2.12-2.34,5.66-.22,7.9,1.1,1.17,2.58,1.76,4.06,1.76,1.38,0,2.76-.51,3.84-1.53,14.52-13.71,23.62-30.1,24.95-44.98.82-9.22-2.58-16.6-7.51-22.21l2.52-1.27c22.9-11.7,25.8-43.8,5.4-59.7ZM182.31,127.34c.76-6.8,5.03-11.91,9.53-11.4,4.5.5,7.53,6.43,6.76,13.24-.76,6.8-5.03,11.91-9.53,11.4s-7.53-6.43-6.76-13.24ZM134.19,122.67c.76-6.81,5.03-11.92,9.53-11.41s7.53,6.44,6.76,13.24c-.76,6.81-5.03,11.91-9.53,11.41-4.5-.51-7.53-6.44-6.76-13.24ZM206.68,173.49c-1.2,10.8-23.7,26.9-48.8,24s-43.4-23.5-42.2-34.3c1.2-10.8,21.5-4.3,46.6-1.5,25.1,2.8,45.6,1,44.4,11.8Z"/>
  </g>
</svg>