<?xml version="1.0" encoding="UTF-8"?>
<svg id="Ebene_1" data-name="Ebene 1" xmlns="http://www.w3.org/2000/svg" xmlns:xlink="http://www.w3.org/1999/xlink" xmlns:serif="http://www.serif.com/" version="1.1" viewBox="0 0 1366 768">
  <defs>
    <style>
      .cls-1 {
        fill: #b7b084;
      }

      .cls-1, .cls-2, .cls-3, .cls-4, .cls-5, .cls-6, .cls-7, .cls-8, .cls-9, .cls-10, .cls-11, .cls-12, .cls-13, .cls-14, .cls-15, .cls-16, .cls-17, .cls-18, .cls-19, .cls-20, .cls-21, .cls-22, .cls-23, .cls-24, .cls-25, .cls-26, .cls-27, .cls-28, .cls-29, .cls-30 {
        stroke-width: 0px;
      }

      .cls-2 {
        fill: #f2ea9f;
      }

      .cls-3 {
        fill: #e6e1c1;
      }

      .cls-4 {
        fill: #e51971;
      }

      .cls-5 {
        fill: #b4b5b5;
      }

      .cls-31 {
        mask: url(#mask);
      }

      .cls-6 {
        fill: #ffd800;
      }

      .cls-32 {
        filter: url(#luminosity-noclip);
      }

      .cls-7 {
        fill: #e9e7e6;
      }

      .cls-8 {
        fill: #e5dfbf;
      }

      .cls-9 {
        fill: #c67c11;
      }

      .cls-10 {
        fill: #6c6e6e;
      }

      .cls-11 {
        fill: #c53c3a;
      }

      .cls-12 {
        fill: #4e4f51;
      }

      .cls-12, .cls-33, .cls-25 {
        fill-rule: evenodd;
      }

      .cls-13 {
        fill: #d3cba5;
      }

      .cls-34 {
        stroke: #010101;
      }

      .cls-34, .cls-33, .cls-35 {
        stroke-miterlimit: 10;
      }

      .cls-34, .cls-24, .cls-25, .cls-26 {
        fill: #fff;
      }

      .cls-33, .cls-35 {
        stroke: #000100;
      }

      .cls-33, .cls-35, .cls-23 {
        fill: #000100;
      }

      .cls-14 {
        fill: #faf1a9;
      }

      .cls-15 {
        fill: #c3c6c7;
      }

      .cls-16 {
        fill: #010101;
      }

      .cls-17 {
        fill: #ebe6e6;
      }

      .cls-18 {
        fill: #181717;
      }

      .cls-19 {
        fill: #d8d7d6;
      }

      .cls-20 {
        fill: #d5d1d0;
      }

      .cls-21 {
        fill: #3ba6c7;
      }

      .cls-22 {
        fill: #d1c9a3;
      }

      .cls-36, .cls-24 {
        opacity: .9;
      }

      .cls-37 {
        display: none;
      }

      .cls-27 {
        fill: #5a5a5a;
      }

      .cls-28 {
        fill: #c7cace;
      }

      .cls-29 {
        fill: #f6c546;
      }

      .cls-30 {
        fill: #1e1e22;
      }
    </style>
    <symbol id="Calliope_3_LED_2" data-name="Calliope_3_LED 2" viewBox="0 0 2.3 4.8">
      <g>
        <polygon class="cls-14" points="0 .8 2.3 .8 2.3 4 0 4 0 .8"/>
        <polygon class="cls-17" points="0 4.4 2.3 4.4 2.3 4 0 4 0 4.4"/>
        <polygon class="cls-19" points="0 4.8 2.3 4.8 2.3 4.4 0 4.4 0 4.8"/>
        <polygon class="cls-19" points="0 .4 2.3 .4 2.3 0 0 0 0 .4"/>
        <polygon class="cls-17" points="0 .8 2.3 .8 2.3 .4 0 .4 0 .8"/>
        <circle class="cls-2" cx="1.1" cy="2.4" r=".1"/>
      </g>
    </symbol>
    <symbol id="Calliope_3_Small_LED_2" data-name="Calliope_3_Small_LED 2" viewBox="0 0 1.4 2.8">
      <g>
        <polygon class="cls-14" points="0 .5 1.4 .5 1.4 2.3 0 2.3 0 .5"/>
        <polygon class="cls-17" points="0 2.6 1.4 2.6 1.4 2.3 0 2.3 0 2.6"/>
        <polygon class="cls-19" points="0 2.8 1.4 2.8 1.4 2.6 0 2.6 0 2.8"/>
        <polygon class="cls-19" points="0 .2 1.4 .2 1.4 0 0 0 0 .2"/>
        <polygon class="cls-17" points="0 .5 1.4 .5 1.4 .2 0 .2 0 .5"/>
        <circle class="cls-2" cx=".7" cy="1.4" r=".1"/>
      </g>
    </symbol>
    <filter id="luminosity-noclip" x="781.7" y="308.6" width="168.8" height="127.2" color-interpolation-filters="sRGB" filterUnits="userSpaceOnUse">
      <feFlood flood-color="#fff" result="bg"/>
      <feBlend in="SourceGraphic" in2="bg"/>
    </filter>
    <mask id="mask" x="781.7" y="308.6" width="168.8" height="127.2" maskUnits="userSpaceOnUse">
      <g class="cls-32">
        <g>
          <path class="cls-33" d="M878,362.3l-7.7-7.7,9.2-9.2,7.7,7.7-9.2,9.2Z"/>
          <path class="cls-33" d="M857,376.8v.7c0,0-.5.9-.5.9l-.7.7-.9.4h-.7c0,0-13.5,0-13.5,0h-.7c0,0-.9-.5-.9-.5l-.7-.7-.4-.9v-.7c0,0,0-13.5,0-13.5v-.7c0,0,.5-.9.5-.9l.7-.7.9-.4h.7c0,0,13.5,0,13.5,0h.7c0,0,.9.5.9.5l.7.7.4.9v.7c0,0,0,13.5,0,13.5Z"/>
          <path id="Lautsprecher" class="cls-35" d="M795.4,435.3h44.6c.4,0,.9-.2,1.2-.5l11.6-11.6c.3-.3.5-.7.5-1.2v-44.6c0-.4-.2-.9-.5-1.2l-11.6-11.6c-.3-.3-.7-.5-1.2-.5h-44.6c-.4,0-.9.2-1.2.5l-11.6,11.6c-.3.3-.5.7-.5,1.2v44.6c0,.4.2.9.5,1.2l11.6,11.6c.3.3.7.5,1.2.5Z"/>
          <polygon class="cls-35" points="873.5 354.9 877.6 359.1 880.7 356 880.7 356 880.9 355.8 882.5 354.2 883.1 353.6 883.8 352.9 886.5 350.2 882.3 346.1 878.9 349.5 878.4 350 878.2 350.2 877.8 350.6 877.1 351.3 876.7 351.7 873.5 354.9"/>
          <path class="cls-35" d="M881.4,345.2l.9.9,4.2,4.1,22.4,22.5,4.2,4.1.9.9c.8.8,2.1.8,2.9,0l32.5-32.5c.8-.8.8-2.1,0-2.9l-.9-.9-4.1-4.2-22.5-22.4-4.1-4.1-.9-.9c-.8-.8-2.2-.8-2.9,0l-32.5,32.5c-.8.8-.8,2.1,0,2.9ZM918.4,321.1c-1.6,1.7-4.3,1.7-5.9,0-1.7-1.6-1.7-4.3,0-5.9,1.6-1.6,4.3-1.6,5.9,0,1.6,1.6,1.6,4.3,0,5.9ZM938.1,340.8c1.6-1.7,4.3-1.7,5.9,0,1.6,1.6,1.6,4.3,0,5.9-1.6,1.7-4.3,1.7-5.9,0-1.7-1.6-1.7-4.3,0-5.9ZM912.5,366.4c1.6-1.7,4.3-1.7,5.9,0,1.6,1.6,1.6,4.3,0,5.9-1.6,1.6-4.3,1.6-5.9,0-1.7-1.6-1.7-4.3,0-5.9ZM905.1,333.4c5.7-5.7,15-5.7,20.7,0,5.7,5.7,5.7,15,0,20.7-5.7,5.7-15,5.7-20.7,0-5.7-5.7-5.7-15,0-20.7ZM886.9,340.8c1.6-1.7,4.3-1.7,5.9,0,1.7,1.6,1.7,4.3,0,5.9-1.6,1.7-4.3,1.7-5.9,0-1.7-1.6-1.7-4.3,0-5.9Z"/>
        </g>
      </g>
    </mask>
  </defs>
  <g id="Calliope_mini_3" data-name="Calliope mini 3">
    <path id="Platine" class="cls-30" d="M1019.2,427.1c-.6.2-1.2.4-1.8.6-.8.2-1.5.5-2.3.6-.3,0-.5.1-.8.2-.8.2-1.6.4-2.5.5-.8.1-1.6.2-2.5.3-.3,0-.6,0-.8,0-.8,0-1.7,0-2.5,0-21.2,0-38.3-17.2-38.3-38.3s1.6-12.4,4.3-17.7c1.8-3.5,4.1-6.7,6.9-9.4.2-.2.4-.4.7-.6.4-.4.9-.9,1.3-1.2.4-.3.7-.6,1.1-.9.6-.5,1.4-1.1,2-1.5.7-.5,1.4-.9,2.1-1.4.6-.4,1.3-.8,2-1.1.7-.4,1.4-.7,2.1-1s1.4-.6,2.2-.9c1.2-.5,2.4-.9,3.6-1.1.4-.1.9-.2,1.4-.4.9-.2,1.9-.4,2.8-.6,1.1-.2,2.2-.3,3.3-.3.4,0,.7,0,1.1,0,.5,0,1,0,1.5,0,1.8,0,3.5.1,5.2.4.4,0,.8.1,1.1.2,2,.3,4,.8,5.9,1.5-92.9-37.4-148.3-133.6-133.9-232.8-.2.9-.4,1.8-.6,2.7-.5,1.9-1.1,3.8-1.9,5.7-.3.7-.6,1.4-.9,2-.3.6-.6,1.1-.9,1.7-.4.7-.8,1.4-1.3,2.1-.4.6-.8,1.1-1.1,1.7-.4.6-.9,1.2-1.4,1.8-.4.5-.9,1.1-1.4,1.6-.5.5-1,1-1.5,1.5-.5.5-1,.9-1.6,1.4-.5.5-1.1.9-1.7,1.3-.6.4-1.1.9-1.7,1.3-.6.4-1.2.8-1.8,1.1-.8.5-1.6.9-2.4,1.3-.8.4-1.6.8-2.4,1.1-.3.1-.7.3-1,.4-3.3,1.3-6.7,2.2-10.4,2.5-1.2.1-2.4.2-3.7.2-7.8,0-15-2.3-21-6.2-4.2-2.8-7.8-6.3-10.7-10.5-4.2-6.2-6.7-13.6-6.7-21.7s0-1.4,0-2.1c0-.4,0-.8,0-1.1,0-.7.1-1.4.2-2,0-.4.1-.8.2-1.2,0-.4.1-.9.2-1.3.2-.7.4-1.5.6-2.2.2-.9.5-1.9.9-2.8,0-.3.2-.6.3-.9.1-.4.3-.7.4-1.1.3-.8.7-1.5,1-2.3.4-.7.8-1.4,1.2-2.2,1.2-2.1,2.7-4.1,4.3-6,.5-.6,1.1-1.2,1.7-1.8s.6-.6.9-.9c.3-.3.6-.6.9-.8.6-.5,1.2-1.1,1.9-1.5,0,0,0,0,0,0,.6-.5,1.3-1,1.9-1.4.6-.4,1.1-.8,1.7-1.1-.5.3-1.1.6-1.6,1-.9.5-1.7,1.1-2.6,1.8-28.4,22.7-61.5,38.9-96.8,47.5v56c0,.9-.5,1.7-1.3,2.2-1.2.7-2.7.3-3.4-.9-.4-.8-1.3-1.2-2.2-1.2h-63.5c-.9,0-1.7.5-2.2,1.2-.4.8-1.3,1.3-2.2,1.3-1.4,0-2.5-1.1-2.5-2.5v-56c-33.6-8.2-65.2-23.3-92.7-44.4.6.6,1.2,1.3,1.8,2,0,0,0,0,0,.1.6.7,1.1,1.5,1.7,2.2.3.4.6.8.8,1.3.4.5.7,1.1,1,1.6.3.5.6,1.1.9,1.6,1.7,3.2,2.9,6.7,3.6,10.4,0,.4.2.8.2,1.2.1.7.2,1.4.3,2.1,0,.5.1,1,.1,1.5,0,0,0,0,0,.1h0c0,.8,0,1.5,0,2.3,0,21.3-17.2,38.6-38.5,38.6s-1.3,0-2,0c-1.6,0-3.1-.2-4.6-.5-.9-.1-1.9-.4-2.8-.6-1.2-.3-2.3-.6-3.4-1-1-.4-2-.7-2.9-1.2-.9-.4-1.8-.8-2.7-1.3-.1,0-.3-.1-.4-.3-.8-.4-1.6-.9-2.4-1.4-.9-.6-1.7-1.2-2.5-1.8-.6-.5-1.2-.9-1.8-1.5-.6-.5-1.2-1.1-1.7-1.6-1.7-1.7-3.3-3.7-4.7-5.7-.3-.4-.5-.7-.7-1.1-.3-.5-.6-1-.9-1.5-.3-.5-.5-.9-.8-1.4-.3-.5-.5-1-.8-1.6-.6-1.2-1.1-2.4-1.5-3.7-.1-.4-.3-.8-.4-1.2-.2-.6-.3-1.1-.5-1.7-.2-.8-.4-1.7-.5-2.5l-.2-1.1c0,0,0-.1,0-.2,0,.2,0,.4,0,.6,14.9,99-39.8,195.4-132.1,233.3,2.3-.7,4.6-1.1,7-1.4.6,0,1.2-.1,1.9-.1.6,0,1.3,0,2,0,10.5,0,20,4.2,27,11.1,7.1,7,11.6,16.7,11.6,27.5,0,21.3-17.2,38.6-38.6,38.6s-2.7,0-3.9-.2c-.6,0-1.3-.1-1.9-.2-.6,0-1.3-.2-1.9-.4-1.2-.2-2.5-.6-3.7-.9-1.2-.4-2.4-.8-3.5-1.3.3.1.6.3.9.4,92.5,36.3,148.3,130.5,136.2,228.7.2-.6.4-1.1.6-1.7,0-.3.2-.6.3-.9.1-.3.2-.6.4-.9.2-.6.5-1.2.8-1.7,0-.1,0-.2.1-.4.2-.5.5-.9.7-1.3,0,0,0-.1,0-.2.4-.8.9-1.6,1.4-2.4.1-.2.3-.5.5-.7,0-.1.1-.2.2-.3.3-.4.6-.8.9-1.2.6-.9,1.4-1.8,2.2-2.7,0,0,.1-.1.2-.2,0,0,.1-.1.2-.2.4-.4.7-.8,1.1-1.1h0c.4-.4.9-.9,1.4-1.3.5-.5.9-.9,1.4-1.2.5-.4,1-.8,1.5-1.1.1-.1.2-.2.4-.3.4-.3.8-.6,1.2-.8,1.9-1.3,4-2.5,6.2-3.4,1.3-.6,2.7-1.1,4.1-1.5,1.8-.6,3.7-1,5.7-1.3.6-.1,1.3-.2,2-.2,1.3-.1,2.7-.2,4-.2s2.6,0,3.9.2c.5,0,1,.1,1.5.2.5,0,1,.1,1.5.2.5,0,1,.2,1.5.3,2.5.5,4.9,1.3,7.2,2.3.9.4,1.8.8,2.7,1.3.9.4,1.7.9,2.6,1.5.9.5,1.7,1.1,2.4,1.7.9.6,1.8,1.4,2.6,2.1.6.6,1.2,1.1,1.8,1.7,0,0,0,0,0,0,.6.6,1.1,1.1,1.6,1.7.3.3.5.5.7.8.6.6,1.1,1.3,1.6,2,.5.7,1,1.4,1.5,2.1.6.9,1.1,1.9,1.7,2.9.4.7.8,1.5,1.1,2.3.1.2.2.4.3.6.3.8.6,1.6.9,2.4,0,0,0,.2.1.3.3.9.6,1.8.8,2.8l-5.4-30.6c-.7-3.8,1.3-7.6,4.9-9.2l5.8-1c4.5-.8,8.9,2.2,9.7,6.8l5.9,33.7c.6,3.6,4.1,6,7.8,5.4h0s39.5-7,39.5-7l1.7-.3c3.6-.6,6.1-4.1,5.4-7.7l-5.7-32.1-.3-1.7c-.8-4.5,2.2-8.9,6.7-9.7l5.4-.9c4.1,0,7.5,2.9,8.2,6.9l5.9,33.4c.7,4.2,4.6,7.2,8.9,6.9,11.1-.9,22.3-.9,33.5,0,4.3.4,8.1-2.6,8.9-6.9l5.9-33.4c.7-3.9,3.9-6.7,7.8-7l5.8,1c4.5.8,7.6,5.1,6.8,9.7l-6,33.7c-.6,3.6,1.8,7.1,5.4,7.7h0l39.5,7,1.7.3c3.7.6,7.1-1.8,7.8-5.4l5.7-32.1.3-1.7c.8-4.5,5.1-7.6,9.6-6.8l5.4.9c3.7,1.4,6,5.3,5.2,9.3l-5.2,29.3c.1-.5.3-1,.5-1.5.4-1.4,1-2.7,1.6-4,.7-1.6,1.5-3.1,2.4-4.5.5-.9,1.1-1.7,1.7-2.6,3.7-5,8.7-9.2,14.4-11.9.6-.3,1.1-.5,1.7-.8.6-.3,1.2-.5,1.8-.7.6-.2,1.2-.4,1.8-.6,1.7-.5,3.3-.9,5.1-1.2.5,0,1.1-.2,1.6-.2,1-.1,1.9-.2,2.9-.3.6,0,1.3,0,2,0s1.4,0,2,0c.7,0,1.3,0,2,.1.6,0,1.1.1,1.7.2.8,0,1.5.2,2.3.4.5.1,1,.2,1.5.4,1.3.3,2.5.7,3.8,1.1.5.2,1,.4,1.5.6,1,.4,2,.9,3,1.4.5.2.9.5,1.4.7.6.4,1.3.7,1.9,1.1.3.2.6.4.9.6.5.4.9.7,1.4,1,.6.4,1.1.9,1.7,1.4.4.4.8.7,1.2,1,2.2,2,4.2,4.3,5.9,6.8.2.3.4.6.6.9,1.1,1.7,2.1,3.4,2.9,5.2.1.3.3.7.4,1,.6,1.5,1.1,3.1,1.6,4.7.1.5.3,1,.4,1.5-13.4-98.8,42.3-194.4,135.1-231.3ZM753.5,613.4c0-.7.3-1.4.7-1.9.5-.6,1.3-1,2.2-1,1.6,0,2.9,1.3,2.9,2.9s-1.3,2.9-2.9,2.9-2.9-1.3-2.9-2.9ZM597.1,620c-1.6,0-2.9-1.3-2.9-2.9s1.4-2.9,2.9-2.9,2.9,1.3,2.9,2.9-1.3,2.9-2.9,2.9ZM607.6,618.1c-1.6,0-2.9-1.3-2.9-2.9s1.3-2.9,2.9-2.9,2.9,1.3,2.9,2.9-1.3,2.9-2.9,2.9ZM618,616.3c-1.6,0-2.9-1.3-2.9-2.9s1.3-2.9,2.9-2.9,2.9,1.3,2.9,2.9-1.3,2.9-2.9,2.9ZM766.9,612.3c1.6,0,2.9,1.3,2.9,2.9s-1.3,2.9-2.9,2.9-2.9-1.3-2.9-2.9,1.3-2.9,2.9-2.9ZM777.3,614.1c1.6,0,2.9,1.3,2.9,2.9s-1.3,2.9-2.9,2.9-2.9-1.3-2.9-2.9,1.3-2.9,2.9-2.9ZM591.2,643.6c-.2,0-.4,0-.5,0-1.4,0-2.6-1-2.9-2.4l-1.2-6.6c-.3-1.6.8-3.1,2.4-3.4,1.6-.3,3.1.8,3.4,2.4l1.2,6.6c.3,1.6-.8,3.1-2.4,3.4ZM632.7,636.3c-1.6.3-3.1-.8-3.4-2.4l-1.2-6.6c-.3-1.6.8-3.1,2.4-3.4,1.6-.3,3.1.8,3.4,2.4l1.1,6.6c.3,1.6-.8,3.1-2.4,3.4ZM745.1,633.9c-.3,1.6-1.8,2.7-3.4,2.4-1.6-.3-2.7-1.8-2.4-3.4l1.1-6.6c.3-1.6,1.8-2.7,3.4-2.4,1.6.3,2.7,1.8,2.4,3.4l-1.2,6.6ZM786.7,641.2c-.3,1.6-1.8,2.7-3.4,2.4-1.4-.3-2.4-1.5-2.4-2.9s0-.3,0-.5l1.2-6.6c.3-1.6,1.8-2.7,3.4-2.4,1.6.3,2.7,1.8,2.4,3.4l-1.2,6.6Z"/>
    <g id="Silk-Screen" class="cls-36">
      <path id="Motoren-Pinleiste" class="cls-25" d="M784.8,583h44v-19.7h-44"/>
      <path id="Motoren-Pinleiste-2" data-name="Motoren-Pinleiste" class="cls-25" d="M784.8,530.2h44v-24.6h-44v24.6Z"/>
      <g id="Taste_B" data-name="Taste B">
        <g class="cls-31">
          <path class="cls-25" d="M821,339.5v-1.6c.1,0,.3-1.6.3-1.6l.3-1.6.4-1.6.4-1.5.5-1.5.6-1.5.6-1.4.7-1.4.8-1.3.8-1.3.9-1.3,1-1.2,1-1.2,1.1-1.1,1.1-1.1,1.2-1,1.2-1,1.3-.9,1.3-.8,1.3-.8,1.4-.7,1.4-.6,1.5-.6,1.5-.5,1.5-.4,1.6-.4,1.6-.3,1.6-.2h1.6c0-.1,1.7-.2,1.7-.2h1.7s1.6.2,1.6.2l1.6.2,1.6.3,1.6.4,1.5.4,1.5.5,1.5.6,1.4.6,1.4.7,1.3.8,1.3.8,1.3.9,1.2,1,1.2,1,1.1,1.1,1.1,1.1,1,1.2,1,1.2.9,1.3.8,1.3.8,1.3.7,1.4.6,1.4.6,1.5.5,1.5.4,1.5.4,1.6.3,1.6.2,1.6v1.6c.1,0,.2,1.7.2,1.7v1.7s-.2,1.6-.2,1.6l-.2,1.6-.3,1.6-.4,1.6-.4,1.5-.5,1.5-.6,1.5-.6,1.4-.7,1.4-.8,1.3-.8,1.3-.9,1.3-1,1.2-1,1.2-1.1,1.1-1.1,1.1-1.2,1-1.2,1-1.3.9-1.3.8-1.3.8-1.4.7-1.4.6-1.5.6-1.5.5-1.5.4-1.6.4-1.6.3-1.6.2h-1.6c0,.1-1.7.2-1.7.2h-1.7s-1.6-.2-1.6-.2l-1.6-.2-1.6-.3-1.6-.4-1.5-.4-1.5-.5-1.5-.6-1.4-.6-1.4-.7-1.3-.8-1.3-.8-1.3-.9-1.2-1-1.2-1-1.1-1.1-1.1-1.1-1-1.2-1-1.2-.9-1.3-.8-1.3-.8-1.3-.7-1.4-.6-1.4-.6-1.5-.5-1.5-.4-1.5-.4-1.6-.3-1.6-.2-1.6v-1.6c-.1,0-.2-1.7-.2-1.7h5.7v1.4s.1,1.3.1,1.3l.2,1.3.2,1.3.3,1.3.4,1.3.4,1.2.5,1.2.5,1.2.6,1.1.6,1.1.7,1.1.7,1,.8,1,.8,1,.9.9.9.9,1,.8,1,.8,1,.7,1.1.7,1.1.6,1.1.6,1.2.5,1.2.5,1.2.4,1.3.4,1.3.3,1.3.2,1.3.2h1.3c0,.1,1.4.1,1.4.1h1.4s1.3-.1,1.3-.1l1.3-.2,1.3-.2,1.3-.3,1.3-.4,1.2-.4,1.2-.5,1.2-.5,1.1-.6,1.1-.6,1.1-.7,1-.7,1-.8,1-.8.9-.9.9-.9.8-1,.8-1,.7-1,.7-1.1.6-1.1.6-1.1.5-1.2.5-1.2.4-1.2.4-1.3.3-1.3.2-1.3.2-1.3v-1.3c.1,0,.1-1.4.1-1.4v-1.4s-.1-1.3-.1-1.3l-.2-1.3-.2-1.3-.3-1.3-.4-1.3-.4-1.2-.5-1.2-.5-1.2-.6-1.1-.6-1.1-.7-1.1-.7-1-.8-1-.8-1-.9-.9-.9-.9-1-.8-1-.8-1-.7-1.1-.7-1.1-.6-1.1-.6-1.2-.5-1.2-.5-1.2-.4-1.3-.4-1.3-.3-1.3-.2-1.3-.2h-1.3c0-.1-1.4-.1-1.4-.1h-1.4s-1.3.1-1.3.1l-1.3.2-1.3.2-1.3.3-1.3.4-1.2.4-1.2.5-1.2.5-1.1.6-1.1.6-1.1.7-1,.7-1,.8-1,.8-.9.9-.9.9-.8,1-.8,1-.7,1-.7,1.1-.6,1.1-.6,1.1-.5,1.2-.5,1.2-.4,1.2-.4,1.3-.3,1.3-.2,1.3-.2,1.3v1.3c-.1,0-.1,1.4-.1,1.4h-5.7s0-1.7,0-1.7Z"/>
        </g>
        <path class="cls-25" d="M852.9,331.3h.4s.4,0,.4,0h.4s.3,0,.3,0h.3s.3.1.3.1h.3c0,0,.3.2.3.2h.3c0,0,.3.2.3.2h.3c0,.1.3.2.3.2h.2c0,.1.2.3.2.3l.2.2.2.2.2.2.2.2.2.2.2.2v.2c.1,0,.3.2.3.2v.2c.1,0,.2.2.2.2v.3c0,0,.2.3.2.3v.3c0,0,.1.3.1.3v.3s0,.3,0,.3v.3s0,.3,0,.3v.2s0,.2,0,.2v.2s0,.2,0,.2v.2s0,.2,0,.2v.2s0,.2,0,.2v.2s0,.2,0,.2v.2c0,0-.1.2-.1.2h0c0,.1,0,.3,0,.3h0c0,.1,0,.3,0,.3h0c0,.1,0,.3,0,.3h0c0,.1,0,.2,0,.2h0c0,.1-.1.2-.1.2h-.1c0,.1-.1.2-.1.2h-.1c0,0-.1.2-.1.2h-.1c0,0-.1.2-.1.2h-.1c0,0-.1.2-.1.2h-.1c0,0-.1.1-.1.1h.2c0,0,.2.1.2.1h.2c0,0,.1.1.1.1h.1c0,0,.1.2.1.2h.1c0,0,.1.2.1.2h.1c0,0,.1.2.1.2h.1c0,.1.1.2.1.2h.1c0,.1.1.2.1.2h0c0,.1,0,.3,0,.3h0c0,.1,0,.3,0,.3v.2c0,0,.1.2.1.2v.2c0,0,.1.2.1.2v.2c0,0,.1.2.1.2v.2s0,.2,0,.2v.2s0,.2,0,.2v.2s0,.2,0,.2v.2s0,.2,0,.2v.4s0,.3,0,.3v.3s0,.3,0,.3v.3c0,0-.1.3-.1.3v.3c0,0-.2.3-.2.3v.3c-.1,0-.2.3-.2.3v.2c-.1,0-.3.2-.3.2l-.2.2-.2.2-.2.2-.2.2-.2.2-.2.2-.2.2h-.2c0,.1-.2.3-.2.3h-.3c0,.1-.3.2-.3.2h-.3c0,0-.3.2-.3.2h-.3c0,0-.3.1-.3.1h-.3c0,0-.3,0-.3,0h-.3s-.4,0-.4,0h-.4s-6.5,0-6.5,0v-3.3h6.6s.1,0,.1,0h.1s.1,0,.1,0h.1s.1,0,.1,0h.1s.1,0,.1,0h0s0,0,0,0h0c0,0,0-.1,0-.1h0c0,0,0-.1,0-.1h0c0,0,0-.2,0-.2h0c0,0,0-.2,0-.2h0c0,0,0-.2,0-.2h0c0-.1,0-.2,0-.2h0c0-.1,0-.2,0-.2h0c0-.1,0-.2,0-.2h0c0-.1,0-.3,0-.3h0c0-.1,0-.3,0-.3h0c0-.1,0-.3,0-.3v-.3s0-.3,0-.3v-.3s0-.3,0-.3v-.2c0,0-.1-.2-.1-.2h0c0-.1,0-.2,0-.2h0c0,0,0-.2,0-.2h0c0,0,0-.2,0-.2h0c0,0,0-.1,0-.1h0c0,0,0-.1,0-.1h0c0,0,0,0,0,0h0s0,0,0,0h0s-.1,0-.1,0h-.1s-.1,0-.1,0h-.1s-.1,0-.1,0h-2.8v5.3h-4v-8.1h6.2s.1,0,.1,0h.1s.1,0,.1,0h.1s.1,0,.1,0h.1s.1,0,.1,0h.1s.1,0,.1,0h0s0-.1,0-.1h0c0,0,0-.1,0-.1h0c0,0,0-.1,0-.1h0c0,0,0-.2,0-.2h0c0,0,0-.2,0-.2h0c0,0,0-.2,0-.2h0c0-.1,0-.2,0-.2h0c0-.1,0-.2,0-.2h0c0-.1,0-.3,0-.3h0c0-.1,0-.3,0-.3h0c0-.1,0-.3,0-.3v-.2s0-.2,0-.2v-.2s0-.1,0-.1h0c0-.1,0-.3,0-.3h0c0-.1,0-.3,0-.3h0c0-.1,0-.2,0-.2h0c0-.1,0-.2,0-.2h0c0,0,0-.2,0-.2h0c0,0,0-.2,0-.2h0c0,0,0-.1,0-.1h0c0,0,0-.1,0-.1h0c0,0,0,0,0,0h-.1s-.1,0-.1,0h-.1s-.1,0-.1,0h-.1s-.1,0-.1,0h-.1s-.1,0-.1,0h-.1s-.1,0-.1,0h-2.1v4.9h-4v-8.2h6.1Z"/>
      </g>
      <g id="Taste_A" data-name="Taste A">
        <path class="cls-25" d="M517.3,342l6.2,19.7h-4.2l-1.1-4h-5.4l-1.1,4h-4.2l2.3-7.3h7.5l-1.8-7-1.8,7h-3.8l3.9-12.3h3.6Z"/>
        <path class="cls-25" d="M515.5,308.7l-43.1,43.1,43.1,43.1,43.1-43.1-43.1-43.1ZM480.2,351.8l35.2-35.2,35.2,35.2-35.2,35.2-35.2-35.2Z"/>
      </g>
      <g>
        <path class="cls-12" d="M753,267.6h.7c0,.1.6.5.6.5l.4.6v.7c.1,0,.1,3.7.1,3.7v.7c-.1,0-.5.6-.5.6l-.6.4h-.7c0,.1-4.3.1-4.3.1h-.7c0-.1-.6-.5-.6-.5l-.4-.6v-.7c-.1,0-.1-3.7-.1-3.7v-.7c.1,0,.5-.6.5-.6l.6-.4h.7c0-.1,4.3-.1,4.3-.1Z"/>
        <path class="cls-12" d="M753,254.4h.7c0,.1.6.5.6.5l.4.6v.7c.1,0,.1,3.7.1,3.7v.7c-.1,0-.5.6-.5.6l-.6.4h-.7c0,.1-4.3.1-4.3.1h-.7c0-.1-.6-.5-.6-.5l-.4-.6v-.7c-.1,0-.1-3.7-.1-3.7v-.7c.1,0,.5-.6.5-.6l.6-.4h.7c0-.1,4.3-.1,4.3-.1Z"/>
        <path class="cls-12" d="M652.6,267.6h.7c0,.1.6.5.6.5l.4.6v.7c.1,0,.1,3.7.1,3.7v.7c-.1,0-.5.6-.5.6l-.6.4h-.7c0,.1-4.3.1-4.3.1h-.7c0-.1-.6-.5-.6-.5l-.4-.6v-.7c-.1,0-.1-3.7-.1-3.7v-.7c.1,0,.5-.6.5-.6l.6-.4h.7c0-.1,4.3-.1,4.3-.1Z"/>
        <path class="cls-12" d="M652.6,254.4h.7c0,.1.6.5.6.5l.4.6v.7c.1,0,.1,3.7.1,3.7v.7c-.1,0-.5.6-.5.6l-.6.4h-.7c0,.1-4.3.1-4.3.1h-.7c0-.1-.6-.5-.6-.5l-.4-.6v-.7c-.1,0-.1-3.7-.1-3.7v-.7c.1,0,.5-.6.5-.6l.6-.4h.7c0-.1,4.3-.1,4.3-.1Z"/>
        <path class="cls-12" d="M619.1,267.6h.7c0,.1.6.5.6.5l.4.6v.7c.1,0,.1,3.7.1,3.7v.7c-.1,0-.5.6-.5.6l-.6.4h-.7c0,.1-4.3.1-4.3.1h-.7c0-.1-.6-.5-.6-.5l-.4-.6v-.7c-.1,0-.1-3.7-.1-3.7v-.7c.1,0,.5-.6.5-.6l.6-.4h.7c0-.1,4.3-.1,4.3-.1Z"/>
        <path class="cls-12" d="M619.1,254.4h.7c0,.1.6.5.6.5l.4.6v.7c.1,0,.1,3.7.1,3.7v.7c-.1,0-.5.6-.5.6l-.6.4h-.7c0,.1-4.3.1-4.3.1h-.7c0-.1-.6-.5-.6-.5l-.4-.6v-.7c-.1,0-.1-3.7-.1-3.7v-.7c.1,0,.5-.6.5-.6l.6-.4h.7c0-.1,4.3-.1,4.3-.1Z"/>
        <path class="cls-12" d="M652.6,301.1h.7c0,.1.6.5.6.5l.4.6v.7c.1,0,.1,3.7.1,3.7v.7c-.1,0-.5.6-.5.6l-.6.4h-.7c0,.1-4.3.1-4.3.1h-.7c0-.1-.6-.5-.6-.5l-.4-.6v-.7c-.1,0-.1-3.7-.1-3.7v-.7c.1,0,.5-.6.5-.6l.6-.4h.7c0-.1,4.3-.1,4.3-.1Z"/>
        <path class="cls-12" d="M652.6,287.9h.7c0,.1.6.5.6.5l.4.6v.7c.1,0,.1,3.7.1,3.7v.7c-.1,0-.5.6-.5.6l-.6.4h-.7c0,.1-4.3.1-4.3.1h-.7c0-.1-.6-.5-.6-.5l-.4-.6v-.7c-.1,0-.1-3.7-.1-3.7v-.7c.1,0,.5-.6.5-.6l.6-.4h.7c0-.1,4.3-.1,4.3-.1Z"/>
        <path class="cls-12" d="M619.1,368h.7c0,.1.6.5.6.5l.4.6v.7c.1,0,.1,3.7.1,3.7v.7c-.1,0-.5.6-.5.6l-.6.4h-.7c0,.1-4.3.1-4.3.1h-.7c0-.1-.6-.5-.6-.5l-.4-.6v-.7c-.1,0-.1-3.7-.1-3.7v-.7c.1,0,.5-.6.5-.6l.6-.4h.7c0-.1,4.3-.1,4.3-.1Z"/>
        <path class="cls-12" d="M619.1,354.8h.7c0,.1.6.5.6.5l.4.6v.7c.1,0,.1,3.7.1,3.7v.7c-.1,0-.5.6-.5.6l-.6.4h-.7c0,.1-4.3.1-4.3.1h-.7c0-.1-.6-.5-.6-.5l-.4-.6v-.7c-.1,0-.1-3.7-.1-3.7v-.7c.1,0,.5-.6.5-.6l.6-.4h.7c0-.1,4.3-.1,4.3-.1Z"/>
        <path class="cls-12" d="M688.6,461.3v-5.9h5.9v5.9h-5.9Z"/>
        <path class="cls-12" d="M688.6,452.1v-5.9h5.9v5.9h-5.9Z"/>
        <path class="cls-12" d="M673.3,452.1v-5.9h5.9v5.9h-5.9Z"/>
        <path class="cls-12" d="M673.3,461.3v-5.9h5.9v5.9h-5.9Z"/>
        <path class="cls-12" d="M652.6,334.5h.7c0,.1.6.5.6.5l.4.6v.7c.1,0,.1,3.7.1,3.7v.7c-.1,0-.5.6-.5.6l-.6.4h-.7c0,.1-4.3.1-4.3.1h-.7c0-.1-.6-.5-.6-.5l-.4-.6v-.7c-.1,0-.1-3.7-.1-3.7v-.7c.1,0,.5-.6.5-.6l.6-.4h.7c0-.1,4.3-.1,4.3-.1Z"/>
        <path class="cls-12" d="M652.6,321.4h.7c0,.1.6.5.6.5l.4.6v.7c.1,0,.1,3.7.1,3.7v.7c-.1,0-.5.6-.5.6l-.6.4h-.7c0,.1-4.3.1-4.3.1h-.7c0-.1-.6-.5-.6-.5l-.4-.6v-.7c-.1,0-.1-3.7-.1-3.7v-.7c.1,0,.5-.6.5-.6l.6-.4h.7c0-.1,4.3-.1,4.3-.1Z"/>
        <path class="cls-12" d="M686,334.5h.7c0,.1.6.5.6.5l.4.6v.7c.1,0,.1,3.7.1,3.7v.7c-.1,0-.5.6-.5.6l-.6.4h-.7c0,.1-4.3.1-4.3.1h-.7c0-.1-.6-.5-.6-.5l-.4-.6v-.7c-.1,0-.1-3.7-.1-3.7v-.7c.1,0,.5-.6.5-.6l.6-.4h.7c0-.1,4.3-.1,4.3-.1Z"/>
        <path class="cls-12" d="M686,321.4h.7c0,.1.6.5.6.5l.4.6v.7c.1,0,.1,3.7.1,3.7v.7c-.1,0-.5.6-.5.6l-.6.4h-.7c0,.1-4.3.1-4.3.1h-.7c0-.1-.6-.5-.6-.5l-.4-.6v-.7c-.1,0-.1-3.7-.1-3.7v-.7c.1,0,.5-.6.5-.6l.6-.4h.7c0-.1,4.3-.1,4.3-.1Z"/>
        <path class="cls-12" d="M753,368h.7c0,.1.6.5.6.5l.4.6v.7c.1,0,.1,3.7.1,3.7v.7c-.1,0-.5.6-.5.6l-.6.4h-.7c0,.1-4.3.1-4.3.1h-.7c0-.1-.6-.5-.6-.5l-.4-.6v-.7c-.1,0-.1-3.7-.1-3.7v-.7c.1,0,.5-.6.5-.6l.6-.4h.7c0-.1,4.3-.1,4.3-.1Z"/>
        <path class="cls-12" d="M753,354.8h.7c0,.1.6.5.6.5l.4.6v.7c.1,0,.1,3.7.1,3.7v.7c-.1,0-.5.6-.5.6l-.6.4h-.7c0,.1-4.3.1-4.3.1h-.7c0-.1-.6-.5-.6-.5l-.4-.6v-.7c-.1,0-.1-3.7-.1-3.7v-.7c.1,0,.5-.6.5-.6l.6-.4h.7c0-.1,4.3-.1,4.3-.1Z"/>
        <path class="cls-12" d="M619.1,334.5h.7c0,.1.6.5.6.5l.4.6v.7c.1,0,.1,3.7.1,3.7v.7c-.1,0-.5.6-.5.6l-.6.4h-.7c0,.1-4.3.1-4.3.1h-.7c0-.1-.6-.5-.6-.5l-.4-.6v-.7c-.1,0-.1-3.7-.1-3.7v-.7c.1,0,.5-.6.5-.6l.6-.4h.7c0-.1,4.3-.1,4.3-.1Z"/>
        <path class="cls-12" d="M619.1,321.4h.7c0,.1.6.5.6.5l.4.6v.7c.1,0,.1,3.7.1,3.7v.7c-.1,0-.5.6-.5.6l-.6.4h-.7c0,.1-4.3.1-4.3.1h-.7c0-.1-.6-.5-.6-.5l-.4-.6v-.7c-.1,0-.1-3.7-.1-3.7v-.7c.1,0,.5-.6.5-.6l.6-.4h.7c0-.1,4.3-.1,4.3-.1Z"/>
        <path class="cls-12" d="M753,401.5h.7c0,.1.6.5.6.5l.4.6v.7c.1,0,.1,3.7.1,3.7v.7c-.1,0-.5.6-.5.6l-.6.4h-.7c0,.1-4.3.1-4.3.1h-.7c0-.1-.6-.5-.6-.5l-.4-.6v-.7c-.1,0-.1-3.7-.1-3.7v-.7c.1,0,.5-.6.5-.6l.6-.4h.7c0-.1,4.3-.1,4.3-.1Z"/>
        <path class="cls-12" d="M753,388.3h.7c0,.1.6.5.6.5l.4.6v.7c.1,0,.1,3.7.1,3.7v.7c-.1,0-.5.6-.5.6l-.6.4h-.7c0,.1-4.3.1-4.3.1h-.7c0-.1-.6-.5-.6-.5l-.4-.6v-.7c-.1,0-.1-3.7-.1-3.7v-.7c.1,0,.5-.6.5-.6l.6-.4h.7c0-.1,4.3-.1,4.3-.1Z"/>
        <path class="cls-12" d="M719.5,301.1h.7c0,.1.6.5.6.5l.4.6v.7c.1,0,.1,3.7.1,3.7v.7c-.1,0-.5.6-.5.6l-.6.4h-.7c0,.1-4.3.1-4.3.1h-.7c0-.1-.6-.5-.6-.5l-.4-.6v-.7c-.1,0-.1-3.7-.1-3.7v-.7c.1,0,.5-.6.5-.6l.6-.4h.7c0-.1,4.3-.1,4.3-.1Z"/>
        <path class="cls-12" d="M719.5,287.9h.7c0,.1.6.5.6.5l.4.6v.7c.1,0,.1,3.7.1,3.7v.7c-.1,0-.5.6-.5.6l-.6.4h-.7c0,.1-4.3.1-4.3.1h-.7c0-.1-.6-.5-.6-.5l-.4-.6v-.7c-.1,0-.1-3.7-.1-3.7v-.7c.1,0,.5-.6.5-.6l.6-.4h.7c0-.1,4.3-.1,4.3-.1Z"/>
        <path class="cls-12" d="M686,368h.7c0,.1.6.5.6.5l.4.6v.7c.1,0,.1,3.7.1,3.7v.7c-.1,0-.5.6-.5.6l-.6.4h-.7c0,.1-4.3.1-4.3.1h-.7c0-.1-.6-.5-.6-.5l-.4-.6v-.7c-.1,0-.1-3.7-.1-3.7v-.7c.1,0,.5-.6.5-.6l.6-.4h.7c0-.1,4.3-.1,4.3-.1Z"/>
        <path class="cls-12" d="M686,354.8h.7c0,.1.6.5.6.5l.4.6v.7c.1,0,.1,3.7.1,3.7v.7c-.1,0-.5.6-.5.6l-.6.4h-.7c0,.1-4.3.1-4.3.1h-.7c0-.1-.6-.5-.6-.5l-.4-.6v-.7c-.1,0-.1-3.7-.1-3.7v-.7c.1,0,.5-.6.5-.6l.6-.4h.7c0-.1,4.3-.1,4.3-.1Z"/>
        <path class="cls-12" d="M686,301.1h.7c0,.1.6.5.6.5l.4.6v.7c.1,0,.1,3.7.1,3.7v.7c-.1,0-.5.6-.5.6l-.6.4h-.7c0,.1-4.3.1-4.3.1h-.7c0-.1-.6-.5-.6-.5l-.4-.6v-.7c-.1,0-.1-3.7-.1-3.7v-.7c.1,0,.5-.6.5-.6l.6-.4h.7c0-.1,4.3-.1,4.3-.1Z"/>
        <path class="cls-12" d="M686,287.9h.7c0,.1.6.5.6.5l.4.6v.7c.1,0,.1,3.7.1,3.7v.7c-.1,0-.5.6-.5.6l-.6.4h-.7c0,.1-4.3.1-4.3.1h-.7c0-.1-.6-.5-.6-.5l-.4-.6v-.7c-.1,0-.1-3.7-.1-3.7v-.7c.1,0,.5-.6.5-.6l.6-.4h.7c0-.1,4.3-.1,4.3-.1Z"/>
        <path class="cls-12" d="M753,334.5h.7c0,.1.6.5.6.5l.4.6v.7c.1,0,.1,3.7.1,3.7v.7c-.1,0-.5.6-.5.6l-.6.4h-.7c0,.1-4.3.1-4.3.1h-.7c0-.1-.6-.5-.6-.5l-.4-.6v-.7c-.1,0-.1-3.7-.1-3.7v-.7c.1,0,.5-.6.5-.6l.6-.4h.7c0-.1,4.3-.1,4.3-.1Z"/>
        <path class="cls-12" d="M753,321.4h.7c0,.1.6.5.6.5l.4.6v.7c.1,0,.1,3.7.1,3.7v.7c-.1,0-.5.6-.5.6l-.6.4h-.7c0,.1-4.3.1-4.3.1h-.7c0-.1-.6-.5-.6-.5l-.4-.6v-.7c-.1,0-.1-3.7-.1-3.7v-.7c.1,0,.5-.6.5-.6l.6-.4h.7c0-.1,4.3-.1,4.3-.1Z"/>
        <path class="cls-12" d="M686,401.5h.7c0,.1.6.5.6.5l.4.6v.7c.1,0,.1,3.7.1,3.7v.7c-.1,0-.5.6-.5.6l-.6.4h-.7c0,.1-4.3.1-4.3.1h-.7c0-.1-.6-.5-.6-.5l-.4-.6v-.7c-.1,0-.1-3.7-.1-3.7v-.7c.1,0,.5-.6.5-.6l.6-.4h.7c0-.1,4.3-.1,4.3-.1Z"/>
        <path class="cls-12" d="M686,388.3h.7c0,.1.6.5.6.5l.4.6v.7c.1,0,.1,3.7.1,3.7v.7c-.1,0-.5.6-.5.6l-.6.4h-.7c0,.1-4.3.1-4.3.1h-.7c0-.1-.6-.5-.6-.5l-.4-.6v-.7c-.1,0-.1-3.7-.1-3.7v-.7c.1,0,.5-.6.5-.6l.6-.4h.7c0-.1,4.3-.1,4.3-.1Z"/>
        <path class="cls-12" d="M730.4,461.3v-5.9h5.9v5.9h-5.9Z"/>
        <path class="cls-12" d="M730.4,452.1v-5.9h5.9v5.9h-5.9Z"/>
        <path class="cls-12" d="M715.1,452.1v-5.9h5.9v5.9h-5.9Z"/>
        <path class="cls-12" d="M715.1,461.3v-5.9h5.9v5.9h-5.9Z"/>
        <path class="cls-12" d="M652.6,401.5h.7c0,.1.6.5.6.5l.4.6v.7c.1,0,.1,3.7.1,3.7v.7c-.1,0-.5.6-.5.6l-.6.4h-.7c0,.1-4.3.1-4.3.1h-.7c0-.1-.6-.5-.6-.5l-.4-.6v-.7c-.1,0-.1-3.7-.1-3.7v-.7c.1,0,.5-.6.5-.6l.6-.4h.7c0-.1,4.3-.1,4.3-.1Z"/>
        <path class="cls-12" d="M652.6,388.3h.7c0,.1.6.5.6.5l.4.6v.7c.1,0,.1,3.7.1,3.7v.7c-.1,0-.5.6-.5.6l-.6.4h-.7c0,.1-4.3.1-4.3.1h-.7c0-.1-.6-.5-.6-.5l-.4-.6v-.7c-.1,0-.1-3.7-.1-3.7v-.7c.1,0,.5-.6.5-.6l.6-.4h.7c0-.1,4.3-.1,4.3-.1Z"/>
        <path class="cls-12" d="M646.8,461.3v-5.9h5.9v5.9h-5.9Z"/>
        <path class="cls-12" d="M646.8,452.1v-5.9h5.9v5.9h-5.9Z"/>
        <path class="cls-12" d="M631.5,452.1v-5.9h5.9v5.9h-5.9Z"/>
        <path class="cls-12" d="M631.5,461.3v-5.9h5.9v5.9h-5.9Z"/>
        <path class="cls-12" d="M652.6,368h.7c0,.1.6.5.6.5l.4.6v.7c.1,0,.1,3.7.1,3.7v.7c-.1,0-.5.6-.5.6l-.6.4h-.7c0,.1-4.3.1-4.3.1h-.7c0-.1-.6-.5-.6-.5l-.4-.6v-.7c-.1,0-.1-3.7-.1-3.7v-.7c.1,0,.5-.6.5-.6l.6-.4h.7c0-.1,4.3-.1,4.3-.1Z"/>
        <path class="cls-12" d="M652.6,354.8h.7c0,.1.6.5.6.5l.4.6v.7c.1,0,.1,3.7.1,3.7v.7c-.1,0-.5.6-.5.6l-.6.4h-.7c0,.1-4.3.1-4.3.1h-.7c0-.1-.6-.5-.6-.5l-.4-.6v-.7c-.1,0-.1-3.7-.1-3.7v-.7c.1,0,.5-.6.5-.6l.6-.4h.7c0-.1,4.3-.1,4.3-.1Z"/>
        <path class="cls-12" d="M719.5,267.6h.7c0,.1.6.5.6.5l.4.6v.7c.1,0,.1,3.7.1,3.7v.7c-.1,0-.5.6-.5.6l-.6.4h-.7c0,.1-4.3.1-4.3.1h-.7c0-.1-.6-.5-.6-.5l-.4-.6v-.7c-.1,0-.1-3.7-.1-3.7v-.7c.1,0,.5-.6.5-.6l.6-.4h.7c0-.1,4.3-.1,4.3-.1Z"/>
        <path class="cls-12" d="M719.5,254.4h.7c0,.1.6.5.6.5l.4.6v.7c.1,0,.1,3.7.1,3.7v.7c-.1,0-.5.6-.5.6l-.6.4h-.7c0,.1-4.3.1-4.3.1h-.7c0-.1-.6-.5-.6-.5l-.4-.6v-.7c-.1,0-.1-3.7-.1-3.7v-.7c.1,0,.5-.6.5-.6l.6-.4h.7c0-.1,4.3-.1,4.3-.1Z"/>
        <path class="cls-12" d="M719.5,368h.7c0,.1.6.5.6.5l.4.6v.7c.1,0,.1,3.7.1,3.7v.7c-.1,0-.5.6-.5.6l-.6.4h-.7c0,.1-4.3.1-4.3.1h-.7c0-.1-.6-.5-.6-.5l-.4-.6v-.7c-.1,0-.1-3.7-.1-3.7v-.7c.1,0,.5-.6.5-.6l.6-.4h.7c0-.1,4.3-.1,4.3-.1Z"/>
        <path class="cls-12" d="M719.5,354.8h.7c0,.1.6.5.6.5l.4.6v.7c.1,0,.1,3.7.1,3.7v.7c-.1,0-.5.6-.5.6l-.6.4h-.7c0,.1-4.3.1-4.3.1h-.7c0-.1-.6-.5-.6-.5l-.4-.6v-.7c-.1,0-.1-3.7-.1-3.7v-.7c.1,0,.5-.6.5-.6l.6-.4h.7c0-.1,4.3-.1,4.3-.1Z"/>
        <path class="cls-12" d="M719.5,401.5h.7c0,.1.6.5.6.5l.4.6v.7c.1,0,.1,3.7.1,3.7v.7c-.1,0-.5.6-.5.6l-.6.4h-.7c0,.1-4.3.1-4.3.1h-.7c0-.1-.6-.5-.6-.5l-.4-.6v-.7c-.1,0-.1-3.7-.1-3.7v-.7c.1,0,.5-.6.5-.6l.6-.4h.7c0-.1,4.3-.1,4.3-.1Z"/>
        <path class="cls-12" d="M719.5,388.3h.7c0,.1.6.5.6.5l.4.6v.7c.1,0,.1,3.7.1,3.7v.7c-.1,0-.5.6-.5.6l-.6.4h-.7c0,.1-4.3.1-4.3.1h-.7c0-.1-.6-.5-.6-.5l-.4-.6v-.7c-.1,0-.1-3.7-.1-3.7v-.7c.1,0,.5-.6.5-.6l.6-.4h.7c0-.1,4.3-.1,4.3-.1Z"/>
        <path class="cls-12" d="M619.1,401.5h.7c0,.1.6.5.6.5l.4.6v.7c.1,0,.1,3.7.1,3.7v.7c-.1,0-.5.6-.5.6l-.6.4h-.7c0,.1-4.3.1-4.3.1h-.7c0-.1-.6-.5-.6-.5l-.4-.6v-.7c-.1,0-.1-3.7-.1-3.7v-.7c.1,0,.5-.6.5-.6l.6-.4h.7c0-.1,4.3-.1,4.3-.1Z"/>
        <path class="cls-12" d="M619.1,388.3h.7c0,.1.6.5.6.5l.4.6v.7c.1,0,.1,3.7.1,3.7v.7c-.1,0-.5.6-.5.6l-.6.4h-.7c0,.1-4.3.1-4.3.1h-.7c0-.1-.6-.5-.6-.5l-.4-.6v-.7c-.1,0-.1-3.7-.1-3.7v-.7c.1,0,.5-.6.5-.6l.6-.4h.7c0-.1,4.3-.1,4.3-.1Z"/>
        <path class="cls-12" d="M686,267.6h.7c0,.1.6.5.6.5l.4.6v.7c.1,0,.1,3.7.1,3.7v.7c-.1,0-.5.6-.5.6l-.6.4h-.7c0,.1-4.3.1-4.3.1h-.7c0-.1-.6-.5-.6-.5l-.4-.6v-.7c-.1,0-.1-3.7-.1-3.7v-.7c.1,0,.5-.6.5-.6l.6-.4h.7c0-.1,4.3-.1,4.3-.1Z"/>
        <path class="cls-12" d="M686,254.4h.7c0,.1.6.5.6.5l.4.6v.7c.1,0,.1,3.7.1,3.7v.7c-.1,0-.5.6-.5.6l-.6.4h-.7c0,.1-4.3.1-4.3.1h-.7c0-.1-.6-.5-.6-.5l-.4-.6v-.7c-.1,0-.1-3.7-.1-3.7v-.7c.1,0,.5-.6.5-.6l.6-.4h.7c0-.1,4.3-.1,4.3-.1Z"/>
        <path class="cls-12" d="M619.1,301.1h.7c0,.1.6.5.6.5l.4.6v.7c.1,0,.1,3.7.1,3.7v.7c-.1,0-.5.6-.5.6l-.6.4h-.7c0,.1-4.3.1-4.3.1h-.7c0-.1-.6-.5-.6-.5l-.4-.6v-.7c-.1,0-.1-3.7-.1-3.7v-.7c.1,0,.5-.6.5-.6l.6-.4h.7c0-.1,4.3-.1,4.3-.1Z"/>
        <path class="cls-12" d="M619.1,287.9h.7c0,.1.6.5.6.5l.4.6v.7c.1,0,.1,3.7.1,3.7v.7c-.1,0-.5.6-.5.6l-.6.4h-.7c0,.1-4.3.1-4.3.1h-.7c0-.1-.6-.5-.6-.5l-.4-.6v-.7c-.1,0-.1-3.7-.1-3.7v-.7c.1,0,.5-.6.5-.6l.6-.4h.7c0-.1,4.3-.1,4.3-.1Z"/>
        <path class="cls-12" d="M753,301.1h.7c0,.1.6.5.6.5l.4.6v.7c.1,0,.1,3.7.1,3.7v.7c-.1,0-.5.6-.5.6l-.6.4h-.7c0,.1-4.3.1-4.3.1h-.7c0-.1-.6-.5-.6-.5l-.4-.6v-.7c-.1,0-.1-3.7-.1-3.7v-.7c.1,0,.5-.6.5-.6l.6-.4h.7c0-.1,4.3-.1,4.3-.1Z"/>
        <path class="cls-12" d="M753,287.9h.7c0,.1.6.5.6.5l.4.6v.7c.1,0,.1,3.7.1,3.7v.7c-.1,0-.5.6-.5.6l-.6.4h-.7c0,.1-4.3.1-4.3.1h-.7c0-.1-.6-.5-.6-.5l-.4-.6v-.7c-.1,0-.1-3.7-.1-3.7v-.7c.1,0,.5-.6.5-.6l.6-.4h.7c0-.1,4.3-.1,4.3-.1Z"/>
        <path class="cls-12" d="M719.5,334.5h.7c0,.1.6.5.6.5l.4.6v.7c.1,0,.1,3.7.1,3.7v.7c-.1,0-.5.6-.5.6l-.6.4h-.7c0,.1-4.3.1-4.3.1h-.7c0-.1-.6-.5-.6-.5l-.4-.6v-.7c-.1,0-.1-3.7-.1-3.7v-.7c.1,0,.5-.6.5-.6l.6-.4h.7c0-.1,4.3-.1,4.3-.1Z"/>
        <path class="cls-12" d="M719.5,321.4h.7c0,.1.6.5.6.5l.4.6v.7c.1,0,.1,3.7.1,3.7v.7c-.1,0-.5.6-.5.6l-.6.4h-.7c0,.1-4.3.1-4.3.1h-.7c0-.1-.6-.5-.6-.5l-.4-.6v-.7c-.1,0-.1-3.7-.1-3.7v-.7c.1,0,.5-.6.5-.6l.6-.4h.7c0-.1,4.3-.1,4.3-.1Z"/>
      </g>
    </g>
    <g id="Touchpins">
      <path id="Plus-Pin" class="cls-29" d="M846.7,76.7c-7.3,0-14.1,2-19.9,5.6-.5.3-1.1.6-1.6,1,0,0-.1,0-.2.1-.7.4-1.3.9-1.9,1.4,0,0,0,0,0,0-.6.5-1.2,1-1.9,1.5-.3.3-.6.5-.9.8-.3.3-.6.6-.9.9-.6.6-1.1,1.2-1.7,1.8-1.6,1.9-3.1,3.9-4.3,6-.4.7-.8,1.4-1.2,2.2-.4.7-.7,1.5-1,2.3-.2.4-.3.7-.4,1.1-.1.3-.2.6-.3.9-.4.9-.6,1.9-.9,2.8-.2.7-.4,1.5-.6,2.2,0,.4-.1.9-.2,1.3,0,.4-.1.8-.2,1.2,0,.7-.2,1.4-.2,2,0,.4,0,.7,0,1.1,0,.7,0,1.4,0,2.1,0,21.2,17.2,38.4,38.4,38.4s2.5,0,3.7-.2c3.7-.4,7.1-1.2,10.4-2.5.3-.1.7-.3,1-.4.8-.4,1.7-.7,2.4-1.1.8-.4,1.6-.9,2.4-1.3.6-.4,1.2-.8,1.8-1.1.6-.4,1.1-.8,1.7-1.3.6-.4,1.1-.9,1.7-1.3.6-.5,1.1-.9,1.6-1.4.5-.5,1-1,1.5-1.5.5-.5.9-1.1,1.4-1.6.5-.6.9-1.1,1.4-1.8.4-.5.8-1.1,1.1-1.7.5-.7.9-1.4,1.3-2.1.3-.6.6-1.1.9-1.7.3-.6.6-1.3.9-2,.8-1.8,1.4-3.7,1.9-5.7.2-.9.4-1.8.6-2.7h0c.4-2.3.6-4.6.6-6.9,0-21.2-17.2-38.4-38.4-38.4ZM846.7,131.8c-9.2,0-16.7-7.5-16.7-16.7s7.5-16.7,16.7-16.7,16.7,7.5,16.7,16.7-7.5,16.7-16.7,16.7Z"/>
      <path id="Minus-Pin" class="cls-29" d="M566.4,112.4h0c0,0,0-.1,0-.2,0-.5,0-1-.1-1.5,0-.7-.1-1.4-.3-2.1,0-.4-.1-.8-.2-1.2-.7-3.7-1.9-7.2-3.6-10.4-.3-.6-.6-1.1-.9-1.6-.3-.5-.6-1.1-1-1.6-.3-.4-.5-.9-.8-1.3-.6-.8-1.1-1.5-1.7-2.2,0,0,0,0,0-.1-.6-.7-1.2-1.4-1.8-2-7-7.4-16.9-12-27.9-12-21.3,0-38.6,17.2-38.6,38.5s.1,3.7.4,5.4h0c0,.2,0,.3,0,.3l.2,1.1c.1.9.3,1.7.5,2.5.1.6.3,1.1.5,1.7.1.4.2.8.4,1.2.4,1.3.9,2.5,1.5,3.7.2.6.5,1.1.8,1.6.2.5.5.9.8,1.4.3.5.6,1,.9,1.5.2.4.4.7.7,1.1,1.4,2.1,2.9,4,4.7,5.7s1.1,1.1,1.7,1.6c.6.5,1.2,1,1.8,1.5.8.6,1.7,1.2,2.5,1.8.8.5,1.6,1,2.4,1.4.1.1.3.2.4.3.9.5,1.7.9,2.7,1.3.9.4,1.9.8,2.9,1.2,1.1.4,2.3.7,3.4,1,.9.2,1.8.4,2.8.6,1.5.3,3,.4,4.6.5.6,0,1.3,0,2,0,21.3,0,38.5-17.2,38.5-38.6s0-1.5,0-2.3ZM528,131.4c-9.2,0-16.7-7.5-16.7-16.7s7.5-16.7,16.7-16.7,16.7,7.5,16.7,16.7-7.5,16.7-16.7,16.7Z"/>
      <path id="Pin_3" data-name="Pin 3" class="cls-29" d="M1018.3,354.7c-1.9-.6-3.9-1.1-5.9-1.5-.4,0-.7-.1-1.1-.2-1.7-.2-3.4-.4-5.2-.4s-1,0-1.5,0c-.4,0-.7,0-1.1,0-1.1,0-2.2.1-3.3.3-.9.1-1.9.4-2.8.6-.5.1-.9.2-1.4.4-1.2.3-2.4.7-3.6,1.1-.7.3-1.4.6-2.2.9-.7.3-1.4.7-2.1,1-.7.4-1.4.7-2,1.1-.7.4-1.4.9-2.1,1.4-.7.5-1.4,1-2,1.5-.4.3-.7.6-1.1.9-.5.4-.9.8-1.3,1.2-.2.2-.4.4-.7.6-7,7-11.2,16.5-11.2,27.1,0,21.2,17.2,38.3,38.3,38.3s1.7,0,2.5,0c.3,0,.6,0,.8,0,.9,0,1.7-.1,2.5-.3.9-.1,1.7-.3,2.5-.5.3,0,.5-.1.8-.2.8-.2,1.5-.4,2.3-.6.6-.2,1.2-.4,1.8-.6,14.7-5.4,25.2-19.5,25.2-36s-10.9-31.2-26.1-36.3ZM1006.1,407.8c-9.3,0-16.7-7.5-16.7-16.7s7.5-16.7,16.7-16.7,16.7,7.5,16.7,16.7-7.5,16.7-16.7,16.7Z"/>
      <path id="Pin_2" data-name="Pin 2" class="cls-29" d="M884.1,658.4c-.1-.5-.2-1-.4-1.5-.4-1.6-.9-3.2-1.6-4.7-.1-.4-.3-.7-.4-1-.8-1.9-1.8-3.6-2.9-5.2-.2-.3-.4-.6-.6-.9-1.7-2.5-3.7-4.8-5.9-6.8-.4-.4-.8-.7-1.2-1-.6-.5-1.1-.9-1.7-1.4-.5-.4-.9-.7-1.4-1-.9-.6-1.8-1.2-2.8-1.7-.5-.2-.9-.5-1.4-.7-1-.5-2-1-3-1.4-.5-.2-1-.4-1.5-.6-1.2-.5-2.5-.9-3.8-1.1-.5-.1-1-.3-1.5-.4-.8-.1-1.5-.3-2.3-.4-.5,0-1.1-.1-1.7-.2-.6,0-1.3-.1-2-.1-.6,0-1.3,0-2,0s-1.4,0-2,0c-1,0-2,.1-2.9.3-.5,0-1.1.1-1.6.2-1.7.3-3.4.7-5.1,1.2-.6.2-1.2.4-1.8.6-.6.2-1.2.4-1.8.7-.6.2-1.1.5-1.7.8-5.7,2.7-10.7,6.9-14.4,11.9-.6.8-1.2,1.7-1.7,2.6-.9,1.4-1.7,2.9-2.4,4.5-.6,1.3-1.1,2.7-1.6,4-.2.5-.3,1-.5,1.5-1,3.4-1.5,7-1.5,10.8,0,21.5,17.5,39.1,39.1,39.1s39.1-17.5,39.1-39.1-.4-6-1-8.8ZM846.1,683.8c-9.2,0-16.7-7.5-16.7-16.7s7.5-16.7,16.7-16.7,16.7,7.5,16.7,16.7-7.5,16.7-16.7,16.7Z"/>
      <path id="Pin_1" data-name="Pin 1" class="cls-29" d="M566.2,657.7c-.2-.9-.5-1.9-.8-2.8,0-.1,0-.2-.1-.3-.3-.8-.6-1.6-.9-2.4,0-.2-.2-.4-.3-.6-.3-.8-.7-1.6-1.1-2.3-.5-1-1.1-1.9-1.7-2.9-.5-.7-.9-1.4-1.5-2.1-.5-.7-1-1.4-1.6-2-.2-.3-.4-.5-.7-.8-.5-.6-1-1.1-1.6-1.7,0,0,0,0,0,0-.6-.6-1.2-1.1-1.8-1.7-.8-.7-1.7-1.4-2.6-2.1-.8-.6-1.6-1.1-2.4-1.7-.8-.5-1.7-1-2.6-1.5-.9-.5-1.8-.9-2.7-1.3-2.3-1-4.7-1.8-7.2-2.3-.5,0-1-.2-1.5-.3-.5,0-1-.2-1.5-.2-.5,0-1-.1-1.5-.2-1.3-.1-2.6-.2-3.9-.2s-2.7,0-4,.2c-.7,0-1.3.1-2,.2-1.9.3-3.9.7-5.7,1.3-3.7,1.1-7.2,2.8-10.3,4.9-.5.4-1,.7-1.5,1.1-.5.4-1,.8-1.5,1.1-.5.4-.9.8-1.4,1.2-.5.4-.9.9-1.4,1.3-.4.4-.9.9-1.3,1.4-1.3,1.4-2.4,2.9-3.5,4.5-.7,1.1-1.4,2.1-1.9,3.2-.3.6-.6,1.1-.9,1.7-.5,1.1-1,2.3-1.5,3.5-1.5,4.2-2.4,8.8-2.4,13.5,0,21.7,17.6,39.3,39.3,39.3s39.3-17.6,39.3-39.3-.4-6.7-1.2-9.8ZM528.2,684.3c-9.3,0-16.8-7.5-16.8-16.8s7.5-16.8,16.8-16.8,16.8,7.5,16.8,16.8-7.5,16.8-16.8,16.8Z"/>
      <path id="Pin_0" data-name="Pin 0" class="cls-29" d="M368.6,352.5c-.7,0-1.3,0-2,0-.6,0-1.2,0-1.9.1-2.4.2-4.8.7-7,1.4-16,4.7-27.7,19.5-27.7,37s9.7,29.7,23.5,35.5c1.1.5,2.3.9,3.5,1.3,1.2.4,2.4.7,3.7.9.6.1,1.3.3,1.9.4.6,0,1.3.2,1.9.2,1.3.1,2.6.2,3.9.2,21.3,0,38.6-17.2,38.6-38.6s-17.2-38.6-38.6-38.6ZM368.6,407.8c-9.2,0-16.7-7.5-16.7-16.7s7.5-16.7,16.7-16.7,16.7,7.5,16.7,16.7-7.5,16.7-16.7,16.7Z"/>
    </g>
    <g id="JacDac">
      <g>
        <g id="LWPOLYLINE">
          <path class="cls-29" d="M601.3,619c.4-.8.6-1.8.4-2.7-.4-2.3-2.4-3.9-4.7-3.8-.2,0-.4,0-.6,0-2.5.4-4.2,2.8-3.7,5.3.2,1,.6,1.8,1.3,2.4l4.9,27.9c.3,1.8,2.1,3,3.9,2.7h.8c1.8-.5,3-2.2,2.7-4l-4.9-27.9ZM597.1,620c-1.6,0-2.9-1.3-2.9-2.9s1.4-2.9,2.9-2.9,2.9,1.3,2.9,2.9-1.3,2.9-2.9,2.9Z"/>
        </g>
        <g id="ARC">
          <path class="cls-29" d="M611.7,617.1h0c.4-.9.6-1.8.4-2.7-.4-2.5-2.8-4.2-5.3-3.7-2.5.4-4.2,2.8-3.7,5.3.2,1,.6,1.8,1.3,2.4l5.7,32.1c.3,1.8,2.1,3,3.9,2.7h.8c1.8-.5,3-2.2,2.7-4l-5.7-32.1ZM607.6,618.1c-1.6,0-2.9-1.3-2.9-2.9s1.3-2.9,2.9-2.9,2.9,1.3,2.9,2.9-1.3,2.9-2.9,2.9Z"/>
        </g>
        <g id="LWPOLYLINE-2" data-name="LWPOLYLINE">
          <path class="cls-29" d="M622.2,615.3c.4-.8.6-1.8.4-2.7-.2-1-.6-1.9-1.3-2.5-1-1-2.5-1.5-4-1.3-2.5.4-4.2,2.8-3.7,5.3.2,1,.6,1.8,1.3,2.4l5.7,32.1c.3,1.8,2.1,3,3.9,2.7h.8c1.8-.5,3-2.2,2.7-4l-5.7-32.1ZM618,616.3c-1.6,0-2.9-1.3-2.9-2.9s1.3-2.9,2.9-2.9,2.9,1.3,2.9,2.9-1.3,2.9-2.9,2.9Z"/>
        </g>
      </g>
      <g>
        <g id="LINE">
          <path class="cls-29" d="M767.7,610.7c-2.5-.4-4.9,1.2-5.3,3.7-.2.9,0,1.9.4,2.7h0s-5.7,32.1-5.7,32.1c-.3,1.8.9,3.6,2.7,3.9h.8c1.8.5,3.6-.8,3.9-2.6l5.7-32.1c.6-.6,1.1-1.4,1.3-2.4.4-2.5-1.2-4.9-3.7-5.3ZM766.9,618.1c-1.6,0-2.9-1.3-2.9-2.9s1.3-2.9,2.9-2.9,2.9,1.3,2.9,2.9-1.3,2.9-2.9,2.9Z"/>
        </g>
        <g id="LWPOLYLINE-3" data-name="LWPOLYLINE">
          <path class="cls-29" d="M757.2,608.8c-1.6-.3-3.2.3-4.2,1.4-.6.6-1,1.4-1.1,2.3-.2.9,0,1.9.4,2.7l-4.9,27.9c-.3,1.8.9,3.6,2.7,3.9h.8c1.8.4,3.6-.8,3.9-2.6l4.9-27.9c.6-.6,1.1-1.4,1.3-2.4.4-2.5-1.2-4.9-3.7-5.3ZM756.4,616.3c-1.6,0-2.9-1.3-2.9-2.9s.3-1.4.7-1.9c.5-.6,1.3-1,2.2-1,1.6,0,2.9,1.3,2.9,2.9s-1.3,2.9-2.9,2.9Z"/>
        </g>
        <g id="LWPOLYLINE-4" data-name="LWPOLYLINE">
          <path class="cls-29" d="M778.1,612.5c-.3,0-.5,0-.8,0-2.2,0-4.2,1.6-4.5,3.8-.2.9,0,1.9.4,2.7l-5.7,32.1c-.3,1.8.9,3.5,2.7,3.9h.8c1.8.5,3.6-.7,3.9-2.6l5.7-32.1c.6-.6,1.1-1.4,1.3-2.4.4-2.5-1.2-4.9-3.7-5.3ZM777.3,620c-1.6,0-2.9-1.3-2.9-2.9s1.3-2.9,2.9-2.9,2.9,1.3,2.9,2.9-1.3,2.9-2.9,2.9Z"/>
        </g>
      </g>
    </g>
    <g id="Mikrofon">
      <rect class="cls-9" x="898.5" y="400.4" width="30.6" height="24.6" rx="1.7" ry="1.7"/>
      <rect class="cls-29" x="899.3" y="401.1" width="28.9" height="23.3" rx="1.6" ry="1.6"/>
      <circle class="cls-16" cx="905.7" cy="412.7" r="1.7"/>
    </g>
    <path class="cls-12" d="M878,362.3l-7.7-7.7,9.2-9.2,7.7,7.7-9.2,9.2Z"/>
    <path class="cls-12" d="M925.1,315.3l-7.7-7.7,9.2-9.2,7.7,7.7-9.2,9.2Z"/>
    <path class="cls-12" d="M904.7,388.9l-7.7-7.7,9.2-9.2,7.7,7.7-9.2,9.2Z"/>
    <path class="cls-12" d="M951.7,341.9l-7.7-7.7,9.2-9.2,7.7,7.7-9.2,9.2Z"/>
    <path class="cls-12" d="M836.9,253.6l-3.5-7.6,34.1-15.9,3.5,7.6-34.1,15.9Z"/>
    <path class="cls-12" d="M844,268.7l-3.5-7.6,34.1-15.9,3.5,7.6-34.1,15.9Z"/>
    <path class="cls-12" d="M851,283.9l-3.5-7.6,34.1-15.9,3.5,7.6-34.1,15.9Z"/>
    <path class="cls-12" d="M858.1,299.1l-3.5-7.6,34.1-15.9,3.5,7.6-34.1,15.9Z"/>
    <path class="cls-12" d="M860.5,452.3l23.1,18-5.1,6.6-23.1-18,5.1-6.6Z"/>
    <path class="cls-12" d="M887.9,496l22.4,17.5-7.7,9.9-22.4-17.5,7.7-9.9Z"/>
    <path class="cls-12" d="M922.4,451.9l22.4,17.5-7.7,9.9-22.4-17.5,7.7-9.9Z"/>
    <path class="cls-12" d="M870.8,439.1l23.1,18-5.1,6.6-23.1-18,5.1-6.6Z"/>
    <path class="cls-12" d="M797.7,436.2v.7c0,0-.5.9-.5.9l-.7.7-.9.4h-.7c0,0-13.5,0-13.5,0h-.7c0,0-.9-.5-.9-.5l-.7-.7-.4-.9v-.7c0,0,0-13.5,0-13.5v-.7c0,0,.5-.9.5-.9l.7-.7.9-.4h.7c0,0,13.5,0,13.5,0h.7c0,0,.9.5.9.5l.7.7.4.9v.7c0,0,0,13.5,0,13.5Z"/>
    <path class="cls-12" d="M857,436.2v.7c0,0-.5.9-.5.9l-.7.7-.9.4h-.7c0,0-13.5,0-13.5,0h-.7c0,0-.9-.5-.9-.5l-.7-.7-.4-.9v-.7c0,0,0-13.5,0-13.5v-.7c0,0,.5-.9.5-.9l.7-.7.9-.4h.7c0,0,13.5,0,13.5,0h.7c0,0,.9.5.9.5l.7.7.4.9v.7c0,0,0,13.5,0,13.5Z"/>
    <path class="cls-12" d="M857,376.8v.7c0,0-.5.9-.5.9l-.7.7-.9.4h-.7c0,0-13.5,0-13.5,0h-.7c0,0-.9-.5-.9-.5l-.7-.7-.4-.9v-.7c0,0,0-13.5,0-13.5v-.7c0,0,.5-.9.5-.9l.7-.7.9-.4h.7c0,0,13.5,0,13.5,0h.7c0,0,.9.5.9.5l.7.7.4.9v.7c0,0,0,13.5,0,13.5Z"/>
    <path class="cls-12" d="M797.7,376.8v.7c0,0-.5.9-.5.9l-.7.7-.9.4h-.7c0,0-13.5,0-13.5,0h-.7c0,0-.9-.5-.9-.5l-.7-.7-.4-.9v-.7c0,0,0-13.5,0-13.5v-.7c0,0,.5-.9.5-.9l.7-.7.9-.4h.7c0,0,13.5,0,13.5,0h.7c0,0,.9.5.9.5l.7.7.4.9v.7c0,0,0,13.5,0,13.5Z"/>
    <path class="cls-12" d="M522.1,291.7l-3.5,7.6-34.1-15.9,3.5-7.6,34.1,15.9Z"/>
    <path class="cls-12" d="M529.2,276.5l-3.5,7.6-34.1-15.9,3.5-7.6,34.1,15.9Z"/>
    <path class="cls-12" d="M536.3,261.3l-3.5,7.6-34.1-15.9,3.5-7.6,34.1,15.9Z"/>
    <path class="cls-12" d="M543.3,246.2l-3.5,7.6-34.1-15.9,3.5-7.6,34.1,15.9Z"/>
    <path class="cls-12" d="M544.6,525.3h-7.4v-15.3h7.4v15.3Z"/>
    <path class="cls-12" d="M544.6,578.6h-7.4v-15.3h7.4v15.3Z"/>
    <path class="cls-12" d="M565.8,525.3h-7.4v-15.3h7.4v15.3Z"/>
    <path class="cls-12" d="M565.8,578.6h-7.4v-15.3h7.4v15.3Z"/>
    <path class="cls-12" d="M587.1,525.3h-7.4v-15.3h7.4v15.3Z"/>
    <path class="cls-12" d="M587.1,578.6h-7.4v-15.3h7.4v15.3Z"/>
    <path class="cls-12" d="M608.3,525.3h-7.4v-15.3h7.4v15.3Z"/>
    <path class="cls-12" d="M608.3,578.6h-7.4v-15.3h7.4v15.3Z"/>
    <path class="cls-12" d="M629.6,525.3h-7.4v-15.3h7.4v15.3Z"/>
    <path class="cls-12" d="M629.6,578.6h-7.4v-15.3h7.4v15.3Z"/>
    <path class="cls-12" d="M650.8,525.3h-7.4v-15.3h7.4v15.3Z"/>
    <path class="cls-12" d="M650.8,578.6h-7.4v-15.3h7.4v15.3Z"/>
    <path class="cls-12" d="M672.1,525.3h-7.4v-15.3h7.4v15.3Z"/>
    <path class="cls-12" d="M672.1,578.6h-7.4v-15.3h7.4v15.3Z"/>
    <path class="cls-12" d="M693.3,525.3h-7.4v-15.3h7.4v15.3Z"/>
    <path class="cls-12" d="M693.3,578.6h-7.4v-15.3h7.4v15.3Z"/>
    <path class="cls-12" d="M714.6,525.3h-7.4v-15.3h7.4v15.3Z"/>
    <path class="cls-12" d="M714.6,578.6h-7.4v-15.3h7.4v15.3Z"/>
    <path class="cls-12" d="M735.8,525.3h-7.4v-15.3h7.4v15.3Z"/>
    <path class="cls-12" d="M735.8,578.6h-7.4v-15.3h7.4v15.3Z"/>
    <path class="cls-12" d="M757,525.3h-7.4v-15.3h7.4v15.3Z"/>
    <path class="cls-12" d="M757,578.6h-7.4v-15.3h7.4v15.3Z"/>
    <path class="cls-12" d="M778.3,525.3h-7.4v-15.3h7.4v15.3Z"/>
    <path class="cls-12" d="M778.3,578.6h-7.4v-15.3h7.4v15.3Z"/>
    <path class="cls-12" d="M799.5,525.3h-7.4v-15.3h7.4v15.3Z"/>
    <path class="cls-12" d="M799.5,578.6h-7.4v-15.3h7.4v15.3Z"/>
    <path class="cls-12" d="M820.8,525.3h-7.4v-15.3h7.4v15.3Z"/>
    <path class="cls-12" d="M820.8,578.6h-7.4v-15.3h7.4v15.3Z"/>
    <path class="cls-12" d="M842,525.3h-7.4v-15.3h7.4v15.3Z"/>
    <path class="cls-12" d="M842,578.6h-7.4v-15.3h7.4v15.3Z"/>
    <path class="cls-12" d="M474.6,381.2l-7.7,7.7-9.2-9.2,7.7-7.7,9.2,9.2Z"/>
    <path class="cls-12" d="M427.6,334.2l-7.7,7.7-9.2-9.2,7.7-7.7,9.2,9.2Z"/>
    <path class="cls-12" d="M501.2,354.6l-7.7,7.7-9.2-9.2,7.7-7.7,9.2,9.2Z"/>
    <path class="cls-12" d="M454.2,307.6l-7.7,7.7-9.2-9.2,7.7-7.7,9.2,9.2Z"/>
    <path class="cls-12" d="M504.5,163.9h10v11.7h-10v-11.7Z"/>
    <path class="cls-12" d="M504.5,182.3h10v11.7h-10v-11.7Z"/>
    <path class="cls-12" d="M518.7,182.3h10v11.7h-10v-11.7Z"/>
    <path class="cls-12" d="M518.7,163.9h10v11.7h-10v-11.7Z"/>
    <path id="Lautsprecher-2" data-name="Lautsprecher" class="cls-23" d="M795.4,435.3h44.6c.4,0,.9-.2,1.2-.5l11.6-11.6c.3-.3.5-.7.5-1.2v-44.6c0-.4-.2-.9-.5-1.2l-11.6-11.6c-.3-.3-.7-.5-1.2-.5h-44.6c-.4,0-.9.2-1.2.5l-11.6,11.6c-.3.3-.5.7-.5,1.2v44.6c0,.4.2.9.5,1.2l11.6,11.6c.3.3.7.5,1.2.5Z"/>
    <g id="Anwendungs-Prozessor">
      <rect class="cls-23" x="517.8" y="391" width="58.5" height="58.5" rx="1.7" ry="1.7" transform="translate(-136.9 509.9) rotate(-45)"/>
    </g>
    <g id="Taste_B-2" data-name="Taste B">
      <polygon class="cls-5" points="900.1 381.5 904.2 385.7 907.2 382.6 907.3 382.6 907.4 382.4 907.9 382 908.5 381.3 908.9 380.9 909.1 380.7 909.7 380.2 910.4 379.5 913.1 376.8 908.9 372.7 905.5 376.1 905 376.6 904.8 376.8 904.4 377.2 903.7 377.9 903.1 378.5 902.6 379 900.1 381.5"/>
      <polygon class="cls-5" points="944.4 337.2 948.5 341.4 951.2 338.7 951.9 338 952.5 337.4 952.7 337.2 953 336.8 953.7 336.1 954.1 335.7 957.4 332.5 953.2 328.4 950.7 330.9 950.2 331.4 949.6 332 948.9 332.7 948.5 333.1 948.3 333.3 947.8 333.8 944.4 337.2"/>
      <polygon class="cls-5" points="917.8 310.6 921.9 314.8 924.6 312.1 925.3 311.4 925.9 310.8 926.1 310.6 926.5 310.2 927.7 309 927.8 309 928.3 308.4 930.8 305.9 926.7 301.8 923.4 305 923 305.4 922.3 306.1 921.9 306.5 921.7 306.7 921.2 307.2 920.4 308 917.8 310.6"/>
      <polygon class="cls-5" points="873.5 354.9 877.6 359.1 880.7 356 880.7 356 880.9 355.8 882.5 354.2 883.1 353.6 883.8 352.9 886.5 350.2 882.3 346.1 878.9 349.5 878.4 350 878.2 350.2 877.8 350.6 877.1 351.3 876.7 351.7 873.5 354.9"/>
      <path class="cls-11" d="M905.1,354.1c5.7,5.7,15,5.7,20.7,0,5.7-5.7,5.7-15,0-20.7-5.7-5.7-15-5.7-20.7,0-5.7,5.7-5.7,15,0,20.7Z"/>
      <path class="cls-15" d="M881.4,345.2l.9.9,4.2,4.1,22.4,22.5,4.2,4.1.9.9c.8.8,2.1.8,2.9,0l32.5-32.5c.8-.8.8-2.1,0-2.9l-.9-.9-4.1-4.2-22.5-22.4-4.1-4.1-.9-.9c-.8-.8-2.2-.8-2.9,0l-32.5,32.5c-.8.8-.8,2.1,0,2.9ZM918.4,321.1c-1.6,1.7-4.3,1.7-5.9,0-1.7-1.6-1.7-4.3,0-5.9,1.6-1.6,4.3-1.6,5.9,0,1.6,1.6,1.6,4.3,0,5.9ZM938.1,340.8c1.6-1.7,4.3-1.7,5.9,0,1.6,1.6,1.6,4.3,0,5.9-1.6,1.7-4.3,1.7-5.9,0-1.7-1.6-1.7-4.3,0-5.9ZM912.5,366.4c1.6-1.7,4.3-1.7,5.9,0,1.6,1.6,1.6,4.3,0,5.9-1.6,1.6-4.3,1.6-5.9,0-1.7-1.6-1.7-4.3,0-5.9ZM905.1,333.4c5.7-5.7,15-5.7,20.7,0,5.7,5.7,5.7,15,0,20.7-5.7,5.7-15,5.7-20.7,0-5.7-5.7-5.7-15,0-20.7ZM886.9,340.8c1.6-1.7,4.3-1.7,5.9,0,1.7,1.6,1.7,4.3,0,5.9-1.6,1.7-4.3,1.7-5.9,0-1.7-1.6-1.7-4.3,0-5.9Z"/>
      <path class="cls-23" d="M886.9,346.7c1.6,1.7,4.3,1.7,5.9,0,1.7-1.6,1.7-4.3,0-5.9-1.6-1.7-4.3-1.7-5.9,0-1.7,1.6-1.7,4.3,0,5.9Z"/>
      <path class="cls-23" d="M912.5,321.1c1.6,1.7,4.3,1.7,5.9,0,1.6-1.6,1.6-4.3,0-5.9-1.6-1.6-4.3-1.6-5.9,0-1.7,1.6-1.7,4.3,0,5.9Z"/>
      <path class="cls-23" d="M938.1,346.7c1.6,1.7,4.3,1.7,5.9,0,1.6-1.6,1.6-4.3,0-5.9-1.6-1.7-4.3-1.7-5.9,0-1.7,1.6-1.7,4.3,0,5.9Z"/>
      <path class="cls-23" d="M912.5,372.2c1.6,1.6,4.3,1.6,5.9,0,1.6-1.6,1.6-4.3,0-5.9-1.6-1.7-4.3-1.7-5.9,0-1.7,1.6-1.7,4.3,0,5.9Z"/>
    </g>
    <g id="Grove_rechts">
      <polygon class="cls-13" points="881 210.1 876.4 212.2 875.1 209.2 871.3 210.9 869.1 206.4 877.5 202.5 881 210.1"/>
      <polygon class="cls-13" points="919.5 292.6 911.2 296.5 909 292 912.8 290.2 911.4 287.2 916 285.1 919.5 292.6"/>
      <polygon class="cls-3" points="916 285.1 911.4 287.2 907.6 288.9 891.5 296.4 890.2 297.1 887.9 298.1 883.4 300.2 876.6 303.4 870.2 289.8 877 286.6 875.3 282.8 879.8 280.7 881.6 284.5 881.6 284.5 883.7 289 879.2 291.1 879.2 291.1 877.6 291.8 879.8 296.4 879.8 296.4 881.3 295.7 881.3 295.7 909.3 282.6 906.1 275.8 905.1 273.5 903.3 269.8 903.3 269.7 898.2 258.8 896.4 255 896.4 255 891.5 244.4 889.7 240.6 884.6 229.6 882.8 225.9 881.7 223.6 878.6 216.7 850.6 229.8 849 230.5 851.2 235.1 852.7 234.4 857.2 232.2 859.3 236.8 861.1 240.6 856.6 242.7 856.5 242.7 854.8 238.9 848 242.1 841.6 228.4 848.4 225.3 848.4 225.3 853 223.2 855.2 222.1 872.7 214 876.4 212.2 881 210.1 886.3 221.5 887.3 223.7 889.1 227.5 894.2 238.5 896 242.3 900.9 252.9 902.7 256.7 907.8 267.6 909.6 271.4 910.7 273.7 916 285.1"/>
      <polygon class="cls-13" points="851.6 220.1 853 223.2 848.4 225.3 848.4 225.3 841.6 228.4 838.1 220.9 844.9 217.7 851.7 214.5 853.8 219.1 851.6 220.1"/>
      <polygon class="cls-13" points="893.7 304.6 886.9 307.8 880.1 311 876.6 303.4 883.4 300.2 887.9 298.1 889.3 301.2 891.6 300.1 893.7 304.6"/>
      <path class="cls-1" d="M906.1,275.8l-1.1-2.3-1.8-3.8h0s-5.1-11-5.1-11l-1.7-3.8h0l-4.9-10.6-1.8-3.8-5.1-11-1.8-3.8-1.1-2.3-3.2-6.8-28,13.1-1.5.7,2.1,4.6,1.5-.7,4.5-2.1,2.1,4.5,1.8,3.8h0s1.1,2.3,1.1,2.3l4.1,8.7h0s1.7,3.8,1.7,3.8h0l4.9,10.6h0s1.8,3.8,1.8,3.8h0s4.1,8.7,4.1,8.7l1,2.3h0l1.7,3.8h0s2.1,4.6,2.1,4.6l-4.5,2.1h0l-1.5.7,2.1,4.5,1.5-.7,28-13.1-3.2-6.8Z"/>
      <polygon class="cls-7" points="874.7 234.2 871 236 869.2 232.2 869.9 231.8 872.2 230.8 873 230.4 874.7 234.2"/>
      <polygon class="cls-7" points="881.6 249 881.2 249.2 880.9 249.3 878.6 250.4 878.6 250.4 877.8 250.7 876.1 247 879.9 245.2 881.6 249"/>
      <polygon class="cls-7" points="888.3 263.4 884.5 265.1 882.8 261.4 882.8 261.3 882.8 261.3 883.5 261 885.8 260 885.8 259.9 886.5 259.6 888.3 263.4"/>
      <polygon class="cls-7" points="895.2 278.1 894.4 278.5 892.2 279.6 891.4 279.9 889.6 276.1 893.4 274.3 895.2 278.1"/>
      <polygon class="cls-15" points="856.6 242.7 856.6 242.7 856.5 242.7 841.4 249.8 838 250.4 837 248.1 839.7 246 848 242.1 854.8 238.9 856.5 242.7 856.6 242.7"/>
      <polygon class="cls-13" points="879.8 280.7 875.3 282.8 874.2 280.6 872.1 276.1 870.2 271.8 868.4 268.1 863.4 257.4 861.7 253.7 861.7 253.6 859.7 249.4 857.6 245 856.6 242.7 856.6 242.7 861.1 240.6 862.1 242.8 862.2 242.8 866.2 251.6 868 255.3 868 255.4 872.9 265.9 872.9 266 874.7 269.7 874.7 269.7 878.7 278.4 879.8 280.7"/>
      <polygon class="cls-15" points="857.4 260.3 848.3 264.5 844.9 265.2 843.9 262.9 846.5 260.7 855.6 256.5 857.4 260.3"/>
      <polygon class="cls-1" points="872.1 276.1 866.1 278.9 864.1 274.7 862.3 270.9 857.4 260.3 855.6 256.5 853.7 252.3 859.7 249.4 861.7 253.6 861.7 253.7 863.4 257.4 868.4 268.1 870.2 271.8 872.1 276.1"/>
      <polygon class="cls-15" points="864.1 274.7 855 278.9 851.6 279.6 850.6 277.3 853.2 275.1 862.3 270.9 864.1 274.7"/>
      <polygon class="cls-15" points="877 286.6 870.2 289.8 861.9 293.7 858.5 294.3 857.5 292.1 860.1 289.9 875.3 282.8 877 286.6"/>
      <polygon class="cls-5" points="869.1 206.4 871.3 210.9 875.1 209.2 876.4 212.2 853 223.2 851.6 220.1 853.8 219.1 851.7 214.5 869.1 206.4"/>
      <polyline class="cls-5" points="911.4 287.2 912.8 290.2 909 292 911.2 296.5 893.7 304.6 891.6 300.1 889.3 301.2 887.9 298.1 890.2 297.1 891.5 296.4 907.6 288.9 911.4 287.2"/>
    </g>
    <g id="Grove_links">
      <polygon class="cls-13" points="495.5 211 500.1 213.2 501.5 210.1 505.3 211.9 507.4 207.3 499.1 203.5 495.5 211"/>
      <polygon class="cls-22" points="457.1 293.6 465.4 297.5 467.5 292.9 463.7 291.1 465.1 288.1 460.6 286 457.1 293.6"/>
      <polygon class="cls-8" points="460.6 286 465.1 288.1 468.9 289.9 485 297.4 486.3 298 488.6 299.1 493.1 301.2 500 304.4 506.3 290.7 499.5 287.5 501.3 283.8 496.7 281.7 495 285.4 495 285.5 492.9 290 497.4 292.1 497.4 292.1 498.9 292.8 496.8 297.3 496.8 297.4 495.2 296.7 495.2 296.6 467.2 283.6 470.4 276.8 471.5 274.5 473.3 270.7 473.3 270.7 478.4 259.7 480.1 256 480.2 256 485.1 245.3 486.8 241.6 492 230.6 493.7 226.8 494.8 224.5 498 217.7 526 230.8 527.5 231.5 525.4 236 523.9 235.3 519.3 233.2 517.2 237.7 515.4 241.5 520 243.6 520 243.6 521.7 239.9 528.6 243 534.9 229.4 528.1 226.2 528.1 226.2 523.6 224.1 521.3 223.1 503.9 214.9 500.1 213.2 495.5 211 490.3 222.4 489.2 224.7 487.4 228.5 482.3 239.4 480.5 243.2 475.6 253.8 473.8 257.6 468.7 268.6 466.9 272.4 465.9 274.6 460.6 286"/>
      <polygon class="cls-13" points="525 221.1 523.6 224.1 528.1 226.2 528.1 226.2 534.9 229.4 538.5 221.8 531.6 218.6 524.8 215.5 522.7 220 525 221.1"/>
      <polygon class="cls-13" points="482.8 305.6 489.6 308.7 496.5 311.9 500 304.4 493.1 301.2 488.6 299.1 487.2 302.1 484.9 301 482.8 305.6"/>
      <path class="cls-1" d="M467.2,283.6l28,13.1,1.5.7,2.1-4.5-1.5-.7h0l-4.5-2.1,2.1-4.5h0s1.7-3.8,1.7-3.8h0l1-2.3,4.1-8.7h0s1.8-3.8,1.8-3.8h0s4.9-10.6,4.9-10.6h0l1.7-3.8h0s4.1-8.7,4.1-8.7l1.1-2.2h0s1.8-3.8,1.8-3.8l2.1-4.5,4.5,2.1,1.5.7,2.1-4.6-1.5-.7-28-13.1-3.2,6.8-1.1,2.3-1.8,3.8-5.1,11-1.8,3.8-4.9,10.6h0l-1.7,3.8-5.1,11h0s-1.8,3.8-1.8,3.8l-1.1,2.3-3.2,6.8Z"/>
      <polygon class="cls-7" points="501.8 235.2 505.6 236.9 507.4 233.1 506.6 232.8 504.4 231.7 503.6 231.4 501.8 235.2"/>
      <polygon class="cls-7" points="494.9 249.9 495.4 250.1 495.7 250.3 498 251.4 498 251.3 498.7 251.7 500.5 247.9 496.7 246.1 494.9 249.9"/>
      <polygon class="cls-7" points="488.2 264.3 492 266.1 493.8 262.3 493.8 262.3 493.7 262.3 493 261.9 490.7 260.9 490.7 260.9 490 260.5 488.2 264.3"/>
      <polygon class="cls-7" points="481.3 279.1 482.1 279.4 484.4 280.5 485.1 280.9 486.9 277.1 483.1 275.3 481.3 279.1"/>
      <polygon class="cls-15" points="520 243.6 520 243.7 520 243.7 535.1 250.7 538.5 251.4 539.6 249.1 536.9 246.9 528.6 243 521.7 239.9 520 243.6 520 243.6"/>
      <polygon class="cls-13" points="496.7 281.7 501.3 283.8 502.3 281.5 504.4 277 506.4 272.8 508.2 269 513.1 258.4 514.9 254.6 514.9 254.6 516.8 250.4 518.9 245.9 520 243.7 520 243.6 515.4 241.5 514.4 243.8 514.4 243.8 510.3 252.5 508.6 256.3 508.6 256.3 503.6 266.9 503.6 266.9 501.8 270.7 501.8 270.7 497.8 279.4 496.7 281.7"/>
      <polygon class="cls-15" points="519.1 261.2 528.3 265.5 531.6 266.1 532.7 263.9 530 261.7 520.9 257.4 519.1 261.2"/>
      <polygon class="cls-1" points="504.4 277 510.5 279.9 512.5 275.6 514.2 271.8 519.1 261.2 520.9 257.4 522.9 253.2 516.8 250.4 514.9 254.6 514.9 254.6 513.1 258.4 508.2 269 506.4 272.8 504.4 277"/>
      <polygon class="cls-15" points="512.5 275.6 521.5 279.9 524.9 280.5 526 278.2 523.3 276.1 514.2 271.8 512.5 275.6"/>
      <polygon class="cls-15" points="499.5 287.5 506.3 290.7 514.7 294.6 518 295.3 519.1 293 516.4 290.8 501.3 283.8 499.5 287.5"/>
      <polygon class="cls-5" points="507.4 207.3 505.3 211.9 501.5 210.1 500.1 213.2 523.6 224.1 525 221.1 522.7 220 524.8 215.5 507.4 207.3"/>
      <polyline class="cls-5" points="465.1 288.1 463.7 291.1 467.5 292.9 465.4 297.5 482.8 305.6 484.9 301 487.2 302.1 488.6 299.1 486.3 298 485 297.4 468.9 289.9 465.1 288.1"/>
    </g>
    <g id="RGB-LEDs">
      <g id="RGB-LED">
        <path class="cls-20" d="M649.6,449.5c0,1,.7,1.9,1.7,2.1v4.2c-.9.2-1.7,1.1-1.7,2.1s.7,1.9,1.7,2.1v1.3c0,.5-.4.9-.8.9h-16.7c-.5,0-.8-.4-.8-.9v-1.3c.9-.2,1.7-1.1,1.7-2.1s-.7-1.9-1.7-2.1v-4.2c.9-.2,1.7-1.1,1.7-2.1s-.7-1.9-1.7-2.1v-1.3c0-.5.4-.8.8-.8h16.7c.5,0,.8.4.8.8v1.3c-.9.2-1.7,1.1-1.7,2.1Z"/>
        <rect class="cls-18" x="637.1" y="446.7" width="5.8" height="2.8"/>
        <rect class="cls-24" x="636" y="445.3" width="12.1" height="16.7"/>
      </g>
      <g id="RGB-LED-2" data-name="RGB-LED">
        <path class="cls-20" d="M691.4,449.5c0,1,.7,1.9,1.7,2.1v4.2c-.9.2-1.7,1.1-1.7,2.1s.7,1.9,1.7,2.1v1.3c0,.5-.4.9-.8.9h-16.7c-.5,0-.8-.4-.8-.9v-1.3c.9-.2,1.7-1.1,1.7-2.1s-.7-1.9-1.7-2.1v-4.2c.9-.2,1.7-1.1,1.7-2.1s-.7-1.9-1.7-2.1v-1.3c0-.5.4-.8.8-.8h16.7c.5,0,.8.4.8.8v1.3c-.9.2-1.7,1.1-1.7,2.1Z"/>
        <rect class="cls-18" x="679" y="446.7" width="5.8" height="2.8"/>
        <rect class="cls-24" x="677.8" y="445.3" width="12.1" height="16.7"/>
      </g>
      <g id="RGB-LED-3" data-name="RGB-LED">
        <path class="cls-20" d="M733.2,449.5c0,1,.7,1.9,1.7,2.1v4.2c-.9.2-1.7,1.1-1.7,2.1s.7,1.9,1.7,2.1v1.3c0,.5-.4.9-.8.9h-16.7c-.5,0-.8-.4-.8-.9v-1.3c.9-.2,1.7-1.1,1.7-2.1s-.7-1.9-1.7-2.1v-4.2c.9-.2,1.7-1.1,1.7-2.1s-.7-1.9-1.7-2.1v-1.3c0-.5.4-.8.8-.8h16.7c.5,0,.8.4.8.8v1.3c-.9.2-1.7,1.1-1.7,2.1Z"/>
        <rect class="cls-18" x="720.7" y="446.7" width="5.8" height="2.8"/>
        <rect class="cls-24" x="719.6" y="445.3" width="12.1" height="16.7"/>
      </g>
    </g>
    <g id="Kleine_LEDs" data-name="Kleine LEDs">
      <use width="1.4" height="2.8" transform="translate(626.6 141.9) scale(2.9)" xlink:href="#Calliope_3_Small_LED_2"/>
      <use width="1.4" height="2.8" transform="translate(618.2 141.9) scale(2.9)" xlink:href="#Calliope_3_Small_LED_2"/>
      <use width="1.4" height="2.8" transform="translate(930.9 393.3) rotate(-90) scale(2.9)" xlink:href="#Calliope_3_Small_LED_2"/>
    </g>
    <g id="LED-Matrix">
      <use width="2.3" height="4.8" transform="translate(613.2 291) scale(3.3 2.9)" xlink:href="#Calliope_3_LED_2"/>
      <use width="2.3" height="4.8" transform="translate(646.7 291) scale(3.3 2.9)" xlink:href="#Calliope_3_LED_2"/>
      <use width="2.3" height="4.8" transform="translate(713.6 291) scale(3.3 2.9)" xlink:href="#Calliope_3_LED_2"/>
      <use width="2.3" height="4.8" transform="translate(680.1 291) scale(3.3 2.9)" xlink:href="#Calliope_3_LED_2"/>
      <use width="2.3" height="4.8" transform="translate(747.1 291) scale(3.3 2.9)" xlink:href="#Calliope_3_LED_2"/>
      <use width="2.3" height="4.8" transform="translate(613.2 324.5) scale(3.3 2.9)" xlink:href="#Calliope_3_LED_2"/>
      <use width="2.3" height="4.8" transform="translate(646.7 324.5) scale(3.3 2.9)" xlink:href="#Calliope_3_LED_2"/>
      <use width="2.3" height="4.8" transform="translate(680.1 324.5) scale(3.3 2.9)" xlink:href="#Calliope_3_LED_2"/>
      <use width="2.3" height="4.8" transform="translate(713.6 324.5) scale(3.3 2.9)" xlink:href="#Calliope_3_LED_2"/>
      <use width="2.3" height="4.8" transform="translate(747.1 324.5) scale(3.3 2.9)" xlink:href="#Calliope_3_LED_2"/>
      <use width="2.3" height="4.8" transform="translate(613.2 257.5) scale(3.3 2.9)" xlink:href="#Calliope_3_LED_2"/>
      <use width="2.3" height="4.8" transform="translate(646.7 257.5) scale(3.3 2.9)" xlink:href="#Calliope_3_LED_2"/>
      <use width="2.3" height="4.8" transform="translate(680.1 257.5) scale(3.3 2.9)" xlink:href="#Calliope_3_LED_2"/>
      <use width="2.3" height="4.8" transform="translate(713.6 257.5) scale(3.3 2.9)" xlink:href="#Calliope_3_LED_2"/>
      <use width="2.3" height="4.8" transform="translate(747.1 257.5) scale(3.3 2.9)" xlink:href="#Calliope_3_LED_2"/>
      <use width="2.3" height="4.8" transform="translate(613.2 358) scale(3.3 2.9)" xlink:href="#Calliope_3_LED_2"/>
      <use width="2.3" height="4.8" transform="translate(646.7 358) scale(3.3 2.9)" xlink:href="#Calliope_3_LED_2"/>
      <use width="2.3" height="4.8" transform="translate(680.1 358) scale(3.3 2.9)" xlink:href="#Calliope_3_LED_2"/>
      <use width="2.3" height="4.8" transform="translate(713.6 358) scale(3.3 2.9)" xlink:href="#Calliope_3_LED_2"/>
      <use width="2.3" height="4.8" transform="translate(747.1 358) scale(3.3 2.9)" xlink:href="#Calliope_3_LED_2"/>
      <use width="2.3" height="4.8" transform="translate(613.2 391.4) scale(3.3 2.9)" xlink:href="#Calliope_3_LED_2"/>
      <use width="2.3" height="4.8" transform="translate(646.7 391.4) scale(3.3 2.9)" xlink:href="#Calliope_3_LED_2"/>
      <use width="2.3" height="4.8" transform="translate(680.1 391.4) scale(3.3 2.9)" xlink:href="#Calliope_3_LED_2"/>
      <use width="2.3" height="4.8" transform="translate(713.6 391.4) scale(3.3 2.9)" xlink:href="#Calliope_3_LED_2"/>
      <use width="2.3" height="4.8" transform="translate(747.1 391.4) scale(3.3 2.9)" xlink:href="#Calliope_3_LED_2"/>
    </g>
    <path class="cls-12" d="M566.3,228.3h-.2s-.2-.2-.2-.2v-.2c-.1,0-.2-.2-.2-.2v-6.1s.2-.2.2-.2h.2c0-.1.2-.2.2-.2h1.2s.2.2.2.2v.2c.1,0,.2.2.2.2v6.1s-.2.2-.2.2h-.2c0,.1-.2.2-.2.2h-1Z"/>
    <path class="cls-12" d="M569.6,228.3h-.2s-.2-.2-.2-.2v-.2c-.1,0-.2-.2-.2-.2v-6.1s.2-.2.2-.2h.2c0-.1.2-.2.2-.2h1.2s.2.2.2.2v.2c.1,0,.2.2.2.2v6.1s-.2.2-.2.2h-.2c0,.1-.2.2-.2.2h-1Z"/>
    <path class="cls-12" d="M573,228.3h-.2s-.2-.2-.2-.2v-.2c-.1,0-.2-.2-.2-.2v-6.1s.2-.2.2-.2h.2c0-.1.2-.2.2-.2h1.2s.2.2.2.2v.2c.1,0,.2.2.2.2v6.1s-.2.2-.2.2h-.2c0,.1-.2.2-.2.2h-1Z"/>
    <path class="cls-12" d="M576.3,228.3h-.2s-.2-.2-.2-.2v-.2c-.1,0-.2-.2-.2-.2v-6.1s.2-.2.2-.2h.2c0-.1.2-.2.2-.2h1.2s.2.2.2.2v.2c.1,0,.2.2.2.2v6.1s-.2.2-.2.2h-.2c0,.1-.2.2-.2.2h-1Z"/>
    <path class="cls-12" d="M579.6,228.3h-.2s-.2-.2-.2-.2v-.2c-.1,0-.2-.2-.2-.2v-6.1s.2-.2.2-.2h.2c0-.1.2-.2.2-.2h1.2s.2.2.2.2v.2c.1,0,.2.2.2.2v6.1s-.2.2-.2.2h-.2c0,.1-.2.2-.2.2h-1Z"/>
    <path class="cls-12" d="M583,228.3h-.2s-.2-.2-.2-.2v-.2c-.1,0-.2-.2-.2-.2v-6.1s.2-.2.2-.2h.2c0-.1.2-.2.2-.2h1.2s.2.2.2.2v.2c.1,0,.2.2.2.2v6.1s-.2.2-.2.2h-.2c0,.1-.2.2-.2.2h-1Z"/>
    <path class="cls-12" d="M586.3,228.3h-.2s-.2-.2-.2-.2v-.2c-.1,0-.2-.2-.2-.2v-6.1s.2-.2.2-.2h.2c0-.1.2-.2.2-.2h1.2s.2.2.2.2v.2c.1,0,.2.2.2.2v6.1s-.2.2-.2.2h-.2c0,.1-.2.2-.2.2h-1Z"/>
    <path class="cls-12" d="M589.7,228.3h-.2s-.2-.2-.2-.2v-.2c-.1,0-.2-.2-.2-.2v-6.1s.2-.2.2-.2h.2c0-.1.2-.2.2-.2h1.2s.2.2.2.2v.2c.1,0,.2.2.2.2v6.1s-.2.2-.2.2h-.2c0,.1-.2.2-.2.2h-1Z"/>
    <path class="cls-12" d="M593,228.3h-.2s-.2-.2-.2-.2v-.2c-.1,0-.2-.2-.2-.2v-6.1s.2-.2.2-.2h.2c0-.1.2-.2.2-.2h1.2s.2.2.2.2v.2c.1,0,.2.2.2.2v6.1s-.2.2-.2.2h-.2c0,.1-.2.2-.2.2h-1Z"/>
    <path class="cls-12" d="M596.4,228.3h-.2s-.2-.2-.2-.2v-.2c-.1,0-.2-.2-.2-.2v-6.1s.2-.2.2-.2h.2c0-.1.2-.2.2-.2h1.2s.2.2.2.2v.2c.1,0,.2.2.2.2v6.1s-.2.2-.2.2h-.2c0,.1-.2.2-.2.2h-1Z"/>
    <path class="cls-12" d="M599.3,220.6h-.2s-.2-.2-.2-.2v-.2c-.1,0-.2-.2-.2-.2v-1.2s.2-.2.2-.2h.2c0-.1.2-.2.2-.2h6.1s.2.2.2.2v.2c.1,0,.2.2.2.2v1.2s-.2.2-.2.2h-.2c0,.1-.2.2-.2.2h-5.9Z"/>
    <path class="cls-12" d="M599.3,217.2h-.2s-.2-.2-.2-.2v-.2c-.1,0-.2-.2-.2-.2v-1.2s.2-.2.2-.2h.2c0-.1.2-.2.2-.2h6.1s.2.2.2.2v.2c.1,0,.2.2.2.2v1.2s-.2.2-.2.2h-.2c0,.1-.2.2-.2.2h-5.9Z"/>
    <path class="cls-12" d="M599.3,213.9h-.2s-.2-.2-.2-.2v-.2c-.1,0-.2-.2-.2-.2v-1.2s.2-.2.2-.2h.2c0-.1.2-.2.2-.2h6.1s.2.2.2.2v.2c.1,0,.2.2.2.2v1.2s-.2.2-.2.2h-.2c0,.1-.2.2-.2.2h-5.9Z"/>
    <path class="cls-12" d="M599.3,210.5h-.2s-.2-.2-.2-.2v-.2c-.1,0-.2-.2-.2-.2v-1.2s.2-.2.2-.2h.2c0-.1.2-.2.2-.2h6.1s.2.2.2.2v.2c.1,0,.2.2.2.2v1.2s-.2.2-.2.2h-.2c0,.1-.2.2-.2.2h-5.9Z"/>
    <path class="cls-12" d="M599.3,207.2h-.2s-.2-.2-.2-.2v-.2c-.1,0-.2-.2-.2-.2v-1.2s.2-.2.2-.2h.2c0-.1.2-.2.2-.2h6.1s.2.2.2.2v.2c.1,0,.2.2.2.2v1.2s-.2.2-.2.2h-.2c0,.1-.2.2-.2.2h-5.9Z"/>
    <path class="cls-12" d="M599.3,203.8h-.2s-.2-.2-.2-.2v-.2c-.1,0-.2-.2-.2-.2v-1.2s.2-.2.2-.2h.2c0-.1.2-.2.2-.2h6.1s.2.2.2.2v.2c.1,0,.2.2.2.2v1.2s-.2.2-.2.2h-.2c0,.1-.2.2-.2.2h-5.9Z"/>
    <path class="cls-12" d="M599.3,200.5h-.2s-.2-.2-.2-.2v-.2c-.1,0-.2-.2-.2-.2v-1.2s.2-.2.2-.2h.2c0-.1.2-.2.2-.2h6.1s.2.2.2.2v.2c.1,0,.2.2.2.2v1.2s-.2.2-.2.2h-.2c0,.1-.2.2-.2.2h-5.9Z"/>
    <path class="cls-12" d="M599.3,197.2h-.2s-.2-.2-.2-.2v-.2c-.1,0-.2-.2-.2-.2v-1.2s.2-.2.2-.2h.2c0-.1.2-.2.2-.2h6.1s.2.2.2.2v.2c.1,0,.2.2.2.2v1.2s-.2.2-.2.2h-.2c0,.1-.2.2-.2.2h-5.9Z"/>
    <path class="cls-12" d="M599.3,193.8h-.2s-.2-.2-.2-.2v-.2c-.1,0-.2-.2-.2-.2v-1.2s.2-.2.2-.2h.2c0-.1.2-.2.2-.2h6.1s.2.2.2.2v.2c.1,0,.2.2.2.2v1.2s-.2.2-.2.2h-.2c0,.1-.2.2-.2.2h-5.9Z"/>
    <path class="cls-12" d="M599.3,190.5h-.2s-.2-.2-.2-.2v-.2c-.1,0-.2-.2-.2-.2v-1.2s.2-.2.2-.2h.2c0-.1.2-.2.2-.2h6.1s.2.2.2.2v.2c.1,0,.2.2.2.2v1.2s-.2.2-.2.2h-.2c0,.1-.2.2-.2.2h-5.9Z"/>
    <path class="cls-12" d="M596.4,187.5h-.2s-.2-.2-.2-.2v-.2c-.1,0-.2-.2-.2-.2v-6.1s.2-.2.2-.2h.2c0-.1.2-.2.2-.2h1.2s.2.2.2.2v.2c.1,0,.2.2.2.2v6.1s-.2.2-.2.2h-.2c0,.1-.2.2-.2.2h-1Z"/>
    <path class="cls-12" d="M593,187.5h-.2s-.2-.2-.2-.2v-.2c-.1,0-.2-.2-.2-.2v-6.1s.2-.2.2-.2h.2c0-.1.2-.2.2-.2h1.2s.2.2.2.2v.2c.1,0,.2.2.2.2v6.1s-.2.2-.2.2h-.2c0,.1-.2.2-.2.2h-1Z"/>
    <path class="cls-12" d="M589.7,187.5h-.2s-.2-.2-.2-.2v-.2c-.1,0-.2-.2-.2-.2v-6.1s.2-.2.2-.2h.2c0-.1.2-.2.2-.2h1.2s.2.2.2.2v.2c.1,0,.2.2.2.2v6.1s-.2.2-.2.2h-.2c0,.1-.2.2-.2.2h-1Z"/>
    <path class="cls-12" d="M586.3,187.5h-.2s-.2-.2-.2-.2v-.2c-.1,0-.2-.2-.2-.2v-6.1s.2-.2.2-.2h.2c0-.1.2-.2.2-.2h1.2s.2.2.2.2v.2c.1,0,.2.2.2.2v6.1s-.2.2-.2.2h-.2c0,.1-.2.2-.2.2h-1Z"/>
    <path class="cls-12" d="M583,187.5h-.2s-.2-.2-.2-.2v-.2c-.1,0-.2-.2-.2-.2v-6.1s.2-.2.2-.2h.2c0-.1.2-.2.2-.2h1.2s.2.2.2.2v.2c.1,0,.2.2.2.2v6.1s-.2.2-.2.2h-.2c0,.1-.2.2-.2.2h-1Z"/>
    <path class="cls-12" d="M579.6,187.5h-.2s-.2-.2-.2-.2v-.2c-.1,0-.2-.2-.2-.2v-6.1s.2-.2.2-.2h.2c0-.1.2-.2.2-.2h1.2s.2.2.2.2v.2c.1,0,.2.2.2.2v6.1s-.2.2-.2.2h-.2c0,.1-.2.2-.2.2h-1Z"/>
    <path class="cls-12" d="M576.3,187.5h-.2s-.2-.2-.2-.2v-.2c-.1,0-.2-.2-.2-.2v-6.1s.2-.2.2-.2h.2c0-.1.2-.2.2-.2h1.2s.2.2.2.2v.2c.1,0,.2.2.2.2v6.1s-.2.2-.2.2h-.2c0,.1-.2.2-.2.2h-1Z"/>
    <path class="cls-12" d="M573,187.5h-.2s-.2-.2-.2-.2v-.2c-.1,0-.2-.2-.2-.2v-6.1s.2-.2.2-.2h.2c0-.1.2-.2.2-.2h1.2s.2.2.2.2v.2c.1,0,.2.2.2.2v6.1s-.2.2-.2.2h-.2c0,.1-.2.2-.2.2h-1Z"/>
    <path class="cls-12" d="M569.6,187.5h-.2s-.2-.2-.2-.2v-.2c-.1,0-.2-.2-.2-.2v-6.1s.2-.2.2-.2h.2c0-.1.2-.2.2-.2h1.2s.2.2.2.2v.2c.1,0,.2.2.2.2v6.1s-.2.2-.2.2h-.2c0,.1-.2.2-.2.2h-1Z"/>
    <path class="cls-12" d="M566.3,187.5h-.2s-.2-.2-.2-.2v-.2c-.1,0-.2-.2-.2-.2v-6.1s.2-.2.2-.2h.2c0-.1.2-.2.2-.2h1.2s.2.2.2.2v.2c.1,0,.2.2.2.2v6.1s-.2.2-.2.2h-.2c0,.1-.2.2-.2.2h-1Z"/>
    <path class="cls-12" d="M558.5,190.5h-.2s-.2-.2-.2-.2v-.2c-.1,0-.2-.2-.2-.2v-1.2s.2-.2.2-.2h.2c0-.1.2-.2.2-.2h6.1s.2.2.2.2v.2c.1,0,.2.2.2.2v1.2s-.2.2-.2.2h-.2c0,.1-.2.2-.2.2h-5.9Z"/>
    <path class="cls-12" d="M558.5,193.8h-.2s-.2-.2-.2-.2v-.2c-.1,0-.2-.2-.2-.2v-1.2s.2-.2.2-.2h.2c0-.1.2-.2.2-.2h6.1s.2.2.2.2v.2c.1,0,.2.2.2.2v1.2s-.2.2-.2.2h-.2c0,.1-.2.2-.2.2h-5.9Z"/>
    <path class="cls-12" d="M558.5,197.2h-.2s-.2-.2-.2-.2v-.2c-.1,0-.2-.2-.2-.2v-1.2s.2-.2.2-.2h.2c0-.1.2-.2.2-.2h6.1s.2.2.2.2v.2c.1,0,.2.2.2.2v1.2s-.2.2-.2.2h-.2c0,.1-.2.2-.2.2h-5.9Z"/>
    <path class="cls-12" d="M558.5,200.5h-.2s-.2-.2-.2-.2v-.2c-.1,0-.2-.2-.2-.2v-1.2s.2-.2.2-.2h.2c0-.1.2-.2.2-.2h6.1s.2.2.2.2v.2c.1,0,.2.2.2.2v1.2s-.2.2-.2.2h-.2c0,.1-.2.2-.2.2h-5.9Z"/>
    <path class="cls-12" d="M558.5,203.8h-.2s-.2-.2-.2-.2v-.2c-.1,0-.2-.2-.2-.2v-1.2s.2-.2.2-.2h.2c0-.1.2-.2.2-.2h6.1s.2.2.2.2v.2c.1,0,.2.2.2.2v1.2s-.2.2-.2.2h-.2c0,.1-.2.2-.2.2h-5.9Z"/>
    <path class="cls-12" d="M558.5,207.2h-.2s-.2-.2-.2-.2v-.2c-.1,0-.2-.2-.2-.2v-1.2s.2-.2.2-.2h.2c0-.1.2-.2.2-.2h6.1s.2.2.2.2v.2c.1,0,.2.2.2.2v1.2s-.2.2-.2.2h-.2c0,.1-.2.2-.2.2h-5.9Z"/>
    <path class="cls-12" d="M558.5,210.5h-.2s-.2-.2-.2-.2v-.2c-.1,0-.2-.2-.2-.2v-1.2s.2-.2.2-.2h.2c0-.1.2-.2.2-.2h6.1s.2.2.2.2v.2c.1,0,.2.2.2.2v1.2s-.2.2-.2.2h-.2c0,.1-.2.2-.2.2h-5.9Z"/>
    <path class="cls-12" d="M558.5,213.9h-.2s-.2-.2-.2-.2v-.2c-.1,0-.2-.2-.2-.2v-1.2s.2-.2.2-.2h.2c0-.1.2-.2.2-.2h6.1s.2.2.2.2v.2c.1,0,.2.2.2.2v1.2s-.2.2-.2.2h-.2c0,.1-.2.2-.2.2h-5.9Z"/>
    <path class="cls-12" d="M558.5,217.2h-.2s-.2-.2-.2-.2v-.2c-.1,0-.2-.2-.2-.2v-1.2s.2-.2.2-.2h.2c0-.1.2-.2.2-.2h6.1s.2.2.2.2v.2c.1,0,.2.2.2.2v1.2s-.2.2-.2.2h-.2c0,.1-.2.2-.2.2h-5.9Z"/>
    <path class="cls-12" d="M558.5,220.6h-.2s-.2-.2-.2-.2v-.2c-.1,0-.2-.2-.2-.2v-1.2s.2-.2.2-.2h.2c0-.1.2-.2.2-.2h6.1s.2.2.2.2v.2c.1,0,.2.2.2.2v1.2s-.2.2-.2.2h-.2c0,.1-.2.2-.2.2h-5.9Z"/>
    <g id="USB-C_Vorne" data-name="USB-C Vorne">
      <g id="Loetpads">
        <rect class="cls-28" x="712.1" y="186.9" width="1.7" height="5.9"/>
        <rect class="cls-28" x="707.5" y="186.9" width="1.7" height="5.9"/>
        <rect class="cls-28" x="705.4" y="186.9" width="1.7" height="5.9"/>
        <rect class="cls-28" x="701" y="186.9" width="1.7" height="5.9"/>
        <rect class="cls-28" x="714.2" y="186.9" width="1.7" height="5.9"/>
        <rect class="cls-28" x="696.9" y="186.9" width="1.7" height="5.9"/>
        <rect class="cls-28" x="692.7" y="186.9" width="1.7" height="5.9"/>
        <rect class="cls-28" x="688.5" y="186.9" width="1.7" height="5.9"/>
        <rect class="cls-28" x="684.3" y="186.9" width="1.7" height="5.9"/>
        <rect class="cls-28" x="680.1" y="186.9" width="1.7" height="5.9"/>
        <rect class="cls-28" x="676" y="186.9" width="1.7" height="5.9"/>
        <rect class="cls-28" x="671.8" y="186.9" width="1.7" height="5.9"/>
        <rect class="cls-28" x="667.4" y="186.9" width="1.7" height="5.9"/>
        <rect class="cls-28" x="665.3" y="186.9" width="1.7" height="5.9"/>
        <rect class="cls-28" x="660.7" y="186.9" width="1.7" height="5.9"/>
        <rect class="cls-28" x="658.6" y="186.9" width="1.7" height="5.9"/>
      </g>
      <rect id="Bruecke_unten_links" class="cls-5" x="639.1" y="180.2" width="10.8" height="6.7"/>
      <rect id="Brcke_unten_rechts" class="cls-5" x="724.6" y="180.2" width="10.9" height="6.7"/>
      <path id="USB" class="cls-15" d="M724.6,132.6v12.5h0v41.8h-13.4c-.2,0-.4,0-.5,0-.1,0-.3,0-.4-.1-.2,0-.3-.1-.4-.2-.1,0-.3-.2-.4-.3-.1-.1-.2-.2-.3-.4-.3-.4-.4-.9-.4-1.4v-4.6c0-.7-.6-1.2-1.3-1.2h-10c-.7,0-1.2.6-1.2,1.2v.7c0,.4.1.6.4.9h0s0,0,0,0h.3c0,.1.5.2.5.2h2.1v5.2h-24.3v-5.2h2.1c.3,0,.6-.1.8-.3,0,0,.1-.1.2-.2,0,0,.1-.2.2-.3,0-.1,0-.3,0-.4v-.7c0-.7-.6-1.2-1.3-1.2h-10c-.7,0-1.3.6-1.3,1.2v4.6c0,.5-.1,1-.4,1.4,0,.1-.1.2-.3.4-.1.1-.2.2-.4.3-.1.1-.3.2-.4.2-.1,0-.3.1-.4.1-.2,0-.4,0-.5,0h-13.4v-41.8h0v-12.5h74.7Z"/>
      <path id="Bruecke_oben_links" class="cls-5" d="M735.5,145.1v2.9h-2.1c-.7,0-1.3.6-1.3,1.3v1.7c0,.7.6,1.3,1.3,1.3h2.1v2.9h-10.9v-10h10.9Z"/>
      <path id="Bruecke_oben_links-2" data-name="Bruecke_oben_links" class="cls-5" d="M649.9,145.1v10h-10.8v-2.9h2.1c.7,0,1.2-.6,1.2-1.3v-1.7c0-.7-.6-1.3-1.2-1.3h-2.1v-2.9h10.8Z"/>
      <rect class="cls-5" x="667.3" y="171" width="10.1" height="4.2" rx=".8" ry=".8"/>
      <rect class="cls-5" x="697" y="171" width="10.1" height="4.2" rx=".8" ry=".8"/>
      <path class="cls-27" d="M711.1,186.9h-11.7v-5.2h-2.5c0,0-.3-.2-.3-.2h0c-.3-.4-.4-.6-.4-1v-.7c0-.7.6-1.2,1.2-1.2h10c.7,0,1.3.6,1.3,1.2v4.6c0,.5.1,1,.4,1.4,0,.1.1.2.3.4,0,.1.2.2.4.3.1.1.3.2.4.2.1,0,.3.1.4.1.2,0,.4,0,.5,0Z"/>
      <path class="cls-27" d="M678.4,179.8v.7c0,.1,0,.3,0,.4,0,.1,0,.2-.2.3,0,0-.1.1-.2.2-.2.2-.5.3-.8.3h-2.1v5.2h-11.7c.2,0,.4,0,.5,0,.1,0,.3,0,.4-.1.1,0,.3-.1.4-.2.1,0,.2-.2.4-.3.1-.1.2-.2.3-.4.3-.4.4-.9.4-1.4v-4.6c0-.7.6-1.2,1.3-1.2h10c.7,0,1.3.6,1.3,1.2Z"/>
    </g>
    <g id="Reset-Taste">
      <g id="Button">
        <path class="cls-27" d="M758,138.7h0c0,0-.1.2-.1.2l-9.4,9.4-.2.2h-.1c0,.1,0,.2,0,.2v-8.3c0-.9.7-1.7,1.7-1.7h8.4Z"/>
        <path class="cls-27" d="M774.7,163.7v8.4c0,.9-.8,1.7-1.7,1.7h-8.3,0s0,0,0,0v-.2c.1,0,10-9.8,10-9.8Z"/>
        <path class="cls-27" d="M774.7,140.4v8.3l-10-10h8.3c.9,0,1.7.7,1.7,1.7Z"/>
        <path class="cls-27" d="M758,173.8h-8.4c-.9,0-1.7-.7-1.7-1.7v-8.4h0c0,0,.1.2.1.2l.2.2,9.4,9.4v.2h.2Z"/>
        <path class="cls-15" d="M764.6,138.7h-6.7c0,0-.1.2-.1.2l-9.4,9.4-.2.2h-.1c0,.1,0,.2,0,.2v15h0c0,0,.1.2.1.2l.2.2,9.4,9.4v.2h.2s6.7,0,6.7,0h0s0,0,0,0v-.2c.1,0,10-9.8,10-9.8v-15l-10-10ZM771.3,159.6c0,5.5-4.5,10-10,10s-10-4.5-10-10v-6.7c0-5.5,4.5-10,10-10s10,4.5,10,10v6.7Z"/>
        <path class="cls-26" d="M771.3,152.9v6.7c0,5.5-4.5,10-10,10s-10-4.5-10-10v-6.7c0-5.5,4.5-10,10-10s10,4.5,10,10Z"/>
      </g>
      <g id="Loetpads-2" data-name="Loetpads">
        <path class="cls-10" d="M755,173.8v1.7c0,.2-.2.4-.4.4h-4.6c-.2,0-.4-.2-.4-.4v-1.7h5.3Z"/>
        <path class="cls-10" d="M772.9,173.8v1.7c0,.2-.2.4-.4.4h-4.6c-.2,0-.4-.2-.4-.4v-1.7h5.3Z"/>
        <path class="cls-10" d="M772.9,137v1.7h-5.3v-1.7c0-.2.2-.4.4-.4h4.6c.2,0,.4.1.4.4Z"/>
        <path class="cls-10" d="M755,137v1.7h-5.3v-1.7c0-.2.2-.4.4-.4h4.6c.2,0,.4.1.4.4Z"/>
      </g>
    </g>
    <g id="Oscillator_Interface">
      <path class="cls-6" d="M526.8,167v23.5c0,1.1-.9,2-2,2h-16.9c-1.1,0-2-.9-2-2v-23.5c0-1.1.9-2,2-2h16.9c1.1,0,2,.9,2,2Z"/>
      <path class="cls-5" d="M526.6,167.3v23c0,1.1-.9,2-1.9,2h-16.5c-1.1,0-2-.9-2-2v-23c0-1.1.9-1.9,2-1.9h16.5c1,0,1.9.9,1.9,1.9Z"/>
    </g>
    <path class="cls-12" d="M569.9,469.6v10h-11.7v-10h11.7Z"/>
    <path class="cls-12" d="M551.5,469.6v10h-11.7v-10h11.7Z"/>
    <path class="cls-12" d="M551.5,483.8v10h-11.7v-10h11.7Z"/>
    <path class="cls-12" d="M569.9,483.8v10h-11.7v-10h11.7Z"/>
    <g id="Oscillator_Interface-2" data-name="Oscillator_Interface">
      <path class="cls-6" d="M566.8,491.9h-23.5c-1.1,0-2-.9-2-2v-16.9c0-1.1.9-2,2-2h23.5c1.1,0,2,.9,2,2v16.9c0,1.1-.9,2-2,2Z"/>
      <path class="cls-5" d="M566.5,491.7h-23c-1.1,0-2-.9-2-1.9v-16.5c0-1.1.9-2,2-2h23c1.1,0,1.9.9,1.9,2v16.5c0,1-.9,1.9-1.9,1.9Z"/>
    </g>
    <g id="Batterie">
      <polygon class="cls-15" points="887.5 454.9 885 458.2 884.5 457.8 883.6 457.1 883.1 456.7 882.2 456 881.7 455.6 881.6 455.5 881.2 455.2 881 455.1 870.6 446.9 870.6 446.9 870.5 446.9 870.5 446.8 870.5 446.8 868.5 444.2 868.4 444.1 869.9 442.2 870 442.3 873 443.6 873.1 443.6 873.2 443.7 882.7 451.1 883.6 451.8 883.7 451.9 883.9 452.1 884.2 452.2 884.2 452.3 884.8 452.7 885.7 453.4 886.2 453.8 887 454.5 887.5 454.9"/>
      <polygon class="cls-15" points="877.2 468 874.7 471.3 874.2 470.9 873.3 470.3 872.8 469.9 871.9 469.2 871.4 468.8 870.9 468.4 870.8 468.3 860.3 460.1 860.3 460.1 860.2 460.1 860.2 460 858.2 457.3 858.1 457.3 859.6 455.4 859.7 455.5 862.7 456.7 862.9 456.8 873.3 465 873.5 465.1 873.6 465.2 873.9 465.4 874 465.5 874.5 465.9 875.4 466.6 875.9 467 876.7 467.7 877.2 468"/>
      <polygon class="cls-13" points="885.9 480.7 885.9 480.7 883.2 484.1 879.3 481 876.9 484.2 869.3 478.2 871.7 475.1 874.4 471.7 882 477.6 885.9 480.7"/>
      <polygon class="cls-13" points="902 460.1 899.3 463.5 895.4 460.5 887.8 454.5 890.5 451.1 892.9 448 900.5 453.9 898.1 457 902 460.1"/>
      <polygon class="cls-13" points="864.9 483.8 860.8 489.1 850.2 480.9 854.4 475.6 864.9 483.8"/>
      <polygon class="cls-13" points="901.4 437.1 897.3 442.4 886.8 434.1 890.9 428.9 901.4 437.1"/>
      <polygon class="cls-3" points="938.3 471.3 936.3 473.9 933.2 477.8 932.4 478.8 930 482 922.2 492 919.1 496 911.2 506 908.8 509.1 908 510.1 904.9 514.1 902.8 516.7 902.3 516.3 901.6 515.6 897.6 512.6 897.6 512.5 895 515.8 880.5 504.5 864.6 492.1 860.8 489.1 864.9 483.8 869.3 478.2 876.9 484.2 880.8 487.3 895.6 498.8 898 495.7 900.8 492.2 894.3 487.2 885.9 480.7 882 477.6 874.4 471.7 874.7 471.3 877.2 468 885 458.2 887.6 454.9 887.8 454.5 895.4 460.5 899.3 463.6 914.1 475.1 916.8 471.7 919.3 468.5 904.4 457 900.5 453.9 892.9 448 897.3 442.4 901.4 437.1 905.3 440.1 921.2 452.5 935.7 463.9 933.1 467.1 933.1 467.2 937 470.2 937.8 470.8 938.3 471.3"/>
      <polygon class="cls-1" points="919.3 468.5 916.8 471.7 914.1 475.1 899.3 463.6 899.3 463.5 902 460.1 898.1 457 900.5 453.9 904.4 457 919.3 468.5"/>
      <polygon class="cls-1" points="900.8 492.2 898 495.7 895.6 498.8 880.8 487.3 876.9 484.2 879.3 481 883.2 484.1 885.9 480.7 894.3 487.2 900.8 492.2"/>
    </g>
    <rect class="cls-30" x="463.6" y="328.4" width="23.8" height="27.8" transform="translate(-102.8 436.5) rotate(-45)"/>
    <g id="Taste_A-2" data-name="Taste A">
      <polygon class="cls-5" points="471.7 381.5 467.6 385.7 464.5 382.6 464.5 382.6 464.3 382.4 463.9 382 463.2 381.3 462.9 380.9 462.6 380.7 462.1 380.2 461.4 379.5 458.7 376.8 462.9 372.7 466.2 376.1 466.8 376.6 467 376.8 467.4 377.2 468.1 377.9 468.7 378.5 469.2 379 471.7 381.5"/>
      <polygon class="cls-5" points="427.4 337.2 423.3 341.4 420.6 338.7 419.9 338 419.3 337.4 419.1 337.2 418.7 336.8 418.1 336.1 417.6 335.7 414.4 332.5 418.5 328.4 421 330.9 421.6 331.4 422.2 332 422.9 332.7 423.3 333.1 423.4 333.3 424 333.8 427.4 337.2"/>
      <polygon class="cls-5" points="454 310.6 449.9 314.8 447.2 312.1 446.4 311.4 445.9 310.8 445.7 310.6 445.3 310.2 444.1 309 444 309 443.5 308.4 441 305.9 445.1 301.8 448.4 305 448.8 305.4 449.4 306.1 449.9 306.5 450 306.7 450.6 307.2 451.3 308 454 310.6"/>
      <polygon class="cls-5" points="498.3 354.9 494.2 359.1 491.1 356 491.1 356 490.9 355.8 489.2 354.2 488.7 353.6 487.9 352.9 485.3 350.2 489.4 346.1 492.8 349.5 493.4 350 493.6 350.2 494 350.6 494.6 351.3 495 351.7 498.3 354.9"/>
      <path class="cls-21" d="M466.7,354.1c-5.7,5.7-15,5.7-20.7,0-5.7-5.7-5.7-15,0-20.7,5.7-5.7,15-5.7,20.7,0,5.7,5.7,5.7,15,0,20.7Z"/>
      <path class="cls-15" d="M490.3,342.2l-32.5-32.5c-.8-.8-2.1-.8-2.9,0l-.9.9-4.1,4.1-22.5,22.4-4.1,4.2-.9.9c-.8.8-.8,2.1,0,2.9l32.5,32.5c.8.8,2.2.8,2.9,0l.9-.9,4.2-4.1,22.4-22.5,4.2-4.1.9-.9c.8-.8.8-2.1,0-2.9ZM453.4,315.2c1.6-1.6,4.3-1.6,5.9,0,1.7,1.6,1.7,4.3,0,5.9-1.6,1.7-4.3,1.7-5.9,0-1.6-1.6-1.6-4.3,0-5.9ZM433.7,346.7c-1.6,1.7-4.3,1.7-5.9,0-1.6-1.6-1.6-4.3,0-5.9,1.6-1.7,4.3-1.7,5.9,0,1.7,1.6,1.7,4.3,0,5.9ZM459.3,372.3c-1.6,1.6-4.3,1.6-5.9,0-1.6-1.6-1.6-4.3,0-5.9,1.6-1.7,4.3-1.7,5.9,0,1.7,1.6,1.7,4.3,0,5.9ZM466.7,354.1c-5.7,5.7-15,5.7-20.7,0-5.7-5.7-5.7-15,0-20.7,5.7-5.7,15-5.7,20.7,0,5.7,5.7,5.7,15,0,20.7ZM484.9,346.7c-1.6,1.7-4.3,1.7-5.9,0-1.7-1.6-1.7-4.3,0-5.9,1.6-1.7,4.3-1.7,5.9,0,1.7,1.6,1.7,4.3,0,5.9Z"/>
      <path class="cls-23" d="M484.9,346.7c-1.6,1.7-4.3,1.7-5.9,0-1.7-1.6-1.7-4.3,0-5.9,1.6-1.7,4.3-1.7,5.9,0,1.7,1.6,1.7,4.3,0,5.9Z"/>
      <path class="cls-23" d="M459.3,321.1c-1.6,1.7-4.3,1.7-5.9,0-1.6-1.6-1.6-4.3,0-5.9,1.6-1.6,4.3-1.6,5.9,0,1.7,1.6,1.7,4.3,0,5.9Z"/>
      <path class="cls-23" d="M433.7,346.7c-1.6,1.7-4.3,1.7-5.9,0-1.6-1.6-1.6-4.3,0-5.9,1.6-1.7,4.3-1.7,5.9,0,1.7,1.6,1.7,4.3,0,5.9Z"/>
      <path class="cls-23" d="M459.3,372.3c-1.6,1.6-4.3,1.6-5.9,0-1.6-1.6-1.6-4.3,0-5.9,1.6-1.7,4.3-1.7,5.9,0,1.7,1.6,1.7,4.3,0,5.9Z"/>
    </g>
    <g id="Interface-Prozessor">
      <g id="_3DSOLID" data-name="3DSOLID" class="cls-37">
        <path class="cls-10" d="M588.7,225.6v2.7h-1.9v-2.7c0-.5.4-.9.9-.9s1,.4,1,.9Z"/>
        <path class="cls-10" d="M573.6,225.6v2.7h-1.9v-2.7c0-.5.4-.9,1-.9s.9.4.9.9Z"/>
        <path class="cls-10" d="M562.2,221.8c0,.5-.4,1-.9,1h-2.7v-1.9h2.7c.5,0,.9.4.9.9Z"/>
        <path class="cls-10" d="M562.2,218c0,.5-.4.9-.9.9h-2.7v-1.9h2.7c.5,0,.9.4.9,1Z"/>
        <path class="cls-10" d="M562.2,214.2c0,.5-.4.9-.9.9h-2.7v-1.9h2.7c.5,0,.9.4.9.9Z"/>
        <path class="cls-10" d="M562.2,210.4c0,.5-.4.9-.9.9h-2.7v-1.9h2.7c.5,0,.9.4.9.9Z"/>
        <path class="cls-10" d="M562.2,206.6c0,.5-.4,1-.9,1h-2.7v-1.9h2.7c.5,0,.9.4.9.9Z"/>
        <path class="cls-10" d="M562.2,202.8c0,.5-.4.9-.9.9h-2.7v-1.9h2.7c.5,0,.9.4.9,1Z"/>
        <path class="cls-10" d="M562.2,199c0,.5-.4.9-.9.9h-2.7v-1.9h2.7c.5,0,.9.4.9.9Z"/>
        <path class="cls-10" d="M562.2,195.2c0,.5-.4.9-.9.9h-2.7v-1.9h2.7c.5,0,.9.4.9.9Z"/>
        <path class="cls-10" d="M562.2,191.4c0,.5-.4,1-.9,1h-2.7v-1.9h2.7c.5,0,.9.4.9.9Z"/>
        <path class="cls-10" d="M562.2,187.6c0,.5-.4.9-.9.9h-2.7v-1.9h2.7c.5,0,.9.4.9,1Z"/>
        <path class="cls-10" d="M573.6,181.1v2.7c0,.5-.4.9-.9.9s-1-.4-1-.9v-2.7h1.9Z"/>
        <path class="cls-10" d="M588.7,181.1v2.7c0,.5-.4.9-1,.9s-.9-.4-.9-.9v-2.7h1.9Z"/>
        <path class="cls-10" d="M600.1,225.6v2.7h-1.9v-2.7c0-.5.4-.9.9-.9s.9.4.9.9Z"/>
        <path class="cls-10" d="M596.3,225.6v2.7h-1.9v-2.7c0-.5.4-.9.9-.9s.9.4.9.9Z"/>
        <path class="cls-10" d="M592.5,225.6v2.7h-1.9v-2.7c0-.5.4-.9.9-.9s.9.4.9.9Z"/>
        <path class="cls-10" d="M584.9,225.6v2.7h-1.9v-2.7c0-.5.4-.9.9-.9s.9.4.9.9Z"/>
        <path class="cls-10" d="M581.1,225.6v2.7h-1.9v-2.7c0-.5.4-.9.9-.9s.9.4.9.9Z"/>
        <path class="cls-10" d="M577.3,225.6v2.7h-1.9v-2.7c0-.5.4-.9.9-.9s.9.4.9.9Z"/>
        <path class="cls-10" d="M569.8,225.6v2.7h-1.9v-2.7c0-.5.4-.9.9-.9s.9.4.9.9Z"/>
        <path class="cls-10" d="M566,225.6v2.7h-1.9v-2.7c0-.5.4-.9.9-.9s.9.4.9.9Z"/>
        <path class="cls-10" d="M566,181.1v2.7c0,.5-.4.9-.9.9s-.9-.4-.9-.9v-2.7h1.9Z"/>
        <path class="cls-10" d="M569.8,181.1v2.7c0,.5-.4.9-.9.9s-.9-.4-.9-.9v-2.7h1.9Z"/>
        <path class="cls-10" d="M605.7,217v1.9h-2.7c-.5,0-.9-.4-.9-.9s.4-1,.9-1h2.7Z"/>
        <path class="cls-10" d="M605.7,213.2v1.9h-2.7c-.5,0-.9-.4-.9-.9s.4-.9.9-.9h2.7Z"/>
        <path class="cls-10" d="M577.3,181.1v2.7c0,.5-.4.9-.9.9s-.9-.4-.9-.9v-2.7h1.9Z"/>
        <path class="cls-10" d="M605.7,209.4v1.9h-2.7c-.5,0-.9-.4-.9-.9s.4-.9.9-.9h2.7Z"/>
        <path class="cls-10" d="M581.1,181.1v2.7c0,.5-.4.9-.9.9s-.9-.4-.9-.9v-2.7h1.9Z"/>
        <path class="cls-10" d="M605.7,205.6v1.9h-2.7c-.5,0-.9-.4-.9-1s.4-.9.9-.9h2.7Z"/>
        <path class="cls-10" d="M584.9,181.1v2.7c0,.5-.4.9-.9.9s-.9-.4-.9-.9v-2.7h1.9Z"/>
        <path class="cls-10" d="M605.7,201.8v1.9h-2.7c-.5,0-.9-.4-.9-.9s.4-1,.9-1h2.7Z"/>
        <path class="cls-10" d="M605.7,198.1v1.9h-2.7c-.5,0-.9-.4-.9-.9s.4-.9.9-.9h2.7Z"/>
        <path class="cls-10" d="M592.5,181.1v2.7c0,.5-.4.9-.9.9s-.9-.4-.9-.9v-2.7h1.9Z"/>
        <path class="cls-10" d="M605.7,194.3v1.9h-2.7c-.5,0-.9-.4-.9-.9s.4-.9.9-.9h2.7Z"/>
        <path class="cls-10" d="M596.3,181.1v2.7c0,.5-.4.9-.9.9s-.9-.4-.9-.9v-2.7h1.9Z"/>
        <path class="cls-10" d="M605.7,190.5v1.9h-2.7c-.5,0-.9-.4-.9-1s.4-.9.9-.9h2.7Z"/>
        <path class="cls-10" d="M600.1,181.1v2.7c0,.5-.4.9-.9.9s-.9-.4-.9-.9v-2.7h1.9Z"/>
        <path class="cls-10" d="M605.7,186.7v1.9h-2.7c-.5,0-.9-.4-.9-.9s.4-1,.9-1h2.7Z"/>
        <path class="cls-10" d="M605.7,220.8v1.9h-2.7c-.5,0-.9-.4-.9-1s.4-.9.9-.9h2.7Z"/>
      </g>
      <rect class="cls-23" x="561.3" y="183.9" width="41.6" height="41.6" rx="1.7" ry="1.7"/>
    </g>
    <g id="Steckleiste">
      <path class="cls-23" d="M528.8,525.1v38.4c0,.9.7,1.7,1.7,1.7h318.3c.9,0,1.7-.7,1.7-1.7v-38.4c0-.9-.7-1.7-1.7-1.7h-318.3c-.9,0-1.7.7-1.7,1.7ZM694.9,528.4v10.6h-10.6v-10.6h10.6ZM546.4,560.2h-10.6v-10.6h10.6v10.6ZM546.4,539h-10.6v-10.6h10.6v10.6ZM567.6,560.2h-10.6v-10.6h10.6v10.6ZM567.6,539h-10.6v-10.6h10.6v10.6ZM588.8,560.2h-10.6v-10.6h10.6v10.6ZM588.8,539h-10.6v-10.6h10.6v10.6ZM610,560.2h-10.6v-10.6h10.6v10.6ZM610,539h-10.6v-10.6h10.6v10.6ZM631.2,560.2h-10.6v-10.6h10.6v10.6ZM631.2,539h-10.6v-10.6h10.6v10.6ZM652.5,560.2h-10.6v-10.6h10.6v10.6ZM652.5,539h-10.6v-10.6h10.6v10.6ZM673.7,560.2h-10.6v-10.6h10.6v10.6ZM673.7,539h-10.6v-10.6h10.6v10.6ZM694.9,560.2h-10.6v-10.6h10.6v10.6ZM716.1,560.2h-10.6v-10.6h10.6v10.6ZM716.1,539h-10.6v-10.6h10.6v10.6ZM737.3,560.2h-10.6v-10.6h10.6v10.6ZM737.3,539h-10.6v-10.6h10.6v10.6ZM758.5,560.2h-10.6v-10.6h10.6v10.6ZM758.5,539h-10.6v-10.6h10.6v10.6ZM779.8,560.2h-10.6v-10.6h10.6v10.6ZM779.8,539h-10.6v-10.6h10.6v10.6ZM801,560.2h-10.6v-10.6h10.6v10.6ZM801,539h-10.6v-10.6h10.6v10.6ZM822.2,560.2h-10.6v-10.6h10.6v10.6ZM822.2,539h-10.6v-10.6h10.6v10.6ZM843.4,560.2h-10.6v-10.6h10.6v10.6ZM843.4,539h-10.6v-10.6h10.6v10.6Z"/>
      <g id="Aussen">
        <path class="cls-23" d="M535.8,549.7v10.6h10.6v-10.6h-10.6ZM544.7,558.6h-7.2v-7.2h7.2v7.2Z"/>
        <path class="cls-23" d="M557,549.7v10.6h10.6v-10.6h-10.6ZM565.9,558.6h-7.2v-7.2h7.2v7.2Z"/>
        <path class="cls-23" d="M578.2,549.7v10.6h10.6v-10.6h-10.6ZM587.1,558.6h-7.2v-7.2h7.2v7.2Z"/>
        <path class="cls-23" d="M599.4,549.7v10.6h10.6v-10.6h-10.6ZM608.3,558.6h-7.2v-7.2h7.2v7.2Z"/>
        <path class="cls-23" d="M620.7,549.7v10.6h10.6v-10.6h-10.6ZM629.6,558.6h-7.2v-7.2h7.2v7.2Z"/>
        <path class="cls-23" d="M641.9,549.7v10.6h10.6v-10.6h-10.6ZM650.8,558.6h-7.2v-7.2h7.2v7.2Z"/>
        <path class="cls-23" d="M663.1,549.7v10.6h10.6v-10.6h-10.6ZM672,558.6h-7.2v-7.2h7.2v7.2Z"/>
        <path class="cls-23" d="M684.3,549.7v10.6h10.6v-10.6h-10.6ZM693.2,558.6h-7.2v-7.2h7.2v7.2Z"/>
        <path class="cls-23" d="M705.5,549.7v10.6h10.6v-10.6h-10.6ZM714.4,558.6h-7.2v-7.2h7.2v7.2Z"/>
        <path class="cls-23" d="M726.8,549.7v10.6h10.6v-10.6h-10.6ZM735.7,558.6h-7.2v-7.2h7.2v7.2Z"/>
        <path class="cls-23" d="M748,549.7v10.6h10.6v-10.6h-10.6ZM756.9,558.6h-7.2v-7.2h7.2v7.2Z"/>
        <path class="cls-23" d="M769.2,549.7v10.6h10.6v-10.6h-10.6ZM778.1,558.6h-7.3v-7.2h7.3v7.2Z"/>
        <path class="cls-23" d="M790.4,549.7v10.6h10.6v-10.6h-10.6ZM799.3,558.6h-7.3v-7.2h7.3v7.2Z"/>
        <path class="cls-23" d="M811.7,549.7v10.6h10.6v-10.6h-10.6ZM820.6,558.6h-7.3v-7.2h7.3v7.2Z"/>
        <path class="cls-23" d="M832.9,549.7v10.6h10.6v-10.6h-10.6ZM841.8,558.6h-7.3v-7.2h7.3v7.2Z"/>
        <path class="cls-23" d="M535.8,528.4v10.6h10.6v-10.6h-10.6ZM544.7,537.3h-7.2v-7.2h7.2v7.2Z"/>
        <path class="cls-23" d="M557,528.4v10.6h10.6v-10.6h-10.6ZM565.9,537.3h-7.2v-7.2h7.2v7.2Z"/>
        <path class="cls-23" d="M578.2,528.4v10.6h10.6v-10.6h-10.6ZM587.1,537.3h-7.2v-7.2h7.2v7.2Z"/>
        <path class="cls-23" d="M599.4,528.4v10.6h10.6v-10.6h-10.6ZM608.3,537.3h-7.2v-7.2h7.2v7.2Z"/>
        <path class="cls-23" d="M620.7,528.4v10.6h10.6v-10.6h-10.6ZM629.6,537.3h-7.2v-7.2h7.2v7.2Z"/>
        <path class="cls-23" d="M641.9,528.4v10.6h10.6v-10.6h-10.6ZM650.8,537.3h-7.2v-7.2h7.2v7.2Z"/>
        <path class="cls-23" d="M663.1,528.4v10.6h10.6v-10.6h-10.6ZM672,537.3h-7.2v-7.2h7.2v7.2Z"/>
        <path class="cls-23" d="M684.3,528.4v10.6h10.6v-10.6h-10.6ZM693.2,537.3h-7.2v-7.2h7.2v7.2Z"/>
        <path class="cls-23" d="M705.5,528.4v10.6h10.6v-10.6h-10.6ZM714.4,537.3h-7.2v-7.2h7.2v7.2Z"/>
        <path class="cls-23" d="M726.8,528.4v10.6h10.6v-10.6h-10.6ZM735.7,537.3h-7.2v-7.2h7.2v7.2Z"/>
        <path class="cls-23" d="M748,528.4v10.6h10.6v-10.6h-10.6ZM756.9,537.3h-7.2v-7.2h7.2v7.2Z"/>
        <path class="cls-23" d="M769.2,528.4v10.6h10.6v-10.6h-10.6ZM778.1,537.3h-7.3v-7.2h7.3v7.2Z"/>
        <path class="cls-23" d="M790.4,528.4v10.6h10.6v-10.6h-10.6ZM799.3,537.3h-7.3v-7.2h7.3v7.2Z"/>
        <path class="cls-23" d="M811.7,528.4v10.6h10.6v-10.6h-10.6ZM820.6,537.3h-7.3v-7.2h7.3v7.2Z"/>
        <path class="cls-23" d="M832.9,528.4v10.6h10.6v-10.6h-10.6ZM841.8,537.3h-7.3v-7.2h7.3v7.2Z"/>
      </g>
      <g id="Innen">
        <rect class="cls-34" x="537.5" y="551.3" width="7.2" height="7.2"/>
        <rect class="cls-34" x="558.7" y="551.3" width="7.2" height="7.2"/>
        <rect class="cls-34" x="579.9" y="551.3" width="7.2" height="7.2"/>
        <rect class="cls-34" x="601.1" y="551.3" width="7.2" height="7.2"/>
        <rect class="cls-34" x="622.3" y="551.3" width="7.2" height="7.2"/>
        <rect class="cls-34" x="643.6" y="551.3" width="7.2" height="7.2"/>
        <rect class="cls-34" x="664.8" y="551.3" width="7.2" height="7.2"/>
        <rect class="cls-34" x="686" y="551.3" width="7.2" height="7.2"/>
        <rect class="cls-34" x="707.2" y="551.3" width="7.2" height="7.2"/>
        <rect class="cls-34" x="728.4" y="551.3" width="7.2" height="7.2"/>
        <rect class="cls-34" x="749.7" y="551.3" width="7.2" height="7.2"/>
        <rect class="cls-34" x="770.9" y="551.3" width="7.3" height="7.2"/>
        <rect class="cls-34" x="792.1" y="551.3" width="7.3" height="7.2"/>
        <rect class="cls-34" x="813.3" y="551.3" width="7.3" height="7.2"/>
        <rect class="cls-34" x="834.5" y="551.3" width="7.3" height="7.2"/>
        <rect class="cls-34" x="537.5" y="530.1" width="7.2" height="7.2"/>
        <rect class="cls-34" x="558.7" y="530.1" width="7.2" height="7.2"/>
        <rect class="cls-34" x="579.9" y="530.1" width="7.2" height="7.2"/>
        <rect class="cls-34" x="601.1" y="530.1" width="7.2" height="7.2"/>
        <rect class="cls-34" x="622.3" y="530.1" width="7.2" height="7.2"/>
        <rect class="cls-34" x="643.6" y="530.1" width="7.2" height="7.2"/>
        <rect class="cls-34" x="664.8" y="530.1" width="7.2" height="7.2"/>
        <rect class="cls-34" x="686" y="530.1" width="7.2" height="7.2"/>
        <rect class="cls-34" x="707.2" y="530.1" width="7.2" height="7.2"/>
        <path id="_Pfad_" data-name="&amp;lt;Pfad&amp;gt;" class="cls-34" d="M735.7,537.3h-7.2v-7.2h7.2v7.2Z"/>
        <rect class="cls-34" x="749.7" y="530.1" width="7.2" height="7.2"/>
        <rect class="cls-34" x="770.9" y="530.1" width="7.3" height="7.2"/>
        <rect class="cls-34" x="792.1" y="530.1" width="7.3" height="7.2"/>
        <rect class="cls-34" x="813.3" y="530.1" width="7.3" height="7.2"/>
        <rect class="cls-34" x="834.5" y="530.1" width="7.3" height="7.2"/>
      </g>
    </g>
  </g>
  <g>
    <rect class="cls-4" x="711.5" y="253.8" width="11.7" height="21.7" rx=".5" ry=".5" transform="translate(1434.7 529.3) rotate(180)"/>
    <rect class="cls-4" x="644.6" y="253.8" width="11.7" height="21.7" rx=".5" ry=".5" transform="translate(1300.9 529.3) rotate(180)"/>
    <rect class="cls-4" x="711.5" y="287.3" width="11.7" height="21.7" rx=".5" ry=".5" transform="translate(1434.7 596.2) rotate(180)"/>
    <rect class="cls-4" x="678" y="287.3" width="11.7" height="21.7" rx=".5" ry=".5" transform="translate(1367.8 596.2) rotate(180)"/>
    <rect class="cls-4" x="745" y="287.3" width="11.7" height="21.7" rx=".5" ry=".5" transform="translate(1501.6 596.2) rotate(180)"/>
    <rect class="cls-4" x="644.6" y="287.3" width="11.7" height="21.7" rx=".5" ry=".5" transform="translate(1300.9 596.2) rotate(180)"/>
    <rect class="cls-4" x="611.1" y="287.3" width="11.7" height="21.7" rx=".5" ry=".5" transform="translate(1234 596.2) rotate(180)"/>
    <rect class="cls-4" x="711.5" y="320.7" width="11.7" height="21.7" rx=".5" ry=".5" transform="translate(1434.7 663.2) rotate(180)"/>
    <rect class="cls-4" x="678" y="320.7" width="11.7" height="21.7" rx=".5" ry=".5" transform="translate(1367.8 663.2) rotate(180)"/>
    <rect class="cls-4" x="745" y="320.7" width="11.7" height="21.7" rx=".5" ry=".5" transform="translate(1501.6 663.2) rotate(180)"/>
    <rect class="cls-4" x="644.6" y="320.7" width="11.7" height="21.7" rx=".5" ry=".5" transform="translate(1300.9 663.2) rotate(180)"/>
    <rect class="cls-4" x="611.1" y="320.7" width="11.7" height="21.7" rx=".5" ry=".5" transform="translate(1234 663.2) rotate(180)"/>
    <rect class="cls-4" x="711.5" y="354.2" width="11.7" height="21.7" rx=".5" ry=".5" transform="translate(1434.7 730.1) rotate(180)"/>
    <rect class="cls-4" x="678" y="354.2" width="11.7" height="21.7" rx=".5" ry=".5" transform="translate(1367.8 730.1) rotate(180)"/>
    <rect class="cls-4" x="644.6" y="354.2" width="11.7" height="21.7" rx=".5" ry=".5" transform="translate(1300.9 730.1) rotate(180)"/>
    <rect class="cls-4" x="678" y="387.7" width="11.7" height="21.7" rx=".5" ry=".5" transform="translate(1367.8 797.1) rotate(180)"/>
    <rect class="cls-4" x="711.5" y="287.3" width="11.7" height="21.7" rx=".5" ry=".5" transform="translate(1434.7 596.2) rotate(180)"/>
    <rect class="cls-4" x="678" y="287.3" width="11.7" height="21.7" rx=".5" ry=".5" transform="translate(1367.8 596.2) rotate(180)"/>
    <rect class="cls-4" x="745" y="287.3" width="11.7" height="21.7" rx=".5" ry=".5" transform="translate(1501.6 596.2) rotate(180)"/>
    <rect class="cls-4" x="644.6" y="287.3" width="11.7" height="21.7" rx=".5" ry=".5" transform="translate(1300.9 596.2) rotate(180)"/>
    <rect class="cls-4" x="611.1" y="287.3" width="11.7" height="21.7" rx=".5" ry=".5" transform="translate(1234 596.2) rotate(180)"/>
  </g>
</svg>