<?xml version="1.0" encoding="UTF-8"?>
<svg id="svg10630" xmlns="http://www.w3.org/2000/svg" xmlns:xlink="http://www.w3.org/1999/xlink" xmlns:svg="http://www.w3.org/2000/svg" xmlns:serif="http://www.serif.com/" xmlns:rdf="http://www.w3.org/1999/02/22-rdf-syntax-ns#" xmlns:dc="http://purl.org/dc/elements/1.1/" xmlns:cc="http://creativecommons.org/ns#" version="1.1" viewBox="0 0 40 40" width="40px" height="40px">
  <defs>
    <style>
      .cls-1 {
        fill: #b7b084;
      }

      .cls-1, .cls-2, .cls-3, .cls-4, .cls-5, .cls-6, .cls-7, .cls-8, .cls-9, .cls-10, .cls-11, .cls-12, .cls-13, .cls-14, .cls-15, .cls-16, .cls-17, .cls-18, .cls-19, .cls-20, .cls-21, .cls-22, .cls-23, .cls-24, .cls-25, .cls-26, .cls-27, .cls-28, .cls-29, .cls-30 {
        stroke-width: 0px;
      }

      .cls-2 {
        fill: #f2ea9f;
      }

      .cls-3 {
        fill: #e6e1c1;
      }

      .cls-4 {
        fill: #e51971;
      }

      .cls-5 {
        fill: #b4b5b5;
      }

      .cls-31 {
        mask: url(#mask);
      }

      .cls-6 {
        fill: #ffd800;
      }

      .cls-32 {
        filter: url(#luminosity-noclip);
      }

      .cls-7 {
        fill: #e9e7e6;
      }

      .cls-8 {
        fill: #e5dfbf;
      }

      .cls-9 {
        fill: #c67c11;
      }

      .cls-10 {
        fill: #6c6e6e;
      }

      .cls-11 {
        fill: #c53c3a;
      }

      .cls-12 {
        fill: #4e4f51;
      }

      .cls-12, .cls-33, .cls-25 {
        fill-rule: evenodd;
      }

      .cls-13 {
        fill: #d3cba5;
      }

      .cls-34 {
        stroke: #010101;
      }

      .cls-34, .cls-33, .cls-35 {
        stroke-miterlimit: 10;
      }

      .cls-34, .cls-24, .cls-25, .cls-26 {
        fill: #fff;
      }

      .cls-33, .cls-35 {
        stroke: #000100;
      }

      .cls-33, .cls-35, .cls-23 {
        fill: #000100;
      }

      .cls-14 {
        fill: #faf1a9;
      }

      .cls-15 {
        fill: #c3c6c7;
      }

      .cls-16 {
        fill: #010101;
      }

      .cls-17 {
        fill: #ebe6e6;
      }

      .cls-18 {
        fill: #181717;
      }

      .cls-19 {
        fill: #d8d7d6;
      }

      .cls-20 {
        fill: #d5d1d0;
      }

      .cls-21 {
        fill: #3ba6c7;
      }

      .cls-22 {
        fill: #d1c9a3;
      }

      .cls-36, .cls-24 {
        opacity: .9;
      }

      .cls-37 {
        display: none;
      }

      .cls-27 {
        fill: #5a5a5a;
      }

      .cls-28 {
        fill: #c7cace;
      }

      .cls-29 {
        fill: #f6c546;
      }

      .cls-30 {
        fill: #1e1e22;
      }
    </style>
    <symbol id="Calliope_3_LED_2" data-name="Calliope_3_LED 2" viewBox="0 0 2.3 4.8">
      <g>
        <polygon class="cls-14" points="0 .8 2.3 .8 2.3 4 0 4 0 .8"/>
        <polygon class="cls-17" points="0 4.4 2.3 4.4 2.3 4 0 4 0 4.4"/>
        <polygon class="cls-19" points="0 4.8 2.3 4.8 2.3 4.4 0 4.4 0 4.8"/>
        <polygon class="cls-19" points="0 .4 2.3 .4 2.3 0 0 0 0 .4"/>
        <polygon class="cls-17" points="0 .8 2.3 .8 2.3 .4 0 .4 0 .8"/>
        <circle class="cls-2" cx="1.1" cy="2.4" r=".1"/>
      </g>
    </symbol>
    <symbol id="Calliope_3_Small_LED_2" data-name="Calliope_3_Small_LED 2" viewBox="0 0 1.4 2.8">
      <g>
        <polygon class="cls-14" points="0 .5 1.4 .5 1.4 2.3 0 2.3 0 .5"/>
        <polygon class="cls-17" points="0 2.6 1.4 2.6 1.4 2.3 0 2.3 0 2.6"/>
        <polygon class="cls-19" points="0 2.8 1.4 2.8 1.4 2.6 0 2.6 0 2.8"/>
        <polygon class="cls-19" points="0 .2 1.4 .2 1.4 0 0 0 0 .2"/>
        <polygon class="cls-17" points="0 .5 1.4 .5 1.4 .2 0 .2 0 .5"/>
        <circle class="cls-2" cx=".7" cy="1.4" r=".1"/>
      </g>
    </symbol>
    <filter id="luminosity-noclip" x="24.5" y="15.5" width="9.9" height="7.7" color-interpolation-filters="sRGB" filterUnits="userSpaceOnUse">
      <feFlood flood-color="#fff" result="bg"/>
      <feBlend in="SourceGraphic" in2="bg"/>
    </filter>
    <mask id="mask" x="24.5" y="15.5" width="9.9" height="7.7" maskUnits="userSpaceOnUse">
      <g class="cls-32">
        <g>
          <path class="cls-33" d="M30.1,18.9l-.4-.4.5-.5.4.4-.5.5Z"/>
          <path class="cls-33" d="M29,19.6h0s0,0,0,0h0s0,0,0,0h0s-.7,0-.7,0h0s0,0,0,0h0s0,0,0,0h0v-.8h0s0,0,0,0h0s0,0,0,0h0s.7,0,.7,0h0s0,0,0,0h0s0,0,0,0h0v.8Z"/>
          <path id="Lautsprecher" class="cls-35" d="M25.7,22.7h2.4s0,0,0,0l.6-.6s0,0,0,0v-2.4s0,0,0,0l-.6-.6s0,0,0,0h-2.4s0,0,0,0l-.6.6s0,0,0,0v2.4s0,0,0,0l.6.6s0,0,0,0Z"/>
          <polygon class="cls-35" points="29.9 18.5 30.1 18.7 30.3 18.5 30.3 18.5 30.3 18.5 30.4 18.4 30.4 18.4 30.4 18.4 30.6 18.2 30.3 18 30.2 18.2 30.1 18.2 30.1 18.2 30.1 18.2 30.1 18.3 30.1 18.3 29.9 18.5"/>
          <path class="cls-35" d="M30.3,17.9h0s.2.3.2.3l1.2,1.2.2.2h0c0,0,.1,0,.2,0l1.7-1.7s0-.1,0-.2h0s-.2-.3-.2-.3l-1.2-1.2-.2-.2h0c0,0-.1,0-.2,0l-1.7,1.7s0,.1,0,.2ZM32.3,16.7c0,0-.2,0-.3,0,0,0,0-.2,0-.3,0,0,.2,0,.3,0,0,0,0,.2,0,.3ZM33.3,17.7c0,0,.2,0,.3,0,0,0,0,.2,0,.3,0,0-.2,0-.3,0,0,0,0-.2,0-.3ZM31.9,19.1c0,0,.2,0,.3,0,0,0,0,.2,0,.3s-.2,0-.3,0c0,0,0-.2,0-.3ZM31.6,17.3c.3-.3.8-.3,1.1,0,.3.3.3.8,0,1.1-.3.3-.8.3-1.1,0-.3-.3-.3-.8,0-1.1ZM30.6,17.7c0,0,.2,0,.3,0,0,0,0,.2,0,.3,0,0-.2,0-.3,0,0,0,0-.2,0-.3Z"/>
        </g>
      </g>
    </mask>
  </defs>
  <g id="Calliope_mini_3" data-name="Calliope mini 3">
    <path id="Platine" class="cls-30" d="M37.6,22.3s0,0,0,0c0,0,0,0-.1,0,0,0,0,0,0,0,0,0,0,0-.1,0,0,0,0,0-.1,0,0,0,0,0,0,0,0,0,0,0-.1,0-1.1,0-2-.9-2-2s0-.7.2-.9c0-.2.2-.4.4-.5,0,0,0,0,0,0,0,0,0,0,0,0,0,0,0,0,0,0,0,0,0,0,.1,0,0,0,0,0,.1,0,0,0,0,0,.1,0,0,0,0,0,.1,0s0,0,.1,0c0,0,.1,0,.2,0,0,0,0,0,0,0,0,0,0,0,.1,0,0,0,.1,0,.2,0,0,0,0,0,0,0,0,0,0,0,0,0,0,0,.2,0,.3,0,0,0,0,0,0,0,.1,0,.2,0,.3,0-4.9-2-7.9-7.1-7.1-12.3,0,0,0,0,0,.1,0,.1,0,.2-.1.3,0,0,0,0,0,.1,0,0,0,0,0,0,0,0,0,0,0,.1,0,0,0,0,0,0,0,0,0,0,0,0,0,0,0,0,0,0,0,0,0,0,0,0,0,0,0,0,0,0,0,0,0,0,0,0,0,0,0,0,0,0,0,0,0,0,0,0,0,0,0,0-.1,0,0,0,0,0-.1,0,0,0,0,0,0,0-.2,0-.4.1-.6.1,0,0-.1,0-.2,0-.4,0-.8-.1-1.1-.3-.2-.1-.4-.3-.6-.6-.2-.3-.4-.7-.4-1.1s0,0,0-.1c0,0,0,0,0,0,0,0,0,0,0-.1,0,0,0,0,0,0,0,0,0,0,0,0,0,0,0,0,0-.1,0,0,0-.1,0-.2,0,0,0,0,0,0,0,0,0,0,0,0,0,0,0,0,0-.1,0,0,0,0,0-.1,0-.1.1-.2.2-.3,0,0,0,0,0,0s0,0,0,0c0,0,0,0,0,0,0,0,0,0,0,0,0,0,0,0,0,0,0,0,0,0,.1,0,0,0,0,0,0,0,0,0,0,0,0,0,0,0,0,0-.1,0-1.5,1.2-3.3,2.1-5.1,2.5v3s0,0,0,.1c0,0-.1,0-.2,0,0,0,0,0-.1,0h-3.4s0,0-.1,0c0,0,0,0-.1,0,0,0-.1,0-.1-.1v-3c-1.8-.4-3.5-1.2-4.9-2.4,0,0,0,0,0,.1,0,0,0,0,0,0,0,0,0,0,0,.1,0,0,0,0,0,0,0,0,0,0,0,0,0,0,0,0,0,0,0,.2.2.4.2.6,0,0,0,0,0,0,0,0,0,0,0,.1,0,0,0,0,0,0,0,0,0,0,0,0h0s0,0,0,.1c0,1.1-.9,2-2,2s0,0-.1,0c0,0-.2,0-.2,0,0,0,0,0-.1,0,0,0-.1,0-.2,0,0,0-.1,0-.2,0,0,0,0,0-.1,0,0,0,0,0,0,0,0,0,0,0-.1,0,0,0,0,0-.1,0,0,0,0,0,0,0,0,0,0,0,0,0,0,0-.2-.2-.2-.3,0,0,0,0,0,0,0,0,0,0,0,0,0,0,0,0,0,0,0,0,0,0,0,0,0,0,0-.1,0-.2,0,0,0,0,0,0,0,0,0,0,0,0,0,0,0,0,0-.1h0c0,0,0,0,0,0,0,0,0,0,0,0,.8,5.3-2.1,10.4-7,12.4.1,0,.2,0,.4,0,0,0,0,0,0,0,0,0,0,0,.1,0,.6,0,1.1.2,1.4.6.4.4.6.9.6,1.5,0,1.1-.9,2-2,2s-.1,0-.2,0c0,0,0,0-.1,0,0,0,0,0-.1,0,0,0-.1,0-.2,0,0,0-.1,0-.2,0,0,0,0,0,0,0,4.9,1.9,7.9,6.9,7.2,12.1,0,0,0,0,0,0,0,0,0,0,0,0,0,0,0,0,0,0,0,0,0,0,0,0,0,0,0,0,0,0,0,0,0,0,0,0,0,0,0,0,0,0,0,0,0,0,0-.1,0,0,0,0,0,0,0,0,0,0,0,0,0,0,0,0,0,0,0,0,0,0,.1-.1,0,0,0,0,0,0,0,0,0,0,0,0,0,0,0,0,0,0h0s0,0,0,0c0,0,0,0,0,0,0,0,0,0,0,0,0,0,0,0,0,0,0,0,0,0,0,0,.1,0,.2-.1.3-.2,0,0,.1,0,.2,0,0,0,.2,0,.3,0,0,0,0,0,.1,0,0,0,.1,0,.2,0s.1,0,.2,0c0,0,0,0,0,0,0,0,0,0,0,0,0,0,0,0,0,0,.1,0,.3,0,.4.1,0,0,0,0,.1,0,0,0,0,0,.1,0,0,0,0,0,.1,0,0,0,0,0,.1.1,0,0,0,0,0,0,0,0,0,0,0,0,0,0,0,0,0,0,0,0,0,0,0,0,0,0,0,0,0,.1,0,0,0,0,0,.1,0,0,0,.1,0,.2,0,0,0,0,0,.1,0,0,0,0,0,0,0,0,0,0,0,.1,0,0,0,0,0,0,0,0,0,0,0,.1l-.3-1.6c0-.2,0-.4.3-.5h.3c.2,0,.5,0,.5.3l.3,1.8c0,.2.2.3.4.3h0s2.1-.4,2.1-.4h0c.2,0,.3-.2.3-.4l-.3-1.7h0c0-.3.1-.6.4-.6h.3c.2,0,.4.1.4.3l.3,1.8c0,.2.2.4.5.4.6,0,1.2,0,1.8,0,.2,0,.4-.1.5-.4l.3-1.8c0-.2.2-.4.4-.4h.3c.2,0,.4.3.4.6l-.3,1.8c0,.2,0,.4.3.4h0l2.1.4h0c.2,0,.4,0,.4-.3l.3-1.7h0c0-.3.3-.5.5-.4h.3c.2.1.3.3.3.5l-.3,1.6s0,0,0,0c0,0,0-.1,0-.2,0,0,0-.2.1-.2,0,0,0,0,0-.1.2-.3.5-.5.8-.6,0,0,0,0,0,0,0,0,0,0,0,0,0,0,0,0,0,0,0,0,.2,0,.3,0,0,0,0,0,0,0,0,0,.1,0,.2,0,0,0,0,0,.1,0s0,0,.1,0c0,0,0,0,.1,0,0,0,0,0,0,0,0,0,0,0,.1,0,0,0,0,0,0,0,0,0,.1,0,.2,0,0,0,0,0,0,0,0,0,.1,0,.2,0,0,0,0,0,0,0,0,0,0,0,0,0,0,0,0,0,0,0,0,0,0,0,0,0,0,0,0,0,0,0,0,0,0,0,0,0,.1.1.2.2.3.4,0,0,0,0,0,0,0,0,.1.2.2.3,0,0,0,0,0,0,0,0,0,.2,0,.2,0,0,0,0,0,0-.7-5.2,2.2-10.3,7.2-12.3ZM23.5,32.2s0,0,0-.1c0,0,0,0,.1,0,0,0,.2,0,.2.2s0,.2-.2.2-.2,0-.2-.2ZM15.2,32.5c0,0-.2,0-.2-.2s0-.2.2-.2.2,0,.2.2,0,.2-.2.2ZM15.8,32.4c0,0-.2,0-.2-.2s0-.2.2-.2.2,0,.2.2,0,.2-.2.2ZM16.3,32.3c0,0-.2,0-.2-.2s0-.2.2-.2.2,0,.2.2,0,.2-.2.2ZM24.2,32.1c0,0,.2,0,.2.2s0,.2-.2.2-.2,0-.2-.2,0-.2.2-.2ZM24.8,32.2c0,0,.2,0,.2.2s0,.2-.2.2-.2,0-.2-.2,0-.2.2-.2ZM14.9,33.8s0,0,0,0c0,0-.1,0-.2-.1v-.3c0,0,0-.2,0-.2,0,0,.2,0,.2.1v.4c0,0,0,.2,0,.2ZM17.1,33.4c0,0-.2,0-.2-.1v-.4c0,0,0-.2,0-.2,0,0,.2,0,.2.1v.4c0,0,0,.2,0,.2ZM23.1,33.3c0,0,0,.1-.2.1,0,0-.1,0-.1-.2v-.4c0,0,.2-.1.2-.1,0,0,.1,0,.1.2v.4ZM25.3,33.7c0,0,0,.1-.2.1,0,0-.1,0-.1-.2s0,0,0,0v-.4c0,0,.2-.1.2-.1,0,0,.1,0,.1.2v.3Z"/>
    <g id="Silk-Screen" class="cls-36">
      <path id="Motoren-Pinleiste" class="cls-25" d="M25.2,30.6h2.3v-1h-2.3"/>
      <path id="Motoren-Pinleiste-2" data-name="Motoren-Pinleiste" class="cls-25" d="M25.2,27.8h2.3v-1.3h-2.3v1.3Z"/>
      <g id="Taste_B" data-name="Taste B">
        <g class="cls-31">
          <path class="cls-25" d="M27.1,17.6h0c0,0,0-.2,0-.2h0c0,0,0-.2,0-.2h0c0,0,0-.2,0-.2h0c0,0,0-.2,0-.2h0c0,0,0-.1,0-.1h0c0,0,0-.1,0-.1h0c0,0,0-.1,0-.1h0c0,0,0-.1,0-.1h0c0,0,0-.1,0-.1h0s0,0,0,0h0s0,0,0,0h0s0,0,0,0h0s0,0,0,0h0s0,0,0,0h0s0,0,0,0h0s0,0,0,0h0s0,0,0,0h0s0,0,0,0h0s0,0,0,0h0s0,0,0,0h0s0,0,0,0h0s0,0,0,0h0c0,0,0,.1,0,.1h0c0,0,0,.1,0,.1h0c0,0,0,.1,0,.1h0c0,0,0,.1,0,.1h0c0,0,0,.1,0,.1h0c0,0,0,.2,0,.2h0c0,0,0,.2,0,.2h0c0,0,0,.2,0,.2h0c0,0,0,.2,0,.2h0c0,0,0,.2,0,.2h0c0,0,0,.2,0,.2h0c0,0,0,.2,0,.2h0c0,0,0,.2,0,.2h0c0,0,0,.2,0,.2h0c0,0,0,.1,0,.1h0c0,0,0,.1,0,.1h0c0,0,0,.1,0,.1h0c0,0,0,.1,0,.1h0c0,0,0,.1,0,.1h0s0,0,0,0h0s0,0,0,0h0s0,0,0,0h0s0,0,0,0h0s0,0,0,0h0s0,0,0,0h0s0,0,0,0h0s0,0,0,0h0s0,0,0,0h0s0,0,0,0h0s0,0,0,0h0s0,0,0,0h0s0,0,0,0h0c0,0,0-.1,0-.1h0c0,0,0-.1,0-.1h0c0,0,0-.1,0-.1h0c0,0,0-.1,0-.1h0c0,0,0-.1,0-.1h0c0,0,0-.2,0-.2h0c0,0,0-.2,0-.2h0c0,0,0-.2,0-.2h0c0,0,0-.2,0-.2h0c0,0,.3,0,.3,0h0c0,0,0,.1,0,.1h0c0,0,0,.1,0,.1h0c0,0,0,.1,0,.1h0c0,0,0,.1,0,.1h0c0,0,0,.1,0,.1h0c0,0,0,.1,0,.1h0c0,0,0,.1,0,.1h0c0,0,0,0,0,0h0s0,0,0,0h0s0,0,0,0h0s0,0,0,0h0s0,0,0,0h0s0,0,0,0h0s0,0,0,0h0s0,0,0,0h0s0,0,0,0h0s0,0,0,0h0s0,0,0,0h0s0,0,0,0h0s0,0,0,0h0s0,0,0,0h0s0,0,0,0h0s0,0,0,0h0s0,0,0,0h0s0,0,0,0h0c0,0,0-.1,0-.1h0c0,0,0-.1,0-.1h0c0,0,0-.1,0-.1h0c0,0,0-.1,0-.1h0c0,0,0-.1,0-.1h0c0,0,0-.1,0-.1h0c0,0,0-.1,0-.1h0c0,0,0-.1,0-.1h0c0,0,0-.1,0-.1h0c0,0,0-.1,0-.1h0c0,0,0-.1,0-.1h0c0,0,0-.1,0-.1h0c0,0,0-.1,0-.1h0c0,0,0-.1,0-.1h0c0,0,0,0,0,0h0s0,0,0,0h0s0,0,0,0h0s0,0,0,0h0s0,0,0,0h0s0,0,0,0h0s0,0,0,0h0s0,0,0,0h0s0,0,0,0h0s0,0,0,0h0s0,0,0,0h0s0,0,0,0h0s0,0,0,0h0s0,0,0,0h0s0,0,0,0h0s0,0,0,0h0s0,0,0,0h0s0,0,0,0h0c0,0,0,.1,0,.1h0c0,0,0,.1,0,.1h0c0,0,0,.1,0,.1h0c0,0,0,.1,0,.1h0c0,0,0,.1,0,.1h0c0,0,0,.1,0,.1h0c0,0,0,.1,0,.1h-.3s0,0,0,0Z"/>
        </g>
        <path class="cls-25" d="M28.8,17.2h0s0,0,0,0h0s0,0,0,0h0s0,0,0,0h0s0,0,0,0h0s0,0,0,0h0s0,0,0,0h0s0,0,0,0h0s0,0,0,0h0s0,0,0,0h0s0,0,0,0h0s0,0,0,0h0s0,0,0,0h0s0,0,0,0h0s0,0,0,0h0s0,0,0,0h0s0,0,0,0h0s0,0,0,0h0s0,0,0,0h0s0,0,0,0h0s0,0,0,0h0s0,0,0,0h0s0,0,0,0h0s0,0,0,0h0s0,0,0,0h0s0,0,0,0h0s0,0,0,0h0s0,0,0,0h0s0,0,0,0h0s0,0,0,0h0s0,0,0,0h0s0,0,0,0h0s0,0,0,0h0s0,0,0,0h0s0,0,0,0h0s0,0,0,0h0s0,0,0,0h0s0,0,0,0h0s0,0,0,0h0s0,0,0,0h0s0,0,0,0h0s0,0,0,0h0s0,0,0,0h0s0,0,0,0h0s0,0,0,0h0s0,0,0,0h0s0,0,0,0h0s0,0,0,0h0s0,0,0,0h0s0,0,0,0h0s0,0,0,0h0s0,0,0,0h0s0,0,0,0h0s0,0,0,0h0s0,0,0,0h0s0,0,0,0h0s0,0,0,0h0s0,0,0,0h0s0,0,0,0h0s0,0,0,0h0s0,0,0,0h0s0,0,0,0h0s0,0,0,0h0s0,0,0,0h0s0,0,0,0h-.3v-.2h.4s0,0,0,0h0s0,0,0,0h0s0,0,0,0h0s0,0,0,0h0s0,0,0,0h0s0,0,0,0h0s0,0,0,0h0s0,0,0,0h0s0,0,0,0h0s0,0,0,0h0s0,0,0,0h0s0,0,0,0h0s0,0,0,0h0s0,0,0,0h0s0,0,0,0h0s0,0,0,0h0s0,0,0,0h0s0,0,0,0h0s0,0,0,0h0s0,0,0,0h0s0,0,0,0h0s0,0,0,0h0s0,0,0,0h0s0,0,0,0h0s0,0,0,0h0s0,0,0,0h0s0,0,0,0h0s0,0,0,0h0s0,0,0,0h-.1v.3h-.2v-.4h.3s0,0,0,0h0s0,0,0,0h0s0,0,0,0h0s0,0,0,0h0s0,0,0,0h0s0,0,0,0h0s0,0,0,0h0s0,0,0,0h0s0,0,0,0h0s0,0,0,0h0s0,0,0,0h0s0,0,0,0h0s0,0,0,0h0s0,0,0,0h0s0,0,0,0h0s0,0,0,0h0s0,0,0,0h0s0,0,0,0h0s0,0,0,0h0s0,0,0,0h0s0,0,0,0h0s0,0,0,0h0s0,0,0,0h0s0,0,0,0h0s0,0,0,0h0s0,0,0,0h0s0,0,0,0h0s0,0,0,0h0s0,0,0,0h0s0,0,0,0h0s0,0,0,0h0s0,0,0,0h-.1v.3h-.2v-.4h.3Z"/>
      </g>
      <g id="Taste_A" data-name="Taste A">
        <path class="cls-25" d="M11,17.8l.3,1h-.2v-.2h-.3v.2h-.3v-.4h.5v-.4c0,0-.2.4-.2.4h-.2l.2-.7h.2Z"/>
        <path class="cls-25" d="M10.9,16l-2.3,2.3,2.3,2.3,2.3-2.3-2.3-2.3ZM9,18.3l1.9-1.9,1.9,1.9-1.9,1.9-1.9-1.9Z"/>
      </g>
      <g>
        <path class="cls-12" d="M23.5,13.8h0s0,0,0,0h0s0,0,0,0v.2h0s0,0,0,0h0s0,0,0,0h-.3s0,0,0,0h0s0,0,0,0v-.2h0s0,0,0,0h0s0,0,0,0h.2Z"/>
        <path class="cls-12" d="M23.5,13.1h0s0,0,0,0h0s0,0,0,0v.2h0s0,0,0,0h0s0,0,0,0h-.3s0,0,0,0h0s0,0,0,0v-.2h0s0,0,0,0h0s0,0,0,0h.2Z"/>
        <path class="cls-12" d="M18.2,13.8h0s0,0,0,0h0s0,0,0,0v.2h0s0,0,0,0h0s0,0,0,0h-.3s0,0,0,0h0s0,0,0,0v-.2h0s0,0,0,0h0s0,0,0,0h.2Z"/>
        <path class="cls-12" d="M18.2,13.1h0s0,0,0,0h0s0,0,0,0v.2h0s0,0,0,0h0s0,0,0,0h-.3s0,0,0,0h0s0,0,0,0v-.2h0s0,0,0,0h0s0,0,0,0h.2Z"/>
        <path class="cls-12" d="M16.4,13.8h0s0,0,0,0h0s0,0,0,0v.2h0s0,0,0,0h0s0,0,0,0h-.3s0,0,0,0h0s0,0,0,0v-.2h0s0,0,0,0h0s0,0,0,0h.2Z"/>
        <path class="cls-12" d="M16.4,13.1h0s0,0,0,0h0s0,0,0,0v.2h0s0,0,0,0h0s0,0,0,0h-.3s0,0,0,0h0s0,0,0,0v-.2h0s0,0,0,0h0s0,0,0,0h.2Z"/>
        <path class="cls-12" d="M18.2,15.6h0s0,0,0,0h0s0,0,0,0v.2h0s0,0,0,0h0s0,0,0,0h-.3s0,0,0,0h0s0,0,0,0v-.2h0s0,0,0,0h0s0,0,0,0h.2Z"/>
        <path class="cls-12" d="M18.2,14.9h0s0,0,0,0h0s0,0,0,0v.2h0s0,0,0,0h0s0,0,0,0h-.3s0,0,0,0h0s0,0,0,0v-.2h0s0,0,0,0h0s0,0,0,0h.2Z"/>
        <path class="cls-12" d="M16.4,19.2h0s0,0,0,0h0s0,0,0,0v.2h0s0,0,0,0h0s0,0,0,0h-.3s0,0,0,0h0s0,0,0,0v-.2h0s0,0,0,0h0s0,0,0,0h.2Z"/>
        <path class="cls-12" d="M16.4,18.5h0s0,0,0,0h0s0,0,0,0v.2h0s0,0,0,0h0s0,0,0,0h-.3s0,0,0,0h0s0,0,0,0v-.2h0s0,0,0,0h0s0,0,0,0h.2Z"/>
        <path class="cls-12" d="M20.1,24.1v-.3h.3v.3h-.3Z"/>
        <path class="cls-12" d="M20.1,23.6v-.3h.3v.3h-.3Z"/>
        <path class="cls-12" d="M19.3,23.6v-.3h.3v.3h-.3Z"/>
        <path class="cls-12" d="M19.3,24.1v-.3h.3v.3h-.3Z"/>
        <path class="cls-12" d="M18.2,17.4h0s0,0,0,0h0s0,0,0,0v.2h0s0,0,0,0h0s0,0,0,0h-.3s0,0,0,0h0s0,0,0,0v-.2h0s0,0,0,0h0s0,0,0,0h.2Z"/>
        <path class="cls-12" d="M18.2,16.7h0s0,0,0,0h0s0,0,0,0v.2h0s0,0,0,0h0s0,0,0,0h-.3s0,0,0,0h0s0,0,0,0v-.2h0s0,0,0,0h0s0,0,0,0h.2Z"/>
        <path class="cls-12" d="M19.9,17.4h0s0,0,0,0h0s0,0,0,0v.2h0s0,0,0,0h0s0,0,0,0h-.3s0,0,0,0h0s0,0,0,0v-.2h0s0,0,0,0h0s0,0,0,0h.2Z"/>
        <path class="cls-12" d="M19.9,16.7h0s0,0,0,0h0s0,0,0,0v.2h0s0,0,0,0h0s0,0,0,0h-.3s0,0,0,0h0s0,0,0,0v-.2h0s0,0,0,0h0s0,0,0,0h.2Z"/>
        <path class="cls-12" d="M23.5,19.2h0s0,0,0,0h0s0,0,0,0v.2h0s0,0,0,0h0s0,0,0,0h-.3s0,0,0,0h0s0,0,0,0v-.2h0s0,0,0,0h0s0,0,0,0h.2Z"/>
        <path class="cls-12" d="M23.5,18.5h0s0,0,0,0h0s0,0,0,0v.2h0s0,0,0,0h0s0,0,0,0h-.3s0,0,0,0h0s0,0,0,0v-.2h0s0,0,0,0h0s0,0,0,0h.2Z"/>
        <path class="cls-12" d="M16.4,17.4h0s0,0,0,0h0s0,0,0,0v.2h0s0,0,0,0h0s0,0,0,0h-.3s0,0,0,0h0s0,0,0,0v-.2h0s0,0,0,0h0s0,0,0,0h.2Z"/>
        <path class="cls-12" d="M16.4,16.7h0s0,0,0,0h0s0,0,0,0v.2h0s0,0,0,0h0s0,0,0,0h-.3s0,0,0,0h0s0,0,0,0v-.2h0s0,0,0,0h0s0,0,0,0h.2Z"/>
        <path class="cls-12" d="M23.5,20.9h0s0,0,0,0h0s0,0,0,0v.2h0s0,0,0,0h0s0,0,0,0h-.3s0,0,0,0h0s0,0,0,0v-.2h0s0,0,0,0h0s0,0,0,0h.2Z"/>
        <path class="cls-12" d="M23.5,20.2h0s0,0,0,0h0s0,0,0,0v.2h0s0,0,0,0h0s0,0,0,0h-.3s0,0,0,0h0s0,0,0,0v-.2h0s0,0,0,0h0s0,0,0,0h.2Z"/>
        <path class="cls-12" d="M21.7,15.6h0s0,0,0,0h0s0,0,0,0v.2h0s0,0,0,0h0s0,0,0,0h-.3s0,0,0,0h0s0,0,0,0v-.2h0s0,0,0,0h0s0,0,0,0h.2Z"/>
        <path class="cls-12" d="M21.7,14.9h0s0,0,0,0h0s0,0,0,0v.2h0s0,0,0,0h0s0,0,0,0h-.3s0,0,0,0h0s0,0,0,0v-.2h0s0,0,0,0h0s0,0,0,0h.2Z"/>
        <path class="cls-12" d="M19.9,19.2h0s0,0,0,0h0s0,0,0,0v.2h0s0,0,0,0h0s0,0,0,0h-.3s0,0,0,0h0s0,0,0,0v-.2h0s0,0,0,0h0s0,0,0,0h.2Z"/>
        <path class="cls-12" d="M19.9,18.5h0s0,0,0,0h0s0,0,0,0v.2h0s0,0,0,0h0s0,0,0,0h-.3s0,0,0,0h0s0,0,0,0v-.2h0s0,0,0,0h0s0,0,0,0h.2Z"/>
        <path class="cls-12" d="M19.9,15.6h0s0,0,0,0h0s0,0,0,0v.2h0s0,0,0,0h0s0,0,0,0h-.3s0,0,0,0h0s0,0,0,0v-.2h0s0,0,0,0h0s0,0,0,0h.2Z"/>
        <path class="cls-12" d="M19.9,14.9h0s0,0,0,0h0s0,0,0,0v.2h0s0,0,0,0h0s0,0,0,0h-.3s0,0,0,0h0s0,0,0,0v-.2h0s0,0,0,0h0s0,0,0,0h.2Z"/>
        <path class="cls-12" d="M23.5,17.4h0s0,0,0,0h0s0,0,0,0v.2h0s0,0,0,0h0s0,0,0,0h-.3s0,0,0,0h0s0,0,0,0v-.2h0s0,0,0,0h0s0,0,0,0h.2Z"/>
        <path class="cls-12" d="M23.5,16.7h0s0,0,0,0h0s0,0,0,0v.2h0s0,0,0,0h0s0,0,0,0h-.3s0,0,0,0h0s0,0,0,0v-.2h0s0,0,0,0h0s0,0,0,0h.2Z"/>
        <path class="cls-12" d="M19.9,20.9h0s0,0,0,0h0s0,0,0,0v.2h0s0,0,0,0h0s0,0,0,0h-.3s0,0,0,0h0s0,0,0,0v-.2h0s0,0,0,0h0s0,0,0,0h.2Z"/>
        <path class="cls-12" d="M19.9,20.2h0s0,0,0,0h0s0,0,0,0v.2h0s0,0,0,0h0s0,0,0,0h-.3s0,0,0,0h0s0,0,0,0v-.2h0s0,0,0,0h0s0,0,0,0h.2Z"/>
        <path class="cls-12" d="M22.3,24.1v-.3h.3v.3h-.3Z"/>
        <path class="cls-12" d="M22.3,23.6v-.3h.3v.3h-.3Z"/>
        <path class="cls-12" d="M21.5,23.6v-.3h.3v.3h-.3Z"/>
        <path class="cls-12" d="M21.5,24.1v-.3h.3v.3h-.3Z"/>
        <path class="cls-12" d="M18.2,20.9h0s0,0,0,0h0s0,0,0,0v.2h0s0,0,0,0h0s0,0,0,0h-.3s0,0,0,0h0s0,0,0,0v-.2h0s0,0,0,0h0s0,0,0,0h.2Z"/>
        <path class="cls-12" d="M18.2,20.2h0s0,0,0,0h0s0,0,0,0v.2h0s0,0,0,0h0s0,0,0,0h-.3s0,0,0,0h0s0,0,0,0v-.2h0s0,0,0,0h0s0,0,0,0h.2Z"/>
        <path class="cls-12" d="M17.9,24.1v-.3h.3v.3h-.3Z"/>
        <path class="cls-12" d="M17.9,23.6v-.3h.3v.3h-.3Z"/>
        <path class="cls-12" d="M17,23.6v-.3h.3v.3h-.3Z"/>
        <path class="cls-12" d="M17,24.1v-.3h.3v.3h-.3Z"/>
        <path class="cls-12" d="M18.2,19.2h0s0,0,0,0h0s0,0,0,0v.2h0s0,0,0,0h0s0,0,0,0h-.3s0,0,0,0h0s0,0,0,0v-.2h0s0,0,0,0h0s0,0,0,0h.2Z"/>
        <path class="cls-12" d="M18.2,18.5h0s0,0,0,0h0s0,0,0,0v.2h0s0,0,0,0h0s0,0,0,0h-.3s0,0,0,0h0s0,0,0,0v-.2h0s0,0,0,0h0s0,0,0,0h.2Z"/>
        <path class="cls-12" d="M21.7,13.8h0s0,0,0,0h0s0,0,0,0v.2h0s0,0,0,0h0s0,0,0,0h-.3s0,0,0,0h0s0,0,0,0v-.2h0s0,0,0,0h0s0,0,0,0h.2Z"/>
        <path class="cls-12" d="M21.7,13.1h0s0,0,0,0h0s0,0,0,0v.2h0s0,0,0,0h0s0,0,0,0h-.3s0,0,0,0h0s0,0,0,0v-.2h0s0,0,0,0h0s0,0,0,0h.2Z"/>
        <path class="cls-12" d="M21.7,19.2h0s0,0,0,0h0s0,0,0,0v.2h0s0,0,0,0h0s0,0,0,0h-.3s0,0,0,0h0s0,0,0,0v-.2h0s0,0,0,0h0s0,0,0,0h.2Z"/>
        <path class="cls-12" d="M21.7,18.5h0s0,0,0,0h0s0,0,0,0v.2h0s0,0,0,0h0s0,0,0,0h-.3s0,0,0,0h0s0,0,0,0v-.2h0s0,0,0,0h0s0,0,0,0h.2Z"/>
        <path class="cls-12" d="M21.7,20.9h0s0,0,0,0h0s0,0,0,0v.2h0s0,0,0,0h0s0,0,0,0h-.3s0,0,0,0h0s0,0,0,0v-.2h0s0,0,0,0h0s0,0,0,0h.2Z"/>
        <path class="cls-12" d="M21.7,20.2h0s0,0,0,0h0s0,0,0,0v.2h0s0,0,0,0h0s0,0,0,0h-.3s0,0,0,0h0s0,0,0,0v-.2h0s0,0,0,0h0s0,0,0,0h.2Z"/>
        <path class="cls-12" d="M16.4,20.9h0s0,0,0,0h0s0,0,0,0v.2h0s0,0,0,0h0s0,0,0,0h-.3s0,0,0,0h0s0,0,0,0v-.2h0s0,0,0,0h0s0,0,0,0h.2Z"/>
        <path class="cls-12" d="M16.4,20.2h0s0,0,0,0h0s0,0,0,0v.2h0s0,0,0,0h0s0,0,0,0h-.3s0,0,0,0h0s0,0,0,0v-.2h0s0,0,0,0h0s0,0,0,0h.2Z"/>
        <path class="cls-12" d="M19.9,13.8h0s0,0,0,0h0s0,0,0,0v.2h0s0,0,0,0h0s0,0,0,0h-.3s0,0,0,0h0s0,0,0,0v-.2h0s0,0,0,0h0s0,0,0,0h.2Z"/>
        <path class="cls-12" d="M19.9,13.1h0s0,0,0,0h0s0,0,0,0v.2h0s0,0,0,0h0s0,0,0,0h-.3s0,0,0,0h0s0,0,0,0v-.2h0s0,0,0,0h0s0,0,0,0h.2Z"/>
        <path class="cls-12" d="M16.4,15.6h0s0,0,0,0h0s0,0,0,0v.2h0s0,0,0,0h0s0,0,0,0h-.3s0,0,0,0h0s0,0,0,0v-.2h0s0,0,0,0h0s0,0,0,0h.2Z"/>
        <path class="cls-12" d="M16.4,14.9h0s0,0,0,0h0s0,0,0,0v.2h0s0,0,0,0h0s0,0,0,0h-.3s0,0,0,0h0s0,0,0,0v-.2h0s0,0,0,0h0s0,0,0,0h.2Z"/>
        <path class="cls-12" d="M23.5,15.6h0s0,0,0,0h0s0,0,0,0v.2h0s0,0,0,0h0s0,0,0,0h-.3s0,0,0,0h0s0,0,0,0v-.2h0s0,0,0,0h0s0,0,0,0h.2Z"/>
        <path class="cls-12" d="M23.5,14.9h0s0,0,0,0h0s0,0,0,0v.2h0s0,0,0,0h0s0,0,0,0h-.3s0,0,0,0h0s0,0,0,0v-.2h0s0,0,0,0h0s0,0,0,0h.2Z"/>
        <path class="cls-12" d="M21.7,17.4h0s0,0,0,0h0s0,0,0,0v.2h0s0,0,0,0h0s0,0,0,0h-.3s0,0,0,0h0s0,0,0,0v-.2h0s0,0,0,0h0s0,0,0,0h.2Z"/>
        <path class="cls-12" d="M21.7,16.7h0s0,0,0,0h0s0,0,0,0v.2h0s0,0,0,0h0s0,0,0,0h-.3s0,0,0,0h0s0,0,0,0v-.2h0s0,0,0,0h0s0,0,0,0h.2Z"/>
      </g>
    </g>
    <g id="Touchpins">
      <path id="Plus-Pin" class="cls-29" d="M28.5,3.7c-.4,0-.7.1-1.1.3,0,0,0,0,0,0,0,0,0,0,0,0,0,0,0,0-.1,0,0,0,0,0,0,0,0,0,0,0,0,0,0,0,0,0,0,0,0,0,0,0,0,0,0,0,0,0,0,0,0,0-.2.2-.2.3,0,0,0,0,0,.1,0,0,0,0,0,.1,0,0,0,0,0,0,0,0,0,0,0,0,0,0,0,.1,0,.2,0,0,0,0,0,.1,0,0,0,0,0,0,0,0,0,0,0,0,0,0,0,0,0,.1,0,0,0,0,0,0,0,0,0,0,0,.1,0,1.1.9,2,2,2s.1,0,.2,0c.2,0,.4,0,.6-.1,0,0,0,0,0,0,0,0,0,0,.1,0,0,0,0,0,.1,0,0,0,0,0,0,0,0,0,0,0,0,0,0,0,0,0,0,0,0,0,0,0,0,0,0,0,0,0,0,0,0,0,0,0,0,0,0,0,0,0,0,0,0,0,0,0,0,0,0,0,0,0,0-.1,0,0,0,0,0,0,0,0,0,0,0-.1,0,0,0-.2.1-.3,0,0,0,0,0-.1h0c0-.1,0-.2,0-.4,0-1.1-.9-2-2-2ZM28.5,6.6c-.5,0-.9-.4-.9-.9s.4-.9.9-.9.9.4.9.9-.4.9-.9.9Z"/>
      <path id="Minus-Pin" class="cls-29" d="M13.6,5.6h0s0,0,0,0c0,0,0,0,0,0,0,0,0,0,0-.1,0,0,0,0,0,0,0-.2-.1-.4-.2-.6,0,0,0,0,0,0,0,0,0,0,0,0,0,0,0,0,0,0,0,0,0,0,0-.1,0,0,0,0,0,0,0,0,0,0,0-.1-.4-.4-.9-.6-1.5-.6-1.1,0-2,.9-2,2s0,.2,0,.3h0s0,0,0,0h0c0,.1,0,.1,0,.2,0,0,0,0,0,0,0,0,0,0,0,0,0,0,0,.1,0,.2,0,0,0,0,0,0,0,0,0,0,0,0,0,0,0,0,0,0,0,0,0,0,0,0,0,.1.2.2.2.3s0,0,0,0c0,0,0,0,0,0,0,0,0,0,.1,0,0,0,0,0,.1,0,0,0,0,0,0,0,0,0,0,0,.1,0,0,0,.1,0,.2,0,0,0,.1,0,.2,0,0,0,0,0,.1,0,0,0,.2,0,.2,0,0,0,0,0,.1,0,1.1,0,2-.9,2-2s0,0,0-.1ZM11.6,6.6c-.5,0-.9-.4-.9-.9s.4-.9.9-.9.9.4.9.9-.4.9-.9.9Z"/>
      <path id="Pin_3" data-name="Pin 3" class="cls-29" d="M37.6,18.5c-.1,0-.2,0-.3,0,0,0,0,0,0,0,0,0-.2,0-.3,0s0,0,0,0c0,0,0,0,0,0,0,0-.1,0-.2,0,0,0-.1,0-.1,0,0,0,0,0,0,0,0,0-.1,0-.2,0,0,0,0,0-.1,0s0,0-.1,0c0,0,0,0-.1,0,0,0,0,0-.1,0,0,0,0,0-.1,0,0,0,0,0,0,0,0,0,0,0,0,0,0,0,0,0,0,0-.4.4-.6.9-.6,1.4,0,1.1.9,2,2,2s0,0,.1,0c0,0,0,0,0,0,0,0,0,0,.1,0,0,0,0,0,.1,0,0,0,0,0,0,0,0,0,0,0,.1,0,0,0,0,0,0,0,.8-.3,1.3-1,1.3-1.9s-.6-1.7-1.4-1.9ZM36.9,21.3c-.5,0-.9-.4-.9-.9s.4-.9.9-.9.9.4.9.9-.4.9-.9.9Z"/>
      <path id="Pin_2" data-name="Pin 2" class="cls-29" d="M30.4,34.6s0,0,0,0c0,0,0-.2,0-.2,0,0,0,0,0,0,0,0,0-.2-.2-.3,0,0,0,0,0,0,0-.1-.2-.3-.3-.4,0,0,0,0,0,0,0,0,0,0,0,0,0,0,0,0,0,0,0,0,0,0-.1,0,0,0,0,0,0,0,0,0-.1,0-.2,0,0,0,0,0,0,0,0,0-.1,0-.2,0,0,0,0,0,0,0,0,0,0,0-.1,0,0,0,0,0,0,0,0,0,0,0-.1,0,0,0,0,0-.1,0s0,0-.1,0c0,0-.1,0-.2,0,0,0,0,0,0,0,0,0-.2,0-.3,0,0,0,0,0,0,0,0,0,0,0,0,0,0,0,0,0,0,0-.3.1-.6.4-.8.6,0,0,0,0,0,.1,0,0,0,.2-.1.2,0,0,0,.1,0,.2,0,0,0,0,0,0,0,.2,0,.4,0,.6,0,1.1.9,2.1,2.1,2.1s2.1-.9,2.1-2.1,0-.3,0-.5ZM28.4,35.9c-.5,0-.9-.4-.9-.9s.4-.9.9-.9.9.4.9.9-.4.9-.9.9Z"/>
      <path id="Pin_1" data-name="Pin 1" class="cls-29" d="M13.6,34.5c0,0,0,0,0-.1,0,0,0,0,0,0,0,0,0,0,0-.1,0,0,0,0,0,0,0,0,0,0,0-.1,0,0,0-.1,0-.2,0,0,0,0,0-.1,0,0,0,0,0-.1,0,0,0,0,0,0,0,0,0,0,0,0,0,0,0,0,0,0,0,0,0,0,0,0,0,0,0,0-.1-.1,0,0,0,0-.1,0,0,0,0,0-.1,0,0,0,0,0-.1,0-.1,0-.3,0-.4-.1,0,0,0,0,0,0,0,0,0,0,0,0,0,0,0,0,0,0,0,0-.1,0-.2,0s-.1,0-.2,0c0,0,0,0-.1,0-.1,0-.2,0-.3,0-.2,0-.4.2-.5.3,0,0,0,0,0,0,0,0,0,0,0,0,0,0,0,0,0,0,0,0,0,0,0,0,0,0,0,0,0,0,0,0-.1.2-.2.2,0,0,0,.1-.1.2,0,0,0,0,0,0,0,0,0,.1,0,.2,0,.2-.1.5-.1.7,0,1.2.9,2.1,2.1,2.1s2.1-.9,2.1-2.1,0-.4,0-.5ZM11.6,35.9c-.5,0-.9-.4-.9-.9s.4-.9.9-.9.9.4.9.9-.4.9-.9.9Z"/>
      <path id="Pin_0" data-name="Pin 0" class="cls-29" d="M3.1,18.3s0,0-.1,0c0,0,0,0,0,0-.1,0-.3,0-.4,0-.8.2-1.5,1-1.5,2s.5,1.6,1.2,1.9c0,0,.1,0,.2,0,0,0,.1,0,.2,0,0,0,0,0,.1,0,0,0,0,0,.1,0,0,0,.1,0,.2,0,1.1,0,2-.9,2-2s-.9-2-2-2ZM3.1,21.3c-.5,0-.9-.4-.9-.9s.4-.9.9-.9.9.4.9.9-.4.9-.9.9Z"/>
    </g>
    <g id="JacDac">
      <g>
        <g id="LWPOLYLINE">
          <path class="cls-29" d="M15.4,32.5s0,0,0-.1c0-.1-.1-.2-.3-.2,0,0,0,0,0,0-.1,0-.2.2-.2.3,0,0,0,0,0,.1l.3,1.5c0,0,.1.2.2.1h0c0,0,.2-.1.1-.2l-.3-1.5ZM15.2,32.5c0,0-.2,0-.2-.2s0-.2.2-.2.2,0,.2.2,0,.2-.2.2Z"/>
        </g>
        <g id="ARC">
          <path class="cls-29" d="M16,32.4h0s0,0,0-.1c0-.1-.2-.2-.3-.2-.1,0-.2.2-.2.3,0,0,0,0,0,.1l.3,1.7c0,0,.1.2.2.1h0c0,0,.2-.1.1-.2l-.3-1.7ZM15.8,32.4c0,0-.2,0-.2-.2s0-.2.2-.2.2,0,.2.2,0,.2-.2.2Z"/>
        </g>
        <g id="LWPOLYLINE-2" data-name="LWPOLYLINE">
          <path class="cls-29" d="M16.5,32.3s0,0,0-.1c0,0,0,0,0-.1,0,0-.1,0-.2,0-.1,0-.2.2-.2.3,0,0,0,0,0,.1l.3,1.7c0,0,.1.2.2.1h0c0,0,.2-.1.1-.2l-.3-1.7ZM16.3,32.3c0,0-.2,0-.2-.2s0-.2.2-.2.2,0,.2.2,0,.2-.2.2Z"/>
        </g>
      </g>
      <g>
        <g id="LINE">
          <path class="cls-29" d="M24.3,32c-.1,0-.3,0-.3.2,0,0,0,0,0,.1h0s-.3,1.7-.3,1.7c0,0,0,.2.1.2h0c0,0,.2,0,.2-.1l.3-1.7s0,0,0-.1c0-.1,0-.3-.2-.3ZM24.2,32.4c0,0-.2,0-.2-.2s0-.2.2-.2.2,0,.2.2,0,.2-.2.2Z"/>
        </g>
        <g id="LWPOLYLINE-3" data-name="LWPOLYLINE">
          <path class="cls-29" d="M23.7,31.9c0,0-.2,0-.2,0,0,0,0,0,0,.1,0,0,0,.1,0,.1l-.3,1.5c0,0,0,.2.1.2h0c0,0,.2,0,.2-.1l.3-1.5s0,0,0-.1c0-.1,0-.3-.2-.3ZM23.7,32.3c0,0-.2,0-.2-.2s0,0,0-.1c0,0,0,0,.1,0,0,0,.2,0,.2.2s0,.2-.2.2Z"/>
        </g>
        <g id="LWPOLYLINE-4" data-name="LWPOLYLINE">
          <path class="cls-29" d="M24.8,32.1s0,0,0,0c-.1,0-.2,0-.2.2,0,0,0,.1,0,.1l-.3,1.7c0,0,0,.2.1.2h0c0,0,.2,0,.2-.1l.3-1.7s0,0,0-.1c0-.1,0-.3-.2-.3ZM24.8,32.5c0,0-.2,0-.2-.2s0-.2.2-.2.2,0,.2.2,0,.2-.2.2Z"/>
        </g>
      </g>
    </g>
    <g id="Mikrofon">
      <rect class="cls-9" x="31.2" y="20.9" width="1.6" height="1.3" rx="0" ry="0"/>
      <rect class="cls-29" x="31.3" y="20.9" width="1.5" height="1.2" rx="0" ry="0"/>
      <circle class="cls-16" cx="31.6" cy="21.5" r="0"/>
    </g>
    <path class="cls-12" d="M30.1,18.9l-.4-.4.5-.5.4.4-.5.5Z"/>
    <path class="cls-12" d="M32.6,16.4l-.4-.4.5-.5.4.4-.5.5Z"/>
    <path class="cls-12" d="M31.5,20.3l-.4-.4.5-.5.4.4-.5.5Z"/>
    <path class="cls-12" d="M34,17.8l-.4-.4.5-.5.4.4-.5.5Z"/>
    <path class="cls-12" d="M27.9,13.1l-.2-.4,1.8-.8.2.4-1.8.8Z"/>
    <path class="cls-12" d="M28.3,13.9l-.2-.4,1.8-.8.2.4-1.8.8Z"/>
    <path class="cls-12" d="M28.7,14.7l-.2-.4,1.8-.8.2.4-1.8.8Z"/>
    <path class="cls-12" d="M29.1,15.5l-.2-.4,1.8-.8.2.4-1.8.8Z"/>
    <path class="cls-12" d="M29.2,23.6l1.2,1-.3.3-1.2-1,.3-.3Z"/>
    <path class="cls-12" d="M30.6,26l1.2.9-.4.5-1.2-.9.4-.5Z"/>
    <path class="cls-12" d="M32.5,23.6l1.2.9-.4.5-1.2-.9.4-.5Z"/>
    <path class="cls-12" d="M29.7,22.9l1.2,1-.3.3-1.2-1,.3-.3Z"/>
    <path class="cls-12" d="M25.9,22.8h0s0,0,0,0h0s0,0,0,0h0s-.7,0-.7,0h0s0,0,0,0h0s0,0,0,0h0v-.8h0s0,0,0,0h0s0,0,0,0h0s.7,0,.7,0h0s0,0,0,0h0s0,0,0,0h0v.8Z"/>
    <path class="cls-12" d="M29,22.8h0s0,0,0,0h0s0,0,0,0h0s-.7,0-.7,0h0s0,0,0,0h0s0,0,0,0h0v-.8h0s0,0,0,0h0s0,0,0,0h0s.7,0,.7,0h0s0,0,0,0h0s0,0,0,0h0v.8Z"/>
    <path class="cls-12" d="M29,19.6h0s0,0,0,0h0s0,0,0,0h0s-.7,0-.7,0h0s0,0,0,0h0s0,0,0,0h0v-.8h0s0,0,0,0h0s0,0,0,0h0s.7,0,.7,0h0s0,0,0,0h0s0,0,0,0h0v.8Z"/>
    <path class="cls-12" d="M25.9,19.6h0s0,0,0,0h0s0,0,0,0h0s-.7,0-.7,0h0s0,0,0,0h0s0,0,0,0h0v-.8h0s0,0,0,0h0s0,0,0,0h0s.7,0,.7,0h0s0,0,0,0h0s0,0,0,0h0v.8Z"/>
    <path class="cls-12" d="M11.2,15.1l-.2.4-1.8-.8.2-.4,1.8.8Z"/>
    <path class="cls-12" d="M11.6,14.3l-.2.4-1.8-.8.2-.4,1.8.8Z"/>
    <path class="cls-12" d="M12,13.5l-.2.4-1.8-.8.2-.4,1.8.8Z"/>
    <path class="cls-12" d="M12.4,12.7l-.2.4-1.8-.8.2-.4,1.8.8Z"/>
    <path class="cls-12" d="M12.4,27.5h-.4v-.8h.4v.8Z"/>
    <path class="cls-12" d="M12.4,30.3h-.4v-.8h.4v.8Z"/>
    <path class="cls-12" d="M13.6,27.5h-.4v-.8h.4v.8Z"/>
    <path class="cls-12" d="M13.6,30.3h-.4v-.8h.4v.8Z"/>
    <path class="cls-12" d="M14.7,27.5h-.4v-.8h.4v.8Z"/>
    <path class="cls-12" d="M14.7,30.3h-.4v-.8h.4v.8Z"/>
    <path class="cls-12" d="M15.8,27.5h-.4v-.8h.4v.8Z"/>
    <path class="cls-12" d="M15.8,30.3h-.4v-.8h.4v.8Z"/>
    <path class="cls-12" d="M16.9,27.5h-.4v-.8h.4v.8Z"/>
    <path class="cls-12" d="M16.9,30.3h-.4v-.8h.4v.8Z"/>
    <path class="cls-12" d="M18.1,27.5h-.4v-.8h.4v.8Z"/>
    <path class="cls-12" d="M18.1,30.3h-.4v-.8h.4v.8Z"/>
    <path class="cls-12" d="M19.2,27.5h-.4v-.8h.4v.8Z"/>
    <path class="cls-12" d="M19.2,30.3h-.4v-.8h.4v.8Z"/>
    <path class="cls-12" d="M20.3,27.5h-.4v-.8h.4v.8Z"/>
    <path class="cls-12" d="M20.3,30.3h-.4v-.8h.4v.8Z"/>
    <path class="cls-12" d="M21.4,27.5h-.4v-.8h.4v.8Z"/>
    <path class="cls-12" d="M21.4,30.3h-.4v-.8h.4v.8Z"/>
    <path class="cls-12" d="M22.6,27.5h-.4v-.8h.4v.8Z"/>
    <path class="cls-12" d="M22.6,30.3h-.4v-.8h.4v.8Z"/>
    <path class="cls-12" d="M23.7,27.5h-.4v-.8h.4v.8Z"/>
    <path class="cls-12" d="M23.7,30.3h-.4v-.8h.4v.8Z"/>
    <path class="cls-12" d="M24.8,27.5h-.4v-.8h.4v.8Z"/>
    <path class="cls-12" d="M24.8,30.3h-.4v-.8h.4v.8Z"/>
    <path class="cls-12" d="M26,27.5h-.4v-.8h.4v.8Z"/>
    <path class="cls-12" d="M26,30.3h-.4v-.8h.4v.8Z"/>
    <path class="cls-12" d="M27.1,27.5h-.4v-.8h.4v.8Z"/>
    <path class="cls-12" d="M27.1,30.3h-.4v-.8h.4v.8Z"/>
    <path class="cls-12" d="M28.2,27.5h-.4v-.8h.4v.8Z"/>
    <path class="cls-12" d="M28.2,30.3h-.4v-.8h.4v.8Z"/>
    <path class="cls-12" d="M8.7,19.9l-.4.4-.5-.5.4-.4.5.5Z"/>
    <path class="cls-12" d="M6.2,17.4l-.4.4-.5-.5.4-.4.5.5Z"/>
    <path class="cls-12" d="M10.1,18.4l-.4.4-.5-.5.4-.4.5.5Z"/>
    <path class="cls-12" d="M7.6,16l-.4.4-.5-.5.4-.4.5.5Z"/>
    <path class="cls-12" d="M10.3,8.3h.5v.6h-.5v-.6Z"/>
    <path class="cls-12" d="M10.3,9.3h.5v.6h-.5v-.6Z"/>
    <path class="cls-12" d="M11.1,9.3h.5v.6h-.5v-.6Z"/>
    <path class="cls-12" d="M11.1,8.3h.5v.6h-.5v-.6Z"/>
    <path id="Lautsprecher-2" data-name="Lautsprecher" class="cls-23" d="M25.7,22.7h2.4s0,0,0,0l.6-.6s0,0,0,0v-2.4s0,0,0,0l-.6-.6s0,0,0,0h-2.4s0,0,0,0l-.6.6s0,0,0,0v2.4s0,0,0,0l.6.6s0,0,0,0Z"/>
    <g id="Anwendungs-Prozessor">
      <rect class="cls-23" x="11" y="20.4" width="3.1" height="3.1" rx="0" ry="0" transform="translate(-11.8 15.3) rotate(-45)"/>
    </g>
    <g id="Taste_B-2" data-name="Taste B">
      <polygon class="cls-5" points="31.3 19.9 31.5 20.1 31.7 19.9 31.7 19.9 31.7 19.9 31.7 19.9 31.7 19.9 31.8 19.8 31.8 19.8 31.8 19.8 31.8 19.8 32 19.6 31.8 19.4 31.6 19.6 31.6 19.6 31.5 19.6 31.5 19.6 31.5 19.7 31.5 19.7 31.4 19.7 31.3 19.9"/>
      <polygon class="cls-5" points="33.6 17.5 33.9 17.7 34 17.6 34 17.6 34.1 17.5 34.1 17.5 34.1 17.5 34.1 17.5 34.2 17.4 34.3 17.3 34.1 17.1 34 17.2 33.9 17.2 33.9 17.2 33.9 17.3 33.9 17.3 33.9 17.3 33.8 17.3 33.6 17.5"/>
      <polygon class="cls-5" points="32.2 16.1 32.4 16.3 32.6 16.2 32.6 16.2 32.7 16.1 32.7 16.1 32.7 16.1 32.8 16 32.8 16 32.8 16 32.9 15.9 32.7 15.6 32.5 15.8 32.5 15.8 32.5 15.9 32.4 15.9 32.4 15.9 32.4 15.9 32.4 16 32.2 16.1"/>
      <polygon class="cls-5" points="29.9 18.5 30.1 18.7 30.3 18.5 30.3 18.5 30.3 18.5 30.4 18.4 30.4 18.4 30.4 18.4 30.6 18.2 30.3 18 30.2 18.2 30.1 18.2 30.1 18.2 30.1 18.2 30.1 18.3 30.1 18.3 29.9 18.5"/>
      <path class="cls-11" d="M31.6,18.4c.3.3.8.3,1.1,0,.3-.3.3-.8,0-1.1-.3-.3-.8-.3-1.1,0-.3.3-.3.8,0,1.1Z"/>
      <path class="cls-15" d="M30.3,17.9h0s.2.3.2.3l1.2,1.2.2.2h0c0,0,.1,0,.2,0l1.7-1.7s0-.1,0-.2h0s-.2-.3-.2-.3l-1.2-1.2-.2-.2h0c0,0-.1,0-.2,0l-1.7,1.7s0,.1,0,.2ZM32.3,16.7c0,0-.2,0-.3,0,0,0,0-.2,0-.3,0,0,.2,0,.3,0,0,0,0,.2,0,.3ZM33.3,17.7c0,0,.2,0,.3,0,0,0,0,.2,0,.3,0,0-.2,0-.3,0,0,0,0-.2,0-.3ZM31.9,19.1c0,0,.2,0,.3,0,0,0,0,.2,0,.3s-.2,0-.3,0c0,0,0-.2,0-.3ZM31.6,17.3c.3-.3.8-.3,1.1,0,.3.3.3.8,0,1.1-.3.3-.8.3-1.1,0-.3-.3-.3-.8,0-1.1ZM30.6,17.7c0,0,.2,0,.3,0,0,0,0,.2,0,.3,0,0-.2,0-.3,0,0,0,0-.2,0-.3Z"/>
      <path class="cls-23" d="M30.6,18c0,0,.2,0,.3,0,0,0,0-.2,0-.3,0,0-.2,0-.3,0,0,0,0,.2,0,.3Z"/>
      <path class="cls-23" d="M31.9,16.7c0,0,.2,0,.3,0,0,0,0-.2,0-.3,0,0-.2,0-.3,0,0,0,0,.2,0,.3Z"/>
      <path class="cls-23" d="M33.3,18c0,0,.2,0,.3,0,0,0,0-.2,0-.3,0,0-.2,0-.3,0,0,0,0,.2,0,.3Z"/>
      <path class="cls-23" d="M31.9,19.4c0,0,.2,0,.3,0s0-.2,0-.3c0,0-.2,0-.3,0,0,0,0,.2,0,.3Z"/>
    </g>
    <g id="Grove_rechts">
      <polygon class="cls-13" points="30.3 10.8 30 10.9 30 10.7 29.8 10.8 29.6 10.6 30.1 10.4 30.3 10.8"/>
      <polygon class="cls-13" points="32.3 15.2 31.9 15.4 31.8 15.1 32 15 31.9 14.9 32.1 14.8 32.3 15.2"/>
      <polygon class="cls-3" points="32.1 14.8 31.9 14.9 31.7 15 30.8 15.4 30.8 15.4 30.6 15.5 30.4 15.6 30 15.7 29.7 15 30.1 14.8 30 14.6 30.2 14.5 30.3 14.7 30.3 14.7 30.4 15 30.2 15.1 30.2 15.1 30.1 15.1 30.2 15.4 30.2 15.4 30.3 15.3 30.3 15.3 31.8 14.6 31.6 14.3 31.6 14.1 31.5 13.9 31.5 13.9 31.2 13.4 31.1 13.2 31.1 13.2 30.8 12.6 30.7 12.4 30.5 11.8 30.4 11.6 30.3 11.5 30.1 11.1 28.7 11.8 28.6 11.9 28.7 12.1 28.8 12.1 29 12 29.1 12.2 29.2 12.4 29 12.5 29 12.5 28.9 12.3 28.5 12.5 28.2 11.8 28.6 11.6 28.6 11.6 28.8 11.5 28.9 11.4 29.8 11 30 10.9 30.3 10.8 30.6 11.4 30.6 11.5 30.7 11.7 31 12.3 31.1 12.5 31.3 13.1 31.4 13.3 31.7 13.8 31.8 14 31.9 14.2 32.1 14.8"/>
      <polygon class="cls-13" points="28.7 11.3 28.8 11.5 28.6 11.6 28.6 11.6 28.2 11.8 28 11.4 28.4 11.2 28.7 11 28.8 11.3 28.7 11.3"/>
      <polygon class="cls-13" points="31 15.8 30.6 16 30.2 16.1 30 15.7 30.4 15.6 30.6 15.5 30.7 15.6 30.8 15.6 31 15.8"/>
      <path class="cls-1" d="M31.6,14.3h0c0-.1,0-.3,0-.3h0s-.3-.6-.3-.6v-.2h0l-.3-.6v-.2c0,0-.4-.6-.4-.6v-.2c0,0-.2-.1-.2-.1l-.2-.4-1.5.7h0s.1.3.1.3h0s.2-.2.2-.2v.2c.1,0,.2.2.2.2h0s0,.1,0,.1l.2.5h0s0,.2,0,.2h0l.3.6h0s0,.2,0,.2h0s.2.5.2.5h0c0,.1,0,.1,0,.1v.2c0,0,0,0,0,0v.2c.1,0-.1.1-.1.1h0s.1.3.1.3h0s1.5-.7,1.5-.7l-.2-.4Z"/>
      <polygon class="cls-7" points="29.9 12.1 29.7 12.2 29.7 12 29.7 11.9 29.8 11.9 29.9 11.9 29.9 12.1"/>
      <polygon class="cls-7" points="30.3 12.8 30.3 12.9 30.3 12.9 30.2 12.9 30.2 12.9 30.1 12.9 30 12.7 30.2 12.6 30.3 12.8"/>
      <polygon class="cls-7" points="30.7 13.6 30.5 13.7 30.4 13.5 30.4 13.5 30.4 13.5 30.4 13.5 30.5 13.4 30.5 13.4 30.6 13.4 30.7 13.6"/>
      <polygon class="cls-7" points="31 14.4 31 14.4 30.9 14.5 30.8 14.5 30.7 14.3 30.9 14.2 31 14.4"/>
      <polygon class="cls-15" points="29 12.5 29 12.5 29 12.5 28.2 12.9 28 12.9 27.9 12.8 28.1 12.7 28.5 12.5 28.9 12.3 29 12.5 29 12.5"/>
      <polygon class="cls-13" points="30.2 14.5 30 14.6 29.9 14.5 29.8 14.3 29.7 14.1 29.6 13.9 29.3 13.3 29.3 13.1 29.3 13.1 29.1 12.9 29 12.6 29 12.5 29 12.5 29.2 12.4 29.3 12.5 29.3 12.5 29.5 13 29.6 13.2 29.6 13.2 29.9 13.7 29.9 13.7 29.9 13.9 29.9 13.9 30.2 14.4 30.2 14.5"/>
      <polygon class="cls-15" points="29 13.4 28.5 13.7 28.4 13.7 28.3 13.6 28.4 13.5 28.9 13.2 29 13.4"/>
      <polygon class="cls-1" points="29.8 14.3 29.5 14.4 29.4 14.2 29.3 14 29 13.4 28.9 13.2 28.8 13 29.1 12.9 29.3 13.1 29.3 13.1 29.3 13.3 29.6 13.9 29.7 14.1 29.8 14.3"/>
      <polygon class="cls-15" points="29.4 14.2 28.9 14.4 28.7 14.5 28.7 14.3 28.8 14.2 29.3 14 29.4 14.2"/>
      <polygon class="cls-15" points="30.1 14.8 29.7 15 29.3 15.2 29.1 15.3 29 15.1 29.2 15 30 14.6 30.1 14.8"/>
      <polygon class="cls-5" points="29.6 10.6 29.8 10.8 30 10.7 30 10.9 28.8 11.5 28.7 11.3 28.8 11.3 28.7 11 29.6 10.6"/>
      <polyline class="cls-5" points="31.9 14.9 32 15 31.8 15.1 31.9 15.4 31 15.8 30.8 15.6 30.7 15.6 30.6 15.5 30.8 15.4 30.8 15.4 31.7 15 31.9 14.9"/>
    </g>
    <g id="Grove_links">
      <polygon class="cls-13" points="9.8 10.8 10.1 10.9 10.1 10.8 10.3 10.9 10.5 10.6 10 10.4 9.8 10.8"/>
      <polygon class="cls-22" points="7.8 15.2 8.2 15.4 8.3 15.2 8.1 15.1 8.2 14.9 8 14.8 7.8 15.2"/>
      <polygon class="cls-8" points="8 14.8 8.2 14.9 8.4 15 9.3 15.4 9.3 15.4 9.5 15.5 9.7 15.6 10.1 15.8 10.4 15.1 10 14.9 10.1 14.7 9.9 14.6 9.8 14.8 9.8 14.8 9.7 15 9.9 15.1 9.9 15.1 10 15.2 9.9 15.4 9.9 15.4 9.8 15.4 9.8 15.4 8.3 14.7 8.5 14.3 8.6 14.2 8.6 14 8.6 14 8.9 13.4 9 13.2 9 13.2 9.3 12.7 9.4 12.5 9.6 11.9 9.7 11.7 9.8 11.5 10 11.2 11.4 11.9 11.5 11.9 11.4 12.2 11.3 12.1 11.1 12 11 12.2 10.9 12.4 11.1 12.6 11.1 12.6 11.2 12.4 11.6 12.5 11.9 11.8 11.6 11.6 11.6 11.6 11.3 11.5 11.2 11.5 10.3 11 10.1 10.9 9.8 10.8 9.5 11.4 9.5 11.6 9.4 11.8 9.1 12.3 9 12.5 8.8 13.1 8.7 13.3 8.4 13.9 8.3 14.1 8.3 14.2 8 14.8"/>
      <polygon class="cls-13" points="11.4 11.4 11.3 11.5 11.6 11.6 11.6 11.6 11.9 11.8 12.1 11.4 11.7 11.2 11.4 11.1 11.3 11.3 11.4 11.4"/>
      <polygon class="cls-13" points="9.2 15.8 9.5 16 9.9 16.2 10.1 15.8 9.7 15.6 9.5 15.5 9.4 15.7 9.3 15.6 9.2 15.8"/>
      <path class="cls-1" d="M8.3,14.7l1.5.7h0s.1-.2.1-.2h0s0,0,0,0h-.2c0-.1.1-.4.1-.4h0s0-.2,0-.2h0c0-.1.2-.6.2-.6h0s0-.2,0-.2h0s.3-.6.3-.6h0v-.2c0,0,0,0,0,0l.2-.5h0c0-.1,0-.3,0-.3v-.2c.1,0,.4.1.4.1h0s.1-.2.1-.2h0s-1.5-.7-1.5-.7l-.2.4h0c0,.1,0,.3,0,.3l-.3.6v.2c0,0-.4.6-.4.6h0v.2c0,0-.4.6-.4.6h0s0,.2,0,.2h0c0,.1-.2.5-.2.5Z"/>
      <polygon class="cls-7" points="10.2 12.1 10.4 12.2 10.5 12 10.4 12 10.3 11.9 10.3 11.9 10.2 12.1"/>
      <polygon class="cls-7" points="9.8 12.9 9.8 12.9 9.8 12.9 10 13 10 13 10 13 10.1 12.8 9.9 12.7 9.8 12.9"/>
      <polygon class="cls-7" points="9.4 13.7 9.6 13.8 9.7 13.6 9.7 13.6 9.7 13.6 9.7 13.5 9.6 13.5 9.6 13.5 9.5 13.5 9.4 13.7"/>
      <polygon class="cls-7" points="9.1 14.4 9.1 14.5 9.2 14.5 9.3 14.5 9.4 14.3 9.2 14.2 9.1 14.4"/>
      <polygon class="cls-15" points="11.1 12.6 11.1 12.6 11.1 12.6 11.9 12.9 12.1 13 12.2 12.9 12 12.7 11.6 12.5 11.2 12.4 11.1 12.6 11.1 12.6"/>
      <polygon class="cls-13" points="9.9 14.6 10.1 14.7 10.2 14.6 10.3 14.3 10.4 14.1 10.5 13.9 10.8 13.3 10.9 13.1 10.9 13.1 11 12.9 11.1 12.7 11.1 12.6 11.1 12.6 10.9 12.5 10.8 12.6 10.8 12.6 10.6 13 10.5 13.2 10.5 13.2 10.3 13.8 10.3 13.8 10.2 14 10.2 14 10 14.5 9.9 14.6"/>
      <polygon class="cls-15" points="11.1 13.5 11.6 13.7 11.7 13.8 11.8 13.6 11.7 13.5 11.2 13.3 11.1 13.5"/>
      <polygon class="cls-1" points="10.3 14.3 10.6 14.5 10.7 14.3 10.8 14.1 11.1 13.5 11.2 13.3 11.3 13.1 11 12.9 10.9 13.1 10.9 13.1 10.8 13.3 10.5 13.9 10.4 14.1 10.3 14.3"/>
      <polygon class="cls-15" points="10.7 14.3 11.2 14.5 11.4 14.5 11.4 14.4 11.3 14.3 10.8 14.1 10.7 14.3"/>
      <polygon class="cls-15" points="10 14.9 10.4 15.1 10.8 15.3 11 15.3 11.1 15.2 10.9 15.1 10.1 14.7 10 14.9"/>
      <polygon class="cls-5" points="10.5 10.6 10.3 10.9 10.1 10.8 10.1 10.9 11.3 11.5 11.4 11.4 11.3 11.3 11.4 11.1 10.5 10.6"/>
      <polyline class="cls-5" points="8.2 14.9 8.1 15.1 8.3 15.2 8.2 15.4 9.2 15.8 9.3 15.6 9.4 15.7 9.5 15.5 9.3 15.4 9.3 15.4 8.4 15 8.2 14.9"/>
    </g>
    <g id="RGB-LEDs">
      <g id="RGB-LED">
        <path class="cls-20" d="M18,23.5c0,0,0,0,0,.1v.2c0,0,0,0,0,.1s0,0,0,.1h0c0,0,0,.1,0,.1h-.9s0,0,0,0h0c0,0,0-.1,0-.2s0,0,0-.1v-.2c0,0,0,0,0-.1s0,0,0-.1h0c0,0,0-.1,0-.1h.9s0,0,0,0h0c0,0,0,.1,0,.2Z"/>
        <rect class="cls-18" x="17.3" y="23.3" width=".3" height=".1"/>
        <rect class="cls-24" x="17.3" y="23.3" width=".6" height=".9"/>
      </g>
      <g id="RGB-LED-2" data-name="RGB-LED">
        <path class="cls-20" d="M20.2,23.5c0,0,0,0,0,.1v.2c0,0,0,0,0,.1s0,0,0,.1h0c0,0,0,.1,0,.1h-.9s0,0,0,0h0c0,0,0-.1,0-.2s0,0,0-.1v-.2c0,0,0,0,0-.1s0,0,0-.1h0c0,0,0-.1,0-.1h.9s0,0,0,0h0c0,0,0,.1,0,.2Z"/>
        <rect class="cls-18" x="19.6" y="23.3" width=".3" height=".1"/>
        <rect class="cls-24" x="19.5" y="23.3" width=".6" height=".9"/>
      </g>
      <g id="RGB-LED-3" data-name="RGB-LED">
        <path class="cls-20" d="M22.4,23.5c0,0,0,0,0,.1v.2c0,0,0,0,0,.1s0,0,0,.1h0c0,0,0,.1,0,.1h-.9s0,0,0,0h0c0,0,0-.1,0-.2s0,0,0-.1v-.2c0,0,0,0,0-.1s0,0,0-.1h0c0,0,0-.1,0-.1h.9s0,0,0,0h0c0,0,0,.1,0,.2Z"/>
        <rect class="cls-18" x="21.8" y="23.3" width=".3" height=".1"/>
        <rect class="cls-24" x="21.7" y="23.3" width=".6" height=".9"/>
      </g>
    </g>
    <g id="Kleine_LEDs" data-name="Kleine LEDs">
      <use width="1.4" height="2.8" transform="translate(16.8 7.2) scale(.2)" xlink:href="#Calliope_3_Small_LED_2"/>
      <use width="1.4" height="2.8" transform="translate(16.3 7.2) scale(.2)" xlink:href="#Calliope_3_Small_LED_2"/>
      <use width="1.4" height="2.8" transform="translate(32.9 20.5) rotate(-90) scale(.2)" xlink:href="#Calliope_3_Small_LED_2"/>
    </g>
    <g id="LED-Matrix">
      <use width="2.3" height="4.8" transform="translate(16.1 15.1) scale(.2 .2)" xlink:href="#Calliope_3_LED_2"/>
      <use width="2.3" height="4.8" transform="translate(17.8 15.1) scale(.2 .2)" xlink:href="#Calliope_3_LED_2"/>
      <use width="2.3" height="4.8" transform="translate(21.4 15.1) scale(.2 .2)" xlink:href="#Calliope_3_LED_2"/>
      <use width="2.3" height="4.8" transform="translate(19.6 15.1) scale(.2 .2)" xlink:href="#Calliope_3_LED_2"/>
      <use width="2.3" height="4.8" transform="translate(23.2 15.1) scale(.2 .2)" xlink:href="#Calliope_3_LED_2"/>
      <use width="2.3" height="4.8" transform="translate(16.1 16.9) scale(.2 .2)" xlink:href="#Calliope_3_LED_2"/>
      <use width="2.3" height="4.8" transform="translate(17.8 16.9) scale(.2 .2)" xlink:href="#Calliope_3_LED_2"/>
      <use width="2.3" height="4.8" transform="translate(19.6 16.9) scale(.2 .2)" xlink:href="#Calliope_3_LED_2"/>
      <use width="2.3" height="4.8" transform="translate(21.4 16.9) scale(.2 .2)" xlink:href="#Calliope_3_LED_2"/>
      <use width="2.3" height="4.8" transform="translate(23.2 16.9) scale(.2 .2)" xlink:href="#Calliope_3_LED_2"/>
      <use width="2.3" height="4.8" transform="translate(16.1 13.3) scale(.2 .2)" xlink:href="#Calliope_3_LED_2"/>
      <use width="2.3" height="4.8" transform="translate(17.8 13.3) scale(.2 .2)" xlink:href="#Calliope_3_LED_2"/>
      <use width="2.3" height="4.8" transform="translate(19.6 13.3) scale(.2 .2)" xlink:href="#Calliope_3_LED_2"/>
      <use width="2.3" height="4.8" transform="translate(21.4 13.3) scale(.2 .2)" xlink:href="#Calliope_3_LED_2"/>
      <use width="2.3" height="4.8" transform="translate(23.2 13.3) scale(.2 .2)" xlink:href="#Calliope_3_LED_2"/>
      <use width="2.3" height="4.8" transform="translate(16.1 18.6) scale(.2 .2)" xlink:href="#Calliope_3_LED_2"/>
      <use width="2.3" height="4.8" transform="translate(17.8 18.6) scale(.2 .2)" xlink:href="#Calliope_3_LED_2"/>
      <use width="2.3" height="4.8" transform="translate(19.6 18.6) scale(.2 .2)" xlink:href="#Calliope_3_LED_2"/>
      <use width="2.3" height="4.8" transform="translate(21.4 18.6) scale(.2 .2)" xlink:href="#Calliope_3_LED_2"/>
      <use width="2.3" height="4.8" transform="translate(23.2 18.6) scale(.2 .2)" xlink:href="#Calliope_3_LED_2"/>
      <use width="2.3" height="4.8" transform="translate(16.1 20.4) scale(.2 .2)" xlink:href="#Calliope_3_LED_2"/>
      <use width="2.3" height="4.8" transform="translate(17.8 20.4) scale(.2 .2)" xlink:href="#Calliope_3_LED_2"/>
      <use width="2.3" height="4.8" transform="translate(19.6 20.4) scale(.2 .2)" xlink:href="#Calliope_3_LED_2"/>
      <use width="2.3" height="4.8" transform="translate(21.4 20.4) scale(.2 .2)" xlink:href="#Calliope_3_LED_2"/>
      <use width="2.3" height="4.8" transform="translate(23.2 20.4) scale(.2 .2)" xlink:href="#Calliope_3_LED_2"/>
    </g>
    <path class="cls-12" d="M13.6,11.7h0s0,0,0,0h0s0,0,0,0v-.3h0s0,0,0,0h0s0,0,0,0h0s0,0,0,0h0s0,0,0,0v.3h0s0,0,0,0h0s0,0,0,0h0Z"/>
    <path class="cls-12" d="M13.8,11.7h0s0,0,0,0h0s0,0,0,0v-.3h0s0,0,0,0h0s0,0,0,0h0s0,0,0,0h0s0,0,0,0v.3h0s0,0,0,0h0s0,0,0,0h0Z"/>
    <path class="cls-12" d="M13.9,11.7h0s0,0,0,0h0s0,0,0,0v-.3h0s0,0,0,0h0s0,0,0,0h0s0,0,0,0h0s0,0,0,0v.3h0s0,0,0,0h0s0,0,0,0h0Z"/>
    <path class="cls-12" d="M14.1,11.7h0s0,0,0,0h0s0,0,0,0v-.3h0s0,0,0,0h0s0,0,0,0h0s0,0,0,0h0s0,0,0,0v.3h0s0,0,0,0h0s0,0,0,0h0Z"/>
    <path class="cls-12" d="M14.3,11.7h0s0,0,0,0h0s0,0,0,0v-.3h0s0,0,0,0h0s0,0,0,0h0s0,0,0,0h0s0,0,0,0v.3h0s0,0,0,0h0s0,0,0,0h0Z"/>
    <path class="cls-12" d="M14.5,11.7h0s0,0,0,0h0s0,0,0,0v-.3h0s0,0,0,0h0s0,0,0,0h0s0,0,0,0h0s0,0,0,0v.3h0s0,0,0,0h0s0,0,0,0h0Z"/>
    <path class="cls-12" d="M14.6,11.7h0s0,0,0,0h0s0,0,0,0v-.3h0s0,0,0,0h0s0,0,0,0h0s0,0,0,0h0s0,0,0,0v.3h0s0,0,0,0h0s0,0,0,0h0Z"/>
    <path class="cls-12" d="M14.8,11.7h0s0,0,0,0h0s0,0,0,0v-.3h0s0,0,0,0h0s0,0,0,0h0s0,0,0,0h0s0,0,0,0v.3h0s0,0,0,0h0s0,0,0,0h0Z"/>
    <path class="cls-12" d="M15,11.7h0s0,0,0,0h0s0,0,0,0v-.3h0s0,0,0,0h0s0,0,0,0h0s0,0,0,0h0s0,0,0,0v.3h0s0,0,0,0h0s0,0,0,0h0Z"/>
    <path class="cls-12" d="M15.2,11.7h0s0,0,0,0h0s0,0,0,0v-.3h0s0,0,0,0h0s0,0,0,0h0s0,0,0,0h0s0,0,0,0v.3h0s0,0,0,0h0s0,0,0,0h0Z"/>
    <path class="cls-12" d="M15.3,11.3h0s0,0,0,0h0s0,0,0,0h0c0,0,0,0,0,0h0s0,0,0,0h0s.3,0,.3,0h0s0,0,0,0h0s0,0,0,0h0c0,0,0,0,0,0h0s0,0,0,0h0s-.3,0-.3,0Z"/>
    <path class="cls-12" d="M15.3,11.2h0s0,0,0,0h0s0,0,0,0h0c0,0,0,0,0,0h0s0,0,0,0h0s.3,0,.3,0h0s0,0,0,0h0s0,0,0,0h0c0,0,0,0,0,0h0s0,0,0,0h0s-.3,0-.3,0Z"/>
    <path class="cls-12" d="M15.3,11h0s0,0,0,0h0s0,0,0,0h0c0,0,0,0,0,0h0s0,0,0,0h0s.3,0,.3,0h0s0,0,0,0h0s0,0,0,0h0c0,0,0,0,0,0h0s0,0,0,0h0s-.3,0-.3,0Z"/>
    <path class="cls-12" d="M15.3,10.8h0s0,0,0,0h0s0,0,0,0h0c0,0,0,0,0,0h0s0,0,0,0h0s.3,0,.3,0h0s0,0,0,0h0s0,0,0,0h0c0,0,0,0,0,0h0s0,0,0,0h0s-.3,0-.3,0Z"/>
    <path class="cls-12" d="M15.3,10.6h0s0,0,0,0h0s0,0,0,0h0c0,0,0,0,0,0h0s0,0,0,0h0s.3,0,.3,0h0s0,0,0,0h0s0,0,0,0h0c0,0,0,0,0,0h0s0,0,0,0h0s-.3,0-.3,0Z"/>
    <path class="cls-12" d="M15.3,10.5h0s0,0,0,0h0s0,0,0,0h0c0,0,0,0,0,0h0s0,0,0,0h0s.3,0,.3,0h0s0,0,0,0h0s0,0,0,0h0c0,0,0,0,0,0h0s0,0,0,0h0s-.3,0-.3,0Z"/>
    <path class="cls-12" d="M15.3,10.3h0s0,0,0,0h0s0,0,0,0h0c0,0,0,0,0,0h0s0,0,0,0h0s.3,0,.3,0h0s0,0,0,0h0s0,0,0,0h0c0,0,0,0,0,0h0s0,0,0,0h0s-.3,0-.3,0Z"/>
    <path class="cls-12" d="M15.3,10.1h0s0,0,0,0h0s0,0,0,0h0c0,0,0,0,0,0h0s0,0,0,0h0s.3,0,.3,0h0s0,0,0,0h0s0,0,0,0h0c0,0,0,0,0,0h0s0,0,0,0h0s-.3,0-.3,0Z"/>
    <path class="cls-12" d="M15.3,9.9h0s0,0,0,0h0s0,0,0,0h0c0,0,0,0,0,0h0s0,0,0,0h0s.3,0,.3,0h0s0,0,0,0h0s0,0,0,0h0c0,0,0,0,0,0h0s0,0,0,0h0s-.3,0-.3,0Z"/>
    <path class="cls-12" d="M15.3,9.7h0s0,0,0,0h0s0,0,0,0h0c0,0,0,0,0,0h0s0,0,0,0h0s.3,0,.3,0h0s0,0,0,0h0s0,0,0,0h0c0,0,0,0,0,0h0s0,0,0,0h0s-.3,0-.3,0Z"/>
    <path class="cls-12" d="M15.2,9.6h0s0,0,0,0h0s0,0,0,0v-.3h0s0,0,0,0h0s0,0,0,0h0s0,0,0,0h0s0,0,0,0v.3h0s0,0,0,0h0s0,0,0,0h0Z"/>
    <path class="cls-12" d="M15,9.6h0s0,0,0,0h0s0,0,0,0v-.3h0s0,0,0,0h0s0,0,0,0h0s0,0,0,0h0s0,0,0,0v.3h0s0,0,0,0h0s0,0,0,0h0Z"/>
    <path class="cls-12" d="M14.8,9.6h0s0,0,0,0h0s0,0,0,0v-.3h0s0,0,0,0h0s0,0,0,0h0s0,0,0,0h0s0,0,0,0v.3h0s0,0,0,0h0s0,0,0,0h0Z"/>
    <path class="cls-12" d="M14.6,9.6h0s0,0,0,0h0s0,0,0,0v-.3h0s0,0,0,0h0s0,0,0,0h0s0,0,0,0h0s0,0,0,0v.3h0s0,0,0,0h0s0,0,0,0h0Z"/>
    <path class="cls-12" d="M14.5,9.6h0s0,0,0,0h0s0,0,0,0v-.3h0s0,0,0,0h0s0,0,0,0h0s0,0,0,0h0s0,0,0,0v.3h0s0,0,0,0h0s0,0,0,0h0Z"/>
    <path class="cls-12" d="M14.3,9.6h0s0,0,0,0h0s0,0,0,0v-.3h0s0,0,0,0h0s0,0,0,0h0s0,0,0,0h0s0,0,0,0v.3h0s0,0,0,0h0s0,0,0,0h0Z"/>
    <path class="cls-12" d="M14.1,9.6h0s0,0,0,0h0s0,0,0,0v-.3h0s0,0,0,0h0s0,0,0,0h0s0,0,0,0h0s0,0,0,0v.3h0s0,0,0,0h0s0,0,0,0h0Z"/>
    <path class="cls-12" d="M13.9,9.6h0s0,0,0,0h0s0,0,0,0v-.3h0s0,0,0,0h0s0,0,0,0h0s0,0,0,0h0s0,0,0,0v.3h0s0,0,0,0h0s0,0,0,0h0Z"/>
    <path class="cls-12" d="M13.8,9.6h0s0,0,0,0h0s0,0,0,0v-.3h0s0,0,0,0h0s0,0,0,0h0s0,0,0,0h0s0,0,0,0v.3h0s0,0,0,0h0s0,0,0,0h0Z"/>
    <path class="cls-12" d="M13.6,9.6h0s0,0,0,0h0s0,0,0,0v-.3h0s0,0,0,0h0s0,0,0,0h0s0,0,0,0h0s0,0,0,0v.3h0s0,0,0,0h0s0,0,0,0h0Z"/>
    <path class="cls-12" d="M13.2,9.7h0s0,0,0,0h0s0,0,0,0h0c0,0,0,0,0,0h0s0,0,0,0h0s.3,0,.3,0h0s0,0,0,0h0s0,0,0,0h0c0,0,0,0,0,0h0s0,0,0,0h0s-.3,0-.3,0Z"/>
    <path class="cls-12" d="M13.2,9.9h0s0,0,0,0h0s0,0,0,0h0c0,0,0,0,0,0h0s0,0,0,0h0s.3,0,.3,0h0s0,0,0,0h0s0,0,0,0h0c0,0,0,0,0,0h0s0,0,0,0h0s-.3,0-.3,0Z"/>
    <path class="cls-12" d="M13.2,10.1h0s0,0,0,0h0s0,0,0,0h0c0,0,0,0,0,0h0s0,0,0,0h0s.3,0,.3,0h0s0,0,0,0h0s0,0,0,0h0c0,0,0,0,0,0h0s0,0,0,0h0s-.3,0-.3,0Z"/>
    <path class="cls-12" d="M13.2,10.3h0s0,0,0,0h0s0,0,0,0h0c0,0,0,0,0,0h0s0,0,0,0h0s.3,0,.3,0h0s0,0,0,0h0s0,0,0,0h0c0,0,0,0,0,0h0s0,0,0,0h0s-.3,0-.3,0Z"/>
    <path class="cls-12" d="M13.2,10.5h0s0,0,0,0h0s0,0,0,0h0c0,0,0,0,0,0h0s0,0,0,0h0s.3,0,.3,0h0s0,0,0,0h0s0,0,0,0h0c0,0,0,0,0,0h0s0,0,0,0h0s-.3,0-.3,0Z"/>
    <path class="cls-12" d="M13.2,10.6h0s0,0,0,0h0s0,0,0,0h0c0,0,0,0,0,0h0s0,0,0,0h0s.3,0,.3,0h0s0,0,0,0h0s0,0,0,0h0c0,0,0,0,0,0h0s0,0,0,0h0s-.3,0-.3,0Z"/>
    <path class="cls-12" d="M13.2,10.8h0s0,0,0,0h0s0,0,0,0h0c0,0,0,0,0,0h0s0,0,0,0h0s.3,0,.3,0h0s0,0,0,0h0s0,0,0,0h0c0,0,0,0,0,0h0s0,0,0,0h0s-.3,0-.3,0Z"/>
    <path class="cls-12" d="M13.2,11h0s0,0,0,0h0s0,0,0,0h0c0,0,0,0,0,0h0s0,0,0,0h0s.3,0,.3,0h0s0,0,0,0h0s0,0,0,0h0c0,0,0,0,0,0h0s0,0,0,0h0s-.3,0-.3,0Z"/>
    <path class="cls-12" d="M13.2,11.2h0s0,0,0,0h0s0,0,0,0h0c0,0,0,0,0,0h0s0,0,0,0h0s.3,0,.3,0h0s0,0,0,0h0s0,0,0,0h0c0,0,0,0,0,0h0s0,0,0,0h0s-.3,0-.3,0Z"/>
    <path class="cls-12" d="M13.2,11.3h0s0,0,0,0h0s0,0,0,0h0c0,0,0,0,0,0h0s0,0,0,0h0s.3,0,.3,0h0s0,0,0,0h0s0,0,0,0h0c0,0,0,0,0,0h0s0,0,0,0h0s-.3,0-.3,0Z"/>
    <g id="USB-C_Vorne" data-name="USB-C Vorne">
      <g id="Loetpads">
        <rect class="cls-28" x="21.3" y="9.6" width="0" height=".3"/>
        <rect class="cls-28" x="21.1" y="9.6" width="0" height=".3"/>
        <rect class="cls-28" x="21" y="9.6" width="0" height=".3"/>
        <rect class="cls-28" x="20.7" y="9.6" width="0" height=".3"/>
        <rect class="cls-28" x="21.4" y="9.6" width="0" height=".3"/>
        <rect class="cls-28" x="20.5" y="9.6" width="0" height=".3"/>
        <rect class="cls-28" x="20.3" y="9.6" width="0" height=".3"/>
        <rect class="cls-28" x="20.1" y="9.6" width="0" height=".3"/>
        <rect class="cls-28" x="19.8" y="9.6" width="0" height=".3"/>
        <rect class="cls-28" x="19.6" y="9.6" width="0" height=".3"/>
        <rect class="cls-28" x="19.4" y="9.6" width="0" height=".3"/>
        <rect class="cls-28" x="19.2" y="9.6" width="0" height=".3"/>
        <rect class="cls-28" x="18.9" y="9.6" width="0" height=".3"/>
        <rect class="cls-28" x="18.8" y="9.6" width="0" height=".3"/>
        <rect class="cls-28" x="18.6" y="9.6" width="0" height=".3"/>
        <rect class="cls-28" x="18.5" y="9.6" width="0" height=".3"/>
      </g>
      <rect id="Bruecke_unten_links" class="cls-5" x="17.4" y="9.2" width=".6" height=".4"/>
      <rect id="Brücke_unten_rechts" class="cls-5" x="22" y="9.2" width=".6" height=".4"/>
      <path id="USB" class="cls-15" d="M22,6.7v.7h0v2.2h-.7s0,0,0,0c0,0,0,0,0,0,0,0,0,0,0,0,0,0,0,0,0,0,0,0,0,0,0,0,0,0,0,0,0,0v-.2s0,0,0,0h-.5s0,0,0,0h0c0,0,0,0,0,0h0s0,0,0,0h0s0,0,0,0h.1v.3h-1.3v-.3h.1s0,0,0,0c0,0,0,0,0,0,0,0,0,0,0,0,0,0,0,0,0,0h0c0,0,0-.1,0-.1h-.5s0,0,0,0v.2s0,0,0,0c0,0,0,0,0,0,0,0,0,0,0,0,0,0,0,0,0,0,0,0,0,0,0,0,0,0,0,0,0,0h-.7v-2.2h0v-.7h4Z"/>
      <path id="Bruecke_oben_links" class="cls-5" d="M22.6,7.3v.2h-.1s0,0,0,0h0c0,.1,0,.2,0,.2h.1v.2h-.6v-.5h.6Z"/>
      <path id="Bruecke_oben_links-2" data-name="Bruecke_oben_links" class="cls-5" d="M18,7.3v.5h-.6v-.2h.1s0,0,0,0h0c0-.1,0-.2,0-.2h-.1v-.2h.6Z"/>
      <rect class="cls-5" x="18.9" y="8.7" width=".5" height=".2" rx="0" ry="0"/>
      <rect class="cls-5" x="20.5" y="8.7" width=".5" height=".2" rx="0" ry="0"/>
      <path class="cls-27" d="M21.3,9.6h-.6v-.3h-.1s0,0,0,0h0s0,0,0,0h0c0,0,0-.1,0-.1h.5s0,0,0,0v.2s0,0,0,0c0,0,0,0,0,0,0,0,0,0,0,0,0,0,0,0,0,0,0,0,0,0,0,0,0,0,0,0,0,0Z"/>
      <path class="cls-27" d="M19.5,9.2h0s0,0,0,0c0,0,0,0,0,0,0,0,0,0,0,0,0,0,0,0,0,0h-.1v.3h-.6s0,0,0,0c0,0,0,0,0,0,0,0,0,0,0,0,0,0,0,0,0,0,0,0,0,0,0,0,0,0,0,0,0,0v-.2s0,0,0,0h.5s0,0,0,0Z"/>
    </g>
    <g id="Reset-Taste">
      <g id="Button">
        <path class="cls-27" d="M23.8,7h0s0,0,0,0l-.5.5h0s0,0,0,0h0s0-.4,0-.4c0,0,0,0,0,0h.4Z"/>
        <path class="cls-27" d="M24.6,8.3v.4s0,0,0,0h-.4,0s0,0,0,0h0s.5-.5.5-.5Z"/>
        <path class="cls-27" d="M24.6,7.1v.4l-.5-.5h.4s0,0,0,0Z"/>
        <path class="cls-27" d="M23.8,8.9h-.4s0,0,0,0v-.4h0s0,0,0,0h0s.5.5.5.5h0s0,0,0,0h0Z"/>
        <path class="cls-15" d="M24.1,7h-.4s0,0,0,0l-.5.5h0s0,0,0,0h0v.8h0s0,0,0,0h0s.5.5.5.5h0s0,0,0,0h0s.4,0,.4,0h0s0,0,0,0h0s.5-.5.5-.5v-.8l-.5-.5ZM24.5,8.1c0,.3-.2.5-.5.5s-.5-.2-.5-.5v-.4c0-.3.2-.5.5-.5s.5.2.5.5v.4Z"/>
        <path class="cls-26" d="M24.5,7.7v.4c0,.3-.2.5-.5.5s-.5-.2-.5-.5v-.4c0-.3.2-.5.5-.5s.5.2.5.5Z"/>
      </g>
      <g id="Loetpads-2" data-name="Loetpads">
        <path class="cls-10" d="M23.6,8.9h0c0,.1,0,.1,0,.1h-.2s0,0,0,0h0c0,0,.3,0,.3,0Z"/>
        <path class="cls-10" d="M24.5,8.9h0c0,.1,0,.1,0,.1h-.2s0,0,0,0h0c0,0,.3,0,.3,0Z"/>
        <path class="cls-10" d="M24.5,6.9h0c0,0-.3,0-.3,0h0c0-.1,0-.1,0-.1h.2s0,0,0,0Z"/>
        <path class="cls-10" d="M23.6,6.9h0c0,0-.3,0-.3,0h0c0-.1,0-.1,0-.1h.2s0,0,0,0Z"/>
      </g>
    </g>
    <g id="Oscillator_Interface">
      <path class="cls-6" d="M10.5,8.4h.9c0,0,.1,0,.1.1v1.2c0,0,0,.1-.1.1h-.9c0,0-.1,0-.1-.1v-1.3c0,0,0-.1.1-.1Z"/>
      <path class="cls-5" d="M10.5,8.4h.9c0,0,.1,0,.1.1v1.2c0,0,0,.1-.1.1h-.9c0,0-.1,0-.1-.1v-1.2c0,0,0-.1.1-.1Z"/>
    </g>
    <path class="cls-12" d="M13.8,24.5v.5h-.6v-.5h.6Z"/>
    <path class="cls-12" d="M12.8,24.5v.5h-.6v-.5h.6Z"/>
    <path class="cls-12" d="M12.8,25.3v.5h-.6v-.5h.6Z"/>
    <path class="cls-12" d="M13.8,25.3v.5h-.6v-.5h.6Z"/>
    <g id="Oscillator_Interface-2" data-name="Oscillator_Interface">
      <path class="cls-6" d="M12.4,24.6h1.2c0,0,.1,0,.1.1v.9c0,0,0,.1-.1.1h-1.2c0,0-.1,0-.1-.1v-.9c0,0,0-.1.1-.1Z"/>
      <path class="cls-5" d="M12.4,24.6h1.2c0,0,.1,0,.1.1v.9c0,0,0,.1-.1.1h-1.2c0,0-.1,0-.1-.1v-.9c0,0,0-.1.1-.1Z"/>
    </g>
    <g id="Batterie">
      <polygon class="cls-15" points="30.6 23.8 30.5 23.9 30.5 23.9 30.4 23.9 30.4 23.9 30.3 23.8 30.3 23.8 30.3 23.8 30.3 23.8 30.3 23.8 29.7 23.3 29.7 23.3 29.7 23.3 29.7 23.3 29.7 23.3 29.6 23.2 29.6 23.2 29.7 23.1 29.7 23.1 29.9 23.2 29.9 23.2 29.9 23.2 30.4 23.6 30.4 23.6 30.4 23.6 30.4 23.6 30.4 23.6 30.5 23.6 30.5 23.7 30.5 23.7 30.6 23.7 30.6 23.7 30.6 23.8"/>
      <polygon class="cls-15" points="30.1 24.5 29.9 24.6 29.9 24.6 29.9 24.6 29.8 24.6 29.8 24.5 29.8 24.5 29.7 24.5 29.7 24.5 29.2 24 29.2 24 29.2 24 29.2 24 29.1 23.9 29.1 23.9 29.1 23.8 29.1 23.8 29.3 23.9 29.3 23.9 29.9 24.3 29.9 24.3 29.9 24.3 29.9 24.3 29.9 24.3 29.9 24.4 30 24.4 30 24.4 30.1 24.4 30.1 24.5"/>
      <polygon class="cls-13" points="30.5 25.1 30.5 25.1 30.4 25.3 30.2 25.2 30.1 25.3 29.7 25 29.8 24.8 29.9 24.7 30.3 25 30.5 25.1"/>
      <polygon class="cls-13" points="31.4 24 31.3 24.2 31 24.1 30.6 23.8 30.8 23.6 30.9 23.4 31.3 23.7 31.2 23.9 31.4 24"/>
      <rect class="cls-13" x="28.9" y="24.9" width=".4" height=".7" transform="translate(-8.7 32.7) rotate(-52.2)"/>
      <rect class="cls-13" x="30.8" y="22.4" width=".4" height=".7" transform="translate(-6 33.3) rotate(-52.2)"/>
      <polygon class="cls-3" points="33.3 24.6 33.2 24.8 33 25 33 25 32.9 25.2 32.5 25.7 32.3 25.9 31.9 26.5 31.8 26.6 31.7 26.7 31.5 26.9 31.4 27 31.4 27 31.4 27 31.2 26.8 31.2 26.8 31 27 30.3 26.4 29.4 25.7 29.2 25.6 29.4 25.3 29.7 25 30.1 25.3 30.3 25.5 31.1 26.1 31.2 25.9 31.3 25.8 31 25.5 30.5 25.1 30.3 25 29.9 24.7 29.9 24.6 30.1 24.5 30.5 23.9 30.6 23.8 30.6 23.8 31 24.1 31.3 24.2 32 24.8 32.2 24.7 32.3 24.5 31.5 23.9 31.3 23.7 30.9 23.4 31.1 23.1 31.4 22.8 31.6 23 32.4 23.6 33.2 24.2 33 24.4 33 24.4 33.3 24.6 33.3 24.6 33.3 24.6"/>
      <polygon class="cls-1" points="32.3 24.5 32.2 24.7 32 24.8 31.3 24.2 31.3 24.2 31.4 24 31.2 23.9 31.3 23.7 31.5 23.9 32.3 24.5"/>
      <polygon class="cls-1" points="31.3 25.8 31.2 25.9 31.1 26.1 30.3 25.5 30.1 25.3 30.2 25.2 30.4 25.3 30.5 25.1 31 25.5 31.3 25.8"/>
    </g>
    <rect class="cls-30" x="8.1" y="17.1" width="1.3" height="1.5" transform="translate(-10 11.4) rotate(-45)"/>
    <g id="Taste_A-2" data-name="Taste A">
      <polygon class="cls-5" points="8.6 19.9 8.3 20.1 8.2 19.9 8.2 19.9 8.2 19.9 8.2 19.9 8.1 19.9 8.1 19.8 8.1 19.8 8.1 19.8 8 19.8 7.9 19.6 8.1 19.4 8.3 19.6 8.3 19.6 8.3 19.6 8.3 19.6 8.4 19.7 8.4 19.7 8.4 19.7 8.6 19.9"/>
      <polygon class="cls-5" points="6.2 17.5 6 17.7 5.9 17.6 5.8 17.6 5.8 17.5 5.8 17.5 5.8 17.5 5.7 17.5 5.7 17.4 5.5 17.3 5.7 17.1 5.9 17.2 5.9 17.2 5.9 17.2 6 17.3 6 17.3 6 17.3 6 17.3 6.2 17.5"/>
      <polygon class="cls-5" points="7.6 16.1 7.4 16.3 7.3 16.2 7.2 16.2 7.2 16.1 7.2 16.1 7.2 16.1 7.1 16 7.1 16 7.1 16 6.9 15.9 7.2 15.6 7.3 15.8 7.3 15.8 7.4 15.9 7.4 15.9 7.4 15.9 7.4 15.9 7.5 16 7.6 16.1"/>
      <polygon class="cls-5" points="10 18.5 9.8 18.7 9.6 18.5 9.6 18.5 9.6 18.5 9.5 18.4 9.5 18.4 9.4 18.4 9.3 18.2 9.5 18 9.7 18.2 9.7 18.2 9.7 18.2 9.7 18.2 9.8 18.3 9.8 18.3 10 18.5"/>
      <path class="cls-21" d="M8.3,18.4c-.3.3-.8.3-1.1,0-.3-.3-.3-.8,0-1.1.3-.3.8-.3,1.1,0,.3.3.3.8,0,1.1Z"/>
      <path class="cls-15" d="M9.6,17.8l-1.7-1.7s-.1,0-.2,0h0s-.2.3-.2.3l-1.2,1.2-.2.2h0c0,0,0,.2,0,.2l1.7,1.7s.1,0,.2,0h0s.2-.3.2-.3l1.2-1.2.2-.2h0c0,0,0-.2,0-.2ZM7.6,16.4c0,0,.2,0,.3,0,0,0,0,.2,0,.3,0,0-.2,0-.3,0,0,0,0-.2,0-.3ZM6.5,18c0,0-.2,0-.3,0,0,0,0-.2,0-.3,0,0,.2,0,.3,0,0,0,0,.2,0,.3ZM7.9,19.4c0,0-.2,0-.3,0s0-.2,0-.3c0,0,.2,0,.3,0,0,0,0,.2,0,.3ZM8.3,18.4c-.3.3-.8.3-1.1,0-.3-.3-.3-.8,0-1.1.3-.3.8-.3,1.1,0,.3.3.3.8,0,1.1ZM9.3,18c0,0-.2,0-.3,0,0,0,0-.2,0-.3,0,0,.2,0,.3,0,0,0,0,.2,0,.3Z"/>
      <path class="cls-23" d="M9.3,18c0,0-.2,0-.3,0,0,0,0-.2,0-.3,0,0,.2,0,.3,0,0,0,0,.2,0,.3Z"/>
      <path class="cls-23" d="M7.9,16.7c0,0-.2,0-.3,0,0,0,0-.2,0-.3,0,0,.2,0,.3,0,0,0,0,.2,0,.3Z"/>
      <path class="cls-23" d="M6.5,18c0,0-.2,0-.3,0,0,0,0-.2,0-.3,0,0,.2,0,.3,0,0,0,0,.2,0,.3Z"/>
      <path class="cls-23" d="M7.9,19.4c0,0-.2,0-.3,0s0-.2,0-.3c0,0,.2,0,.3,0,0,0,0,.2,0,.3Z"/>
    </g>
    <g id="Interface-Prozessor">
      <g id="_3DSOLID" data-name="3DSOLID" class="cls-37">
        <path class="cls-10" d="M14.8,11.6h0c0,.1-.1.1-.1.1h0c0-.2,0-.2,0-.2s0,0,0,0Z"/>
        <path class="cls-10" d="M14,11.6h0c0,.1-.1.1-.1.1h0c0-.2,0-.2,0-.2s0,0,0,0Z"/>
        <path class="cls-10" d="M13.4,11.4s0,0,0,0h-.1c0-.1.1-.1.1-.1,0,0,0,0,0,0Z"/>
        <path class="cls-10" d="M13.4,11.2s0,0,0,0h-.1c0-.1.1-.1.1-.1,0,0,0,0,0,0Z"/>
        <path class="cls-10" d="M13.4,11s0,0,0,0h-.1c0-.1.1-.1.1-.1,0,0,0,0,0,0Z"/>
        <path class="cls-10" d="M13.4,10.8s0,0,0,0h-.1c0-.1.1-.1.1-.1,0,0,0,0,0,0Z"/>
        <path class="cls-10" d="M13.4,10.6s0,0,0,0h-.1c0-.1.1-.1.1-.1,0,0,0,0,0,0Z"/>
        <path class="cls-10" d="M13.4,10.4s0,0,0,0h-.1c0-.1.1-.1.1-.1,0,0,0,0,0,0Z"/>
        <path class="cls-10" d="M13.4,10.2s0,0,0,0h-.1c0-.1.1-.1.1-.1,0,0,0,0,0,0Z"/>
        <path class="cls-10" d="M13.4,10s0,0,0,0h-.1c0-.1.1-.1.1-.1,0,0,0,0,0,0Z"/>
        <path class="cls-10" d="M13.4,9.8s0,0,0,0h-.1c0-.1.1-.1.1-.1,0,0,0,0,0,0Z"/>
        <path class="cls-10" d="M13.4,9.6s0,0,0,0h-.1c0-.1.1-.1.1-.1,0,0,0,0,0,0Z"/>
        <path class="cls-10" d="M14,9.2h0c0,.2,0,.2,0,.2s0,0,0,0h0c0-.1.1-.1.1-.1Z"/>
        <path class="cls-10" d="M14.8,9.2h0c0,.2,0,.2,0,.2s0,0,0,0h0c0-.1.1-.1.1-.1Z"/>
        <path class="cls-10" d="M15.4,11.6h0c0,.1-.1.1-.1.1h0c0-.2,0-.2,0-.2s0,0,0,0Z"/>
        <path class="cls-10" d="M15.2,11.6h0c0,.1-.1.1-.1.1h0c0-.2,0-.2,0-.2s0,0,0,0Z"/>
        <path class="cls-10" d="M15,11.6h0c0,.1-.1.1-.1.1h0c0-.2,0-.2,0-.2s0,0,0,0Z"/>
        <path class="cls-10" d="M14.6,11.6h0c0,.1-.1.1-.1.1h0c0-.2,0-.2,0-.2s0,0,0,0Z"/>
        <path class="cls-10" d="M14.4,11.6h0c0,.1-.1.1-.1.1h0c0-.2,0-.2,0-.2s0,0,0,0Z"/>
        <path class="cls-10" d="M14.2,11.6h0c0,.1-.1.1-.1.1h0c0-.2,0-.2,0-.2s0,0,0,0Z"/>
        <path class="cls-10" d="M13.8,11.6h0c0,.1-.1.1-.1.1h0c0-.2,0-.2,0-.2s0,0,0,0Z"/>
        <path class="cls-10" d="M13.6,11.6h0c0,.1-.1.1-.1.1h0c0-.2,0-.2,0-.2s0,0,0,0Z"/>
        <path class="cls-10" d="M13.6,9.2h0c0,.2,0,.2,0,.2s0,0,0,0h0c0-.1.1-.1.1-.1Z"/>
        <path class="cls-10" d="M13.8,9.2h0c0,.2,0,.2,0,.2s0,0,0,0h0c0-.1.1-.1.1-.1Z"/>
        <path class="cls-10" d="M15.7,11.1h0c0,.1-.1.1-.1.1,0,0,0,0,0,0s0,0,0,0h.1Z"/>
        <path class="cls-10" d="M15.7,10.9h0c0,.1-.1.1-.1.1,0,0,0,0,0,0s0,0,0,0h.1Z"/>
        <path class="cls-10" d="M14.2,9.2h0c0,.2,0,.2,0,.2s0,0,0,0h0c0-.1.1-.1.1-.1Z"/>
        <path class="cls-10" d="M15.7,10.7h0c0,.1-.1.1-.1.1,0,0,0,0,0,0s0,0,0,0h.1Z"/>
        <path class="cls-10" d="M14.4,9.2h0c0,.2,0,.2,0,.2s0,0,0,0h0c0-.1.1-.1.1-.1Z"/>
        <path class="cls-10" d="M15.7,10.5h0c0,.1-.1.1-.1.1,0,0,0,0,0,0s0,0,0,0h.1Z"/>
        <path class="cls-10" d="M14.6,9.2h0c0,.2,0,.2,0,.2s0,0,0,0h0c0-.1.1-.1.1-.1Z"/>
        <path class="cls-10" d="M15.7,10.3h0c0,.1-.1.1-.1.1,0,0,0,0,0,0s0,0,0,0h.1Z"/>
        <path class="cls-10" d="M15.7,10.1h0c0,.1-.1.1-.1.1,0,0,0,0,0,0s0,0,0,0h.1Z"/>
        <path class="cls-10" d="M15,9.2h0c0,.2,0,.2,0,.2s0,0,0,0h0c0-.1.1-.1.1-.1Z"/>
        <path class="cls-10" d="M15.7,9.9h0c0,.1-.1.1-.1.1,0,0,0,0,0,0s0,0,0,0h.1Z"/>
        <path class="cls-10" d="M15.2,9.2h0c0,.2,0,.2,0,.2s0,0,0,0h0c0-.1.1-.1.1-.1Z"/>
        <path class="cls-10" d="M15.7,9.7h0c0,.1-.1.1-.1.1,0,0,0,0,0,0s0,0,0,0h.1Z"/>
        <path class="cls-10" d="M15.4,9.2h0c0,.2,0,.2,0,.2s0,0,0,0h0c0-.1.1-.1.1-.1Z"/>
        <path class="cls-10" d="M15.7,9.5h0c0,.1-.1.1-.1.1,0,0,0,0,0,0s0,0,0,0h.1Z"/>
        <path class="cls-10" d="M15.7,11.4h0c0,.1-.1.1-.1.1,0,0,0,0,0,0s0,0,0,0h.1Z"/>
      </g>
      <rect class="cls-23" x="13.3" y="9.4" width="2.2" height="2.2" rx="0" ry="0"/>
    </g>
    <g id="Steckleiste">
      <path class="cls-23" d="M11.6,27.5v2s0,0,0,0h16.9s0,0,0,0v-2s0,0,0,0H11.7s0,0,0,0ZM20.4,27.7v.6h-.6v-.6h.6ZM12.5,29.4h-.6v-.6h.6v.6ZM12.5,28.2h-.6v-.6h.6v.6ZM13.7,29.4h-.6v-.6h.6v.6ZM13.7,28.2h-.6v-.6h.6v.6ZM14.8,29.4h-.6v-.6h.6v.6ZM14.8,28.2h-.6v-.6h.6v.6ZM15.9,29.4h-.6v-.6h.6v.6ZM15.9,28.2h-.6v-.6h.6v.6ZM17,29.4h-.6v-.6h.6v.6ZM17,28.2h-.6v-.6h.6v.6ZM18.2,29.4h-.6v-.6h.6v.6ZM18.2,28.2h-.6v-.6h.6v.6ZM19.3,29.4h-.6v-.6h.6v.6ZM19.3,28.2h-.6v-.6h.6v.6ZM20.4,29.4h-.6v-.6h.6v.6ZM21.5,29.4h-.6v-.6h.6v.6ZM21.5,28.2h-.6v-.6h.6v.6ZM22.7,29.4h-.6v-.6h.6v.6ZM22.7,28.2h-.6v-.6h.6v.6ZM23.8,29.4h-.6v-.6h.6v.6ZM23.8,28.2h-.6v-.6h.6v.6ZM24.9,29.4h-.6v-.6h.6v.6ZM24.9,28.2h-.6v-.6h.6v.6ZM26,29.4h-.6v-.6h.6v.6ZM26,28.2h-.6v-.6h.6v.6ZM27.2,29.4h-.6v-.6h.6v.6ZM27.2,28.2h-.6v-.6h.6v.6ZM28.3,29.4h-.6v-.6h.6v.6ZM28.3,28.2h-.6v-.6h.6v.6Z"/>
      <g id="Aussen">
        <path class="cls-23" d="M12,28.8v.6h.6v-.6h-.6ZM12.4,29.3h-.4v-.4h.4v.4Z"/>
        <path class="cls-23" d="M13.1,28.8v.6h.6v-.6h-.6ZM13.6,29.3h-.4v-.4h.4v.4Z"/>
        <path class="cls-23" d="M14.2,28.8v.6h.6v-.6h-.6ZM14.7,29.3h-.4v-.4h.4v.4Z"/>
        <path class="cls-23" d="M15.3,28.8v.6h.6v-.6h-.6ZM15.8,29.3h-.4v-.4h.4v.4Z"/>
        <path class="cls-23" d="M16.5,28.8v.6h.6v-.6h-.6ZM16.9,29.3h-.4v-.4h.4v.4Z"/>
        <path class="cls-23" d="M17.6,28.8v.6h.6v-.6h-.6ZM18.1,29.3h-.4v-.4h.4v.4Z"/>
        <path class="cls-23" d="M18.7,28.8v.6h.6v-.6h-.6ZM19.2,29.3h-.4v-.4h.4v.4Z"/>
        <path class="cls-23" d="M19.8,28.8v.6h.6v-.6h-.6ZM20.3,29.3h-.4v-.4h.4v.4Z"/>
        <path class="cls-23" d="M21,28.8v.6h.6v-.6h-.6ZM21.4,29.3h-.4v-.4h.4v.4Z"/>
        <path class="cls-23" d="M22.1,28.8v.6h.6v-.6h-.6ZM22.6,29.3h-.4v-.4h.4v.4Z"/>
        <path class="cls-23" d="M23.2,28.8v.6h.6v-.6h-.6ZM23.7,29.3h-.4v-.4h.4v.4Z"/>
        <path class="cls-23" d="M24.3,28.8v.6h.6v-.6h-.6ZM24.8,29.3h-.4v-.4h.4v.4Z"/>
        <path class="cls-23" d="M25.5,28.8v.6h.6v-.6h-.6ZM25.9,29.3h-.4v-.4h.4v.4Z"/>
        <path class="cls-23" d="M26.6,28.8v.6h.6v-.6h-.6ZM27.1,29.3h-.4v-.4h.4v.4Z"/>
        <path class="cls-23" d="M27.7,28.8v.6h.6v-.6h-.6ZM28.2,29.3h-.4v-.4h.4v.4Z"/>
        <path class="cls-23" d="M12,27.7v.6h.6v-.6h-.6ZM12.4,28.1h-.4v-.4h.4v.4Z"/>
        <path class="cls-23" d="M13.1,27.7v.6h.6v-.6h-.6ZM13.6,28.1h-.4v-.4h.4v.4Z"/>
        <path class="cls-23" d="M14.2,27.7v.6h.6v-.6h-.6ZM14.7,28.1h-.4v-.4h.4v.4Z"/>
        <path class="cls-23" d="M15.3,27.7v.6h.6v-.6h-.6ZM15.8,28.1h-.4v-.4h.4v.4Z"/>
        <path class="cls-23" d="M16.5,27.7v.6h.6v-.6h-.6ZM16.9,28.1h-.4v-.4h.4v.4Z"/>
        <path class="cls-23" d="M17.6,27.7v.6h.6v-.6h-.6ZM18.1,28.1h-.4v-.4h.4v.4Z"/>
        <path class="cls-23" d="M18.7,27.7v.6h.6v-.6h-.6ZM19.2,28.1h-.4v-.4h.4v.4Z"/>
        <path class="cls-23" d="M19.8,27.7v.6h.6v-.6h-.6ZM20.3,28.1h-.4v-.4h.4v.4Z"/>
        <path class="cls-23" d="M21,27.7v.6h.6v-.6h-.6ZM21.4,28.1h-.4v-.4h.4v.4Z"/>
        <path class="cls-23" d="M22.1,27.7v.6h.6v-.6h-.6ZM22.6,28.1h-.4v-.4h.4v.4Z"/>
        <path class="cls-23" d="M23.2,27.7v.6h.6v-.6h-.6ZM23.7,28.1h-.4v-.4h.4v.4Z"/>
        <path class="cls-23" d="M24.3,27.7v.6h.6v-.6h-.6ZM24.8,28.1h-.4v-.4h.4v.4Z"/>
        <path class="cls-23" d="M25.5,27.7v.6h.6v-.6h-.6ZM25.9,28.1h-.4v-.4h.4v.4Z"/>
        <path class="cls-23" d="M26.6,27.7v.6h.6v-.6h-.6ZM27.1,28.1h-.4v-.4h.4v.4Z"/>
        <path class="cls-23" d="M27.7,27.7v.6h.6v-.6h-.6ZM28.2,28.1h-.4v-.4h.4v.4Z"/>
      </g>
      <g id="Innen">
        <rect class="cls-34" x="12.1" y="28.9" width=".4" height=".4"/>
        <rect class="cls-34" x="13.2" y="28.9" width=".4" height=".4"/>
        <rect class="cls-34" x="14.3" y="28.9" width=".4" height=".4"/>
        <rect class="cls-34" x="15.4" y="28.9" width=".4" height=".4"/>
        <rect class="cls-34" x="16.6" y="28.9" width=".4" height=".4"/>
        <rect class="cls-34" x="17.7" y="28.9" width=".4" height=".4"/>
        <rect class="cls-34" x="18.8" y="28.9" width=".4" height=".4"/>
        <rect class="cls-34" x="19.9" y="28.9" width=".4" height=".4"/>
        <rect class="cls-34" x="21.1" y="28.9" width=".4" height=".4"/>
        <rect class="cls-34" x="22.2" y="28.9" width=".4" height=".4"/>
        <rect class="cls-34" x="23.3" y="28.9" width=".4" height=".4"/>
        <rect class="cls-34" x="24.4" y="28.9" width=".4" height=".4"/>
        <rect class="cls-34" x="25.6" y="28.9" width=".4" height=".4"/>
        <rect class="cls-34" x="26.7" y="28.9" width=".4" height=".4"/>
        <rect class="cls-34" x="27.8" y="28.9" width=".4" height=".4"/>
        <rect class="cls-34" x="12.1" y="27.8" width=".4" height=".4"/>
        <rect class="cls-34" x="13.2" y="27.8" width=".4" height=".4"/>
        <rect class="cls-34" x="14.3" y="27.8" width=".4" height=".4"/>
        <rect class="cls-34" x="15.4" y="27.8" width=".4" height=".4"/>
        <rect class="cls-34" x="16.6" y="27.8" width=".4" height=".4"/>
        <rect class="cls-34" x="17.7" y="27.8" width=".4" height=".4"/>
        <rect class="cls-34" x="18.8" y="27.8" width=".4" height=".4"/>
        <rect class="cls-34" x="19.9" y="27.8" width=".4" height=".4"/>
        <rect class="cls-34" x="21.1" y="27.8" width=".4" height=".4"/>
        <path id="_Pfad_" data-name="&amp;lt;Pfad&amp;gt;" class="cls-34" d="M22.6,28.1h-.4v-.4h.4v.4Z"/>
        <rect class="cls-34" x="23.3" y="27.8" width=".4" height=".4"/>
        <rect class="cls-34" x="24.4" y="27.8" width=".4" height=".4"/>
        <rect class="cls-34" x="25.6" y="27.8" width=".4" height=".4"/>
        <rect class="cls-34" x="26.7" y="27.8" width=".4" height=".4"/>
        <rect class="cls-34" x="27.8" y="27.8" width=".4" height=".4"/>
      </g>
    </g>
  </g>
  <g>
    <rect class="cls-4" x="21.3" y="13.1" width=".6" height="1.2" rx=".2" ry=".2" transform="translate(43.2 27.4) rotate(-180)"/>
    <rect class="cls-4" x="17.7" y="13.1" width=".6" height="1.2" rx=".2" ry=".2" transform="translate(36.1 27.4) rotate(-180)"/>
    <rect class="cls-4" x="21.3" y="14.9" width=".6" height="1.2" rx=".2" ry=".2" transform="translate(43.2 30.9) rotate(-180)"/>
    <rect class="cls-4" x="19.5" y="14.9" width=".6" height="1.2" rx=".2" ry=".2" transform="translate(39.6 30.9) rotate(180)"/>
    <rect class="cls-4" x="23.1" y="14.9" width=".6" height="1.2" rx=".2" ry=".2" transform="translate(46.7 30.9) rotate(180)"/>
    <rect class="cls-4" x="17.7" y="14.9" width=".6" height="1.2" rx=".2" ry=".2" transform="translate(36.1 30.9) rotate(180)"/>
    <rect class="cls-4" x="16" y="14.9" width=".6" height="1.2" rx=".2" ry=".2" transform="translate(32.5 30.9) rotate(-180)"/>
    <rect class="cls-4" x="21.3" y="16.7" width=".6" height="1.2" rx=".2" ry=".2" transform="translate(43.2 34.5) rotate(-180)"/>
    <rect class="cls-4" x="19.5" y="16.7" width=".6" height="1.2" rx=".2" ry=".2" transform="translate(39.6 34.5) rotate(-180)"/>
    <rect class="cls-4" x="23.1" y="16.7" width=".6" height="1.2" rx=".2" ry=".2" transform="translate(46.7 34.5) rotate(-180)"/>
    <rect class="cls-4" x="17.7" y="16.7" width=".6" height="1.2" rx=".2" ry=".2" transform="translate(36.1 34.5) rotate(-180)"/>
    <rect class="cls-4" x="16" y="16.7" width=".6" height="1.2" rx=".2" ry=".2" transform="translate(32.5 34.5) rotate(-180)"/>
    <rect class="cls-4" x="21.3" y="18.4" width=".6" height="1.2" rx=".2" ry=".2" transform="translate(43.2 38) rotate(-180)"/>
    <rect class="cls-4" x="19.5" y="18.4" width=".6" height="1.2" rx=".2" ry=".2" transform="translate(39.6 38) rotate(180)"/>
    <rect class="cls-4" x="17.7" y="18.4" width=".6" height="1.2" rx=".2" ry=".2" transform="translate(36.1 38) rotate(180)"/>
    <rect class="cls-4" x="19.5" y="20.2" width=".6" height="1.2" rx=".2" ry=".2" transform="translate(39.6 41.6) rotate(180)"/>
    <rect class="cls-4" x="21.3" y="14.9" width=".6" height="1.2" rx=".2" ry=".2" transform="translate(43.2 30.9) rotate(-180)"/>
    <rect class="cls-4" x="19.5" y="14.9" width=".6" height="1.2" rx=".2" ry=".2" transform="translate(39.6 30.9) rotate(180)"/>
    <rect class="cls-4" x="23.1" y="14.9" width=".6" height="1.2" rx=".2" ry=".2" transform="translate(46.7 30.9) rotate(180)"/>
    <rect class="cls-4" x="17.7" y="14.9" width=".6" height="1.2" rx=".2" ry=".2" transform="translate(36.1 30.9) rotate(180)"/>
    <rect class="cls-4" x="16" y="14.9" width=".6" height="1.2" rx=".2" ry=".2" transform="translate(32.5 30.9) rotate(-180)"/>
  </g>
</svg>
