<?xml version="1.0" encoding="UTF-8"?>
<svg id="svg37191" xmlns="http://www.w3.org/2000/svg" xmlns:xlink="http://www.w3.org/1999/xlink" xmlns:svg="http://www.w3.org/2000/svg" xmlns:sodipodi="http://sodipodi.sourceforge.net/DTD/sodipodi-0.dtd" xmlns:serif="http://www.serif.com/" xmlns:rdf="http://www.w3.org/1999/02/22-rdf-syntax-ns#" xmlns:inkscape="http://www.inkscape.org/namespaces/inkscape" xmlns:dc="http://purl.org/dc/elements/1.1/" xmlns:cc="http://creativecommons.org/ns#" version="1.1" viewBox="0 0 116 95">
  <defs>
    <style>
      .cls-1 {
        fill: #b7b084;
      }

      .cls-1, .cls-2, .cls-3, .cls-4, .cls-5, .cls-6, .cls-7, .cls-8, .cls-9, .cls-10, .cls-11, .cls-12, .cls-13, .cls-14, .cls-15, .cls-16, .cls-17, .cls-18, .cls-19, .cls-20, .cls-21, .cls-22, .cls-23, .cls-24, .cls-25, .cls-26, .cls-27, .cls-28, .cls-29, .cls-30 {
        stroke-width: 0px;
      }

      .cls-2 {
        fill: #f2ea9f;
      }

      .cls-3 {
        fill: #e6e1c1;
      }

      .cls-4 {
        fill: #e51971;
      }

      .cls-5 {
        fill: #b4b5b5;
      }

      .cls-31 {
        mask: url(#mask);
      }

      .cls-6 {
        fill: #ffd800;
      }

      .cls-32 {
        filter: url(#luminosity-noclip);
      }

      .cls-7 {
        fill: #e9e7e6;
      }

      .cls-8 {
        fill: #e5dfbf;
      }

      .cls-9 {
        fill: #c67c11;
      }

      .cls-10 {
        fill: #6c6e6e;
      }

      .cls-11 {
        fill: #c53c3a;
      }

      .cls-12 {
        fill: #4e4f51;
      }

      .cls-12, .cls-33, .cls-25 {
        fill-rule: evenodd;
      }

      .cls-13 {
        fill: #d3cba5;
      }

      .cls-34 {
        stroke: #010101;
      }

      .cls-34, .cls-33, .cls-35 {
        stroke-miterlimit: 10;
      }

      .cls-34, .cls-24, .cls-25, .cls-26 {
        fill: #fff;
      }

      .cls-33, .cls-35 {
        stroke: #000100;
      }

      .cls-33, .cls-35, .cls-23 {
        fill: #000100;
      }

      .cls-14 {
        fill: #faf1a9;
      }

      .cls-15 {
        fill: #c3c6c7;
      }

      .cls-16 {
        fill: #010101;
      }

      .cls-17 {
        fill: #ebe6e6;
      }

      .cls-18 {
        fill: #181717;
      }

      .cls-19 {
        fill: #d8d7d6;
      }

      .cls-20 {
        fill: #d5d1d0;
      }

      .cls-21 {
        fill: #3ba6c7;
      }

      .cls-22 {
        fill: #d1c9a3;
      }

      .cls-36, .cls-24 {
        opacity: .9;
      }

      .cls-37 {
        display: none;
      }

      .cls-27 {
        fill: #5a5a5a;
      }

      .cls-28 {
        fill: #c7cace;
      }

      .cls-29 {
        fill: #f6c546;
      }

      .cls-30 {
        fill: #1e1e22;
      }
    </style>
    <symbol id="Calliope_3_LED_2" data-name="Calliope_3_LED 2" viewBox="0 0 2.3 4.8">
      <g>
        <polygon class="cls-14" points="0 .8 2.3 .8 2.3 4 0 4 0 .8"/>
        <polygon class="cls-17" points="0 4.4 2.3 4.4 2.3 4 0 4 0 4.4"/>
        <polygon class="cls-19" points="0 4.8 2.3 4.8 2.3 4.4 0 4.4 0 4.8"/>
        <polygon class="cls-19" points="0 .4 2.3 .4 2.3 0 0 0 0 .4"/>
        <polygon class="cls-17" points="0 .8 2.3 .8 2.3 .4 0 .4 0 .8"/>
        <circle class="cls-2" cx="1.1" cy="2.4" r=".1"/>
      </g>
    </symbol>
    <symbol id="Calliope_3_Small_LED_2" data-name="Calliope_3_Small_LED 2" viewBox="0 0 1.4 2.8">
      <g>
        <polygon class="cls-14" points="0 .5 1.4 .5 1.4 2.3 0 2.3 0 .5"/>
        <polygon class="cls-17" points="0 2.6 1.4 2.6 1.4 2.3 0 2.3 0 2.6"/>
        <polygon class="cls-19" points="0 2.8 1.4 2.8 1.4 2.6 0 2.6 0 2.8"/>
        <polygon class="cls-19" points="0 .2 1.4 .2 1.4 0 0 0 0 .2"/>
        <polygon class="cls-17" points="0 .5 1.4 .5 1.4 .2 0 .2 0 .5"/>
        <circle class="cls-2" cx=".7" cy="1.4" r=".1"/>
      </g>
    </symbol>
    <filter id="luminosity-noclip" x="73.7" y="35.4" width="24.8" height="18.9" color-interpolation-filters="sRGB" filterUnits="userSpaceOnUse">
      <feFlood flood-color="#fff" result="bg"/>
      <feBlend in="SourceGraphic" in2="bg"/>
    </filter>
    <mask id="mask" x="73.7" y="35.4" width="24.8" height="18.9" maskUnits="userSpaceOnUse">
      <g class="cls-32">
        <g>
          <path class="cls-33" d="M87.8,43.5l-1.1-1.1,1.3-1.3,1.1,1.1-1.3,1.3Z"/>
          <path class="cls-33" d="M84.8,45.5h0c0,.1,0,.2,0,.2h-.1c0,.1-.1.2-.1.2h-.1s-1.9,0-1.9,0h-.1s-.1,0-.1,0h-.1c0-.1,0-.2,0-.2h0v-2h0c0-.1,0-.2,0-.2h.1c0-.1.1-.2.1-.2h.1s1.9,0,1.9,0h.1s.1,0,.1,0h.1c0,.1,0,.2,0,.2h0v2Z"/>
          <path id="Lautsprecher" class="cls-35" d="M76.1,53.8h6.3c0,0,.1,0,.2,0l1.6-1.6s0-.1,0-.2v-6.3c0,0,0-.1,0-.2l-1.6-1.6s-.1,0-.2,0h-6.3c0,0-.1,0-.2,0l-1.6,1.6s0,.1,0,.2v6.3c0,0,0,.1,0,.2l1.6,1.6s.1,0,.2,0Z"/>
          <polygon class="cls-35" points="87.2 42.4 87.7 43 88.2 42.6 88.2 42.6 88.2 42.5 88.4 42.3 88.5 42.2 88.6 42.1 89 41.7 88.4 41.2 87.9 41.6 87.9 41.7 87.8 41.7 87.8 41.8 87.7 41.9 87.6 41.9 87.2 42.4"/>
          <path class="cls-35" d="M88.3,41h.1c0,.1.6.7.6.7l3.2,3.2.6.6h.1c.1.2.3.2.4.1l4.6-4.6c.1-.1.1-.3,0-.4h-.1c0-.1-.6-.7-.6-.7l-3.2-3.2-.6-.6h-.1c-.1-.2-.3-.2-.4-.1l-4.6,4.6c-.1.1-.1.3,0,.4ZM93.5,37.6c-.2.2-.6.2-.8,0-.2-.2-.2-.6,0-.8.2-.2.6-.2.8,0,.2.2.2.6,0,.8ZM96.3,40.4c.2-.2.6-.2.8,0,.2.2.2.6,0,.8-.2.2-.6.2-.8,0-.2-.2-.2-.6,0-.8ZM92.7,44c.2-.2.6-.2.8,0,.2.2.2.6,0,.8s-.6.2-.8,0c-.2-.2-.2-.6,0-.8ZM91.6,39.3c.8-.8,2.1-.8,2.9,0,.8.8.8,2.1,0,2.9-.8.8-2.1.8-2.9,0-.8-.8-.8-2.1,0-2.9ZM89.1,40.4c.2-.2.6-.2.8,0,.2.2.2.6,0,.8-.2.2-.6.2-.8,0-.2-.2-.2-.6,0-.8Z"/>
        </g>
      </g>
    </mask>
  </defs>
  <sodipodi:namedview id="namedview37193" bordercolor="#666666" borderopacity="1" gridtolerance="10" guidetolerance="10" inkscape:current-layer="microbit" inkscape:cx="71.171587" inkscape:cy="49.868685" inkscape:pageopacity="0" inkscape:pageshadow="2" inkscape:window-height="903" inkscape:window-maximized="0" inkscape:window-width="1475" inkscape:window-x="0" inkscape:window-y="23" inkscape:zoom="7.2845875" objecttolerance="10" pagecolor="#ffffff" showgrid="false"/>
  <g>
    <g id="Calliope_mini_3" data-name="Calliope mini 3">
      <path id="Platine" class="cls-30" d="M107.8,52.6c0,0-.2,0-.3,0-.1,0-.2,0-.3,0,0,0,0,0-.1,0-.1,0-.2,0-.4,0-.1,0-.2,0-.4,0,0,0,0,0-.1,0-.1,0-.2,0-.4,0-3,0-5.4-2.4-5.4-5.4s.2-1.8.6-2.5c.3-.5.6-.9,1-1.3,0,0,0,0,0,0,0,0,.1-.1.2-.2,0,0,.1,0,.2-.1,0,0,.2-.2.3-.2,0,0,.2-.1.3-.2,0,0,.2-.1.3-.2,0,0,.2-.1.3-.1s.2,0,.3-.1c.2,0,.3-.1.5-.2,0,0,.1,0,.2,0,.1,0,.3,0,.4,0,.2,0,.3,0,.5,0,0,0,.1,0,.2,0,0,0,.1,0,.2,0,.3,0,.5,0,.7,0,0,0,.1,0,.2,0,.3,0,.6.1.8.2-13.2-5.3-21-19-19-33,0,.1,0,.3,0,.4,0,.3-.2.5-.3.8,0,0,0,.2-.1.3,0,0,0,.2-.1.2,0,.1-.1.2-.2.3,0,0-.1.2-.2.2,0,0-.1.2-.2.3,0,0-.1.2-.2.2,0,0-.1.1-.2.2,0,0-.1.1-.2.2,0,0-.2.1-.2.2,0,0-.2.1-.2.2,0,0-.2.1-.3.2-.1,0-.2.1-.3.2-.1,0-.2.1-.3.2,0,0,0,0-.1,0-.5.2-1,.3-1.5.4-.2,0-.3,0-.5,0-1.1,0-2.1-.3-3-.9-.6-.4-1.1-.9-1.5-1.5-.6-.9-.9-1.9-.9-3.1s0-.2,0-.3c0,0,0-.1,0-.2,0,0,0-.2,0-.3,0,0,0-.1,0-.2,0,0,0-.1,0-.2,0-.1,0-.2,0-.3,0-.1,0-.3.1-.4,0,0,0,0,0-.1,0,0,0-.1,0-.2,0-.1,0-.2.1-.3,0-.1.1-.2.2-.3.2-.3.4-.6.6-.8,0,0,.2-.2.2-.3s0,0,.1-.1c0,0,0,0,.1-.1,0,0,.2-.2.3-.2,0,0,0,0,0,0,0,0,.2-.1.3-.2,0,0,.2-.1.2-.2,0,0-.2,0-.2.1-.1,0-.2.2-.4.3-4,3.2-8.7,5.5-13.7,6.7v7.9c0,.1,0,.2-.2.3-.2.1-.4,0-.5-.1,0-.1-.2-.2-.3-.2h-9c-.1,0-.2,0-.3.2,0,.1-.2.2-.3.2-.2,0-.4-.2-.4-.4v-7.9c-4.8-1.2-9.2-3.3-13.2-6.3,0,0,.2.2.3.3,0,0,0,0,0,0,0,.1.2.2.2.3,0,0,0,.1.1.2,0,0,0,.2.1.2,0,0,0,.2.1.2.2.5.4.9.5,1.5,0,0,0,.1,0,.2,0,.1,0,.2,0,.3,0,0,0,.1,0,.2,0,0,0,0,0,0h0c0,.1,0,.2,0,.3,0,3-2.4,5.5-5.5,5.5s-.2,0-.3,0c-.2,0-.4,0-.7,0-.1,0-.3,0-.4,0-.2,0-.3,0-.5-.1-.1,0-.3-.1-.4-.2-.1,0-.3-.1-.4-.2,0,0,0,0,0,0-.1,0-.2-.1-.3-.2-.1,0-.2-.2-.4-.3,0,0-.2-.1-.3-.2,0,0-.2-.2-.2-.2-.2-.2-.5-.5-.7-.8,0,0,0-.1-.1-.2,0,0,0-.1-.1-.2,0,0,0-.1-.1-.2,0,0,0-.1-.1-.2,0-.2-.2-.3-.2-.5,0,0,0-.1,0-.2,0,0,0-.2,0-.2,0-.1,0-.2,0-.4v-.2s0,0,0,0c0,0,0,0,0,0,2.1,14-5.6,27.7-18.7,33.1.3,0,.7-.2,1-.2,0,0,.2,0,.3,0,0,0,.2,0,.3,0,1.5,0,2.8.6,3.8,1.6,1,1,1.6,2.4,1.6,3.9,0,3-2.4,5.5-5.5,5.5s-.4,0-.6,0c0,0-.2,0-.3,0,0,0-.2,0-.3,0-.2,0-.4,0-.5-.1-.2,0-.3-.1-.5-.2,0,0,0,0,.1,0,13.1,5.1,21,18.5,19.3,32.4,0,0,0-.2,0-.2,0,0,0,0,0-.1,0,0,0,0,0-.1,0,0,0-.2.1-.2,0,0,0,0,0,0,0,0,0-.1.1-.2,0,0,0,0,0,0,0-.1.1-.2.2-.3,0,0,0,0,0,0,0,0,0,0,0,0,0,0,0-.1.1-.2,0-.1.2-.3.3-.4,0,0,0,0,0,0,0,0,0,0,0,0,0,0,.1-.1.2-.2h0c0,0,.1-.1.2-.2,0,0,.1-.1.2-.2,0,0,.1-.1.2-.2,0,0,0,0,0,0,0,0,.1,0,.2-.1.3-.2.6-.4.9-.5.2,0,.4-.2.6-.2.3,0,.5-.1.8-.2,0,0,.2,0,.3,0,.2,0,.4,0,.6,0s.4,0,.5,0c0,0,.1,0,.2,0,0,0,.1,0,.2,0,0,0,.1,0,.2,0,.4,0,.7.2,1,.3.1,0,.3.1.4.2.1,0,.2.1.4.2.1,0,.2.2.3.2.1,0,.3.2.4.3,0,0,.2.2.3.2,0,0,0,0,0,0,0,0,.2.2.2.2,0,0,0,0,.1.1,0,0,.2.2.2.3,0,0,.1.2.2.3,0,.1.2.3.2.4,0,.1.1.2.2.3,0,0,0,0,0,0,0,.1,0,.2.1.3,0,0,0,0,0,0,0,.1,0,.3.1.4l-.8-4.3c0-.5.2-1.1.7-1.3h.8c.6-.3,1.3.2,1.4.8l.8,4.8c0,.5.6.9,1.1.8h0s5.6-1,5.6-1h.2c.5-.1.9-.6.8-1.1l-.8-4.6v-.2c-.2-.6.3-1.3.9-1.4h.8c.6-.1,1.1.3,1.2.8l.8,4.7c.1.6.7,1,1.3,1,1.6-.1,3.2-.1,4.8,0,.6,0,1.2-.4,1.3-1l.8-4.7c0-.5.6-1,1.1-1h.8c.6.3,1.1.9,1,1.5l-.8,4.8c0,.5.3,1,.8,1.1h0l5.6,1h.2c.5.1,1-.2,1.1-.7l.8-4.6v-.2c.2-.6.8-1.1,1.4-1h.8c.5.3.8.9.7,1.4l-.7,4.2c0,0,0-.1,0-.2,0-.2.1-.4.2-.6,0-.2.2-.4.3-.6,0-.1.2-.2.2-.4.5-.7,1.2-1.3,2-1.7,0,0,.2,0,.2-.1,0,0,.2,0,.3-.1,0,0,.2,0,.3,0,.2,0,.5-.1.7-.2,0,0,.2,0,.2,0,.1,0,.3,0,.4,0,0,0,.2,0,.3,0s.2,0,.3,0c0,0,.2,0,.3,0,0,0,.2,0,.2,0,.1,0,.2,0,.3,0,0,0,.1,0,.2,0,.2,0,.4,0,.5.2,0,0,.1,0,.2,0,.1,0,.3.1.4.2,0,0,.1,0,.2.1,0,0,.2.1.3.2,0,0,0,0,.1,0,0,0,.1,0,.2.1,0,0,.2.1.2.2,0,0,.1,0,.2.1.3.3.6.6.8,1,0,0,0,0,0,.1.2.2.3.5.4.7,0,0,0,0,0,.1,0,.2.2.4.2.7,0,0,0,.1,0,.2-1.9-14,6-27.6,19.2-32.8ZM70.1,79.1c0-.1,0-.2.1-.3,0,0,.2-.1.3-.1.2,0,.4.2.4.4s-.2.4-.4.4-.4-.2-.4-.4ZM48,80c-.2,0-.4-.2-.4-.4s.2-.4.4-.4.4.2.4.4-.2.4-.4.4ZM49.4,79.7c-.2,0-.4-.2-.4-.4s.2-.4.4-.4.4.2.4.4-.2.4-.4.4ZM50.9,79.5c-.2,0-.4-.2-.4-.4s.2-.4.4-.4.4.2.4.4-.2.4-.4.4ZM72,78.9c.2,0,.4.2.4.4s-.2.4-.4.4-.4-.2-.4-.4.2-.4.4-.4ZM73.5,79.2c.2,0,.4.2.4.4s-.2.4-.4.4-.4-.2-.4-.4.2-.4.4-.4ZM47.1,83.4s0,0,0,0c-.2,0-.4-.1-.4-.3l-.2-.9c0-.2.1-.4.3-.5.2,0,.4.1.5.3l.2.9c0,.2-.1.4-.3.5ZM53,82.3c-.2,0-.4-.1-.5-.3l-.2-.9c0-.2.1-.4.3-.5.2,0,.4.1.5.3l.2.9c0,.2-.1.4-.3.5ZM68.9,82c0,.2-.3.4-.5.3-.2,0-.4-.3-.3-.5l.2-.9c0-.2.3-.4.5-.3.2,0,.4.3.3.5l-.2.9ZM74.8,83c0,.2-.3.4-.5.3-.2,0-.3-.2-.3-.4s0,0,0,0l.2-.9c0-.2.3-.4.5-.3.2,0,.4.3.3.5l-.2.9Z"/>
      <g id="Silk-Screen" class="cls-36">
        <path id="Motoren-Pinleiste" class="cls-25" d="M74.6,74.8h6.2v-2.8h-6.2"/>
        <path id="Motoren-Pinleiste-2" data-name="Motoren-Pinleiste" class="cls-25" d="M74.6,67.3h6.2v-3.5h-6.2v3.5Z"/>
        <g id="Taste_B" data-name="Taste B">
          <g class="cls-31">
            <path class="cls-25" d="M79.7,40.2v-.2s0-.2,0-.2v-.2s0-.2,0-.2v-.2c0,0,.1-.2.1-.2v-.2c0,0,.2-.2.2-.2v-.2c.1,0,.2-.2.2-.2v-.2c.1,0,.2-.2.2-.2v-.2c.1,0,.3-.2.3-.2l.2-.2.2-.2h.2c0-.1.2-.3.2-.3h.2c0-.1.2-.2.2-.2h.2c0-.1.2-.2.2-.2h.2c0,0,.2-.2.2-.2h.2c0,0,.2-.1.2-.1h.2c0,0,.2,0,.2,0h.2s.2,0,.2,0h.2s.2,0,.2,0h.2s.2,0,.2,0h.2s.2,0,.2,0h.2c0,0,.2.1.2.1h.2c0,0,.2.2.2.2h.2c0,.1.2.2.2.2h.2c0,.1.2.2.2.2h.2c0,.1.2.3.2.3l.2.2.2.2v.2c.1,0,.3.2.3.2v.2c.1,0,.2.2.2.2v.2c.1,0,.2.2.2.2v.2c0,0,.2.2.2.2v.2c0,0,.1.2.1.2v.2c0,0,0,.2,0,.2v.2s0,.2,0,.2v.2s0,.2,0,.2v.2s0,.2,0,.2v.2s0,.2,0,.2v.2c0,0-.1.2-.1.2v.2c0,0-.2.2-.2.2v.2c-.1,0-.2.2-.2.2v.2c-.1,0-.2.2-.2.2v.2c-.1,0-.3.2-.3.2l-.2.2-.2.2h-.2c0,.1-.2.3-.2.3h-.2c0,.1-.2.2-.2.2h-.2c0,.1-.2.2-.2.2h-.2c0,0-.2.2-.2.2h-.2c0,0-.2.1-.2.1h-.2c0,0-.2,0-.2,0h-.2s-.2,0-.2,0h-.2s-.2,0-.2,0h-.2s-.2,0-.2,0h-.2s-.2,0-.2,0h-.2c0,0-.2-.1-.2-.1h-.2c0,0-.2-.2-.2-.2h-.2c0-.1-.2-.2-.2-.2h-.2c0-.1-.2-.2-.2-.2h-.2c0-.1-.2-.3-.2-.3l-.2-.2-.2-.2v-.2c-.1,0-.3-.2-.3-.2v-.2c-.1,0-.2-.2-.2-.2v-.2c-.1,0-.2-.2-.2-.2v-.2c0,0-.2-.2-.2-.2v-.2c0,0-.1-.2-.1-.2v-.2c0,0,0-.2,0-.2v-.2s0-.2,0-.2v-.2s.8,0,.8,0v.2s0,.2,0,.2v.2s0,.2,0,.2v.2s0,.2,0,.2v.2c0,0,.1.2.1.2v.2c0,0,.2.2.2.2v.2c0,0,.2.2.2.2h.1c0,.1.1.3.1.3h.1c0,.1.1.3.1.3h.1c0,.1.1.2.1.2h.1c0,.1.1.2.1.2h.2c0,0,.2.2.2.2h.2c0,0,.2.2.2.2h.2c0,0,.2.1.2.1h.2c0,0,.2,0,.2,0h.2s.2,0,.2,0h.2s.2,0,.2,0h.2s.2,0,.2,0h.2s.2,0,.2,0h.2s.2,0,.2,0h.2c0,0,.2-.1.2-.1h.2c0,0,.2-.2.2-.2h.2c0,0,.2-.2.2-.2h.1c0-.1.1-.2.1-.2h.1c0-.1.1-.2.1-.2h.1c0-.1.1-.3.1-.3h.1c0-.1.1-.3.1-.3v-.2c0,0,.2-.2.2-.2v-.2c0,0,.2-.2.2-.2v-.2c0,0,.1-.2.1-.2v-.2c0,0,0-.2,0-.2v-.2s0-.2,0-.2v-.2s0-.2,0-.2v-.2s0-.2,0-.2v-.2s0-.2,0-.2v-.2s0-.2,0-.2v-.2c0,0-.1-.2-.1-.2v-.2c0,0-.2-.2-.2-.2v-.2c0,0-.2-.2-.2-.2h-.1c0-.1-.1-.3-.1-.3h-.1c0-.1-.1-.3-.1-.3h-.1c0-.1-.1-.2-.1-.2h-.1c0-.1-.1-.2-.1-.2h-.2c0,0-.2-.2-.2-.2h-.2c0,0-.2-.2-.2-.2h-.2c0,0-.2-.1-.2-.1h-.2c0,0-.2,0-.2,0h-.2s-.2,0-.2,0h-.2s-.2,0-.2,0h-.2s-.2,0-.2,0h-.2s-.2,0-.2,0h-.2s-.2,0-.2,0h-.2c0,0-.2.1-.2.1h-.2c0,0-.2.2-.2.2h-.2c0,0-.2.2-.2.2h-.1c0,.1-.1.2-.1.2h-.1c0,.1-.1.2-.1.2h-.1c0,.1-.1.3-.1.3h-.1c0,.1-.1.3-.1.3v.2c0,0-.2.2-.2.2v.2c0,0-.2.2-.2.2v.2c0,0-.1.2-.1.2v.2c0,0,0,.2,0,.2v.2s0,.2,0,.2v.2s0,.2,0,.2h-.8s0-.2,0-.2Z"/>
          </g>
          <path class="cls-25" d="M84.2,39.1h0s0,0,0,0h0s0,0,0,0h0s0,0,0,0h0s0,0,0,0h0s0,0,0,0h0s0,0,0,0h0s0,0,0,0h0s0,0,0,0h0s0,0,0,0h0s0,0,0,0h0s0,0,0,0h0s0,0,0,0h0s0,0,0,0h0s0,0,0,0h0s0,0,0,0h0s0,0,0,0h0s0,0,0,0h0s0,0,0,0h0s0,0,0,0h0s0,0,0,0h0s0,0,0,0h0s0,0,0,0h0s0,0,0,0h0s0,0,0,0h0s0,0,0,0h0s0,0,0,0h0s0,0,0,0h0s0,0,0,0h0s0,0,0,0h0s0,0,0,0h0s0,0,0,0h0s0,0,0,0h0s0,0,0,0h0s0,0,0,0h0s0,0,0,0h0s0,0,0,0h0s0,0,0,0h0s0,0,0,0h0s0,0,0,0h0s0,0,0,0h0s0,0,0,0h0s0,0,0,0h0s0,0,0,0h0s0,0,0,0h0s0,0,0,0h0s0,0,0,0h0s0,0,0,0h0s0,0,0,0h0c0,0,0,0,0,0h0s0,0,0,0h0s0,0,0,0h0s0,0,0,0h0s0,0,0,0h0s0,0,0,0h0s0,0,0,0h0s0,0,0,0h0s0,0,0,0h0s0,0,0,0h0s0,0,0,0h0s0,0,0,0h0s0,0,0,0h0s0,0,0,0h0s0,0,0,0h0s0,0,0,0h-.9v-.5h.9s0,0,0,0h0s0,0,0,0h0s0,0,0,0h0s0,0,0,0h0s0,0,0,0h0s0,0,0,0h0s0,0,0,0h0s0,0,0,0h0s0,0,0,0h0s0,0,0,0h0s0,0,0,0h0s0,0,0,0h0s0,0,0,0h0s0,0,0,0h0s0,0,0,0h0s0,0,0,0h0s0,0,0,0h0s0,0,0,0h0s0,0,0,0h0s0,0,0,0h0s0,0,0,0h0s0,0,0,0h0s0,0,0,0h0s0,0,0,0h0s0,0,0,0h0s0,0,0,0h0s0,0,0,0h0s0,0,0,0h0s0,0,0,0h-.4v.7h-.6v-1.2h.9s0,0,0,0h0s0,0,0,0h0s0,0,0,0h0s0,0,0,0h0s0,0,0,0h0s0,0,0,0h0s0,0,0,0h0s0,0,0,0h0s0,0,0,0h0s0,0,0,0h0s0,0,0,0h0s0,0,0,0h0s0,0,0,0h0s0,0,0,0h0s0,0,0,0h0s0,0,0,0h0s0,0,0,0h0s0,0,0,0h0s0,0,0,0h0s0,0,0,0h0s0,0,0,0h0s0,0,0,0h0s0,0,0,0h0s0,0,0,0h0s0,0,0,0h0s0,0,0,0h0s0,0,0,0h0s0,0,0,0h0s0,0,0,0h0s0,0,0,0h0s0,0,0,0h0s0,0,0,0h-.3v.7h-.6v-1.2h.9Z"/>
        </g>
        <g id="Taste_A" data-name="Taste A">
          <path class="cls-25" d="M36.6,40.6l.9,2.8h-.6v-.6h-.9v.6h-.7l.3-1h1.1l-.3-1-.3,1h-.5l.5-1.8h.5Z"/>
          <path class="cls-25" d="M36.4,35.9l-6.1,6.1,6.1,6.1,6.1-6.1-6.1-6.1ZM31.4,42l5-5,5,5-5,5-5-5Z"/>
        </g>
        <g>
          <path class="cls-12" d="M70.1,30h0s0,0,0,0h0c0,0,0,.2,0,.2v.5h0c0,0,0,.2,0,.2h0c0,0,0,0,0,0h-.7s0,0,0,0h0c0,0,0-.2,0-.2v-.5h0c0,0,0-.2,0-.2h0c0,0,0,0,0,0h.6Z"/>
          <path class="cls-12" d="M70.1,28.2h0s0,0,0,0h0c0,0,0,.2,0,.2v.5h0c0,0,0,.2,0,.2h0c0,0,0,0,0,0h-.7s0,0,0,0h0c0,0,0-.2,0-.2v-.5h0c0,0,0-.2,0-.2h0c0,0,0,0,0,0h.6Z"/>
          <path class="cls-12" d="M55.8,30h0s0,0,0,0h0c0,0,0,.2,0,.2v.5h0c0,0,0,.2,0,.2h0c0,0,0,0,0,0h-.7s0,0,0,0h0c0,0,0-.2,0-.2v-.5h0c0,0,0-.2,0-.2h0c0,0,0,0,0,0h.6Z"/>
          <path class="cls-12" d="M55.8,28.2h0s0,0,0,0h0c0,0,0,.2,0,.2v.5h0c0,0,0,.2,0,.2h0c0,0,0,0,0,0h-.7s0,0,0,0h0c0,0,0-.2,0-.2v-.5h0c0,0,0-.2,0-.2h0c0,0,0,0,0,0h.6Z"/>
          <path class="cls-12" d="M51.1,30h0s0,0,0,0h0c0,0,0,.2,0,.2v.5h0c0,0,0,.2,0,.2h0c0,0,0,0,0,0h-.7s0,0,0,0h0c0,0,0-.2,0-.2v-.5h0c0,0,0-.2,0-.2h0c0,0,0,0,0,0h.6Z"/>
          <path class="cls-12" d="M51.1,28.2h0s0,0,0,0h0c0,0,0,.2,0,.2v.5h0c0,0,0,.2,0,.2h0c0,0,0,0,0,0h-.7s0,0,0,0h0c0,0,0-.2,0-.2v-.5h0c0,0,0-.2,0-.2h0c0,0,0,0,0,0h.6Z"/>
          <path class="cls-12" d="M55.8,34.8h0s0,0,0,0h0c0,0,0,.2,0,.2v.5h0c0,0,0,.2,0,.2h0c0,0,0,0,0,0h-.7s0,0,0,0h0c0,0,0-.2,0-.2v-.5h0c0,0,0-.2,0-.2h0c0,0,0,0,0,0h.6Z"/>
          <path class="cls-12" d="M55.8,32.9h0s0,0,0,0h0c0,0,0,.2,0,.2v.5h0c0,0,0,.2,0,.2h0c0,0,0,0,0,0h-.7s0,0,0,0h0c0,0,0-.2,0-.2v-.5h0c0,0,0-.2,0-.2h0c0,0,0,0,0,0h.6Z"/>
          <path class="cls-12" d="M51.1,44.3h0s0,0,0,0h0c0,0,0,.2,0,.2v.5h0c0,0,0,.2,0,.2h0c0,0,0,0,0,0h-.7s0,0,0,0h0c0,0,0-.2,0-.2v-.5h0c0,0,0-.2,0-.2h0c0,0,0,0,0,0h.6Z"/>
          <path class="cls-12" d="M51.1,42.4h0s0,0,0,0h0c0,0,0,.2,0,.2v.5h0c0,0,0,.2,0,.2h0c0,0,0,0,0,0h-.7s0,0,0,0h0c0,0,0-.2,0-.2v-.5h0c0,0,0-.2,0-.2h0c0,0,0,0,0,0h.6Z"/>
          <path class="cls-12" d="M60.9,57.5v-.8h.8v.8h-.8Z"/>
          <path class="cls-12" d="M60.9,56.2v-.8h.8v.8h-.8Z"/>
          <path class="cls-12" d="M58.8,56.2v-.8h.8v.8h-.8Z"/>
          <path class="cls-12" d="M58.8,57.5v-.8h.8v.8h-.8Z"/>
          <path class="cls-12" d="M55.8,39.5h0s0,0,0,0h0c0,0,0,.2,0,.2v.5h0c0,0,0,.2,0,.2h0c0,0,0,0,0,0h-.7s0,0,0,0h0c0,0,0-.2,0-.2v-.5h0c0,0,0-.2,0-.2h0c0,0,0,0,0,0h.6Z"/>
          <path class="cls-12" d="M55.8,37.6h0s0,0,0,0h0c0,0,0,.2,0,.2v.5h0c0,0,0,.2,0,.2h0c0,0,0,0,0,0h-.7s0,0,0,0h0c0,0,0-.2,0-.2v-.5h0c0,0,0-.2,0-.2h0c0,0,0,0,0,0h.6Z"/>
          <path class="cls-12" d="M60.6,39.5h0s0,0,0,0h0c0,0,0,.2,0,.2v.5h0c0,0,0,.2,0,.2h0c0,0,0,0,0,0h-.7s0,0,0,0h0c0,0,0-.2,0-.2v-.5h0c0,0,0-.2,0-.2h0c0,0,0,0,0,0h.6Z"/>
          <path class="cls-12" d="M60.6,37.6h0s0,0,0,0h0c0,0,0,.2,0,.2v.5h0c0,0,0,.2,0,.2h0c0,0,0,0,0,0h-.7s0,0,0,0h0c0,0,0-.2,0-.2v-.5h0c0,0,0-.2,0-.2h0c0,0,0,0,0,0h.6Z"/>
          <path class="cls-12" d="M70.1,44.3h0s0,0,0,0h0c0,0,0,.2,0,.2v.5h0c0,0,0,.2,0,.2h0c0,0,0,0,0,0h-.7s0,0,0,0h0c0,0,0-.2,0-.2v-.5h0c0,0,0-.2,0-.2h0c0,0,0,0,0,0h.6Z"/>
          <path class="cls-12" d="M70.1,42.4h0s0,0,0,0h0c0,0,0,.2,0,.2v.5h0c0,0,0,.2,0,.2h0c0,0,0,0,0,0h-.7s0,0,0,0h0c0,0,0-.2,0-.2v-.5h0c0,0,0-.2,0-.2h0c0,0,0,0,0,0h.6Z"/>
          <path class="cls-12" d="M51.1,39.5h0s0,0,0,0h0c0,0,0,.2,0,.2v.5h0c0,0,0,.2,0,.2h0c0,0,0,0,0,0h-.7s0,0,0,0h0c0,0,0-.2,0-.2v-.5h0c0,0,0-.2,0-.2h0c0,0,0,0,0,0h.6Z"/>
          <path class="cls-12" d="M51.1,37.6h0s0,0,0,0h0c0,0,0,.2,0,.2v.5h0c0,0,0,.2,0,.2h0c0,0,0,0,0,0h-.7s0,0,0,0h0c0,0,0-.2,0-.2v-.5h0c0,0,0-.2,0-.2h0c0,0,0,0,0,0h.6Z"/>
          <path class="cls-12" d="M70.1,49h0s0,0,0,0h0c0,0,0,.2,0,.2v.5h0c0,0,0,.2,0,.2h0c0,0,0,0,0,0h-.7s0,0,0,0h0c0,0,0-.2,0-.2v-.5h0c0,0,0-.2,0-.2h0c0,0,0,0,0,0h.6Z"/>
          <path class="cls-12" d="M70.1,47.1h0s0,0,0,0h0c0,0,0,.2,0,.2v.5h0c0,0,0,.2,0,.2h0c0,0,0,0,0,0h-.7s0,0,0,0h0c0,0,0-.2,0-.2v-.5h0c0,0,0-.2,0-.2h0c0,0,0,0,0,0h.6Z"/>
          <path class="cls-12" d="M65.3,34.8h0s0,0,0,0h0c0,0,0,.2,0,.2v.5h0c0,0,0,.2,0,.2h0c0,0,0,0,0,0h-.7s0,0,0,0h0c0,0,0-.2,0-.2v-.5h0c0,0,0-.2,0-.2h0c0,0,0,0,0,0h.6Z"/>
          <path class="cls-12" d="M65.3,32.9h0s0,0,0,0h0c0,0,0,.2,0,.2v.5h0c0,0,0,.2,0,.2h0c0,0,0,0,0,0h-.7s0,0,0,0h0c0,0,0-.2,0-.2v-.5h0c0,0,0-.2,0-.2h0c0,0,0,0,0,0h.6Z"/>
          <path class="cls-12" d="M60.6,44.3h0s0,0,0,0h0c0,0,0,.2,0,.2v.5h0c0,0,0,.2,0,.2h0c0,0,0,0,0,0h-.7s0,0,0,0h0c0,0,0-.2,0-.2v-.5h0c0,0,0-.2,0-.2h0c0,0,0,0,0,0h.6Z"/>
          <path class="cls-12" d="M60.6,42.4h0s0,0,0,0h0c0,0,0,.2,0,.2v.5h0c0,0,0,.2,0,.2h0c0,0,0,0,0,0h-.7s0,0,0,0h0c0,0,0-.2,0-.2v-.5h0c0,0,0-.2,0-.2h0c0,0,0,0,0,0h.6Z"/>
          <path class="cls-12" d="M60.6,34.8h0s0,0,0,0h0c0,0,0,.2,0,.2v.5h0c0,0,0,.2,0,.2h0c0,0,0,0,0,0h-.7s0,0,0,0h0c0,0,0-.2,0-.2v-.5h0c0,0,0-.2,0-.2h0c0,0,0,0,0,0h.6Z"/>
          <path class="cls-12" d="M60.6,32.9h0s0,0,0,0h0c0,0,0,.2,0,.2v.5h0c0,0,0,.2,0,.2h0c0,0,0,0,0,0h-.7s0,0,0,0h0c0,0,0-.2,0-.2v-.5h0c0,0,0-.2,0-.2h0c0,0,0,0,0,0h.6Z"/>
          <path class="cls-12" d="M70.1,39.5h0s0,0,0,0h0c0,0,0,.2,0,.2v.5h0c0,0,0,.2,0,.2h0c0,0,0,0,0,0h-.7s0,0,0,0h0c0,0,0-.2,0-.2v-.5h0c0,0,0-.2,0-.2h0c0,0,0,0,0,0h.6Z"/>
          <path class="cls-12" d="M70.1,37.6h0s0,0,0,0h0c0,0,0,.2,0,.2v.5h0c0,0,0,.2,0,.2h0c0,0,0,0,0,0h-.7s0,0,0,0h0c0,0,0-.2,0-.2v-.5h0c0,0,0-.2,0-.2h0c0,0,0,0,0,0h.6Z"/>
          <path class="cls-12" d="M60.6,49h0s0,0,0,0h0c0,0,0,.2,0,.2v.5h0c0,0,0,.2,0,.2h0c0,0,0,0,0,0h-.7s0,0,0,0h0c0,0,0-.2,0-.2v-.5h0c0,0,0-.2,0-.2h0c0,0,0,0,0,0h.6Z"/>
          <path class="cls-12" d="M60.6,47.1h0s0,0,0,0h0c0,0,0,.2,0,.2v.5h0c0,0,0,.2,0,.2h0c0,0,0,0,0,0h-.7s0,0,0,0h0c0,0,0-.2,0-.2v-.5h0c0,0,0-.2,0-.2h0c0,0,0,0,0,0h.6Z"/>
          <path class="cls-12" d="M66.9,57.5v-.8h.8v.8h-.8Z"/>
          <path class="cls-12" d="M66.9,56.2v-.8h.8v.8h-.8Z"/>
          <path class="cls-12" d="M64.7,56.2v-.8h.8v.8h-.8Z"/>
          <path class="cls-12" d="M64.7,57.5v-.8h.8v.8h-.8Z"/>
          <path class="cls-12" d="M55.8,49h0s0,0,0,0h0c0,0,0,.2,0,.2v.5h0c0,0,0,.2,0,.2h0c0,0,0,0,0,0h-.7s0,0,0,0h0c0,0,0-.2,0-.2v-.5h0c0,0,0-.2,0-.2h0c0,0,0,0,0,0h.6Z"/>
          <path class="cls-12" d="M55.8,47.1h0s0,0,0,0h0c0,0,0,.2,0,.2v.5h0c0,0,0,.2,0,.2h0c0,0,0,0,0,0h-.7s0,0,0,0h0c0,0,0-.2,0-.2v-.5h0c0,0,0-.2,0-.2h0c0,0,0,0,0,0h.6Z"/>
          <path class="cls-12" d="M55,57.5v-.8h.8v.8h-.8Z"/>
          <path class="cls-12" d="M55,56.2v-.8h.8v.8h-.8Z"/>
          <path class="cls-12" d="M52.8,56.2v-.8h.8v.8h-.8Z"/>
          <path class="cls-12" d="M52.8,57.5v-.8h.8v.8h-.8Z"/>
          <path class="cls-12" d="M55.8,44.3h0s0,0,0,0h0c0,0,0,.2,0,.2v.5h0c0,0,0,.2,0,.2h0c0,0,0,0,0,0h-.7s0,0,0,0h0c0,0,0-.2,0-.2v-.5h0c0,0,0-.2,0-.2h0c0,0,0,0,0,0h.6Z"/>
          <path class="cls-12" d="M55.8,42.4h0s0,0,0,0h0c0,0,0,.2,0,.2v.5h0c0,0,0,.2,0,.2h0c0,0,0,0,0,0h-.7s0,0,0,0h0c0,0,0-.2,0-.2v-.5h0c0,0,0-.2,0-.2h0c0,0,0,0,0,0h.6Z"/>
          <path class="cls-12" d="M65.3,30h0s0,0,0,0h0c0,0,0,.2,0,.2v.5h0c0,0,0,.2,0,.2h0c0,0,0,0,0,0h-.7s0,0,0,0h0c0,0,0-.2,0-.2v-.5h0c0,0,0-.2,0-.2h0c0,0,0,0,0,0h.6Z"/>
          <path class="cls-12" d="M65.3,28.2h0s0,0,0,0h0c0,0,0,.2,0,.2v.5h0c0,0,0,.2,0,.2h0c0,0,0,0,0,0h-.7s0,0,0,0h0c0,0,0-.2,0-.2v-.5h0c0,0,0-.2,0-.2h0c0,0,0,0,0,0h.6Z"/>
          <path class="cls-12" d="M65.3,44.3h0s0,0,0,0h0c0,0,0,.2,0,.2v.5h0c0,0,0,.2,0,.2h0c0,0,0,0,0,0h-.7s0,0,0,0h0c0,0,0-.2,0-.2v-.5h0c0,0,0-.2,0-.2h0c0,0,0,0,0,0h.6Z"/>
          <path class="cls-12" d="M65.3,42.4h0s0,0,0,0h0c0,0,0,.2,0,.2v.5h0c0,0,0,.2,0,.2h0c0,0,0,0,0,0h-.7s0,0,0,0h0c0,0,0-.2,0-.2v-.5h0c0,0,0-.2,0-.2h0c0,0,0,0,0,0h.6Z"/>
          <path class="cls-12" d="M65.3,49h0s0,0,0,0h0c0,0,0,.2,0,.2v.5h0c0,0,0,.2,0,.2h0c0,0,0,0,0,0h-.7s0,0,0,0h0c0,0,0-.2,0-.2v-.5h0c0,0,0-.2,0-.2h0c0,0,0,0,0,0h.6Z"/>
          <path class="cls-12" d="M65.3,47.1h0s0,0,0,0h0c0,0,0,.2,0,.2v.5h0c0,0,0,.2,0,.2h0c0,0,0,0,0,0h-.7s0,0,0,0h0c0,0,0-.2,0-.2v-.5h0c0,0,0-.2,0-.2h0c0,0,0,0,0,0h.6Z"/>
          <path class="cls-12" d="M51.1,49h0s0,0,0,0h0c0,0,0,.2,0,.2v.5h0c0,0,0,.2,0,.2h0c0,0,0,0,0,0h-.7s0,0,0,0h0c0,0,0-.2,0-.2v-.5h0c0,0,0-.2,0-.2h0c0,0,0,0,0,0h.6Z"/>
          <path class="cls-12" d="M51.1,47.1h0s0,0,0,0h0c0,0,0,.2,0,.2v.5h0c0,0,0,.2,0,.2h0c0,0,0,0,0,0h-.7s0,0,0,0h0c0,0,0-.2,0-.2v-.5h0c0,0,0-.2,0-.2h0c0,0,0,0,0,0h.6Z"/>
          <path class="cls-12" d="M60.6,30h0s0,0,0,0h0c0,0,0,.2,0,.2v.5h0c0,0,0,.2,0,.2h0c0,0,0,0,0,0h-.7s0,0,0,0h0c0,0,0-.2,0-.2v-.5h0c0,0,0-.2,0-.2h0c0,0,0,0,0,0h.6Z"/>
          <path class="cls-12" d="M60.6,28.2h0s0,0,0,0h0c0,0,0,.2,0,.2v.5h0c0,0,0,.2,0,.2h0c0,0,0,0,0,0h-.7s0,0,0,0h0c0,0,0-.2,0-.2v-.5h0c0,0,0-.2,0-.2h0c0,0,0,0,0,0h.6Z"/>
          <path class="cls-12" d="M51.1,34.8h0s0,0,0,0h0c0,0,0,.2,0,.2v.5h0c0,0,0,.2,0,.2h0c0,0,0,0,0,0h-.7s0,0,0,0h0c0,0,0-.2,0-.2v-.5h0c0,0,0-.2,0-.2h0c0,0,0,0,0,0h.6Z"/>
          <path class="cls-12" d="M51.1,32.9h0s0,0,0,0h0c0,0,0,.2,0,.2v.5h0c0,0,0,.2,0,.2h0c0,0,0,0,0,0h-.7s0,0,0,0h0c0,0,0-.2,0-.2v-.5h0c0,0,0-.2,0-.2h0c0,0,0,0,0,0h.6Z"/>
          <path class="cls-12" d="M70.1,34.8h0s0,0,0,0h0c0,0,0,.2,0,.2v.5h0c0,0,0,.2,0,.2h0c0,0,0,0,0,0h-.7s0,0,0,0h0c0,0,0-.2,0-.2v-.5h0c0,0,0-.2,0-.2h0c0,0,0,0,0,0h.6Z"/>
          <path class="cls-12" d="M70.1,32.9h0s0,0,0,0h0c0,0,0,.2,0,.2v.5h0c0,0,0,.2,0,.2h0c0,0,0,0,0,0h-.7s0,0,0,0h0c0,0,0-.2,0-.2v-.5h0c0,0,0-.2,0-.2h0c0,0,0,0,0,0h.6Z"/>
          <path class="cls-12" d="M65.3,39.5h0s0,0,0,0h0c0,0,0,.2,0,.2v.5h0c0,0,0,.2,0,.2h0c0,0,0,0,0,0h-.7s0,0,0,0h0c0,0,0-.2,0-.2v-.5h0c0,0,0-.2,0-.2h0c0,0,0,0,0,0h.6Z"/>
          <path class="cls-12" d="M65.3,37.6h0s0,0,0,0h0c0,0,0,.2,0,.2v.5h0c0,0,0,.2,0,.2h0c0,0,0,0,0,0h-.7s0,0,0,0h0c0,0,0-.2,0-.2v-.5h0c0,0,0-.2,0-.2h0c0,0,0,0,0,0h.6Z"/>
        </g>
      </g>
      <g id="Touchpins">
        <path id="Plus-Pin" class="cls-29" d="M83.4,2.9c-1,0-2,.3-2.8.8,0,0-.2,0-.2.1,0,0,0,0,0,0,0,0-.2.1-.3.2,0,0,0,0,0,0,0,0-.2.1-.3.2,0,0,0,0-.1.1,0,0,0,0-.1.1,0,0-.2.2-.2.3-.2.3-.4.5-.6.8,0,.1-.1.2-.2.3,0,.1-.1.2-.1.3,0,0,0,.1,0,.2,0,0,0,0,0,.1,0,.1,0,.3-.1.4,0,.1,0,.2,0,.3,0,0,0,.1,0,.2,0,0,0,.1,0,.2,0,0,0,.2,0,.3,0,0,0,.1,0,.2,0,.1,0,.2,0,.3,0,3,2.4,5.4,5.4,5.4s.4,0,.5,0c.5,0,1-.2,1.5-.4,0,0,0,0,.1,0,.1,0,.2-.1.3-.2.1,0,.2-.1.3-.2,0,0,.2-.1.3-.2,0,0,.2-.1.2-.2,0,0,.2-.1.2-.2,0,0,.2-.1.2-.2,0,0,.1-.1.2-.2,0,0,.1-.2.2-.2,0,0,.1-.2.2-.3,0,0,.1-.2.2-.2,0,0,.1-.2.2-.3,0,0,0-.2.1-.2,0,0,0-.2.1-.3.1-.3.2-.5.3-.8,0-.1,0-.3,0-.4h0c0-.3,0-.6,0-1,0-3-2.4-5.4-5.4-5.4ZM83.4,10.7c-1.3,0-2.4-1.1-2.4-2.4s1.1-2.4,2.4-2.4,2.4,1.1,2.4,2.4-1.1,2.4-2.4,2.4Z"/>
        <path id="Minus-Pin" class="cls-29" d="M43.6,8h0s0,0,0,0c0,0,0-.1,0-.2,0-.1,0-.2,0-.3,0,0,0-.1,0-.2,0-.5-.3-1-.5-1.5,0,0,0-.2-.1-.2,0,0,0-.2-.1-.2,0,0,0-.1-.1-.2,0-.1-.2-.2-.2-.3,0,0,0,0,0,0,0-.1-.2-.2-.3-.3-1-1-2.4-1.7-4-1.7-3,0-5.5,2.4-5.5,5.5s0,.5,0,.8h0s0,0,0,0v.2c0,.1,0,.2.1.4,0,0,0,.2,0,.2,0,0,0,.1,0,.2,0,.2.1.4.2.5,0,0,0,.2.1.2,0,0,0,.1.1.2,0,0,0,.1.1.2,0,0,0,.1.1.2.2.3.4.6.7.8s.2.2.2.2c0,0,.2.1.3.2.1,0,.2.2.4.3.1,0,.2.1.3.2,0,0,0,0,0,0,.1,0,.2.1.4.2.1,0,.3.1.4.2.2,0,.3.1.5.1.1,0,.3,0,.4,0,.2,0,.4,0,.7,0,0,0,.2,0,.3,0,3,0,5.5-2.4,5.5-5.5s0-.2,0-.3ZM38.1,10.7c-1.3,0-2.4-1.1-2.4-2.4s1.1-2.4,2.4-2.4,2.4,1.1,2.4,2.4-1.1,2.4-2.4,2.4Z"/>
        <path id="Pin_3" data-name="Pin 3" class="cls-29" d="M107.7,42.4c-.3,0-.6-.2-.8-.2,0,0-.1,0-.2,0-.2,0-.5,0-.7,0s-.1,0-.2,0c0,0-.1,0-.2,0-.2,0-.3,0-.5,0-.1,0-.3,0-.4,0,0,0-.1,0-.2,0-.2,0-.3,0-.5.2-.1,0-.2,0-.3.1s-.2,0-.3.1c0,0-.2.1-.3.2-.1,0-.2.1-.3.2,0,0-.2.1-.3.2,0,0-.1,0-.2.1,0,0-.1.1-.2.2,0,0,0,0,0,0-1,1-1.6,2.3-1.6,3.8,0,3,2.4,5.4,5.4,5.4s.2,0,.4,0c0,0,0,0,.1,0,.1,0,.2,0,.4,0,.1,0,.2,0,.4,0,0,0,0,0,.1,0,.1,0,.2,0,.3,0,0,0,.2,0,.3,0,2.1-.8,3.6-2.8,3.6-5.1s-1.6-4.4-3.7-5.2ZM106,49.9c-1.3,0-2.4-1.1-2.4-2.4s1.1-2.4,2.4-2.4,2.4,1.1,2.4,2.4-1.1,2.4-2.4,2.4Z"/>
        <path id="Pin_2" data-name="Pin 2" class="cls-29" d="M88.7,85.5c0,0,0-.1,0-.2,0-.2-.1-.5-.2-.7,0,0,0-.1,0-.1-.1-.3-.3-.5-.4-.7,0,0,0,0,0-.1-.2-.4-.5-.7-.8-1,0,0-.1,0-.2-.1,0,0-.2-.1-.2-.2,0,0-.1,0-.2-.1-.1,0-.3-.2-.4-.2,0,0-.1,0-.2-.1-.1,0-.3-.1-.4-.2,0,0-.1,0-.2,0-.2,0-.4-.1-.5-.2,0,0-.1,0-.2,0-.1,0-.2,0-.3,0,0,0-.2,0-.2,0,0,0-.2,0-.3,0,0,0-.2,0-.3,0s-.2,0-.3,0c-.1,0-.3,0-.4,0,0,0-.2,0-.2,0-.2,0-.5,0-.7.2,0,0-.2,0-.3,0,0,0-.2,0-.3.1,0,0-.2,0-.2.1-.8.4-1.5,1-2,1.7,0,.1-.2.2-.2.4-.1.2-.2.4-.3.6,0,.2-.2.4-.2.6,0,0,0,.1,0,.2-.1.5-.2,1-.2,1.5,0,3.1,2.5,5.5,5.5,5.5s5.5-2.5,5.5-5.5,0-.8-.1-1.2ZM83.3,89.1c-1.3,0-2.4-1.1-2.4-2.4s1.1-2.4,2.4-2.4,2.4,1.1,2.4,2.4-1.1,2.4-2.4,2.4Z"/>
        <path id="Pin_1" data-name="Pin 1" class="cls-29" d="M43.6,85.4c0-.1,0-.3-.1-.4,0,0,0,0,0,0,0-.1,0-.2-.1-.3,0,0,0,0,0,0,0-.1-.1-.2-.2-.3,0-.1-.2-.3-.2-.4,0-.1-.1-.2-.2-.3,0-.1-.1-.2-.2-.3,0,0,0,0-.1-.1,0,0-.1-.2-.2-.2,0,0,0,0,0,0,0,0-.2-.2-.3-.2-.1-.1-.2-.2-.4-.3-.1,0-.2-.2-.3-.2-.1,0-.2-.1-.4-.2-.1,0-.3-.1-.4-.2-.3-.1-.7-.3-1-.3,0,0-.1,0-.2,0,0,0-.1,0-.2,0,0,0-.1,0-.2,0-.2,0-.4,0-.5,0s-.4,0-.6,0c0,0-.2,0-.3,0-.3,0-.5.1-.8.2-.5.2-1,.4-1.5.7,0,0-.1.1-.2.2,0,0-.1.1-.2.2,0,0-.1.1-.2.2,0,0-.1.1-.2.2,0,0-.1.1-.2.2-.2.2-.3.4-.5.6-.1.2-.2.3-.3.5,0,0,0,.2-.1.2,0,.2-.1.3-.2.5-.2.6-.3,1.2-.3,1.9,0,3.1,2.5,5.6,5.6,5.6s5.6-2.5,5.6-5.6,0-.9-.2-1.4ZM38.2,89.1c-1.3,0-2.4-1.1-2.4-2.4s1.1-2.4,2.4-2.4,2.4,1.1,2.4,2.4-1.1,2.4-2.4,2.4Z"/>
        <path id="Pin_0" data-name="Pin 0" class="cls-29" d="M15.5,42.1c0,0-.2,0-.3,0,0,0-.2,0-.3,0-.3,0-.7,0-1,.2-2.3.7-3.9,2.8-3.9,5.2s1.4,4.2,3.3,5c.2,0,.3.1.5.2.2,0,.3.1.5.1,0,0,.2,0,.3,0,0,0,.2,0,.3,0,.2,0,.4,0,.6,0,3,0,5.5-2.4,5.5-5.5s-2.4-5.5-5.5-5.5ZM15.5,49.9c-1.3,0-2.4-1.1-2.4-2.4s1.1-2.4,2.4-2.4,2.4,1.1,2.4,2.4-1.1,2.4-2.4,2.4Z"/>
      </g>
      <g id="JacDac">
        <g>
          <g id="LWPOLYLINE">
            <path class="cls-29" d="M48.5,79.9c0-.1,0-.3,0-.4,0-.3-.3-.6-.7-.5,0,0,0,0,0,0-.4,0-.6.4-.5.8,0,.1,0,.3.2.3l.7,4c0,.3.3.4.6.4h.1c.3,0,.4-.3.4-.6l-.7-4ZM48,80c-.2,0-.4-.2-.4-.4s.2-.4.4-.4.4.2.4.4-.2.4-.4.4Z"/>
          </g>
          <g id="ARC">
            <path class="cls-29" d="M50,79.6h0c0-.1,0-.3,0-.4,0-.4-.4-.6-.8-.5-.4,0-.6.4-.5.8,0,.1,0,.3.2.3l.8,4.5c0,.3.3.4.6.4h.1c.3,0,.4-.3.4-.6l-.8-4.5ZM49.4,79.7c-.2,0-.4-.2-.4-.4s.2-.4.4-.4.4.2.4.4-.2.4-.4.4Z"/>
          </g>
          <g id="LWPOLYLINE-2" data-name="LWPOLYLINE">
            <path class="cls-29" d="M51.5,79.3c0-.1,0-.3,0-.4,0-.1,0-.3-.2-.4-.1-.1-.4-.2-.6-.2-.4,0-.6.4-.5.8,0,.1,0,.3.2.3l.8,4.5c0,.3.3.4.6.4h.1c.3,0,.4-.3.4-.6l-.8-4.5ZM50.9,79.5c-.2,0-.4-.2-.4-.4s.2-.4.4-.4.4.2.4.4-.2.4-.4.4Z"/>
          </g>
        </g>
        <g>
          <g id="LINE">
            <path class="cls-29" d="M72.1,78.7c-.4,0-.7.2-.8.5,0,.1,0,.3,0,.4h0s-.8,4.6-.8,4.6c0,.3.1.5.4.6h.1c.3,0,.5-.1.6-.4l.8-4.5c0,0,.2-.2.2-.3,0-.4-.2-.7-.5-.8ZM72,79.7c-.2,0-.4-.2-.4-.4s.2-.4.4-.4.4.2.4.4-.2.4-.4.4Z"/>
          </g>
          <g id="LWPOLYLINE-3" data-name="LWPOLYLINE">
            <path class="cls-29" d="M70.7,78.4c-.2,0-.4,0-.6.2,0,0-.1.2-.2.3,0,.1,0,.3,0,.4l-.7,4c0,.3.1.5.4.6h.1c.3,0,.5-.1.6-.4l.7-4c0,0,.2-.2.2-.3,0-.4-.2-.7-.5-.8ZM70.5,79.5c-.2,0-.4-.2-.4-.4s0-.2.1-.3c0,0,.2-.1.3-.1.2,0,.4.2.4.4s-.2.4-.4.4Z"/>
          </g>
          <g id="LWPOLYLINE-4" data-name="LWPOLYLINE">
            <path class="cls-29" d="M73.6,78.9s0,0-.1,0c-.3,0-.6.2-.6.5,0,.1,0,.3,0,.4l-.8,4.5c0,.3.1.5.4.5h.1c.3,0,.5-.1.5-.4l.8-4.5c0,0,.2-.2.2-.3,0-.4-.2-.7-.5-.8ZM73.5,80c-.2,0-.4-.2-.4-.4s.2-.4.4-.4.4.2.4.4-.2.4-.4.4Z"/>
          </g>
        </g>
      </g>
      <g id="Mikrofon">
        <rect class="cls-9" x="90.7" y="48.9" width="4.3" height="3.5" rx=".2" ry=".2"/>
        <rect class="cls-29" x="90.8" y="49" width="4.1" height="3.3" rx=".2" ry=".2"/>
        <circle class="cls-16" cx="91.7" cy="50.6" r=".2"/>
      </g>
      <path class="cls-12" d="M87.8,43.5l-1.1-1.1,1.3-1.3,1.1,1.1-1.3,1.3Z"/>
      <path class="cls-12" d="M94.5,36.8l-1.1-1.1,1.3-1.3,1.1,1.1-1.3,1.3Z"/>
      <path class="cls-12" d="M91.6,47.2l-1.1-1.1,1.3-1.3,1.1,1.1-1.3,1.3Z"/>
      <path class="cls-12" d="M98.2,40.6l-1.1-1.1,1.3-1.3,1.1,1.1-1.3,1.3Z"/>
      <path class="cls-12" d="M82,28l-.5-1.1,4.8-2.3.5,1.1-4.8,2.3Z"/>
      <path class="cls-12" d="M83,30.2l-.5-1.1,4.8-2.3.5,1.1-4.8,2.3Z"/>
      <path class="cls-12" d="M84,32.3l-.5-1.1,4.8-2.3.5,1.1-4.8,2.3Z"/>
      <path class="cls-12" d="M85,34.5l-.5-1.1,4.8-2.3.5,1.1-4.8,2.3Z"/>
      <path class="cls-12" d="M85.3,56.2l3.3,2.6-.7.9-3.3-2.6.7-.9Z"/>
      <path class="cls-12" d="M89.2,62.4l3.2,2.5-1.1,1.4-3.2-2.5,1.1-1.4Z"/>
      <path class="cls-12" d="M94.1,56.2l3.2,2.5-1.1,1.4-3.2-2.5,1.1-1.4Z"/>
      <path class="cls-12" d="M86.8,54.4l3.3,2.6-.7.9-3.3-2.6.7-.9Z"/>
      <path class="cls-12" d="M76.4,53.9h0c0,.1,0,.2,0,.2h-.1c0,.1-.1.2-.1.2h-.1s-1.9,0-1.9,0h-.1s-.1,0-.1,0h-.1c0-.1,0-.2,0-.2h0v-2h0c0-.1,0-.2,0-.2h.1c0-.1.1-.2.1-.2h.1s1.9,0,1.9,0h.1s.1,0,.1,0h.1c0,.1,0,.2,0,.2h0v2Z"/>
      <path class="cls-12" d="M84.8,53.9h0c0,.1,0,.2,0,.2h-.1c0,.1-.1.2-.1.2h-.1s-1.9,0-1.9,0h-.1s-.1,0-.1,0h-.1c0-.1,0-.2,0-.2h0v-2h0c0-.1,0-.2,0-.2h.1c0-.1.1-.2.1-.2h.1s1.9,0,1.9,0h.1s.1,0,.1,0h.1c0,.1,0,.2,0,.2h0v2Z"/>
      <path class="cls-12" d="M84.8,45.5h0c0,.1,0,.2,0,.2h-.1c0,.1-.1.2-.1.2h-.1s-1.9,0-1.9,0h-.1s-.1,0-.1,0h-.1c0-.1,0-.2,0-.2h0v-2h0c0-.1,0-.2,0-.2h.1c0-.1.1-.2.1-.2h.1s1.9,0,1.9,0h.1s.1,0,.1,0h.1c0,.1,0,.2,0,.2h0v2Z"/>
      <path class="cls-12" d="M76.4,45.5h0c0,.1,0,.2,0,.2h-.1c0,.1-.1.2-.1.2h-.1s-1.9,0-1.9,0h-.1s-.1,0-.1,0h-.1c0-.1,0-.2,0-.2h0v-2h0c0-.1,0-.2,0-.2h.1c0-.1.1-.2.1-.2h.1s1.9,0,1.9,0h.1s.1,0,.1,0h.1c0,.1,0,.2,0,.2h0v2Z"/>
      <path class="cls-12" d="M37.3,33.4l-.5,1.1-4.8-2.3.5-1.1,4.8,2.3Z"/>
      <path class="cls-12" d="M38.3,31.3l-.5,1.1-4.8-2.3.5-1.1,4.8,2.3Z"/>
      <path class="cls-12" d="M39.3,29.1l-.5,1.1-4.8-2.3.5-1.1,4.8,2.3Z"/>
      <path class="cls-12" d="M40.3,27l-.5,1.1-4.8-2.3.5-1.1,4.8,2.3Z"/>
      <path class="cls-12" d="M40.5,66.6h-1.1v-2.2h1.1v2.2Z"/>
      <path class="cls-12" d="M40.5,74.1h-1.1v-2.2h1.1v2.2Z"/>
      <path class="cls-12" d="M43.5,66.6h-1.1v-2.2h1.1v2.2Z"/>
      <path class="cls-12" d="M43.5,74.1h-1.1v-2.2h1.1v2.2Z"/>
      <path class="cls-12" d="M46.5,66.6h-1.1v-2.2h1.1v2.2Z"/>
      <path class="cls-12" d="M46.5,74.1h-1.1v-2.2h1.1v2.2Z"/>
      <path class="cls-12" d="M49.5,66.6h-1.1v-2.2h1.1v2.2Z"/>
      <path class="cls-12" d="M49.5,74.1h-1.1v-2.2h1.1v2.2Z"/>
      <path class="cls-12" d="M52.6,66.6h-1.1v-2.2h1.1v2.2Z"/>
      <path class="cls-12" d="M52.6,74.1h-1.1v-2.2h1.1v2.2Z"/>
      <path class="cls-12" d="M55.6,66.6h-1.1v-2.2h1.1v2.2Z"/>
      <path class="cls-12" d="M55.6,74.1h-1.1v-2.2h1.1v2.2Z"/>
      <path class="cls-12" d="M58.6,66.6h-1.1v-2.2h1.1v2.2Z"/>
      <path class="cls-12" d="M58.6,74.1h-1.1v-2.2h1.1v2.2Z"/>
      <path class="cls-12" d="M61.6,66.6h-1.1v-2.2h1.1v2.2Z"/>
      <path class="cls-12" d="M61.6,74.1h-1.1v-2.2h1.1v2.2Z"/>
      <path class="cls-12" d="M64.6,66.6h-1.1v-2.2h1.1v2.2Z"/>
      <path class="cls-12" d="M64.6,74.1h-1.1v-2.2h1.1v2.2Z"/>
      <path class="cls-12" d="M67.6,66.6h-1.1v-2.2h1.1v2.2Z"/>
      <path class="cls-12" d="M67.6,74.1h-1.1v-2.2h1.1v2.2Z"/>
      <path class="cls-12" d="M70.6,66.6h-1.1v-2.2h1.1v2.2Z"/>
      <path class="cls-12" d="M70.6,74.1h-1.1v-2.2h1.1v2.2Z"/>
      <path class="cls-12" d="M73.7,66.6h-1.1v-2.2h1.1v2.2Z"/>
      <path class="cls-12" d="M73.7,74.1h-1.1v-2.2h1.1v2.2Z"/>
      <path class="cls-12" d="M76.7,66.6h-1.1v-2.2h1.1v2.2Z"/>
      <path class="cls-12" d="M76.7,74.1h-1.1v-2.2h1.1v2.2Z"/>
      <path class="cls-12" d="M79.7,66.6h-1.1v-2.2h1.1v2.2Z"/>
      <path class="cls-12" d="M79.7,74.1h-1.1v-2.2h1.1v2.2Z"/>
      <path class="cls-12" d="M82.7,66.6h-1.1v-2.2h1.1v2.2Z"/>
      <path class="cls-12" d="M82.7,74.1h-1.1v-2.2h1.1v2.2Z"/>
      <path class="cls-12" d="M30.6,46.1l-1.1,1.1-1.3-1.3,1.1-1.1,1.3,1.3Z"/>
      <path class="cls-12" d="M23.9,39.5l-1.1,1.1-1.3-1.3,1.1-1.1,1.3,1.3Z"/>
      <path class="cls-12" d="M34.3,42.4l-1.1,1.1-1.3-1.3,1.1-1.1,1.3,1.3Z"/>
      <path class="cls-12" d="M27.7,35.7l-1.1,1.1-1.3-1.3,1.1-1.1,1.3,1.3Z"/>
      <path class="cls-12" d="M34.8,15.3h1.4v1.7h-1.4v-1.7Z"/>
      <path class="cls-12" d="M34.8,17.9h1.4v1.7h-1.4v-1.7Z"/>
      <path class="cls-12" d="M36.8,17.9h1.4v1.7h-1.4v-1.7Z"/>
      <path class="cls-12" d="M36.8,15.3h1.4v1.7h-1.4v-1.7Z"/>
      <path id="Lautsprecher-2" data-name="Lautsprecher" class="cls-23" d="M76.1,53.8h6.3c0,0,.1,0,.2,0l1.6-1.6s0-.1,0-.2v-6.3c0,0,0-.1,0-.2l-1.6-1.6s-.1,0-.2,0h-6.3c0,0-.1,0-.2,0l-1.6,1.6s0,.1,0,.2v6.3c0,0,0,.1,0,.2l1.6,1.6s.1,0,.2,0Z"/>
      <g id="Anwendungs-Prozessor">
        <rect class="cls-23" x="36.7" y="47.5" width="8.3" height="8.3" rx=".2" ry=".2" transform="translate(-24.6 44) rotate(-45)"/>
      </g>
      <g id="Taste_B-2" data-name="Taste B">
        <polygon class="cls-5" points="90.9 46.2 91.5 46.8 91.9 46.3 91.9 46.3 92 46.3 92 46.2 92.1 46.2 92.2 46.1 92.2 46.1 92.3 46 92.4 45.9 92.8 45.5 92.2 44.9 91.7 45.4 91.6 45.5 91.6 45.5 91.5 45.6 91.4 45.7 91.4 45.7 91.3 45.8 90.9 46.2"/>
        <polygon class="cls-5" points="97.2 39.9 97.8 40.5 98.2 40.1 98.3 40 98.4 39.9 98.4 39.9 98.4 39.8 98.5 39.7 98.6 39.7 99.1 39.2 98.5 38.6 98.1 39 98 39.1 98 39.2 97.9 39.3 97.8 39.3 97.8 39.3 97.7 39.4 97.2 39.9"/>
        <polygon class="cls-5" points="93.4 36.1 94 36.7 94.4 36.3 94.5 36.2 94.6 36.1 94.6 36.1 94.7 36.1 94.9 35.9 94.9 35.9 94.9 35.8 95.3 35.5 94.7 34.9 94.2 35.3 94.2 35.4 94.1 35.5 94 35.5 94 35.6 93.9 35.6 93.8 35.7 93.4 36.1"/>
        <polygon class="cls-5" points="87.2 42.4 87.7 43 88.2 42.6 88.2 42.6 88.2 42.5 88.4 42.3 88.5 42.2 88.6 42.1 89 41.7 88.4 41.2 87.9 41.6 87.9 41.7 87.8 41.7 87.8 41.8 87.7 41.9 87.6 41.9 87.2 42.4"/>
        <path class="cls-11" d="M91.6,42.3c.8.8,2.1.8,2.9,0,.8-.8.8-2.1,0-2.9-.8-.8-2.1-.8-2.9,0-.8.8-.8,2.1,0,2.9Z"/>
        <path class="cls-15" d="M88.3,41h.1c0,.1.6.7.6.7l3.2,3.2.6.6h.1c.1.2.3.2.4.1l4.6-4.6c.1-.1.1-.3,0-.4h-.1c0-.1-.6-.7-.6-.7l-3.2-3.2-.6-.6h-.1c-.1-.2-.3-.2-.4-.1l-4.6,4.6c-.1.1-.1.3,0,.4ZM93.5,37.6c-.2.2-.6.2-.8,0-.2-.2-.2-.6,0-.8.2-.2.6-.2.8,0,.2.2.2.6,0,.8ZM96.3,40.4c.2-.2.6-.2.8,0,.2.2.2.6,0,.8-.2.2-.6.2-.8,0-.2-.2-.2-.6,0-.8ZM92.7,44c.2-.2.6-.2.8,0,.2.2.2.6,0,.8s-.6.2-.8,0c-.2-.2-.2-.6,0-.8ZM91.6,39.3c.8-.8,2.1-.8,2.9,0,.8.8.8,2.1,0,2.9-.8.8-2.1.8-2.9,0-.8-.8-.8-2.1,0-2.9ZM89.1,40.4c.2-.2.6-.2.8,0,.2.2.2.6,0,.8-.2.2-.6.2-.8,0-.2-.2-.2-.6,0-.8Z"/>
        <path class="cls-23" d="M89.1,41.2c.2.2.6.2.8,0,.2-.2.2-.6,0-.8-.2-.2-.6-.2-.8,0-.2.2-.2.6,0,.8Z"/>
        <path class="cls-23" d="M92.7,37.6c.2.2.6.2.8,0,.2-.2.2-.6,0-.8-.2-.2-.6-.2-.8,0-.2.2-.2.6,0,.8Z"/>
        <path class="cls-23" d="M96.3,41.2c.2.2.6.2.8,0,.2-.2.2-.6,0-.8-.2-.2-.6-.2-.8,0-.2.2-.2.6,0,.8Z"/>
        <path class="cls-23" d="M92.7,44.9c.2.2.6.2.8,0s.2-.6,0-.8c-.2-.2-.6-.2-.8,0-.2.2-.2.6,0,.8Z"/>
      </g>
      <g id="Grove_rechts">
        <polygon class="cls-13" points="88.2 21.9 87.6 22.2 87.4 21.7 86.8 22 86.5 21.3 87.7 20.8 88.2 21.9"/>
        <polygon class="cls-13" points="93.7 33.6 92.5 34.1 92.2 33.5 92.7 33.2 92.5 32.8 93.2 32.5 93.7 33.6"/>
        <polygon class="cls-3" points="93.2 32.5 92.5 32.8 92 33 89.7 34.1 89.5 34.2 89.2 34.3 88.6 34.6 87.6 35.1 86.7 33.2 87.7 32.7 87.4 32.2 88.1 31.9 88.3 32.4 88.3 32.4 88.6 33.1 88 33.4 88 33.4 87.7 33.5 88 34.1 88 34.1 88.3 34 88.3 34 92.2 32.1 91.8 31.2 91.6 30.9 91.4 30.3 91.4 30.3 90.7 28.8 90.4 28.2 90.4 28.2 89.7 26.7 89.5 26.2 88.7 24.6 88.5 24.1 88.3 23.8 87.9 22.8 83.9 24.7 83.7 24.8 84 25.4 84.2 25.3 84.8 25 85.2 25.6 85.4 26.2 84.8 26.5 84.8 26.5 84.5 25.9 83.5 26.4 82.6 24.5 83.6 24 83.6 24 84.2 23.7 84.6 23.6 87 22.4 87.6 22.2 88.2 21.9 89 23.5 89.1 23.8 89.4 24.3 90.1 25.9 90.4 26.4 91.1 27.9 91.3 28.5 92 30 92.3 30.6 92.4 30.9 93.2 32.5"/>
        <polygon class="cls-13" points="84 23.3 84.2 23.7 83.6 24 83.6 24 82.6 24.5 82.1 23.4 83.1 22.9 84.1 22.5 84.4 23.1 84 23.3"/>
        <polygon class="cls-13" points="90 35.3 89.1 35.7 88.1 36.2 87.6 35.1 88.6 34.6 89.2 34.3 89.4 34.8 89.7 34.6 90 35.3"/>
        <path class="cls-1" d="M91.8,31.2l-.2-.3-.3-.5h0s-.7-1.6-.7-1.6l-.2-.5h0l-.7-1.5-.3-.5-.7-1.6-.3-.5-.2-.3-.5-1-4,1.9h-.2c0,.1.3.7.3.7h.2c0-.1.6-.4.6-.4l.3.6.3.5h0s.2.3.2.3l.6,1.2h0s.2.5.2.5h0l.7,1.5h0s.3.5.3.5h0s.6,1.2.6,1.2v.3h.2l.2.5h0s.3.6.3.6l-.6.3h-.2c0,.1.3.7.3.7h.2c0-.1,4-2,4-2l-.5-1Z"/>
        <polygon class="cls-7" points="87.3 25.3 86.8 25.5 86.5 25 86.7 24.9 87 24.8 87.1 24.7 87.3 25.3"/>
        <polygon class="cls-7" points="88.3 27.4 88.2 27.4 88.2 27.4 87.9 27.6 87.9 27.6 87.8 27.6 87.5 27.1 88.1 26.8 88.3 27.4"/>
        <polygon class="cls-7" points="89.3 29.4 88.7 29.7 88.5 29.1 88.5 29.1 88.5 29.1 88.6 29.1 88.9 28.9 88.9 28.9 89 28.9 89.3 29.4"/>
        <polygon class="cls-7" points="90.2 31.5 90.1 31.6 89.8 31.7 89.7 31.8 89.4 31.2 90 31 90.2 31.5"/>
        <polygon class="cls-15" points="84.8 26.5 84.8 26.5 84.8 26.5 82.6 27.5 82.1 27.6 82 27.3 82.4 26.9 83.5 26.4 84.5 25.9 84.8 26.5 84.8 26.5"/>
        <polygon class="cls-13" points="88.1 31.9 87.4 32.2 87.3 31.9 87 31.2 86.7 30.6 86.4 30.1 85.7 28.6 85.5 28 85.5 28 85.2 27.4 84.9 26.8 84.8 26.5 84.8 26.5 85.4 26.2 85.5 26.5 85.6 26.5 86.1 27.7 86.4 28.3 86.4 28.3 87.1 29.8 87.1 29.8 87.3 30.3 87.3 30.3 87.9 31.6 88.1 31.9"/>
        <polygon class="cls-15" points="84.9 29 83.6 29.6 83.1 29.7 83 29.4 83.3 29 84.6 28.4 84.9 29"/>
        <polygon class="cls-1" points="87 31.2 86.1 31.6 85.8 31 85.6 30.5 84.9 29 84.6 28.4 84.3 27.8 85.2 27.4 85.5 28 85.5 28 85.7 28.6 86.4 30.1 86.7 30.6 87 31.2"/>
        <polygon class="cls-15" points="85.8 31 84.5 31.6 84.1 31.7 83.9 31.4 84.3 31.1 85.6 30.5 85.8 31"/>
        <polygon class="cls-15" points="87.7 32.7 86.7 33.2 85.5 33.7 85 33.8 84.9 33.5 85.3 33.2 87.4 32.2 87.7 32.7"/>
        <polygon class="cls-5" points="86.5 21.3 86.8 22 87.4 21.7 87.6 22.2 84.2 23.7 84 23.3 84.4 23.1 84.1 22.5 86.5 21.3"/>
        <polyline class="cls-5" points="92.5 32.8 92.7 33.2 92.2 33.5 92.5 34.1 90 35.3 89.7 34.6 89.4 34.8 89.2 34.3 89.5 34.2 89.7 34.1 92 33 92.5 32.8"/>
      </g>
      <g id="Grove_links">
        <polygon class="cls-13" points="33.5 22 34.2 22.3 34.4 21.9 34.9 22.1 35.2 21.5 34 20.9 33.5 22"/>
        <polygon class="cls-22" points="28.1 33.7 29.3 34.3 29.6 33.6 29 33.4 29.2 32.9 28.6 32.6 28.1 33.7"/>
        <polygon class="cls-8" points="28.6 32.6 29.2 32.9 29.8 33.2 32 34.2 32.2 34.3 32.6 34.5 33.2 34.8 34.2 35.2 35.1 33.3 34.1 32.8 34.4 32.3 33.7 32 33.5 32.5 33.5 32.6 33.2 33.2 33.8 33.5 33.8 33.5 34 33.6 33.7 34.2 33.7 34.2 33.5 34.1 33.5 34.1 29.5 32.3 30 31.3 30.1 31 30.4 30.5 30.4 30.5 31.1 28.9 31.4 28.4 31.4 28.4 32.1 26.9 32.3 26.3 33 24.8 33.3 24.2 33.4 23.9 33.9 22.9 37.9 24.8 38.1 24.9 37.8 25.5 37.6 25.4 36.9 25.1 36.6 25.8 36.4 26.3 37 26.6 37 26.6 37.3 26.1 38.2 26.5 39.1 24.6 38.2 24.1 38.2 24.1 37.5 23.8 37.2 23.7 34.7 22.5 34.2 22.3 33.5 22 32.8 23.6 32.6 23.9 32.4 24.5 31.7 26 31.4 26.6 30.7 28.1 30.5 28.6 29.7 30.2 29.5 30.7 29.3 31 28.6 32.6"/>
        <polygon class="cls-13" points="37.7 23.4 37.5 23.8 38.2 24.1 38.2 24.1 39.1 24.6 39.6 23.5 38.7 23.1 37.7 22.6 37.4 23.3 37.7 23.4"/>
        <polygon class="cls-13" points="31.7 35.4 32.7 35.9 33.7 36.3 34.2 35.2 33.2 34.8 32.6 34.5 32.4 34.9 32 34.8 31.7 35.4"/>
        <path class="cls-1" d="M29.5,32.3l4,1.9h.2c0,.1.3-.5.3-.5h-.2c0-.1,0-.1,0-.1l-.6-.3.3-.6h0s.2-.5.2-.5h0v-.3c.1,0,.7-1.2.7-1.2h0s.3-.5.3-.5h0s.7-1.5.7-1.5h0l.2-.5h0s.6-1.2.6-1.2l.2-.3h0s.3-.5.3-.5l.3-.6.6.3h.2c0,.1.3-.5.3-.5h-.2c0-.1-4-2-4-2l-.5,1-.2.3-.3.5-.7,1.6-.3.5-.7,1.5h0l-.2.5-.7,1.6h0s-.3.5-.3.5l-.2.3-.5,1Z"/>
        <polygon class="cls-7" points="34.4 25.4 35 25.7 35.2 25.1 35.1 25.1 34.8 24.9 34.7 24.9 34.4 25.4"/>
        <polygon class="cls-7" points="33.4 27.5 33.5 27.5 33.6 27.6 33.9 27.7 33.9 27.7 34 27.8 34.2 27.2 33.7 27 33.4 27.5"/>
        <polygon class="cls-7" points="32.5 29.6 33 29.8 33.3 29.3 33.3 29.3 33.3 29.3 33.2 29.2 32.9 29.1 32.9 29.1 32.8 29 32.5 29.6"/>
        <polygon class="cls-7" points="31.5 31.6 31.6 31.7 32 31.8 32.1 31.9 32.3 31.4 31.8 31.1 31.5 31.6"/>
        <polygon class="cls-15" points="37 26.6 37 26.6 37 26.6 39.2 27.6 39.6 27.7 39.8 27.4 39.4 27.1 38.2 26.5 37.3 26.1 37 26.6 37 26.6"/>
        <polygon class="cls-13" points="33.7 32 34.4 32.3 34.5 32 34.8 31.4 35.1 30.8 35.3 30.2 36 28.7 36.3 28.2 36.3 28.2 36.6 27.6 36.9 26.9 37 26.6 37 26.6 36.4 26.3 36.2 26.6 36.2 26.6 35.6 27.9 35.4 28.4 35.4 28.4 34.7 29.9 34.7 29.9 34.4 30.5 34.4 30.5 33.9 31.7 33.7 32"/>
        <polygon class="cls-15" points="36.9 29.1 38.2 29.7 38.7 29.8 38.8 29.5 38.4 29.2 37.1 28.6 36.9 29.1"/>
        <polygon class="cls-1" points="34.8 31.4 35.7 31.8 35.9 31.2 36.2 30.6 36.9 29.1 37.1 28.6 37.4 28 36.6 27.6 36.3 28.2 36.3 28.2 36 28.7 35.3 30.2 35.1 30.8 34.8 31.4"/>
        <polygon class="cls-15" points="35.9 31.2 37.2 31.8 37.7 31.8 37.9 31.5 37.5 31.2 36.2 30.6 35.9 31.2"/>
        <polygon class="cls-15" points="34.1 32.8 35.1 33.3 36.3 33.9 36.7 33.9 36.9 33.6 36.5 33.3 34.4 32.3 34.1 32.8"/>
        <polygon class="cls-5" points="35.2 21.5 34.9 22.1 34.4 21.9 34.2 22.3 37.5 23.8 37.7 23.4 37.4 23.3 37.7 22.6 35.2 21.5"/>
        <polyline class="cls-5" points="29.2 32.9 29 33.4 29.6 33.6 29.3 34.3 31.7 35.4 32 34.8 32.4 34.9 32.6 34.5 32.2 34.3 32 34.2 29.8 33.2 29.2 32.9"/>
      </g>
      <g id="RGB-LEDs">
        <g id="RGB-LED">
          <path class="cls-20" d="M55.4,55.8c0,.1.1.3.2.3v.6c-.1,0-.2.2-.2.3s.1.3.2.3v.2c0,0,0,.1-.1.1h-2.4c0,0-.1,0-.1-.1v-.2c.1,0,.2-.2.2-.3s-.1-.3-.2-.3v-.6c.1,0,.2-.2.2-.3s-.1-.3-.2-.3v-.2c0,0,0-.1.1-.1h2.4c0,0,.1,0,.1.1v.2c-.1,0-.2.2-.2.3Z"/>
          <rect class="cls-18" x="53.6" y="55.4" width=".8" height=".4"/>
          <rect class="cls-24" x="53.5" y="55.2" width="1.7" height="2.4"/>
        </g>
        <g id="RGB-LED-2" data-name="RGB-LED">
          <path class="cls-20" d="M61.3,55.8c0,.1.1.3.2.3v.6c-.1,0-.2.2-.2.3s.1.3.2.3v.2c0,0,0,.1-.1.1h-2.4c0,0-.1,0-.1-.1v-.2c.1,0,.2-.2.2-.3s-.1-.3-.2-.3v-.6c.1,0,.2-.2.2-.3s-.1-.3-.2-.3v-.2c0,0,0-.1.1-.1h2.4c0,0,.1,0,.1.1v.2c-.1,0-.2.2-.2.3Z"/>
          <rect class="cls-18" x="59.6" y="55.4" width=".8" height=".4"/>
          <rect class="cls-24" x="59.4" y="55.2" width="1.7" height="2.4"/>
        </g>
        <g id="RGB-LED-3" data-name="RGB-LED">
          <path class="cls-20" d="M67.3,55.8c0,.1.1.3.2.3v.6c-.1,0-.2.2-.2.3s.1.3.2.3v.2c0,0,0,.1-.1.1h-2.4c0,0-.1,0-.1-.1v-.2c.1,0,.2-.2.2-.3s-.1-.3-.2-.3v-.6c.1,0,.2-.2.2-.3s-.1-.3-.2-.3v-.2c0,0,0-.1.1-.1h2.4c0,0,.1,0,.1.1v.2c-.1,0-.2.2-.2.3Z"/>
          <rect class="cls-18" x="65.5" y="55.4" width=".8" height=".4"/>
          <rect class="cls-24" x="65.3" y="55.2" width="1.7" height="2.4"/>
        </g>
      </g>
      <g id="Kleine_LEDs" data-name="Kleine LEDs">
        <use width="1.4" height="2.8" transform="translate(52.1 12.2) scale(.4)" xlink:href="#Calliope_3_Small_LED_2"/>
        <use width="1.4" height="2.8" transform="translate(50.9 12.2) scale(.4)" xlink:href="#Calliope_3_Small_LED_2"/>
        <use width="1.4" height="2.8" transform="translate(95.3 47.8) rotate(-90) scale(.4)" xlink:href="#Calliope_3_Small_LED_2"/>
      </g>
      <g id="LED-Matrix">
        <use width="2.3" height="4.8" transform="translate(50.2 33.3) scale(.5 .4)" xlink:href="#Calliope_3_LED_2"/>
        <use width="2.3" height="4.8" transform="translate(55 33.3) scale(.5 .4)" xlink:href="#Calliope_3_LED_2"/>
        <use width="2.3" height="4.8" transform="translate(64.5 33.3) scale(.5 .4)" xlink:href="#Calliope_3_LED_2"/>
        <use width="2.3" height="4.8" transform="translate(59.7 33.3) scale(.5 .4)" xlink:href="#Calliope_3_LED_2"/>
        <use width="2.3" height="4.8" transform="translate(69.2 33.3) scale(.5 .4)" xlink:href="#Calliope_3_LED_2"/>
        <use width="2.3" height="4.8" transform="translate(50.2 38.1) scale(.5 .4)" xlink:href="#Calliope_3_LED_2"/>
        <use width="2.3" height="4.8" transform="translate(55 38.1) scale(.5 .4)" xlink:href="#Calliope_3_LED_2"/>
        <use width="2.3" height="4.8" transform="translate(59.7 38.1) scale(.5 .4)" xlink:href="#Calliope_3_LED_2"/>
        <use width="2.3" height="4.8" transform="translate(64.5 38.1) scale(.5 .4)" xlink:href="#Calliope_3_LED_2"/>
        <use width="2.3" height="4.8" transform="translate(69.2 38.1) scale(.5 .4)" xlink:href="#Calliope_3_LED_2"/>
        <use width="2.3" height="4.8" transform="translate(50.2 28.6) scale(.5 .4)" xlink:href="#Calliope_3_LED_2"/>
        <use width="2.3" height="4.8" transform="translate(55 28.6) scale(.5 .4)" xlink:href="#Calliope_3_LED_2"/>
        <use width="2.3" height="4.8" transform="translate(59.7 28.6) scale(.5 .4)" xlink:href="#Calliope_3_LED_2"/>
        <use width="2.3" height="4.8" transform="translate(64.5 28.6) scale(.5 .4)" xlink:href="#Calliope_3_LED_2"/>
        <use width="2.3" height="4.8" transform="translate(69.2 28.6) scale(.5 .4)" xlink:href="#Calliope_3_LED_2"/>
        <use width="2.3" height="4.8" transform="translate(50.2 42.8) scale(.5 .4)" xlink:href="#Calliope_3_LED_2"/>
        <use width="2.3" height="4.8" transform="translate(55 42.8) scale(.5 .4)" xlink:href="#Calliope_3_LED_2"/>
        <use width="2.3" height="4.8" transform="translate(59.7 42.8) scale(.5 .4)" xlink:href="#Calliope_3_LED_2"/>
        <use width="2.3" height="4.8" transform="translate(64.5 42.8) scale(.5 .4)" xlink:href="#Calliope_3_LED_2"/>
        <use width="2.3" height="4.8" transform="translate(69.2 42.8) scale(.5 .4)" xlink:href="#Calliope_3_LED_2"/>
        <use width="2.3" height="4.8" transform="translate(50.2 47.6) scale(.5 .4)" xlink:href="#Calliope_3_LED_2"/>
        <use width="2.3" height="4.8" transform="translate(55 47.6) scale(.5 .4)" xlink:href="#Calliope_3_LED_2"/>
        <use width="2.3" height="4.8" transform="translate(59.7 47.6) scale(.5 .4)" xlink:href="#Calliope_3_LED_2"/>
        <use width="2.3" height="4.8" transform="translate(64.5 47.6) scale(.5 .4)" xlink:href="#Calliope_3_LED_2"/>
        <use width="2.3" height="4.8" transform="translate(69.2 47.6) scale(.5 .4)" xlink:href="#Calliope_3_LED_2"/>
      </g>
      <path class="cls-12" d="M43.6,24.4h0s0,0,0,0h0s0,0,0,0v-.8h0s0,0,0,0h0s0,0,0,0h.2s0,0,0,0h0s0,0,0,0v.8h0s0,0,0,0h0s0,0,0,0h-.1Z"/>
      <path class="cls-12" d="M44,24.4h0s0,0,0,0h0s0,0,0,0v-.8h0s0,0,0,0h0s0,0,0,0h.2s0,0,0,0h0s0,0,0,0v.8h0s0,0,0,0h0s0,0,0,0h-.1Z"/>
      <path class="cls-12" d="M44.5,24.4h0s0,0,0,0h0s0,0,0,0v-.8h0s0,0,0,0h0s0,0,0,0h.2s0,0,0,0h0s0,0,0,0v.8h0s0,0,0,0h0s0,0,0,0h-.1Z"/>
      <path class="cls-12" d="M45,24.4h0s0,0,0,0h0s0,0,0,0v-.8h0s0,0,0,0h0s0,0,0,0h.2s0,0,0,0h0s0,0,0,0v.8h0s0,0,0,0h0s0,0,0,0h-.1Z"/>
      <path class="cls-12" d="M45.5,24.4h0s0,0,0,0h0s0,0,0,0v-.8h0s0,0,0,0h0s0,0,0,0h.2s0,0,0,0h0s0,0,0,0v.8h0s0,0,0,0h0s0,0,0,0h-.1Z"/>
      <path class="cls-12" d="M45.9,24.4h0s0,0,0,0h0s0,0,0,0v-.8h0s0,0,0,0h0s0,0,0,0h.2s0,0,0,0h0s0,0,0,0v.8h0s0,0,0,0h0s0,0,0,0h-.1Z"/>
      <path class="cls-12" d="M46.4,24.4h0s0,0,0,0h0s0,0,0,0v-.8h0s0,0,0,0h0s0,0,0,0h.2s0,0,0,0h0s0,0,0,0v.8h0s0,0,0,0h0s0,0,0,0h-.1Z"/>
      <path class="cls-12" d="M46.9,24.4h0s0,0,0,0h0s0,0,0,0v-.8h0s0,0,0,0h0s0,0,0,0h.2s0,0,0,0h0s0,0,0,0v.8h0s0,0,0,0h0s0,0,0,0h-.1Z"/>
      <path class="cls-12" d="M47.4,24.4h0s0,0,0,0h0s0,0,0,0v-.8h0s0,0,0,0h0s0,0,0,0h.2s0,0,0,0h0s0,0,0,0v.8h0s0,0,0,0h0s0,0,0,0h-.1Z"/>
      <path class="cls-12" d="M47.8,24.4h0s0,0,0,0h0s0,0,0,0v-.8h0s0,0,0,0h0s0,0,0,0h.2s0,0,0,0h0s0,0,0,0v.8h0s0,0,0,0h0s0,0,0,0h-.1Z"/>
      <path class="cls-12" d="M48.3,23.3h0s0,0,0,0h0s0,0,0,0h0c0-.1,0-.2,0-.2h0s0,0,0,0h0s.8,0,.8,0h0s0,0,0,0h0s0,0,0,0h0c0,.1,0,.2,0,.2h0s0,0,0,0h0s-.8,0-.8,0Z"/>
      <path class="cls-12" d="M48.3,22.9h0s0,0,0,0h0s0,0,0,0h0c0-.1,0-.2,0-.2h0s0,0,0,0h0s.8,0,.8,0h0s0,0,0,0h0s0,0,0,0h0c0,.1,0,.2,0,.2h0s0,0,0,0h0s-.8,0-.8,0Z"/>
      <path class="cls-12" d="M48.3,22.4h0s0,0,0,0h0s0,0,0,0h0c0-.1,0-.2,0-.2h0s0,0,0,0h0s.8,0,.8,0h0s0,0,0,0h0s0,0,0,0h0c0,.1,0,.2,0,.2h0s0,0,0,0h0s-.8,0-.8,0Z"/>
      <path class="cls-12" d="M48.3,21.9h0s0,0,0,0h0s0,0,0,0h0c0-.1,0-.2,0-.2h0s0,0,0,0h0s.8,0,.8,0h0s0,0,0,0h0s0,0,0,0h0c0,.1,0,.2,0,.2h0s0,0,0,0h0s-.8,0-.8,0Z"/>
      <path class="cls-12" d="M48.3,21.4h0s0,0,0,0h0s0,0,0,0h0c0-.1,0-.2,0-.2h0s0,0,0,0h0s.8,0,.8,0h0s0,0,0,0h0s0,0,0,0h0c0,.1,0,.2,0,.2h0s0,0,0,0h0s-.8,0-.8,0Z"/>
      <path class="cls-12" d="M48.3,21h0s0,0,0,0h0s0,0,0,0h0c0-.1,0-.2,0-.2h0s0,0,0,0h0s.8,0,.8,0h0s0,0,0,0h0s0,0,0,0h0c0,.1,0,.2,0,.2h0s0,0,0,0h0s-.8,0-.8,0Z"/>
      <path class="cls-12" d="M48.3,20.5h0s0,0,0,0h0s0,0,0,0h0c0-.1,0-.2,0-.2h0s0,0,0,0h0s.8,0,.8,0h0s0,0,0,0h0s0,0,0,0h0c0,.1,0,.2,0,.2h0s0,0,0,0h0s-.8,0-.8,0Z"/>
      <path class="cls-12" d="M48.3,20h0s0,0,0,0h0s0,0,0,0h0c0-.1,0-.2,0-.2h0s0,0,0,0h0s.8,0,.8,0h0s0,0,0,0h0s0,0,0,0h0c0,.1,0,.2,0,.2h0s0,0,0,0h0s-.8,0-.8,0Z"/>
      <path class="cls-12" d="M48.3,19.5h0s0,0,0,0h0s0,0,0,0h0c0-.1,0-.2,0-.2h0s0,0,0,0h0s.8,0,.8,0h0s0,0,0,0h0s0,0,0,0h0c0,.1,0,.2,0,.2h0s0,0,0,0h0s-.8,0-.8,0Z"/>
      <path class="cls-12" d="M48.3,19.1h0s0,0,0,0h0s0,0,0,0h0c0-.1,0-.2,0-.2h0s0,0,0,0h0s.8,0,.8,0h0s0,0,0,0h0s0,0,0,0h0c0,.1,0,.2,0,.2h0s0,0,0,0h0s-.8,0-.8,0Z"/>
      <path class="cls-12" d="M47.8,18.7h0s0,0,0,0h0s0,0,0,0v-.8h0s0,0,0,0h0s0,0,0,0h.2s0,0,0,0h0s0,0,0,0v.8h0s0,0,0,0h0s0,0,0,0h-.1Z"/>
      <path class="cls-12" d="M47.4,18.7h0s0,0,0,0h0s0,0,0,0v-.8h0s0,0,0,0h0s0,0,0,0h.2s0,0,0,0h0s0,0,0,0v.8h0s0,0,0,0h0s0,0,0,0h-.1Z"/>
      <path class="cls-12" d="M46.9,18.7h0s0,0,0,0h0s0,0,0,0v-.8h0s0,0,0,0h0s0,0,0,0h.2s0,0,0,0h0s0,0,0,0v.8h0s0,0,0,0h0s0,0,0,0h-.1Z"/>
      <path class="cls-12" d="M46.4,18.7h0s0,0,0,0h0s0,0,0,0v-.8h0s0,0,0,0h0s0,0,0,0h.2s0,0,0,0h0s0,0,0,0v.8h0s0,0,0,0h0s0,0,0,0h-.1Z"/>
      <path class="cls-12" d="M45.9,18.7h0s0,0,0,0h0s0,0,0,0v-.8h0s0,0,0,0h0s0,0,0,0h.2s0,0,0,0h0s0,0,0,0v.8h0s0,0,0,0h0s0,0,0,0h-.1Z"/>
      <path class="cls-12" d="M45.5,18.7h0s0,0,0,0h0s0,0,0,0v-.8h0s0,0,0,0h0s0,0,0,0h.2s0,0,0,0h0s0,0,0,0v.8h0s0,0,0,0h0s0,0,0,0h-.1Z"/>
      <path class="cls-12" d="M45,18.7h0s0,0,0,0h0s0,0,0,0v-.8h0s0,0,0,0h0s0,0,0,0h.2s0,0,0,0h0s0,0,0,0v.8h0s0,0,0,0h0s0,0,0,0h-.1Z"/>
      <path class="cls-12" d="M44.5,18.7h0s0,0,0,0h0s0,0,0,0v-.8h0s0,0,0,0h0s0,0,0,0h.2s0,0,0,0h0s0,0,0,0v.8h0s0,0,0,0h0s0,0,0,0h-.1Z"/>
      <path class="cls-12" d="M44,18.7h0s0,0,0,0h0s0,0,0,0v-.8h0s0,0,0,0h0s0,0,0,0h.2s0,0,0,0h0s0,0,0,0v.8h0s0,0,0,0h0s0,0,0,0h-.1Z"/>
      <path class="cls-12" d="M43.6,18.7h0s0,0,0,0h0s0,0,0,0v-.8h0s0,0,0,0h0s0,0,0,0h.2s0,0,0,0h0s0,0,0,0v.8h0s0,0,0,0h0s0,0,0,0h-.1Z"/>
      <path class="cls-12" d="M42.5,19.1h0s0,0,0,0h0s0,0,0,0h0c0-.1,0-.2,0-.2h0s0,0,0,0h0s.8,0,.8,0h0s0,0,0,0h0s0,0,0,0h0c0,.1,0,.2,0,.2h0s0,0,0,0h0s-.8,0-.8,0Z"/>
      <path class="cls-12" d="M42.5,19.5h0s0,0,0,0h0s0,0,0,0h0c0-.1,0-.2,0-.2h0s0,0,0,0h0s.8,0,.8,0h0s0,0,0,0h0s0,0,0,0h0c0,.1,0,.2,0,.2h0s0,0,0,0h0s-.8,0-.8,0Z"/>
      <path class="cls-12" d="M42.5,20h0s0,0,0,0h0s0,0,0,0h0c0-.1,0-.2,0-.2h0s0,0,0,0h0s.8,0,.8,0h0s0,0,0,0h0s0,0,0,0h0c0,.1,0,.2,0,.2h0s0,0,0,0h0s-.8,0-.8,0Z"/>
      <path class="cls-12" d="M42.5,20.5h0s0,0,0,0h0s0,0,0,0h0c0-.1,0-.2,0-.2h0s0,0,0,0h0s.8,0,.8,0h0s0,0,0,0h0s0,0,0,0h0c0,.1,0,.2,0,.2h0s0,0,0,0h0s-.8,0-.8,0Z"/>
      <path class="cls-12" d="M42.5,21h0s0,0,0,0h0s0,0,0,0h0c0-.1,0-.2,0-.2h0s0,0,0,0h0s.8,0,.8,0h0s0,0,0,0h0s0,0,0,0h0c0,.1,0,.2,0,.2h0s0,0,0,0h0s-.8,0-.8,0Z"/>
      <path class="cls-12" d="M42.5,21.4h0s0,0,0,0h0s0,0,0,0h0c0-.1,0-.2,0-.2h0s0,0,0,0h0s.8,0,.8,0h0s0,0,0,0h0s0,0,0,0h0c0,.1,0,.2,0,.2h0s0,0,0,0h0s-.8,0-.8,0Z"/>
      <path class="cls-12" d="M42.5,21.9h0s0,0,0,0h0s0,0,0,0h0c0-.1,0-.2,0-.2h0s0,0,0,0h0s.8,0,.8,0h0s0,0,0,0h0s0,0,0,0h0c0,.1,0,.2,0,.2h0s0,0,0,0h0s-.8,0-.8,0Z"/>
      <path class="cls-12" d="M42.5,22.4h0s0,0,0,0h0s0,0,0,0h0c0-.1,0-.2,0-.2h0s0,0,0,0h0s.8,0,.8,0h0s0,0,0,0h0s0,0,0,0h0c0,.1,0,.2,0,.2h0s0,0,0,0h0s-.8,0-.8,0Z"/>
      <path class="cls-12" d="M42.5,22.9h0s0,0,0,0h0s0,0,0,0h0c0-.1,0-.2,0-.2h0s0,0,0,0h0s.8,0,.8,0h0s0,0,0,0h0s0,0,0,0h0c0,.1,0,.2,0,.2h0s0,0,0,0h0s-.8,0-.8,0Z"/>
      <path class="cls-12" d="M42.5,23.3h0s0,0,0,0h0s0,0,0,0h0c0-.1,0-.2,0-.2h0s0,0,0,0h0s.8,0,.8,0h0s0,0,0,0h0s0,0,0,0h0c0,.1,0,.2,0,.2h0s0,0,0,0h0s-.8,0-.8,0Z"/>
      <g id="USB-C_Vorne" data-name="USB-C Vorne">
        <g id="Loetpads">
          <rect class="cls-28" x="64.3" y="18.6" width=".2" height=".8"/>
          <rect class="cls-28" x="63.6" y="18.6" width=".2" height=".8"/>
          <rect class="cls-28" x="63.3" y="18.6" width=".2" height=".8"/>
          <rect class="cls-28" x="62.7" y="18.6" width=".2" height=".8"/>
          <rect class="cls-28" x="64.6" y="18.6" width=".2" height=".8"/>
          <rect class="cls-28" x="62.1" y="18.6" width=".2" height=".8"/>
          <rect class="cls-28" x="61.5" y="18.6" width=".2" height=".8"/>
          <rect class="cls-28" x="60.9" y="18.6" width=".2" height=".8"/>
          <rect class="cls-28" x="60.3" y="18.6" width=".2" height=".8"/>
          <rect class="cls-28" x="59.7" y="18.6" width=".2" height=".8"/>
          <rect class="cls-28" x="59.1" y="18.6" width=".2" height=".8"/>
          <rect class="cls-28" x="58.5" y="18.6" width=".2" height=".8"/>
          <rect class="cls-28" x="57.9" y="18.6" width=".2" height=".8"/>
          <rect class="cls-28" x="57.6" y="18.6" width=".2" height=".8"/>
          <rect class="cls-28" x="57" y="18.6" width=".2" height=".8"/>
          <rect class="cls-28" x="56.7" y="18.6" width=".2" height=".8"/>
        </g>
        <rect id="Bruecke_unten_links" class="cls-5" x="53.9" y="17.6" width="1.5" height=".9"/>
        <rect id="Brcke_unten_rechts" class="cls-5" x="66" y="17.6" width="1.5" height=".9"/>
        <path id="USB" class="cls-15" d="M66,10.9v1.8h0v5.9h-1.9s0,0,0,0c0,0,0,0,0,0,0,0,0,0,0,0,0,0,0,0,0,0,0,0,0,0,0,0,0,0,0-.1,0-.2v-.7c0,0,0-.2-.2-.2h-1.4c0,0-.2,0-.2.2h0c0,.1,0,.2,0,.2h0s0,0,0,0h0s0,0,0,0h.3v.7h-3.5v-.7h.3s0,0,.1,0c0,0,0,0,0,0,0,0,0,0,0,0,0,0,0,0,0,0h0c0-.2,0-.3-.2-.3h-1.4c-.1,0-.2,0-.2.2v.7c0,0,0,.1,0,.2,0,0,0,0,0,0,0,0,0,0,0,0,0,0,0,0,0,0,0,0,0,0,0,0,0,0,0,0,0,0h-1.9v-5.9h0v-1.8h10.6Z"/>
        <path id="Bruecke_oben_links" class="cls-5" d="M67.6,12.6v.4h-.3c-.1,0-.2,0-.2.2v.2c0,.1,0,.2.2.2h.3v.4h-1.5v-1.4h1.5Z"/>
        <path id="Bruecke_oben_links-2" data-name="Bruecke_oben_links" class="cls-5" d="M55.4,12.6v1.4h-1.5v-.4h.3c0,0,.2,0,.2-.2v-.2c0-.1,0-.2-.2-.2h-.3v-.4h1.5Z"/>
        <rect class="cls-5" x="57.9" y="16.3" width="1.4" height=".6" rx=".1" ry=".1"/>
        <rect class="cls-5" x="62.1" y="16.3" width="1.4" height=".6" rx=".1" ry=".1"/>
        <path class="cls-27" d="M64.1,18.6h-1.7v-.7h-.4s0,0,0,0h0c0,0,0,0,0-.1h0c0-.2,0-.3.2-.3h1.4c.1,0,.2,0,.2.2v.7c0,0,0,.1,0,.2,0,0,0,0,0,0,0,0,0,0,0,0,0,0,0,0,0,0,0,0,0,0,0,0,0,0,0,0,0,0Z"/>
        <path class="cls-27" d="M59.5,17.6h0c0,.1,0,.1,0,.2,0,0,0,0,0,0,0,0,0,0,0,0,0,0,0,0-.1,0h-.3v.7h-1.7s0,0,0,0c0,0,0,0,0,0,0,0,0,0,0,0,0,0,0,0,0,0,0,0,0,0,0,0,0,0,0-.1,0-.2v-.7c0,0,0-.2.2-.2h1.4c.1,0,.2,0,.2.2Z"/>
      </g>
      <g id="Reset-Taste">
        <g id="Button">
          <path class="cls-27" d="M70.8,11.7h0s0,0,0,0l-1.3,1.3h0s0,0,0,0h0s0-1.2,0-1.2c0-.1.1-.2.2-.2h1.2Z"/>
          <path class="cls-27" d="M73.1,15.3v1.2c0,.1-.1.2-.2.2h-1.2,0s0,0,0,0h0s1.4-1.4,1.4-1.4Z"/>
          <path class="cls-27" d="M73.1,12v1.2l-1.4-1.4h1.2c.1,0,.2.1.2.2Z"/>
          <path class="cls-27" d="M70.8,16.7h-1.2c-.1,0-.2-.1-.2-.2v-1.2h0s0,0,0,0h0s1.3,1.4,1.3,1.4h0s0,0,0,0h0Z"/>
          <path class="cls-15" d="M71.7,11.7h-1s0,0,0,0l-1.3,1.3h0s0,0,0,0h0v2.1h0s0,0,0,0h0s1.3,1.4,1.3,1.4h0s0,0,0,0h0s.9,0,.9,0h0s0,0,0,0h0s1.4-1.4,1.4-1.4v-2.1l-1.4-1.4ZM72.7,14.7c0,.8-.6,1.4-1.4,1.4s-1.4-.6-1.4-1.4v-.9c0-.8.6-1.4,1.4-1.4s1.4.6,1.4,1.4v.9Z"/>
          <path class="cls-26" d="M72.7,13.7v.9c0,.8-.6,1.4-1.4,1.4s-1.4-.6-1.4-1.4v-.9c0-.8.6-1.4,1.4-1.4s1.4.6,1.4,1.4Z"/>
        </g>
        <g id="Loetpads-2" data-name="Loetpads">
          <path class="cls-10" d="M70.3,16.7v.2s0,0,0,0h-.6s0,0,0,0v-.2h.8Z"/>
          <path class="cls-10" d="M72.9,16.7v.2s0,0,0,0h-.7s0,0,0,0v-.2h.8Z"/>
          <path class="cls-10" d="M72.9,11.5v.2h-.8v-.2s0,0,0,0h.7s0,0,0,0Z"/>
          <path class="cls-10" d="M70.3,11.5v.2h-.8v-.2s0,0,0,0h.6s0,0,0,0Z"/>
        </g>
      </g>
      <g id="Oscillator_Interface">
        <path class="cls-6" d="M38,15.8v3.3c0,.2-.1.3-.3.3h-2.4c-.2,0-.3-.1-.3-.3v-3.3c0-.2.1-.3.3-.3h2.4c.2,0,.3.1.3.3Z"/>
        <path class="cls-5" d="M37.9,15.8v3.3c0,.2-.1.3-.3.3h-2.3c-.2,0-.3-.1-.3-.3v-3.3c0-.2.1-.3.3-.3h2.3c.1,0,.3.1.3.3Z"/>
      </g>
      <path class="cls-12" d="M44.1,58.7v1.4h-1.7v-1.4h1.7Z"/>
      <path class="cls-12" d="M41.5,58.7v1.4h-1.7v-1.4h1.7Z"/>
      <path class="cls-12" d="M41.5,60.7v1.4h-1.7v-1.4h1.7Z"/>
      <path class="cls-12" d="M44.1,60.7v1.4h-1.7v-1.4h1.7Z"/>
      <g id="Oscillator_Interface-2" data-name="Oscillator_Interface">
        <path class="cls-6" d="M43.6,61.8h-3.3c-.2,0-.3-.1-.3-.3v-2.4c0-.2.1-.3.3-.3h3.3c.2,0,.3.1.3.3v2.4c0,.2-.1.3-.3.3Z"/>
        <path class="cls-5" d="M43.6,61.8h-3.3c-.2,0-.3-.1-.3-.3v-2.3c0-.2.1-.3.3-.3h3.3c.2,0,.3.1.3.3v2.3c0,.1-.1.3-.3.3Z"/>
      </g>
      <g id="Batterie">
        <polygon class="cls-15" points="89.1 56.6 88.8 57.1 88.7 57 88.6 56.9 88.5 56.8 88.4 56.7 88.3 56.7 88.3 56.7 88.2 56.6 88.2 56.6 86.7 55.5 86.7 55.5 86.7 55.5 86.7 55.4 86.7 55.4 86.4 55.1 86.4 55.1 86.6 54.8 86.7 54.8 87.1 55 87.1 55 87.1 55 88.5 56 88.6 56.2 88.6 56.2 88.6 56.2 88.7 56.2 88.7 56.2 88.8 56.3 88.9 56.4 89 56.4 89.1 56.5 89.1 56.6"/>
        <polygon class="cls-15" points="87.7 58.5 87.3 58.9 87.3 58.9 87.1 58.8 87.1 58.7 86.9 58.6 86.9 58.6 86.8 58.5 86.8 58.5 85.3 57.3 85.3 57.3 85.3 57.3 85.3 57.3 85 56.9 85 56.9 85.2 56.7 85.2 56.7 85.6 56.8 85.7 56.9 87.1 58 87.2 58 87.2 58.1 87.2 58.1 87.2 58.1 87.3 58.1 87.4 58.2 87.5 58.3 87.6 58.4 87.7 58.5"/>
        <polygon class="cls-13" points="88.9 60.2 88.9 60.2 88.5 60.7 88 60.3 87.6 60.7 86.6 59.9 86.9 59.5 87.3 59 88.4 59.8 88.9 60.2"/>
        <polygon class="cls-13" points="91.2 57.3 90.8 57.8 90.3 57.4 89.2 56.5 89.6 56 89.9 55.6 91 56.4 90.6 56.9 91.2 57.3"/>
        <rect class="cls-13" x="84.4" y="59.5" width=".9" height="1.9" transform="translate(-14.9 90.4) rotate(-52.2)"/>
        <rect class="cls-13" x="89.6" y="52.9" width=".9" height="1.9" transform="translate(-7.7 92) rotate(-52.2)"/>
        <polygon class="cls-3" points="96.4 58.9 96.1 59.3 95.6 59.8 95.5 60 95.2 60.4 94.1 61.9 93.6 62.4 92.5 63.8 92.2 64.3 92.1 64.4 91.6 65 91.3 65.4 91.2 65.3 91.1 65.2 90.6 64.8 90.6 64.8 90.2 65.2 88.2 63.6 85.9 61.9 85.4 61.4 85.9 60.7 86.6 59.9 87.6 60.7 88.2 61.2 90.3 62.8 90.6 62.4 91 61.9 90.1 61.2 88.9 60.2 88.4 59.8 87.3 59 87.3 58.9 87.7 58.5 88.8 57.1 89.2 56.6 89.2 56.5 90.3 57.4 90.8 57.8 92.9 59.5 93.3 59 93.7 58.5 91.5 56.9 91 56.4 89.9 55.6 90.5 54.8 91.1 54.1 91.7 54.5 93.9 56.3 96 57.9 95.6 58.3 95.6 58.3 96.2 58.8 96.3 58.9 96.4 58.9"/>
        <polygon class="cls-1" points="93.7 58.5 93.3 59 92.9 59.5 90.8 57.8 90.8 57.8 91.2 57.3 90.6 56.9 91 56.4 91.5 56.9 93.7 58.5"/>
        <polygon class="cls-1" points="91 61.9 90.6 62.4 90.3 62.8 88.2 61.2 87.6 60.7 88 60.3 88.5 60.7 88.9 60.2 90.1 61.2 91 61.9"/>
      </g>
      <rect class="cls-30" x="29" y="38.6" width="3.4" height="4" transform="translate(-19.7 33.6) rotate(-45)"/>
      <g id="Taste_A-2" data-name="Taste A">
        <polygon class="cls-5" points="30.2 46.2 29.6 46.8 29.1 46.3 29.1 46.3 29.1 46.3 29.1 46.2 29 46.2 28.9 46.1 28.9 46.1 28.8 46 28.7 45.9 28.3 45.5 28.9 44.9 29.4 45.4 29.5 45.5 29.5 45.5 29.5 45.6 29.6 45.7 29.7 45.7 29.8 45.8 30.2 46.2"/>
        <polygon class="cls-5" points="23.9 39.9 23.3 40.5 22.9 40.1 22.8 40 22.7 39.9 22.7 39.9 22.6 39.8 22.5 39.7 22.5 39.7 22 39.2 22.6 38.6 23 39 23 39.1 23.1 39.2 23.2 39.3 23.3 39.3 23.3 39.3 23.4 39.4 23.9 39.9"/>
        <polygon class="cls-5" points="27.6 36.1 27.1 36.7 26.7 36.3 26.6 36.2 26.5 36.1 26.5 36.1 26.4 36.1 26.2 35.9 26.2 35.9 26.2 35.8 25.8 35.5 26.4 34.9 26.8 35.3 26.9 35.4 27 35.5 27.1 35.5 27.1 35.6 27.2 35.6 27.3 35.7 27.6 36.1"/>
        <polygon class="cls-5" points="33.9 42.4 33.3 43 32.9 42.6 32.9 42.6 32.9 42.5 32.6 42.3 32.6 42.2 32.5 42.1 32.1 41.7 32.7 41.2 33.2 41.6 33.2 41.7 33.3 41.7 33.3 41.8 33.4 41.9 33.5 41.9 33.9 42.4"/>
        <path class="cls-21" d="M29.4,42.3c-.8.8-2.1.8-2.9,0-.8-.8-.8-2.1,0-2.9.8-.8,2.1-.8,2.9,0,.8.8.8,2.1,0,2.9Z"/>
        <path class="cls-15" d="M32.8,40.6l-4.6-4.6c-.1-.1-.3-.1-.4,0h-.1c0,.1-.6.7-.6.7l-3.2,3.2-.6.6h-.1c-.1.2-.1.4,0,.5l4.6,4.6c.1.1.3.1.4,0h.1c0-.1.6-.7.6-.7l3.2-3.2.6-.6h.1c.1-.2.1-.4,0-.5ZM27.6,36.8c.2-.2.6-.2.8,0,.2.2.2.6,0,.8-.2.2-.6.2-.8,0-.2-.2-.2-.6,0-.8ZM24.8,41.2c-.2.2-.6.2-.8,0-.2-.2-.2-.6,0-.8.2-.2.6-.2.8,0,.2.2.2.6,0,.8ZM28.4,44.9c-.2.2-.6.2-.8,0s-.2-.6,0-.8c.2-.2.6-.2.8,0,.2.2.2.6,0,.8ZM29.4,42.3c-.8.8-2.1.8-2.9,0-.8-.8-.8-2.1,0-2.9.8-.8,2.1-.8,2.9,0,.8.8.8,2.1,0,2.9ZM32,41.2c-.2.2-.6.2-.8,0-.2-.2-.2-.6,0-.8.2-.2.6-.2.8,0,.2.2.2.6,0,.8Z"/>
        <path class="cls-23" d="M32,41.2c-.2.2-.6.2-.8,0-.2-.2-.2-.6,0-.8.2-.2.6-.2.8,0,.2.2.2.6,0,.8Z"/>
        <path class="cls-23" d="M28.4,37.6c-.2.2-.6.2-.8,0-.2-.2-.2-.6,0-.8.2-.2.6-.2.8,0,.2.2.2.6,0,.8Z"/>
        <path class="cls-23" d="M24.8,41.2c-.2.2-.6.2-.8,0-.2-.2-.2-.6,0-.8.2-.2.6-.2.8,0,.2.2.2.6,0,.8Z"/>
        <path class="cls-23" d="M28.4,44.9c-.2.2-.6.2-.8,0s-.2-.6,0-.8c.2-.2.6-.2.8,0,.2.2.2.6,0,.8Z"/>
      </g>
      <g id="Interface-Prozessor">
        <g id="_3DSOLID" data-name="3DSOLID" class="cls-37">
          <path class="cls-10" d="M46.8,24.1v.4h-.3v-.4c0,0,0-.1.1-.1s.1,0,.1.1Z"/>
          <path class="cls-10" d="M44.6,24.1v.4h-.3v-.4c0,0,0-.1.1-.1s.1,0,.1.1Z"/>
          <path class="cls-10" d="M43,23.5c0,0,0,.1-.1.1h-.4v-.3h.4c0,0,.1,0,.1.1Z"/>
          <path class="cls-10" d="M43,23c0,0,0,.1-.1.1h-.4v-.3h.4c0,0,.1,0,.1.1Z"/>
          <path class="cls-10" d="M43,22.4c0,0,0,.1-.1.1h-.4v-.3h.4c0,0,.1,0,.1.1Z"/>
          <path class="cls-10" d="M43,21.9c0,0,0,.1-.1.1h-.4v-.3h.4c0,0,.1,0,.1.1Z"/>
          <path class="cls-10" d="M43,21.4c0,0,0,.1-.1.1h-.4v-.3h.4c0,0,.1,0,.1.1Z"/>
          <path class="cls-10" d="M43,20.8c0,0,0,.1-.1.1h-.4v-.3h.4c0,0,.1,0,.1.1Z"/>
          <path class="cls-10" d="M43,20.3c0,0,0,.1-.1.1h-.4v-.3h.4c0,0,.1,0,.1.1Z"/>
          <path class="cls-10" d="M43,19.7c0,0,0,.1-.1.1h-.4v-.3h.4c0,0,.1,0,.1.1Z"/>
          <path class="cls-10" d="M43,19.2c0,0,0,.1-.1.1h-.4v-.3h.4c0,0,.1,0,.1.1Z"/>
          <path class="cls-10" d="M43,18.7c0,0,0,.1-.1.1h-.4v-.3h.4c0,0,.1,0,.1.1Z"/>
          <path class="cls-10" d="M44.6,17.7v.4c0,0,0,.1-.1.1s-.1,0-.1-.1v-.4h.3Z"/>
          <path class="cls-10" d="M46.8,17.7v.4c0,0,0,.1-.1.1s-.1,0-.1-.1v-.4h.3Z"/>
          <path class="cls-10" d="M48.4,24.1v.4h-.3v-.4c0,0,0-.1.1-.1s.1,0,.1.1Z"/>
          <path class="cls-10" d="M47.8,24.1v.4h-.3v-.4c0,0,0-.1.1-.1s.1,0,.1.1Z"/>
          <path class="cls-10" d="M47.3,24.1v.4h-.3v-.4c0,0,0-.1.1-.1s.1,0,.1.1Z"/>
          <path class="cls-10" d="M46.2,24.1v.4h-.3v-.4c0,0,0-.1.1-.1s.1,0,.1.1Z"/>
          <path class="cls-10" d="M45.7,24.1v.4h-.3v-.4c0,0,0-.1.1-.1s.1,0,.1.1Z"/>
          <path class="cls-10" d="M45.1,24.1v.4h-.3v-.4c0,0,0-.1.1-.1s.1,0,.1.1Z"/>
          <path class="cls-10" d="M44.1,24.1v.4h-.3v-.4c0,0,0-.1.1-.1s.1,0,.1.1Z"/>
          <path class="cls-10" d="M43.5,24.1v.4h-.3v-.4c0,0,0-.1.1-.1s.1,0,.1.1Z"/>
          <path class="cls-10" d="M43.5,17.7v.4c0,0,0,.1-.1.1s-.1,0-.1-.1v-.4h.3Z"/>
          <path class="cls-10" d="M44.1,17.7v.4c0,0,0,.1-.1.1s-.1,0-.1-.1v-.4h.3Z"/>
          <path class="cls-10" d="M49.2,22.8v.3h-.4c0,0-.1,0-.1-.1s0-.1.1-.1h.4Z"/>
          <path class="cls-10" d="M49.2,22.3v.3h-.4c0,0-.1,0-.1-.1s0-.1.1-.1h.4Z"/>
          <path class="cls-10" d="M45.1,17.7v.4c0,0,0,.1-.1.1s-.1,0-.1-.1v-.4h.3Z"/>
          <path class="cls-10" d="M49.2,21.8v.3h-.4c0,0-.1,0-.1-.1s0-.1.1-.1h.4Z"/>
          <path class="cls-10" d="M45.7,17.7v.4c0,0,0,.1-.1.1s-.1,0-.1-.1v-.4h.3Z"/>
          <path class="cls-10" d="M49.2,21.2v.3h-.4c0,0-.1,0-.1-.1s0-.1.1-.1h.4Z"/>
          <path class="cls-10" d="M46.2,17.7v.4c0,0,0,.1-.1.1s-.1,0-.1-.1v-.4h.3Z"/>
          <path class="cls-10" d="M49.2,20.7v.3h-.4c0,0-.1,0-.1-.1s0-.1.1-.1h.4Z"/>
          <path class="cls-10" d="M49.2,20.2v.3h-.4c0,0-.1,0-.1-.1s0-.1.1-.1h.4Z"/>
          <path class="cls-10" d="M47.3,17.7v.4c0,0,0,.1-.1.1s-.1,0-.1-.1v-.4h.3Z"/>
          <path class="cls-10" d="M49.2,19.6v.3h-.4c0,0-.1,0-.1-.1s0-.1.1-.1h.4Z"/>
          <path class="cls-10" d="M47.8,17.7v.4c0,0,0,.1-.1.1s-.1,0-.1-.1v-.4h.3Z"/>
          <path class="cls-10" d="M49.2,19.1v.3h-.4c0,0-.1,0-.1-.1s0-.1.1-.1h.4Z"/>
          <path class="cls-10" d="M48.4,17.7v.4c0,0,0,.1-.1.1s-.1,0-.1-.1v-.4h.3Z"/>
          <path class="cls-10" d="M49.2,18.5v.3h-.4c0,0-.1,0-.1-.1s0-.1.1-.1h.4Z"/>
          <path class="cls-10" d="M49.2,23.4v.3h-.4c0,0-.1,0-.1-.1s0-.1.1-.1h.4Z"/>
        </g>
        <rect class="cls-23" x="42.9" y="18.1" width="5.9" height="5.9" rx=".2" ry=".2"/>
      </g>
      <g id="Steckleiste">
        <path class="cls-23" d="M38.3,66.6v5.5c0,.1.1.2.2.2h45.2c.1,0,.2-.1.2-.2v-5.5c0-.1-.1-.2-.2-.2h-45.2c-.1,0-.2.1-.2.2ZM61.8,67v1.5h-1.5v-1.5h1.5ZM40.7,71.5h-1.5v-1.5h1.5v1.5ZM40.7,68.5h-1.5v-1.5h1.5v1.5ZM43.8,71.5h-1.5v-1.5h1.5v1.5ZM43.8,68.5h-1.5v-1.5h1.5v1.5ZM46.8,71.5h-1.5v-1.5h1.5v1.5ZM46.8,68.5h-1.5v-1.5h1.5v1.5ZM49.8,71.5h-1.5v-1.5h1.5v1.5ZM49.8,68.5h-1.5v-1.5h1.5v1.5ZM52.8,71.5h-1.5v-1.5h1.5v1.5ZM52.8,68.5h-1.5v-1.5h1.5v1.5ZM55.8,71.5h-1.5v-1.5h1.5v1.5ZM55.8,68.5h-1.5v-1.5h1.5v1.5ZM58.8,71.5h-1.5v-1.5h1.5v1.5ZM58.8,68.5h-1.5v-1.5h1.5v1.5ZM61.8,71.5h-1.5v-1.5h1.5v1.5ZM64.8,71.5h-1.5v-1.5h1.5v1.5ZM64.8,68.5h-1.5v-1.5h1.5v1.5ZM67.8,71.5h-1.5v-1.5h1.5v1.5ZM67.8,68.5h-1.5v-1.5h1.5v1.5ZM70.8,71.5h-1.5v-1.5h1.5v1.5ZM70.8,68.5h-1.5v-1.5h1.5v1.5ZM73.9,71.5h-1.5v-1.5h1.5v1.5ZM73.9,68.5h-1.5v-1.5h1.5v1.5ZM76.9,71.5h-1.5v-1.5h1.5v1.5ZM76.9,68.5h-1.5v-1.5h1.5v1.5ZM79.9,71.5h-1.5v-1.5h1.5v1.5ZM79.9,68.5h-1.5v-1.5h1.5v1.5ZM82.9,71.5h-1.5v-1.5h1.5v1.5ZM82.9,68.5h-1.5v-1.5h1.5v1.5Z"/>
        <g id="Aussen">
          <path class="cls-23" d="M39.2,70v1.5h1.5v-1.5h-1.5ZM40.5,71.3h-1v-1h1v1Z"/>
          <path class="cls-23" d="M42.3,70v1.5h1.5v-1.5h-1.5ZM43.5,71.3h-1v-1h1v1Z"/>
          <path class="cls-23" d="M45.3,70v1.5h1.5v-1.5h-1.5ZM46.5,71.3h-1v-1h1v1Z"/>
          <path class="cls-23" d="M48.3,70v1.5h1.5v-1.5h-1.5ZM49.5,71.3h-1v-1h1v1Z"/>
          <path class="cls-23" d="M51.3,70v1.5h1.5v-1.5h-1.5ZM52.6,71.3h-1v-1h1v1Z"/>
          <path class="cls-23" d="M54.3,70v1.5h1.5v-1.5h-1.5ZM55.6,71.3h-1v-1h1v1Z"/>
          <path class="cls-23" d="M57.3,70v1.5h1.5v-1.5h-1.5ZM58.6,71.3h-1v-1h1v1Z"/>
          <path class="cls-23" d="M60.3,70v1.5h1.5v-1.5h-1.5ZM61.6,71.3h-1v-1h1v1Z"/>
          <path class="cls-23" d="M63.3,70v1.5h1.5v-1.5h-1.5ZM64.6,71.3h-1v-1h1v1Z"/>
          <path class="cls-23" d="M66.3,70v1.5h1.5v-1.5h-1.5ZM67.6,71.3h-1v-1h1v1Z"/>
          <path class="cls-23" d="M69.4,70v1.5h1.5v-1.5h-1.5ZM70.6,71.3h-1v-1h1v1Z"/>
          <path class="cls-23" d="M72.4,70v1.5h1.5v-1.5h-1.5ZM73.6,71.3h-1v-1h1v1Z"/>
          <path class="cls-23" d="M75.4,70v1.5h1.5v-1.5h-1.5ZM76.6,71.3h-1v-1h1v1Z"/>
          <path class="cls-23" d="M78.4,70v1.5h1.5v-1.5h-1.5ZM79.6,71.3h-1v-1h1v1Z"/>
          <path class="cls-23" d="M81.4,70v1.5h1.5v-1.5h-1.5ZM82.7,71.3h-1v-1h1v1Z"/>
          <path class="cls-23" d="M39.2,67v1.5h1.5v-1.5h-1.5ZM40.5,68.3h-1v-1h1v1Z"/>
          <path class="cls-23" d="M42.3,67v1.5h1.5v-1.5h-1.5ZM43.5,68.3h-1v-1h1v1Z"/>
          <path class="cls-23" d="M45.3,67v1.5h1.5v-1.5h-1.5ZM46.5,68.3h-1v-1h1v1Z"/>
          <path class="cls-23" d="M48.3,67v1.5h1.5v-1.5h-1.5ZM49.5,68.3h-1v-1h1v1Z"/>
          <path class="cls-23" d="M51.3,67v1.5h1.5v-1.5h-1.5ZM52.6,68.3h-1v-1h1v1Z"/>
          <path class="cls-23" d="M54.3,67v1.5h1.5v-1.5h-1.5ZM55.6,68.3h-1v-1h1v1Z"/>
          <path class="cls-23" d="M57.3,67v1.5h1.5v-1.5h-1.5ZM58.6,68.3h-1v-1h1v1Z"/>
          <path class="cls-23" d="M60.3,67v1.5h1.5v-1.5h-1.5ZM61.6,68.3h-1v-1h1v1Z"/>
          <path class="cls-23" d="M63.3,67v1.5h1.5v-1.5h-1.5ZM64.6,68.3h-1v-1h1v1Z"/>
          <path class="cls-23" d="M66.3,67v1.5h1.5v-1.5h-1.5ZM67.6,68.3h-1v-1h1v1Z"/>
          <path class="cls-23" d="M69.4,67v1.5h1.5v-1.5h-1.5ZM70.6,68.3h-1v-1h1v1Z"/>
          <path class="cls-23" d="M72.4,67v1.5h1.5v-1.5h-1.5ZM73.6,68.3h-1v-1h1v1Z"/>
          <path class="cls-23" d="M75.4,67v1.5h1.5v-1.5h-1.5ZM76.6,68.3h-1v-1h1v1Z"/>
          <path class="cls-23" d="M78.4,67v1.5h1.5v-1.5h-1.5ZM79.6,68.3h-1v-1h1v1Z"/>
          <path class="cls-23" d="M81.4,67v1.5h1.5v-1.5h-1.5ZM82.7,68.3h-1v-1h1v1Z"/>
        </g>
        <g id="Innen">
          <rect class="cls-34" x="39.5" y="70.3" width="1" height="1"/>
          <rect class="cls-34" x="42.5" y="70.3" width="1" height="1"/>
          <rect class="cls-34" x="45.5" y="70.3" width="1" height="1"/>
          <rect class="cls-34" x="48.5" y="70.3" width="1" height="1"/>
          <rect class="cls-34" x="51.5" y="70.3" width="1" height="1"/>
          <rect class="cls-34" x="54.5" y="70.3" width="1" height="1"/>
          <rect class="cls-34" x="57.5" y="70.3" width="1" height="1"/>
          <rect class="cls-34" x="60.6" y="70.3" width="1" height="1"/>
          <rect class="cls-34" x="63.6" y="70.3" width="1" height="1"/>
          <rect class="cls-34" x="66.6" y="70.3" width="1" height="1"/>
          <rect class="cls-34" x="69.6" y="70.3" width="1" height="1"/>
          <rect class="cls-34" x="72.6" y="70.3" width="1" height="1"/>
          <rect class="cls-34" x="75.6" y="70.3" width="1" height="1"/>
          <rect class="cls-34" x="78.6" y="70.3" width="1" height="1"/>
          <rect class="cls-34" x="81.6" y="70.3" width="1" height="1"/>
          <rect class="cls-34" x="39.5" y="67.3" width="1" height="1"/>
          <rect class="cls-34" x="42.5" y="67.3" width="1" height="1"/>
          <rect class="cls-34" x="45.5" y="67.3" width="1" height="1"/>
          <rect class="cls-34" x="48.5" y="67.3" width="1" height="1"/>
          <rect class="cls-34" x="51.5" y="67.3" width="1" height="1"/>
          <rect class="cls-34" x="54.5" y="67.3" width="1" height="1"/>
          <rect class="cls-34" x="57.5" y="67.3" width="1" height="1"/>
          <rect class="cls-34" x="60.6" y="67.3" width="1" height="1"/>
          <rect class="cls-34" x="63.6" y="67.3" width="1" height="1"/>
          <path id="_Pfad_" data-name="&amp;lt;Pfad&amp;gt;" class="cls-34" d="M67.6,68.3h-1v-1h1v1Z"/>
          <rect class="cls-34" x="69.6" y="67.3" width="1" height="1"/>
          <rect class="cls-34" x="72.6" y="67.3" width="1" height="1"/>
          <rect class="cls-34" x="75.6" y="67.3" width="1" height="1"/>
          <rect class="cls-34" x="78.6" y="67.3" width="1" height="1"/>
          <rect class="cls-34" x="81.6" y="67.3" width="1" height="1"/>
        </g>
      </g>
    </g>
    <g>
      <rect class="cls-4" x="64.2" y="28.1" width="1.7" height="3.1" rx=".5" ry=".5" transform="translate(130 59.2) rotate(180)"/>
      <rect class="cls-4" x="54.7" y="28.1" width="1.7" height="3.1" rx=".5" ry=".5" transform="translate(111 59.2) rotate(180)"/>
      <rect class="cls-4" x="64.2" y="32.8" width="1.7" height="3.1" rx=".5" ry=".5" transform="translate(130 68.7) rotate(180)"/>
      <rect class="cls-4" x="59.4" y="32.8" width="1.7" height="3.1" rx=".5" ry=".5" transform="translate(120.5 68.7) rotate(180)"/>
      <rect class="cls-4" x="68.9" y="32.8" width="1.7" height="3.1" rx=".5" ry=".5" transform="translate(139.5 68.7) rotate(180)"/>
      <rect class="cls-4" x="54.7" y="32.8" width="1.7" height="3.1" rx=".5" ry=".5" transform="translate(111 68.7) rotate(180)"/>
      <rect class="cls-4" x="49.9" y="32.8" width="1.7" height="3.1" rx=".5" ry=".5" transform="translate(101.5 68.7) rotate(180)"/>
      <rect class="cls-4" x="64.2" y="37.6" width="1.7" height="3.1" rx=".5" ry=".5" transform="translate(130 78.2) rotate(180)"/>
      <rect class="cls-4" x="59.4" y="37.6" width="1.7" height="3.1" rx=".5" ry=".5" transform="translate(120.5 78.2) rotate(180)"/>
      <rect class="cls-4" x="68.9" y="37.6" width="1.7" height="3.1" rx=".5" ry=".5" transform="translate(139.5 78.2) rotate(180)"/>
      <rect class="cls-4" x="54.7" y="37.6" width="1.7" height="3.1" rx=".5" ry=".5" transform="translate(111 78.2) rotate(180)"/>
      <rect class="cls-4" x="49.9" y="37.6" width="1.7" height="3.1" rx=".5" ry=".5" transform="translate(101.5 78.2) rotate(180)"/>
      <rect class="cls-4" x="64.2" y="42.3" width="1.7" height="3.1" rx=".5" ry=".5" transform="translate(130 87.7) rotate(180)"/>
      <rect class="cls-4" x="59.4" y="42.3" width="1.7" height="3.1" rx=".5" ry=".5" transform="translate(120.5 87.7) rotate(180)"/>
      <rect class="cls-4" x="54.7" y="42.3" width="1.7" height="3.1" rx=".5" ry=".5" transform="translate(111 87.7) rotate(180)"/>
      <rect class="cls-4" x="59.4" y="47.1" width="1.7" height="3.1" rx=".5" ry=".5" transform="translate(120.5 97.2) rotate(180)"/>
      <rect class="cls-4" x="64.2" y="32.8" width="1.7" height="3.1" rx=".5" ry=".5" transform="translate(130 68.7) rotate(180)"/>
      <rect class="cls-4" x="59.4" y="32.8" width="1.7" height="3.1" rx=".5" ry=".5" transform="translate(120.5 68.7) rotate(180)"/>
      <rect class="cls-4" x="68.9" y="32.8" width="1.7" height="3.1" rx=".5" ry=".5" transform="translate(139.5 68.7) rotate(180)"/>
      <rect class="cls-4" x="54.7" y="32.8" width="1.7" height="3.1" rx=".5" ry=".5" transform="translate(111 68.7) rotate(180)"/>
      <rect class="cls-4" x="49.9" y="32.8" width="1.7" height="3.1" rx=".5" ry=".5" transform="translate(101.5 68.7) rotate(180)"/>
    </g>
  </g>
</svg>