<?xml version="1.0" encoding="UTF-8"?>
<svg id="Ebene_2" data-name="Ebene 2" xmlns="http://www.w3.org/2000/svg" version="1.1" viewBox="0 0 305.2 308.9">
  <defs>
    <style>
      .cls-1 {
        fill: #071411;
      }

      .cls-1, .cls-2, .cls-3 {
        stroke-width: 0px;
      }

      .cls-2 {
        fill: #56bebf;
      }

      .cls-3 {
        fill: #fff;
      }
    </style>
  </defs>
  <g id="Ebene_1-2" data-name="Ebene 1-2">
    <g>
      <path class="cls-2" d="M157.2,124.5c-.8-6.8,2.3-12.7,6.8-13.2,4.5-.5,8.8,4.6,9.5,11.4.8,6.8-2.3,12.7-6.8,13.2-4.5.5-8.8-4.6-9.5-11.4h0Z"/>
      <path class="cls-2" d="M115.8,115.9c4.5-.5,8.8,4.6,9.5,11.4.8,6.8-2.3,12.7-6.8,13.2s-8.8-4.6-9.5-11.4c-.8-6.8,2.3-12.7,6.8-13.2Z"/>
      <path class="cls-2" d="M101,173.5c-1.2-10.8,19.3-9,44.4-11.8,25.1-2.8,45.4-9.3,46.6,1.5,1.2,10.8-17.1,31.4-42.2,34.3s-47.6-13.2-48.8-24h0Z"/>
      <g>
        <g>
          <path class="cls-1" d="M115.8,115.9c4.5-.5,8.8,4.6,9.5,11.4.8,6.8-2.3,12.7-6.8,13.2s-8.8-4.6-9.5-11.4c-.8-6.8,2.3-12.7,6.8-13.2Z"/>
          <circle class="cls-3" cx="117.6" cy="124.8" r="3"/>
        </g>
        <g>
          <path class="cls-1" d="M157.2,124.5c-.8-6.8,2.3-12.7,6.8-13.2,4.5-.5,8.8,4.6,9.5,11.4.8,6.8-2.3,12.7-6.8,13.2-4.5.5-8.8-4.6-9.5-11.4h0Z"/>
          <circle class="cls-3" cx="165.8" cy="120.2" r="3"/>
        </g>
        <path class="cls-1" d="M101,173.5c-1.2-10.8,19.3-9,44.4-11.8,25.1-2.8,45.4-9.3,46.6,1.5,1.2,10.8-17.1,31.4-42.2,34.3s-47.6-13.2-48.8-24h0Z"/>
      </g>
    </g>
    <path class="cls-2" d="M13.7,117.5c-20.4,15.9-17.5,48,5.4,59.7l8.1,4.1c-5.1,9-8.1,21.1-1,32.8,6.9,11.5,20,21.3,36.5,27.5,4.6,24.4,32.3,36.6,53,22.6l13.9-9.3c-.7,6-1.6,12-2.8,14.4-2.6,5.5-12.3,25.9-12.3,25.9-.9,2.8.5,5.8,3.2,6.8,9.1,3.4,28.6,10.1,29.7,5.2,1-4.7-11.1-11.5-16.6-14.6-2-1.1-4.6-2.1-2.6-5.9,0,0,8.6-12.5,9.6-15.8,1.4-4.7,2.3-15.7,2.8-23,1.9-.9,4.3-1.7,7.7-2.4,3.1-.6,6.2-.8,9.3-.5,0,0,0,0,.1,0,.5,1.8,6.4,22.1,5.5,27.9-1,6-6.1,29.7-6.1,29.7,0,2.9,2.1,5.4,4.9,5.6,9.7.7,30.3,1.8,30-3.2-.4-4.8-13.8-8-20-9.5-2.2-.5-2.9-2-2.3-4.6,0,0,4.4-16.1,4.5-19.5,0-5.3-3.1-16.8-5.1-23.4l21,8.9c23.6,10,49.5-8.7,48-34.8l-1.4-24.4c-.1-2.1,0-4.2.2-6.2,4.9,4.3,11.3,7.3,19.1,7.3s1.1,0,1.7,0c14.9-.8,31.6-9.4,45.8-23.4,2.2-2.2,2.2-5.7,0-7.9-2.2-2.2-5.7-2.2-7.9,0-12.1,12-26.5,19.5-38.6,20.2-7.6.4-12.9-3.6-16.5-8.3,2.3-4.6,5.6-8.6,9.7-11.8l19.1-14.9c20.6-15.9,17.7-48-5.2-59.7l-21.4-10.9c-10.3-5.3-17.4-15.4-18.8-27l-3-24.3c-3.2-25.9-32-39.3-53.4-24.9l-20.2,13.5c-9.6,6.5-21.8,7.7-32.4,3.2l-22.1-9.4c-23.6-10-49.5,8.7-48,34.8l1.4,24.4c.7,11.7-4.4,23-13.6,30.2l-19.1,14.9h0ZM118.6,140.6c-4.5.5-8.8-4.6-9.5-11.4-.8-6.8,2.3-12.7,6.8-13.2,4.5-.5,8.8,4.6,9.5,11.4.8,6.8-2.3,12.7-6.8,13.2ZM173.5,122.7c.8,6.8-2.3,12.7-6.8,13.2-4.5.5-8.8-4.6-9.5-11.4-.8-6.8,2.3-12.7,6.8-13.2,4.5-.5,8.8,4.6,9.5,11.4h0ZM101,173.5c-1.2-10.8,19.3-9,44.4-11.8,25.1-2.8,45.4-9.3,46.6,1.5,1.2,10.8-17.1,31.4-42.2,34.3s-47.6-13.2-48.8-24h0ZM35.9,188.7c.4-.8.9-1.6,1.3-2.4l3.3,1.6c10.3,5.3,17.4,15.4,18.8,27l1.7,13.8c-11.4-5.2-20.4-12.5-25.2-20.5-3.5-5.8-3.5-12.4.1-19.5Z"/>
  </g>
</svg>