<?xml version="1.0" encoding="UTF-8"?>
<svg id="Ebene_2" data-name="Ebene 2" xmlns="http://www.w3.org/2000/svg" viewBox="0 0 302.72 309.07">
  <defs>
    <style>
      .cls-1 {
        fill: #56bebf;
      }

      .cls-1, .cls-2, .cls-3 {
        stroke-width: 0px;
      }

      .cls-2 {
        fill: #071411;
      }

      .cls-3 {
        fill: #fff;
      }
    </style>
  </defs>
  <g id="Ebene_1-2" data-name="Ebene 1">
    <g>
      <path class="cls-1" d="M145.53,124.5c-.77,6.81-5.03,11.91-9.54,11.41-4.5-.51-7.52-6.44-6.76-13.24.77-6.81,5.04-11.92,9.54-11.41s7.53,6.44,6.76,13.24Z"/>
      <path class="cls-1" d="M193.65,129.18c-.76,6.8-5.03,11.91-9.53,11.4s-7.53-6.43-6.76-13.24c.76-6.8,5.03-11.91,9.53-11.4,4.5.5,7.53,6.43,6.76,13.24Z"/>
      <path class="cls-1" d="M201.73,173.49c-1.2,10.8-23.7,26.9-48.8,24-25.1-2.9-43.4-23.5-42.2-34.3,1.2-10.8,21.5-4.3,46.6-1.5,25.1,2.8,45.6,1,44.4,11.8Z"/>
      <g>
        <g>
          <path class="cls-2" d="M193.65,129.18c-.76,6.8-5.03,11.91-9.53,11.4s-7.53-6.43-6.76-13.24c.76-6.8,5.03-11.91,9.53-11.4,4.5.5,7.53,6.43,6.76,13.24Z"/>
          <circle class="cls-3" cx="185.13" cy="124.8" r="3"/>
        </g>
        <g>
          <path class="cls-2" d="M145.53,124.5c-.77,6.81-5.03,11.91-9.54,11.41-4.5-.51-7.52-6.44-6.76-13.24.77-6.81,5.04-11.92,9.54-11.41s7.53,6.44,6.76,13.24Z"/>
          <circle class="cls-3" cx="136.93" cy="120.2" r="3"/>
        </g>
        <path class="cls-2" d="M201.73,173.49c-1.2,10.8-23.7,26.9-48.8,24-25.1-2.9-43.4-23.5-42.2-34.3,1.2-10.8,21.5-4.3,46.6-1.5,25.1,2.8,45.6,1,44.4,11.8Z"/>
      </g>
    </g>
    <path class="cls-1" d="M289.03,117.49l-19.1-14.9c-9.2-7.2-14.3-18.5-13.6-30.2l1.4-24.4c1.5-26.1-24.4-44.8-48-34.8l-22.1,9.4c-10.6,4.5-22.8,3.3-32.4-3.2l-20.2-13.5c-21.4-14.4-50.2-1-53.4,24.9l-3,24.3c-1.4,11.6-8.5,21.7-18.8,27l-21.4,10.9c-22.9,11.7-25.8,43.8-5.2,59.7l19.1,14.9c3.54,2.77,6.46,6.14,8.68,9.91-1.48,1.14-3.26,2.34-5.26,3.39-7.09,3.73-13.66,3.91-19.53.53-10.45-6.02-19.92-19.25-25.33-35.39-.98-2.93-4.15-4.51-7.08-3.53-2.92.98-4.5,4.15-3.52,7.08,6.34,18.94,17.41,34.08,30.35,41.53,4.79,2.76,9.62,3.87,14.25,3.87,7.62,0,14.72-3.01,20.32-6.7.66,3.09.91,6.28.72,9.51l-1.4,24.4c-1.5,26.1,24.4,44.8,48,34.8l21.4-9.1c1.47-.5,2.94-.96,4.41-1.37-2.88,4.78-5.67,9.87-6.61,13.04-.91,3.28-1.31,20-1.31,20-.11,2.73-1.23,3.92-3.5,3.78-6.33-.35-20.11-1.13-21.84,3.35-1.71,4.71,18.28,9.6,27.82,11.68,2.75.61,5.57-1.17,6.32-3.98,0,0,1.87-24.15,2.66-30.22.51-3.84,5.73-12.96,9.49-19.13,1.02.1,2.04.25,3.06.45,5.81,1.29,8.67,2.78,11.1,4.3.5.3.9.6,1.4.9l2.02,1.36c-.53,6.58-1.11,15.05-.94,19.38.2,3.4,3.2,19,3.2,19-.1,2.4-1.7,4.5-3.9,5.1-6.1,1.7-19.4,5.4-19.6,10.2-.1,5,20.4,3.2,30.1,2.1,2.8-.3,4.9-2.9,4.7-5.8,0,0-2.2-23.5-3.4-29.5-.52-2.6-.46-8.25-.22-13.81l8.14,5.47c21.4,14.4,50.2,1,53.4-24.9l3-24.3c1.4-11.6,8.5-21.7,18.8-27l10.74-5.42c4.44,4.36,8.3,10.64,6.54,18.63-2.59,11.78-12.35,24.8-26.11,34.82-2.5,1.81-3.05,5.31-1.23,7.81,1.09,1.5,2.79,2.3,4.52,2.3,1.14,0,2.29-.35,3.29-1.08,16.15-11.75,27.25-26.86,30.45-41.46,2.35-10.71-1.5-19.6-7.11-26.24l.31-.16c22.9-11.7,25.8-43.8,5.4-59.7ZM177.36,127.34c.76-6.8,5.03-11.91,9.53-11.4,4.5.5,7.53,6.43,6.76,13.24-.76,6.8-5.03,11.91-9.53,11.4s-7.53-6.43-6.76-13.24ZM129.23,122.67c.77-6.81,5.04-11.92,9.54-11.41s7.53,6.44,6.76,13.24c-.77,6.81-5.03,11.91-9.54,11.41-4.5-.51-7.52-6.44-6.76-13.24ZM201.73,173.49c-1.2,10.8-23.7,26.9-48.8,24-25.1-2.9-43.4-23.5-42.2-34.3,1.2-10.8,21.5-4.3,46.6-1.5,25.1,2.8,45.6,1,44.4,11.8Z"/>
  </g>
</svg>