<?xml version="1.0" encoding="UTF-8"?>
<svg id="Ebene_2" data-name="Ebene 2" xmlns="http://www.w3.org/2000/svg" viewBox="0 0 305.25 308.9">
  <defs>
    <style>
      .cls-1 {
        fill: #56bebf;
      }

      .cls-1, .cls-2, .cls-3 {
        stroke-width: 0px;
      }

      .cls-2 {
        fill: #071411;
      }

      .cls-3 {
        fill: #fff;
      }
    </style>
  </defs>
  <g id="Ebene_1-2" data-name="Ebene 1">
    <g>
      <path class="cls-1" d="M148.07,124.5c-.77,6.81-5.04,11.91-9.54,11.41-4.5-.51-7.53-6.44-6.76-13.24.77-6.81,5.03-11.92,9.53-11.41,4.51.51,7.53,6.44,6.77,13.24Z"/>
      <path class="cls-1" d="M196.19,129.18c-.77,6.8-5.04,11.91-9.54,11.4s-7.53-6.43-6.76-13.24c.77-6.8,5.04-11.91,9.54-11.4,4.5.5,7.52,6.43,6.76,13.24Z"/>
      <path class="cls-1" d="M204.26,173.49c-1.2,10.8-23.7,26.9-48.8,24-25.1-2.9-43.4-23.5-42.2-34.3,1.2-10.8,21.5-4.3,46.6-1.5,25.1,2.8,45.6,1,44.4,11.8Z"/>
      <g>
        <g>
          <path class="cls-2" d="M196.19,129.18c-.77,6.8-5.04,11.91-9.54,11.4s-7.53-6.43-6.76-13.24c.77-6.8,5.04-11.91,9.54-11.4,4.5.5,7.52,6.43,6.76,13.24Z"/>
          <circle class="cls-3" cx="187.67" cy="124.8" r="3"/>
        </g>
        <g>
          <path class="cls-2" d="M148.07,124.5c-.77,6.81-5.04,11.91-9.54,11.41-4.5-.51-7.53-6.44-6.76-13.24.77-6.81,5.03-11.92,9.53-11.41,4.51.51,7.53,6.44,6.77,13.24Z"/>
          <circle class="cls-3" cx="139.47" cy="120.2" r="3"/>
        </g>
        <path class="cls-2" d="M204.26,173.49c-1.2,10.8-23.7,26.9-48.8,24-25.1-2.9-43.4-23.5-42.2-34.3,1.2-10.8,21.5-4.3,46.6-1.5,25.1,2.8,45.6,1,44.4,11.8Z"/>
      </g>
    </g>
    <path class="cls-1" d="M291.56,117.49l-19.1-14.9c-9.2-7.2-14.3-18.5-13.6-30.2l1.4-24.4c1.5-26.1-24.4-44.8-48-34.8l-22.1,9.4c-10.6,4.5-22.8,3.3-32.4-3.2l-20.2-13.5c-21.4-14.4-50.2-1-53.4,24.9l-3,24.3c-1.4,11.6-8.5,21.7-18.8,27l-21.4,10.9c-22.9,11.7-25.8,43.8-5.2,59.7l19.1,14.9c4.13,3.23,7.43,7.29,9.75,11.84-3.58,4.63-8.92,8.7-16.53,8.26-12.05-.67-26.46-8.22-38.56-20.2-2.19-2.17-5.73-2.16-7.9.04-2.18,2.19-2.16,5.73.04,7.91,14.19,14.05,30.88,22.59,45.8,23.41.58.04,1.15.05,1.72.05,7.83,0,14.17-3.02,19.11-7.31.24,2.04.29,4.11.17,6.2l-1.4,24.4c-1.5,26.1,24.4,44.8,48,34.8l21.01-8.94c-1.95,6.58-5.1,18.04-5.09,23.37.07,3.41,4.47,19.54,4.47,19.54.67,2.65-.05,4.11-2.27,4.63-6.16,1.47-19.59,4.67-19.97,9.46-.29,4.99,20.27,3.96,30,3.22,2.81-.2,5.01-2.72,4.91-5.62,0,0-5.12-23.68-6.09-29.72-.94-5.78,4.99-26.15,5.5-27.92.04-.01.09-.01.13-.02,3.1-.3,6.2-.1,9.3.5,3.4.76,5.79,1.58,7.68,2.44.5,7.26,1.43,18.21,2.8,22.95,1.01,3.26,9.59,15.79,9.59,15.79,2.02,3.78-.57,4.78-2.57,5.89-5.51,3.12-17.53,9.9-16.57,14.61,1.1,4.88,20.57-1.79,29.72-5.19,2.65-.96,4.06-3.99,3.17-6.76,0,0-9.7-20.4-12.3-25.93-1.16-2.44-2.1-8.46-2.8-14.42l13.88,9.32c20.76,13.97,48.48,1.78,53.04-22.6,16.42-6.2,29.52-16.05,36.46-27.54,7.05-11.68,4.09-23.78-1.02-32.76l8.12-4.1c22.9-11.7,25.8-43.8,5.4-59.7ZM179.89,127.34c.77-6.8,5.04-11.91,9.54-11.4,4.5.5,7.52,6.43,6.76,13.24-.77,6.8-5.04,11.91-9.54,11.4s-7.53-6.43-6.76-13.24ZM131.77,122.67c.77-6.81,5.03-11.92,9.53-11.41,4.51.51,7.53,6.44,6.77,13.24-.77,6.81-5.04,11.91-9.54,11.41-4.5-.51-7.53-6.44-6.76-13.24ZM204.26,173.49c-1.2,10.8-23.7,26.9-48.8,24-25.1-2.9-43.4-23.5-42.2-34.3,1.2-10.8,21.5-4.3,46.6-1.5,25.1,2.8,45.6,1,44.4,11.8ZM269.48,208.28c-4.8,7.95-13.87,15.24-25.22,20.49l1.7-13.78c1.4-11.6,8.5-21.7,18.8-27l3.26-1.64c.46.76.91,1.56,1.33,2.39,3.59,7.16,3.63,13.73.13,19.54Z"/>
  </g>
</svg>